<svg width="327" height="416" viewBox="0 0 327 416" fill="none" xmlns="http://www.w3.org/2000/svg">
<path d="M264.052 413.996H62.9609C71.6199 384.759 95.3669 361.134 126.168 350.39L129.603 304.04L132.67 262.71L134.214 241.937H192.8L194.344 262.71L197.411 304.03L200.856 350.39C231.657 361.134 255.394 384.759 264.053 413.996H264.052Z" fill="#FECE2F"/>
<path d="M264.052 415.995H62.9609C62.3299 415.995 61.7359 415.697 61.3579 415.192C60.9799 414.686 60.8639 414.032 61.0429 413.427C69.7049 384.18 93.2899 360.158 124.27 348.942L132.219 241.789C132.296 240.745 133.166 239.937 134.213 239.937H192.8C193.847 239.937 194.717 240.745 194.794 241.789L202.753 348.942C233.727 360.156 257.308 384.179 265.97 413.427C266.149 414.032 266.033 414.686 265.655 415.192C265.277 415.697 264.683 415.995 264.052 415.995V415.995ZM65.6839 411.995H261.329C252.312 384.756 229.648 362.551 200.196 352.278C199.444 352.016 198.92 351.332 198.861 350.538L190.942 243.937H136.07L128.162 350.538C128.103 351.332 127.579 352.016 126.827 352.278C97.3689 362.554 74.7009 384.758 65.6829 411.995H65.6839Z" fill="#1A1A1A"/>
<path d="M129.603 304.039C138.791 317.193 155.486 322.254 163.508 322.796C176.342 323.663 183.987 328.993 187.287 333.093C192.008 338.958 200.132 340.657 200.132 340.657L194.343 262.709L129.603 304.039Z" fill="#1A1A1A"/>
<path d="M200.132 342.658C199.995 342.658 199.859 342.644 199.723 342.616C199.363 342.541 190.839 340.698 185.729 334.348C184.123 332.352 177.762 325.764 163.374 324.792C154.214 324.173 137.224 318.44 127.964 305.185C127.652 304.738 127.535 304.184 127.642 303.649C127.748 303.114 128.069 302.647 128.528 302.354L193.268 261.023C193.862 260.644 194.609 260.605 195.24 260.92C195.871 261.235 196.287 261.858 196.339 262.56L202.128 340.509C202.175 341.135 201.924 341.747 201.451 342.161C201.084 342.483 200.614 342.657 200.134 342.657L200.132 342.658ZM132.49 304.569C141.155 315.484 155.648 320.261 163.642 320.801C179.653 321.883 186.98 329.524 188.843 331.84C191.484 335.119 195.364 336.973 197.921 337.906L192.596 266.197L132.49 304.569Z" fill="#1A1A1A"/>
<path d="M222.589 413.996H104.424C113.307 387.376 136.411 368.393 163.511 368.393C190.611 368.393 213.715 387.377 222.588 413.996H222.589Z" fill="white"/>
<path d="M222.589 415.995H104.425C103.782 415.995 103.178 415.686 102.802 415.164C102.426 414.643 102.324 413.972 102.528 413.362C111.903 385.268 136.411 366.392 163.512 366.392C190.613 366.392 215.12 385.268 224.487 413.363C224.69 413.973 224.588 414.643 224.212 415.165C223.837 415.686 223.233 415.996 222.59 415.996L222.589 415.995ZM107.258 411.995H219.757C210.327 386.995 188.042 370.392 163.512 370.392C138.982 370.392 116.697 386.997 107.258 411.995V411.995Z" fill="#1A1A1A"/>
<path d="M300.612 190.803C314.731 166.348 310.64 137.553 291.475 126.487C272.309 115.422 245.326 126.277 231.207 150.732C217.088 175.187 221.179 203.982 240.345 215.047C259.51 226.113 286.493 215.258 300.612 190.803Z" fill="#FECE2F"/>
<path d="M256.833 221.356C250.696 221.356 244.728 219.885 239.345 216.777C219.255 205.178 214.828 175.101 229.476 149.73C236.528 137.517 246.908 128.178 258.704 123.432C270.669 118.618 282.664 119.088 292.475 124.754C302.288 130.419 308.692 140.571 310.506 153.341C312.294 165.929 309.396 179.588 302.345 191.801C291.621 210.374 273.601 221.356 256.833 221.356V221.356ZM274.915 124.142C270.147 124.142 265.177 125.14 260.195 127.144C249.225 131.557 239.546 140.289 232.94 151.731C219.394 175.192 223.165 202.818 241.344 213.314C259.525 223.812 285.335 213.262 298.879 189.802C305.485 178.36 308.208 165.611 306.544 153.905C304.907 142.379 299.199 133.257 290.474 128.219C285.773 125.505 280.483 124.142 274.914 124.142H274.915Z" fill="#1A1A1A"/>
<path d="M86.6699 215.046C105.836 203.98 109.927 175.185 95.8074 150.73C81.6883 126.275 54.7056 115.421 35.5399 126.486C16.3742 137.551 12.2832 166.346 26.4024 190.801C40.5216 215.256 67.5042 226.111 86.6699 215.046Z" fill="#FECE2F"/>
<path d="M70.1189 221.397C64.8469 221.397 59.3699 220.301 53.8969 218.1C42.1009 213.354 31.7209 204.015 24.6689 191.802C10.0229 166.431 14.4499 136.354 34.5389 124.755C54.6309 113.154 82.8909 124.36 97.5389 149.731C104.59 161.944 107.488 175.603 105.7 188.191C103.886 200.96 97.4819 211.113 87.6689 216.778C82.3439 219.853 76.3749 221.397 70.1179 221.397H70.1189ZM28.1349 189.802C34.7399 201.244 44.4199 209.976 55.3909 214.389C66.1909 218.733 76.9459 218.352 85.6699 213.314C94.3959 208.276 100.104 199.154 101.74 187.628C103.404 175.921 100.681 163.172 94.0749 151.731C80.5319 128.271 54.7249 117.723 36.5399 128.219C18.3599 138.715 14.5899 166.341 28.1349 189.802V189.802Z" fill="#1A1A1A"/>
<path d="M42.6071 185.852C41.9551 185.852 41.3151 185.534 40.9311 184.947C34.2901 174.8 32.6961 161.399 36.7691 149.976C38.1521 146.099 39.9271 143.134 42.1961 140.911C45.1241 138.041 48.8641 136.527 52.4881 136.764C53.5901 136.835 54.4261 137.787 54.3541 138.889C54.2821 139.992 53.3421 140.83 52.2281 140.755C49.7831 140.596 47.0811 141.723 44.9951 143.768C43.1701 145.557 41.7111 148.027 40.5371 151.32C36.8751 161.589 38.3081 173.634 44.2791 182.757C44.8831 183.681 44.6251 184.921 43.7001 185.526C43.3631 185.747 42.9831 185.853 42.6071 185.853V185.852Z" fill="#1A1A1A"/>
<path d="M217.543 59.7877C217.543 59.7877 217.546 59.7877 217.547 59.7867C241.314 61.8937 259.22 47.9517 245.138 37.6757C234.872 30.1837 218.081 32.8427 196.872 42.9107C216.302 30.3157 217.891 9.65171 203.712 3.89771C181.725 -5.02429 136.794 17.2817 108.159 58.1437C108.159 58.1437 108.169 58.1457 108.171 58.1457C72.9619 79.6327 67.9629 123.935 67.9629 164.184C67.9629 219.885 103.994 267.43 163.508 267.43C223.022 267.43 259.053 219.885 259.053 164.184C259.053 124.937 249.927 81.8317 217.544 59.7887L217.543 59.7877Z" fill="#FECE2F"/>
<path d="M163.508 269.428C134.605 269.428 109.846 258.563 91.9099 238.008C75.1779 218.832 65.9629 192.613 65.9629 164.182C65.9629 123.468 70.8169 78.8884 106.749 56.6714C137.196 13.4434 182.634 -6.81661 204.464 2.04439C210.543 4.51139 214.386 9.66239 215.005 16.1774C215.645 22.9024 212.955 29.9824 207.692 36.1584C224.822 29.8744 237.785 29.8324 246.317 36.0594C253.147 41.0434 252.493 46.2424 251.496 48.8974C248.697 56.3454 237.152 61.5794 223.83 61.9694C254.433 86.7544 261.053 130.766 261.053 164.182C261.053 192.613 251.838 218.831 235.106 238.008C217.17 258.563 192.413 269.428 163.509 269.428H163.508ZM109.918 59.1184C109.755 59.4124 109.515 59.6674 109.213 59.8524C74.6259 80.9594 69.9629 124.436 69.9629 164.183C69.9629 214.496 102.095 265.429 163.508 265.429C224.921 265.429 257.052 214.496 257.052 164.183C257.052 129.931 250.002 84.3024 216.418 61.4414C215.831 61.0424 215.5 60.3624 215.548 59.6544C215.595 58.9464 216.014 58.3164 216.649 57.9994C216.78 57.9344 216.92 57.8824 217.062 57.8464C217.279 57.7924 217.505 57.7744 217.724 57.7944C232.854 59.1374 245.473 53.5504 247.75 47.4914C248.813 44.6614 247.538 41.9034 243.959 39.2914C234.859 32.6504 219.306 34.4754 197.73 44.7174C196.776 45.1704 195.639 44.8044 195.126 43.8854C194.612 42.9654 194.9 41.8044 195.784 41.2324C205.847 34.7094 211.828 25.0244 211.023 16.5564C210.543 11.5034 207.678 7.66539 202.96 5.75039C182.531 -2.53561 138.446 18.5244 109.918 59.1184V59.1184Z" fill="#1A1A1A"/>
<path d="M240.676 222.214C240.676 182.352 206.126 171.192 163.507 171.192C120.888 171.192 86.3379 182.352 86.3379 222.214C86.3379 262.076 120.888 315.545 163.507 315.545C206.126 315.545 240.676 262.076 240.676 222.214V222.214Z" fill="#FECE2F"/>
<path d="M163.508 317.545C143.246 317.545 123.302 306.001 107.35 285.039C92.9419 266.106 84.3389 242.62 84.3389 222.214C84.3389 202.935 92.2889 188.735 107.969 180.007C121.044 172.73 139.211 169.192 163.508 169.192C187.805 169.192 205.972 172.73 219.047 180.007C234.726 188.734 242.676 202.934 242.676 222.214C242.676 242.62 234.074 266.106 219.665 285.039C203.713 306.001 183.769 317.545 163.508 317.545V317.545ZM163.508 173.192C112.927 173.192 88.3389 189.227 88.3389 222.213C88.3389 241.482 96.8429 264.627 110.532 282.615C125.711 302.56 144.524 313.544 163.508 313.544C182.492 313.544 201.305 302.56 216.483 282.615C230.172 264.627 238.676 241.482 238.676 222.213C238.676 189.227 214.088 173.192 163.508 173.192Z" fill="#1A1A1A"/>
<path d="M189.284 294.285C188.967 294.285 188.644 294.209 188.345 294.049L163.625 280.858L139.758 294.036C138.79 294.568 137.574 294.219 137.04 293.252C136.506 292.285 136.857 291.068 137.824 290.534L162.641 276.832C163.233 276.504 163.952 276.499 164.549 276.818L190.227 290.52C191.202 291.04 191.57 292.252 191.05 293.226C190.69 293.901 189.998 294.285 189.283 294.285H189.284Z" fill="#1A1A1A"/>
<path d="M237 157.148C237 165.063 224.345 171.489 208.746 171.489C193.147 171.489 180.504 165.064 180.504 157.148C180.504 149.232 193.147 142.807 208.746 142.807C224.345 142.807 237 149.232 237 157.148Z" fill="white"/>
<path d="M208.746 173.489C191.788 173.489 178.505 166.311 178.505 157.148C178.505 147.985 191.788 140.808 208.746 140.808C225.704 140.808 239 147.986 239 157.148C239 166.31 225.711 173.489 208.746 173.489V173.489ZM208.746 144.808C194.521 144.808 182.505 150.459 182.505 157.148C182.505 163.837 194.522 169.489 208.746 169.489C222.97 169.489 235 163.838 235 157.148C235 150.458 222.978 144.808 208.746 144.808V144.808Z" fill="#1A1A1A"/>
<path d="M210.443 164.954C214.755 164.954 218.25 161.459 218.25 157.147C218.25 152.835 214.755 149.34 210.443 149.34C206.131 149.34 202.636 152.835 202.636 157.147C202.636 161.459 206.131 164.954 210.443 164.954Z" fill="#1A1A1A"/>
<path d="M210.443 166.954C205.035 166.954 200.635 162.555 200.635 157.147C200.635 151.739 205.034 147.34 210.443 147.34C215.852 147.34 220.25 151.739 220.25 157.147C220.25 162.555 215.851 166.954 210.443 166.954ZM210.443 151.34C207.241 151.34 204.635 153.945 204.635 157.147C204.635 160.349 207.24 162.954 210.443 162.954C213.646 162.954 216.25 160.349 216.25 157.147C216.25 153.945 213.646 151.34 210.443 151.34Z" fill="#1A1A1A"/>
<path d="M237 157.148H180.504C180.504 149.233 193.147 142.807 208.746 142.807C224.345 142.807 237 149.232 237 157.148V157.148Z" fill="#FECE2F"/>
<path d="M237 159.148H180.505C179.401 159.148 178.505 158.252 178.505 157.148C178.505 147.985 191.788 140.808 208.746 140.808C225.704 140.808 239 147.986 239 157.148C239 158.252 238.104 159.148 237 159.148V159.148ZM182.866 155.148H234.638C232.535 149.37 221.532 144.808 208.745 144.808C195.958 144.808 184.966 149.37 182.865 155.148H182.866Z" fill="#1A1A1A"/>
<path d="M118.266 171.489C133.87 171.489 146.52 165.068 146.52 157.148C146.52 149.227 133.87 142.807 118.266 142.807C102.662 142.807 90.012 149.227 90.012 157.148C90.012 165.068 102.662 171.489 118.266 171.489Z" fill="white"/>
<path d="M118.267 173.489C101.301 173.489 88.012 166.311 88.012 157.148C88.012 147.985 101.301 140.808 118.267 140.808C135.233 140.808 148.521 147.986 148.521 157.148C148.521 166.31 135.232 173.489 118.267 173.489V173.489ZM118.267 144.808C104.036 144.808 92.012 150.459 92.012 157.148C92.012 163.837 104.035 169.489 118.267 169.489C132.499 169.489 144.521 163.838 144.521 157.148C144.521 150.458 132.499 144.808 118.267 144.808V144.808Z" fill="#1A1A1A"/>
<path d="M123.848 164.954C128.16 164.954 131.655 161.459 131.655 157.147C131.655 152.835 128.16 149.34 123.848 149.34C119.536 149.34 116.041 152.835 116.041 157.147C116.041 161.459 119.536 164.954 123.848 164.954Z" fill="#1A1A1A"/>
<path d="M123.848 166.954C118.441 166.954 114.041 162.555 114.041 157.147C114.041 151.739 118.44 147.34 123.848 147.34C129.256 147.34 133.656 151.739 133.656 157.147C133.656 162.555 129.257 166.954 123.848 166.954V166.954ZM123.848 151.34C120.646 151.34 118.041 153.945 118.041 157.147C118.041 160.349 120.645 162.954 123.848 162.954C127.051 162.954 129.656 160.349 129.656 157.147C129.656 153.945 127.051 151.34 123.848 151.34V151.34Z" fill="#1A1A1A"/>
<path d="M146.52 157.148H90.012C90.012 149.233 102.667 142.807 118.266 142.807C133.865 142.807 146.52 149.232 146.52 157.148Z" fill="#FECE2F"/>
<path d="M146.521 159.148H90.012C88.908 159.148 88.012 158.252 88.012 157.148C88.012 147.985 101.301 140.808 118.267 140.808C135.233 140.808 148.521 147.986 148.521 157.148C148.521 158.252 147.625 159.148 146.521 159.148ZM92.374 155.148H144.16C142.057 149.37 131.054 144.808 118.267 144.808C105.48 144.808 94.476 149.37 92.373 155.148H92.374Z" fill="#1A1A1A"/>
<path d="M200.525 180.222C200.525 168.343 183.952 165.017 163.507 165.017C143.062 165.017 126.489 168.343 126.489 180.222C126.489 192.101 143.062 208.036 163.507 208.036C183.952 208.036 200.525 192.102 200.525 180.222Z" fill="#FECE2F"/>
<path d="M163.508 210.036C142.495 210.036 124.49 193.642 124.49 180.222C124.49 168.645 137.253 163.017 163.508 163.017C189.763 163.017 202.526 168.645 202.526 180.222C202.526 193.642 184.521 210.036 163.508 210.036V210.036ZM163.508 167.017C140.272 167.017 128.49 171.46 128.49 180.222C128.49 190.376 143.527 206.036 163.508 206.036C183.489 206.036 198.526 190.376 198.526 180.222C198.526 171.46 186.745 167.017 163.508 167.017Z" fill="#1A1A1A"/>
<path d="M163.508 280.582C162.404 280.582 161.508 279.686 161.508 278.582V165.017C161.508 163.913 162.404 163.017 163.508 163.017C164.612 163.017 165.508 163.913 165.508 165.017V278.582C165.508 279.686 164.612 280.582 163.508 280.582Z" fill="#1A1A1A"/>
<path d="M144.409 191.624C147.269 191.624 149.587 188.129 149.587 183.818C149.587 179.506 147.269 176.01 144.409 176.01C141.549 176.01 139.231 179.506 139.231 183.818C139.231 188.129 141.549 191.624 144.409 191.624Z" fill="#1A1A1A"/>
<path d="M144.408 193.625C140.384 193.625 137.23 189.317 137.23 183.818C137.23 178.319 140.383 174.01 144.408 174.01C148.433 174.01 151.587 178.318 151.587 183.818C151.587 189.318 148.434 193.625 144.408 193.625ZM144.408 178.01C142.908 178.01 141.23 180.494 141.23 183.818C141.23 187.142 142.908 189.625 144.408 189.625C145.908 189.625 147.587 187.142 147.587 183.818C147.587 180.494 145.909 178.01 144.408 178.01Z" fill="#1A1A1A"/>
<path d="M183.875 191.624C186.735 191.624 189.053 188.129 189.053 183.818C189.053 179.506 186.735 176.01 183.875 176.01C181.015 176.01 178.697 179.506 178.697 183.818C178.697 188.129 181.015 191.624 183.875 191.624Z" fill="#1A1A1A"/>
<path d="M183.875 193.625C179.851 193.625 176.697 189.317 176.697 183.818C176.697 178.319 179.85 174.01 183.875 174.01C187.9 174.01 191.054 178.318 191.054 183.818C191.054 189.318 187.901 193.625 183.875 193.625ZM183.875 178.01C182.375 178.01 180.697 180.494 180.697 183.818C180.697 187.142 182.375 189.625 183.875 189.625C185.375 189.625 187.054 187.142 187.054 183.818C187.054 180.494 185.376 178.01 183.875 178.01Z" fill="#1A1A1A"/>
<path d="M125.285 362.996C125.229 362.996 125.174 362.994 125.117 362.989C124.016 362.897 123.198 361.93 123.29 360.829L124.175 350.223C124.267 349.122 125.222 348.31 126.334 348.396C127.435 348.488 128.253 349.455 128.161 350.556L127.276 361.162C127.189 362.206 126.314 362.995 125.285 362.995V362.996Z" fill="#1A1A1A"/>
<path d="M201.885 364.195C200.859 364.195 199.986 363.411 199.895 362.37L198.864 350.564C198.767 349.464 199.582 348.493 200.682 348.397C201.786 348.295 202.752 349.116 202.848 350.216L203.879 362.022C203.976 363.122 203.161 364.091 202.061 364.187C202.002 364.192 201.943 364.195 201.885 364.195V364.195Z" fill="#1A1A1A"/>
</svg>
