<svg width="103" height="126" viewBox="0 0 103 126" fill="none" xmlns="http://www.w3.org/2000/svg">
<path fill-rule="evenodd" clip-rule="evenodd" d="M36.4004 0.674775C32.6694 1.58478 32.8969 3.08628 36.9009 3.85978C45.2274 5.45228 49.0039 10.6849 61.7439 31.4783C67.9774 41.6248 75.1209 48.1313 84.6759 52.4538C101.374 59.9613 96.0054 77.7058 73.3919 89.8088C64.2009 94.7228 56.8754 100.411 47.6844 109.738C34.5804 123.07 27.9829 124.935 16.8354 118.292C3.00349 110.057 2.09367 95.6788 13.3778 62.0088C13.5598 61.3263 17.7909 50.3608 17.7454 35.5733C17.6544 14.0064 19.7474 6.58968 27.4369 2.85868C30.3034 1.44818 30.4399 1.084 28.4834 0.401502C23.1144 -1.464 17.3818 3.3135 14.7429 11.7765C12.0583 20.4213 12.0579 20.5583 11.9669 35.1638C11.9214 50.8158 11.8763 50.9523 7.46285 62.6913C-6.09633 98.5908 -1.27334 117.746 22.7053 123.934C34.9448 127.073 39.6313 124.89 58.6503 107.372C62.6088 103.732 66.6579 100.638 72.6639 96.6338C87.5879 86.6693 89.2264 85.4863 92.0929 82.7563C106.289 69.1063 105.879 59.1423 90.6364 50.9523C77.1229 43.6723 71.5719 34.3448 58.9229 15.8262C51.2334 4.54218 42.4519 -0.781225 36.4004 0.674775Z" fill="#353535"/>
</svg>
