<svg width="246" height="164" viewBox="0 0 246 164" fill="none" xmlns="http://www.w3.org/2000/svg">
<path d="M131.154 160.285L217.542 34.6569C217.542 34.6569 151.817 45.1259 94.3078 72.794C34.5579 101.708 13.1475 135.608 13.1475 135.608L15.8861 161.282L131.154 160.285Z" fill="#FECE2F"/>
<path d="M16.1353 163.775L131.154 163.027C131.901 163.027 132.897 162.528 133.145 161.781L219.783 36.1525C220.281 35.4047 220.281 34.1584 219.783 33.4106C219.285 32.4135 218.289 32.1643 217.293 32.1643C216.546 32.1643 150.573 42.8826 93.5612 70.3014C33.8113 99.2158 12.1519 132.617 11.4051 133.863C11.1561 134.362 10.9072 134.86 10.9072 135.608L13.6457 161.282C13.6457 162.778 14.8905 163.775 16.1353 163.775ZM129.909 157.792L18.3759 158.54L15.8863 136.107C19.3717 131.121 41.7779 100.961 95.5528 75.0374C141.859 52.6038 194.389 41.6362 211.816 38.3958L129.909 157.792Z" fill="#1A1A1A"/>
<path d="M217.542 34.6569C217.542 34.6569 258.62 21.1967 237.459 5.24395C217.044 -10.2103 217.542 34.6569 217.542 34.6569Z" fill="#1A1A1A"/>
<path d="M217.542 36.651C217.791 36.651 218.04 36.651 218.04 36.651C218.289 36.651 224.264 34.6569 230.488 31.1672C239.201 26.4312 244.181 21.446 245.176 16.2115C245.923 11.7248 243.683 7.4873 238.455 3.74837C233.724 0.00942956 229.492 -0.987619 225.758 1.00648C215.55 6.24099 215.55 31.915 215.55 34.6569C215.55 35.4047 215.799 35.9032 216.297 36.1525C216.795 36.651 217.044 36.651 217.542 36.651ZM229.741 3.99763C231.484 3.99763 233.724 4.99468 236.214 6.73951C240.197 9.73066 241.94 12.7218 241.442 15.713C240.197 22.6923 227.002 29.1731 219.534 31.915C219.534 29.1731 219.783 25.1849 220.53 20.6982C221.774 11.974 224.264 5.99173 227.5 4.49615C228.247 4.24689 228.994 3.99763 229.741 3.99763Z" fill="#1A1A1A"/>
<path d="M91.1463 100.329C88.1154 94.6142 96.6841 84.1197 110.285 76.8884C123.886 69.6573 137.369 68.4277 140.399 74.1423C143.43 79.8566 134.861 90.3513 121.26 97.5824C107.66 104.813 94.1771 106.043 91.1463 100.329Z" fill="white"/>
<path d="M100.034 106.694C100.78 106.694 101.776 106.694 102.523 106.694C108.498 106.195 115.718 103.952 122.44 100.213C135.386 93.2335 147.087 81.5182 142.605 73.2925C138.124 65.0669 121.942 68.058 108.996 74.7881C102.025 78.527 96.2992 83.0138 92.3158 87.7497C88.0835 92.9843 86.8388 97.9695 88.8304 101.708C90.5731 104.949 94.5564 106.694 100.034 106.694ZM131.651 73.0433C135.137 73.0433 137.377 73.7911 138.124 75.2866C139.867 78.7763 133.892 87.999 120.199 95.2276C113.975 98.468 107.502 100.711 102.025 101.21C97.544 101.708 94.3075 100.711 93.3117 98.9665C92.3158 97.2217 93.5606 93.9813 96.2992 90.4916C99.7846 86.2542 105.013 82.266 111.237 78.7763C119.452 74.7881 126.672 73.0433 131.651 73.0433Z" fill="#1A1A1A"/>
<path d="M106.755 78.7763C107.751 78.0285 108.996 77.53 110.241 76.7822C123.933 69.5536 137.377 68.3073 140.365 74.0403C141.112 75.5359 141.112 77.53 140.365 79.7734C136.381 82.5152 130.655 84.2601 124.182 84.2601C117.212 84.2601 110.988 82.266 106.755 78.7763Z" fill="#1A1A1A"/>
<path d="M124.431 86.2542C130.904 86.2542 137.128 84.5093 141.609 81.5182C141.858 81.2689 142.107 81.0197 142.356 80.5211C143.352 77.7793 143.352 75.2866 142.107 73.2925C138.373 66.3132 124.182 67.061 109.245 75.0374C108 75.5359 107.004 76.2837 105.76 77.0315C105.262 77.2807 104.764 78.0285 104.764 78.527C104.764 79.2748 105.013 79.7734 105.511 80.2719C110.241 84.0108 116.963 86.2542 124.431 86.2542ZM138.871 78.527C134.888 81.0197 129.908 82.266 124.431 82.266C119.203 82.266 114.473 81.0197 110.739 79.0256C110.988 79.0256 111.237 78.7763 111.486 78.7763C124.929 71.5477 136.879 71.2984 138.871 75.2866C139.12 76.0344 139.12 77.2807 138.871 78.527Z" fill="#1A1A1A"/>
<path d="M53.7275 96.7232C53.7275 96.7232 31.5703 50.3604 15.637 65.3161C-25.69 103.204 53.7275 96.7232 53.7275 96.7232Z" fill="#FECE2F"/>
<path d="M41.2798 99.7143C47.5038 99.7143 52.4829 99.465 53.9767 99.2158C54.7236 99.2158 55.4704 98.7173 55.9684 97.9695C56.4663 97.2217 56.4663 96.2246 55.9684 95.4768C55.7194 95.2276 51.985 87.2512 46.508 79.0255C38.7903 67.5595 31.5705 61.0787 24.8486 59.8323C20.8653 59.0846 16.882 60.3309 13.6455 63.322C2.94032 73.2925 -1.04301 81.2689 1.94448 87.7497C6.42572 97.9695 27.3382 99.7143 41.2798 99.7143ZM49.7444 94.2305C33.5621 94.9783 10.1601 93.4827 6.67469 85.5064C4.93198 81.5182 8.4174 75.0373 17.3799 67.061C19.3715 65.0669 21.6122 64.5683 24.1017 65.0669C33.3132 66.8117 44.5163 84.5093 49.7444 94.2305Z" fill="#1A1A1A"/>
<path d="M17.6285 89.9931C18.6243 89.9931 19.6202 89.2453 20.1181 88.2483L26.0931 71.797C26.591 70.5506 25.8441 69.0551 24.5993 68.5565C23.3545 68.058 21.8608 68.8058 21.3629 70.0521L15.3879 86.5034C14.8899 87.7497 15.6368 89.2453 16.8816 89.7438C16.8816 89.9931 17.3795 89.9931 17.6285 89.9931Z" fill="#1A1A1A"/>
<path d="M37.5453 89.9931C38.2922 89.9931 39.288 89.4946 39.7859 88.7468C40.5328 87.5005 40.2838 86.0049 39.0391 85.2571L23.6037 75.2867C22.3589 74.5389 20.8651 74.7881 20.1183 76.0344C19.3714 77.2808 19.6204 78.7763 20.8651 79.5241L36.3005 89.4946C36.5495 89.9931 37.0474 89.9931 37.5453 89.9931Z" fill="#1A1A1A"/>
<path d="M137.377 115.169C142.605 123.145 140.614 133.863 132.647 139.347C124.681 144.831 113.975 142.837 108.498 134.86L137.377 115.169Z" fill="white"/>
<path d="M122.938 144.831C126.921 144.831 130.656 143.834 134.141 141.341C143.104 135.11 145.593 122.646 139.618 113.673C139.12 113.174 138.622 112.676 137.876 112.676C137.129 112.427 136.382 112.676 135.884 113.174L107.005 132.866C106.507 133.365 106.009 133.863 106.009 134.611C105.76 135.359 106.009 136.107 106.507 136.605C110.241 141.84 116.465 144.831 122.938 144.831ZM136.631 118.908C139.369 125.388 137.378 133.115 131.403 137.104C125.428 141.092 117.461 140.344 112.482 135.359L136.631 118.908Z" fill="#1A1A1A"/>
<path d="M43.2714 104.949C28.334 119.905 11.6538 160.534 70.9058 161.282H16.135C13.3965 159.288 13.3965 135.608 13.3965 135.608L43.2714 104.949Z" fill="#1A1A1A"/>
<path d="M70.9059 163.775C72.3997 163.775 73.3955 162.528 73.3955 161.282C73.3955 159.787 72.1507 158.79 70.9059 158.79C50.2424 158.54 37.0477 153.306 33.0643 143.335C28.3341 131.62 36.7987 115.418 44.7654 107.441L45.2633 106.943C46.2591 105.946 46.2591 104.201 45.2633 103.204C44.2674 102.207 42.5247 102.207 41.5289 103.204C41.2799 103.453 41.2799 103.453 41.031 103.703L11.405 133.614C10.9071 134.113 10.6581 134.86 10.6581 135.359C10.6581 160.285 13.6456 162.528 14.6414 163.276C15.1394 163.525 15.6373 163.775 16.1352 163.775H70.9059ZM28.832 123.394C26.3425 130.623 25.3466 138.35 28.3341 145.08C30.8237 150.813 35.305 155.3 42.0268 158.54H17.8779C16.8821 155.3 16.1352 145.329 16.1352 136.605L28.832 123.394Z" fill="#1A1A1A"/>
</svg>
