<svg width="251" height="187" viewBox="0 0 251 187" fill="none" xmlns="http://www.w3.org/2000/svg">
<g clip-path="url(#clip0_241_995)">
<path d="M235.168 74.2992C229.597 68.8994 20.2557 114.319 17.4232 121.542C13.5568 131.401 50.8955 155.054 94.1118 163.485C105.532 165.713 121.687 165.488 140.087 161.496C158.487 157.504 173.295 151.008 182.757 144.252C218.779 118.539 242.723 81.6219 235.168 74.2992Z" fill="#FECE2F"/>
<path d="M187.887 140.382C184.345 142.84 171.638 154.647 140.088 161.497C130.778 163.569 121.284 164.705 111.747 164.888C115.565 163.384 119.839 160.585 124.477 155.688C134.659 144.932 140.113 154.033 153.102 152.374C161.085 151.362 167.801 150.167 180.557 136.161C191.168 124.512 197.196 133.921 187.887 140.382Z" fill="white"/>
<path d="M232.857 90.144C227.287 101.054 218.753 110.155 208.241 116.397C171.062 138.682 109.315 152.836 64.1576 149.653C50.4319 148.685 37.217 143.814 26.4037 135.26C19.5624 129.852 16.1041 124.899 17.4195 121.543C20.1218 114.655 210.516 73.0545 233.095 73.8633C234.697 75.7929 235.816 78.0781 236.359 80.5283C236.224 81.0198 235.963 83.9962 232.857 90.144Z" fill="#353535"/>
<path d="M135.369 144.124C110.812 149.452 85.5781 151.872 64.1098 150.359C49.9231 149.359 36.7323 144.33 25.9661 135.816C18.524 129.931 15.3423 124.905 16.7648 121.282C17.0913 120.45 17.8554 118.503 48.9069 110.388C66.7631 105.722 91.1779 99.9462 117.653 94.1258C164.942 83.7291 221.25 72.7311 233.12 73.1559C233.221 73.1595 233.32 73.1847 233.41 73.2298C233.501 73.275 233.58 73.339 233.644 73.4175C235.316 75.4341 236.484 77.8217 237.051 80.3815C237.074 80.4932 237.071 80.6089 237.04 80.7188C237.025 80.7703 237.011 80.8589 236.988 80.9817C236.8 81.9832 236.231 85.0308 233.486 90.4649C227.861 101.497 219.234 110.698 208.605 117.004C189.102 128.695 162.654 138.204 135.369 144.124ZM125.164 93.9342C122.937 94.4173 120.726 94.8998 118.532 95.3817C92.187 101.168 67.812 106.925 49.8969 111.593C21.5801 118.97 18.3785 121.284 18.0705 121.818C16.9398 124.7 20.1327 129.403 26.838 134.705C37.3817 143.042 50.3017 147.967 64.2065 148.947C109.277 152.124 171.042 137.87 207.879 115.789C218.28 109.62 226.723 100.617 232.227 89.8234L232.857 90.1441L232.227 89.8234C234.881 84.5696 235.423 81.6707 235.601 80.7181C235.615 80.6455 235.628 80.5816 235.639 80.5261C235.131 78.3471 234.145 76.3091 232.751 74.5615C220.971 74.3564 170.2 84.1629 125.164 93.9342Z" fill="#353535"/>
<path d="M140.238 162.189C130.882 164.274 121.341 165.415 111.756 165.596C105.799 165.728 99.8433 165.254 93.9801 164.179C77.1474 160.861 60.8182 155.34 45.411 147.759C36.0828 143.101 28.4066 138.17 23.2116 133.5C17.7741 128.612 15.5457 124.387 16.7649 121.283C17.0914 120.451 17.8555 118.504 48.907 110.389C66.7632 105.723 91.178 99.9471 117.653 94.1267C164.943 83.73 221.25 72.732 233.121 73.1568C234.494 73.2056 235.253 73.3952 235.658 73.7921C237.115 75.2026 237.586 77.5126 237.056 80.654C235.983 87.0419 230.721 96.7066 222.617 107.165C213.476 118.972 201.474 130.855 188.822 140.624L188.809 140.634C188.796 140.645 188.783 140.656 188.768 140.667C186.974 142.056 185.088 143.457 183.163 144.829C172.731 152.279 157.486 158.444 140.238 162.189ZM125.163 93.9342C122.937 94.4173 120.726 94.8998 118.532 95.3817C92.187 101.168 67.812 106.925 49.8968 111.593C21.58 118.97 18.3784 121.284 18.0704 121.818C16.0367 127 27.7967 137.383 46.0375 146.492C61.3308 154.017 77.5392 159.497 94.2472 162.79C100.016 163.846 105.876 164.312 111.737 164.181C121.227 164.001 130.674 162.871 139.938 160.805C157.004 157.103 172.064 151.017 182.345 143.676C184.244 142.32 186.104 140.939 187.874 139.57C187.909 139.537 187.947 139.508 187.987 139.481C200.538 129.786 212.439 118.001 221.502 106.295C229.468 96.0127 234.63 86.5804 235.666 80.4154C236.113 77.7627 235.78 75.8756 234.676 74.8067C233.572 73.7377 234.395 74.6176 233.072 74.5709C221.929 74.1713 170.625 84.0707 125.163 93.9342Z" fill="#353535"/>
<path d="M236.15 75.4825C236.57 77.4613 236.596 79.5036 236.226 81.4912C233.095 99.0603 201.8 119.398 158.519 132.414C151.037 134.665 143.202 136.695 135.09 138.455C74.5771 151.584 21.7169 144.676 17.0196 123.026C12.3224 101.376 57.5679 73.1875 118.081 60.0584C144.022 54.4301 168.558 52.4822 188.495 53.8005C211.81 55.3438 228.837 61.352 234.47 71.1572C235.25 72.5029 235.817 73.9622 236.15 75.4825Z" fill="white"/>
<path d="M135.24 139.147C105.897 145.513 77.4128 147.409 55.0343 144.484C32.4161 141.528 18.6707 133.96 16.3307 123.175C13.9907 112.39 23.3643 99.8072 42.7239 87.7444C61.8777 75.8103 88.5863 65.7318 117.93 59.3652C143.216 53.8793 167.631 51.7102 188.539 53.0925C212.918 54.7077 229.446 60.9961 235.08 70.803C235.897 72.2128 236.49 73.741 236.839 75.3329C237.278 77.4025 237.306 79.5382 236.92 81.6172C235.353 90.411 227.017 99.9675 212.815 109.253C198.784 118.426 180.079 126.669 158.723 133.092C151.127 135.377 143.226 137.414 135.24 139.147ZM118.231 60.7486C89.0403 67.0818 62.4895 77.0962 43.4692 88.9472C24.6539 100.67 15.5052 112.72 17.7088 122.876C19.9123 133.032 33.2321 140.208 55.2142 143.081C77.4368 145.985 105.751 144.097 134.94 137.764C142.89 136.039 150.755 134.011 158.316 131.737C201.444 118.765 232.477 98.5228 235.531 81.3656C235.885 79.4689 235.86 77.5203 235.461 75.6319C235.143 74.1831 234.603 72.7923 233.859 71.5092C228.546 62.2608 211.995 56.0635 188.449 54.5051C167.967 53.1506 143.029 55.3682 118.231 60.7486Z" fill="#353535"/>
<path d="M231.726 76.4421C231.771 76.6464 231.81 76.8471 231.836 77.0552C231.921 77.6227 231.957 78.1964 231.944 78.7699L231.945 78.7741C231.792 86.6924 222.971 96.7748 207.68 106.303C193.14 115.362 174.071 123.34 152.742 129.372C152.727 129.379 152.711 129.383 152.694 129.386C148.022 130.712 143.235 131.941 138.366 133.062C136.96 133.391 135.547 133.708 134.127 134.015C123.342 136.363 112.435 138.114 101.457 139.262C85.9375 140.867 70.1052 141.154 55.7021 139.277C41.2556 137.39 30.5103 133.418 25.1204 128.192C25.1034 128.179 25.0877 128.163 25.0734 128.147C13.2198 116.611 31.4916 100.927 45.4901 92.2093C66.7668 78.9551 94.5578 69.8108 119.044 64.4981C122.808 63.6814 126.552 62.9406 130.274 62.2754C149.417 58.8464 167.842 57.4205 183.977 58.1039C188.686 58.3006 193.192 58.6757 197.468 59.2355C198.355 59.3503 199.229 59.4752 200.092 59.6102C218.275 62.3867 230.026 68.6053 231.726 76.4421Z" fill="#353535"/>
<path d="M134.277 134.707C123.467 137.063 112.535 138.819 101.53 139.966C84.5057 141.729 69.0565 141.731 55.6128 139.979C41.1925 138.096 30.1895 134.09 24.6307 128.699C24.6075 128.679 24.5856 128.658 24.565 128.635C21.5472 125.691 20.2201 122.29 20.6202 118.528C21.8191 107.254 38.1516 95.9457 45.1177 91.6068C70.3964 75.8597 102.191 67.4294 118.894 63.8054C122.687 62.9825 126.474 62.2328 130.15 61.5772C149.243 58.159 167.866 56.7122 184.006 57.3961C188.756 57.5947 193.319 57.9766 197.559 58.5327C198.399 58.64 199.262 58.7648 200.199 58.9097C218.895 61.7659 230.639 68.1016 232.416 76.2926C232.464 76.5167 232.506 76.7374 232.536 76.9661C232.624 77.5578 232.662 78.1556 232.65 78.7535C232.653 78.7654 232.651 78.7774 232.651 78.7895C232.492 87.0153 223.528 97.2629 208.053 106.905C193.524 115.957 174.476 123.958 152.972 130.043C152.93 130.058 152.888 130.07 152.845 130.078C148.201 131.397 143.369 132.637 138.525 133.753C137.186 134.065 135.796 134.378 134.277 134.707ZM25.5874 127.661L25.6097 127.682C30.9521 132.863 41.6714 136.732 55.7926 138.576C69.128 140.314 84.4669 140.308 101.384 138.558C112.337 137.417 123.218 135.669 133.977 133.324C135.489 132.996 136.872 132.685 138.206 132.373C143.028 131.262 147.838 130.029 152.502 128.706L152.506 128.705C152.521 128.702 152.535 128.695 152.551 128.691C173.947 122.64 192.882 114.691 207.309 105.702C222.35 96.3296 231.068 86.5235 231.241 78.7908C231.24 78.7783 231.241 78.7662 231.24 78.7541C231.252 78.2207 231.219 77.6872 231.14 77.1594C231.114 76.956 231.078 76.7754 231.039 76.5914C229.417 69.1179 217.81 63.0308 199.988 60.3087C199.061 60.1651 198.209 60.0434 197.38 59.9364C193.178 59.3857 188.66 59.0068 183.95 58.8099C167.91 58.1308 149.393 59.5696 130.4 62.9715C126.741 63.6238 122.97 64.3705 119.193 65.19C102.579 68.7946 70.9605 77.1762 45.8618 92.8108C39.0711 97.0402 23.1543 108.027 22.0215 118.681C21.6684 121.993 22.8605 125.009 25.5627 127.638C25.5737 127.645 25.5798 127.653 25.5874 127.661ZM152.431 128.737L152.428 128.737L152.431 128.737Z" fill="#353535"/>
<path d="M84.1425 128.835C84.1697 129.131 84.1933 129.433 84.2091 129.741L76.3783 137.791L75.805 140.571C65.9529 140.5 52.5483 139.596 41.3783 136.441L41.3773 136.436C34.786 134.575 28.9678 131.923 25.1204 128.192C25.1034 128.178 25.0877 128.162 25.0735 128.146C20.9972 123.81 18.7272 118.3 20.6665 112.593C23.5413 104.136 21.7551 101.004 18.0007 94.7798C10.5396 82.4182 22.3224 68.8247 36.0124 81.4195C41.1918 86.1863 46.8452 84.727 52.0304 84.2065C57.9682 83.6106 63.2874 84.2421 66.5777 96.8244C68.8863 105.649 72.7526 110.385 76.2796 114.366C77.7576 116.035 79.174 117.569 80.3935 119.219C82.5445 121.994 83.847 125.334 84.1425 128.835Z" fill="white"/>
<path d="M81.8334 129.965C82.0029 134.737 79.9109 137.609 76.7151 139.25C62.9278 139.359 38.6712 137.708 28.8126 128.145C28.7977 128.133 28.7838 128.12 28.7709 128.106C25.1164 124.215 23.0801 119.272 24.8177 114.155C27.3968 106.569 26.6788 103.568 23.3118 97.9849C16.6188 86.8959 24.1097 75.9665 38.3337 87.1761C48.9615 95.5515 60.4671 78.8575 65.9997 100.01C70.4585 117.045 81.3767 117.1 81.8334 129.965Z" fill="#FECE2F"/>
<path d="M84.1424 128.835C84.184 129.282 84.2146 129.744 84.2298 130.22C84.4216 135.538 82.0866 138.742 78.5237 140.57C68.5328 140.65 53.6138 139.898 41.378 136.44L41.377 136.435C53.7567 138.998 70.6712 137.657 74.6371 128.015C79.8141 128.463 82.6225 128.704 84.1424 128.835Z" fill="#353535"/>
<path d="M78.6731 141.26C78.626 141.27 78.578 141.275 78.5299 141.276C70.3092 141.342 54.5275 140.889 41.1874 137.119C41.0051 137.074 40.8477 136.959 40.7498 136.799C40.6519 136.638 40.6215 136.445 40.6654 136.262C40.7092 136.08 40.8236 135.922 40.9835 135.824C41.1434 135.726 41.3356 135.696 41.5178 135.74C54.5528 138.439 70.361 136.553 73.9841 127.742C74.0412 127.603 74.141 127.486 74.269 127.408C74.397 127.329 74.5466 127.294 74.696 127.307C79.6872 127.74 82.4765 127.979 84.0317 128.113L84.2008 128.128C84.3658 128.142 84.5206 128.214 84.6382 128.331C84.7557 128.448 84.8286 128.603 84.8439 128.768C84.8888 129.255 84.9194 129.735 84.9341 130.197C85.1182 135.329 83.0698 139.032 78.8447 141.199C78.7904 141.227 78.7327 141.247 78.6731 141.26ZM53.6201 138.27C61.8132 139.411 70.0782 139.944 78.3475 139.863C81.9937 137.934 83.6876 134.785 83.5231 130.243C83.5151 129.995 83.5022 129.743 83.4852 129.487C81.9236 129.353 79.3421 129.131 75.0783 128.761C71.8755 135.685 62.6759 138.118 53.6201 138.27Z" fill="#353535"/>
<path d="M84.2593 138.148C84.1486 138.172 84.0337 138.169 83.9244 138.138C69.0724 134.05 56.0819 123.777 47.799 115.879C38.3289 106.848 29.8819 96.0516 25.2094 87.0037C25.1667 86.921 25.1407 86.8307 25.1328 86.738C25.1248 86.6453 25.1352 86.5519 25.1632 86.4633C25.1913 86.3746 25.2365 86.2924 25.2962 86.2213C25.3559 86.1503 25.429 86.0917 25.5114 86.049C25.5937 86.0063 25.6836 85.9803 25.776 85.9726C25.8684 85.9648 25.9614 85.9753 26.0498 86.0036C26.1382 86.0319 26.2202 86.0773 26.2911 86.1374C26.3621 86.1974 26.4205 86.2709 26.4632 86.3536C34.8401 102.573 59.013 129.814 84.2986 136.773C84.451 136.815 84.5849 136.907 84.6791 137.034C84.7733 137.161 84.8222 137.317 84.818 137.475C84.8139 137.633 84.7569 137.786 84.6561 137.908C84.5554 138.03 84.4168 138.114 84.2625 138.147L84.2593 138.148Z" fill="#353535"/>
<path d="M78.6731 141.26C78.6261 141.27 78.5781 141.275 78.5299 141.276C66.3237 141.375 36.6365 140.343 24.6303 128.699C24.6017 128.674 24.575 128.648 24.5506 128.619C19.7809 123.535 18.1643 117.762 19.998 112.363C22.804 104.109 20.9967 101.113 17.3968 95.1439C13.1716 88.1421 14.9831 81.1749 18.9555 77.9066C22.6022 74.9088 29.1226 74.1199 36.4867 80.8959C40.7804 84.8482 45.4567 84.2792 49.9822 83.7285C56.6048 82.9232 63.4526 82.0898 67.2596 96.6459C69.6858 105.913 73.8527 110.587 77.5281 114.711C81.3595 119.009 84.6686 122.722 84.9339 130.196C85.1182 135.331 83.0697 139.033 78.8446 141.201C78.7903 141.228 78.7326 141.248 78.6731 141.26ZM25.5871 127.661L25.6094 127.682C37.4965 139.21 68.7555 139.929 78.3476 139.863C81.9937 137.934 83.6877 134.785 83.5231 130.243C83.276 123.28 80.2754 119.914 76.4765 115.652C72.694 111.409 68.4068 106.6 65.8939 97.002C62.3995 83.6427 56.7241 84.3333 50.1526 85.1328C45.5368 85.6944 40.3055 86.3306 35.5342 81.9393C28.836 75.7764 23.0411 76.3818 19.8512 79.0043C16.3478 81.8845 14.794 88.102 18.6037 94.4127C22.3102 100.558 24.3519 103.943 21.3337 112.822C19.6755 117.704 21.1854 122.974 25.5862 127.66L25.5871 127.661Z" fill="#353535"/>
<path d="M137.441 53.3834L137.437 53.3844C137.082 53.8423 136.693 54.3124 136.271 54.7995C130.192 61.7481 137.732 69.5594 136.286 77.818C135.804 80.5912 134.31 83.4133 130.946 86.2675C130.904 86.3095 130.857 86.3477 130.814 86.3845C124.979 91.277 119.167 95.8247 113.852 99.8232C100.737 109.689 90.6456 116.202 90.6456 116.202C90.3918 115.308 90.1558 114.442 89.9375 113.603C85.5516 96.3767 89.4466 89.1205 93.0291 83.7361C93.8082 82.5676 94.5729 81.4809 95.2333 80.4034C96.2708 78.7187 97.052 77.0476 97.2387 75.068C97.619 71.0992 98.264 68.0951 99.1234 65.7982C99.1232 65.7959 99.1237 65.7935 99.1249 65.7916C99.1262 65.7896 99.1281 65.7882 99.1303 65.7875C102.799 56.0138 110.37 59.1043 117.733 55.0661C123.682 51.8089 122.483 45.4069 129.39 42.0672C135.184 39.2656 145.536 42.8542 137.441 53.3834Z" fill="#FECE2F"/>
<path d="M136.271 54.7996C128.15 64.0786 144.328 74.902 130.945 86.2667L129.073 84.2882C135.309 79.0674 134.071 74.5129 132.505 68.7501C131.167 63.8196 129.774 58.3385 134.234 52.9959C138.926 47.3846 137.347 42.8825 131.982 44.0466C125.193 45.5196 126.216 53.5264 119.043 57.4587C111.329 61.6914 103.237 58.6748 99.1339 65.7858C102.803 56.0121 110.374 59.1026 117.737 55.0644C123.685 51.8072 122.486 45.4052 129.394 42.0655C135.435 39.1412 146.449 43.1814 136.271 54.7996Z" fill="white"/>
<path d="M90.7967 116.893C90.6218 116.931 90.4387 116.901 90.2847 116.809C90.1307 116.717 90.0173 116.569 89.9676 116.396C84.0451 95.732 89.3164 87.9493 93.1655 82.2661C94.8369 79.7988 96.2802 77.6678 96.5345 74.9976C98.0221 59.3971 103.614 58.209 110.087 56.8219C112.481 56.3118 114.956 55.7829 117.397 54.445C120.04 52.9962 121.181 50.8718 122.386 48.6202C123.796 45.9968 125.252 43.2807 129.083 41.4273C132.487 39.7812 137.698 40.0893 140.032 43.1712C141.308 44.8548 142.583 48.6653 136.8 55.2673C133.43 59.1152 134.529 63.1633 135.803 67.85C137.387 73.6832 139.183 80.2941 131.265 86.9276C118.405 97.6115 104.972 107.583 91.0265 116.796C90.9562 116.842 90.8784 116.874 90.7967 116.893ZM109.672 58.3589C103.835 59.6254 99.2764 61.1302 97.9419 75.1331C97.6534 78.1641 96.1161 80.4338 94.3356 83.0614C90.4986 88.7271 85.739 95.7579 91.0666 115.081C104.674 106.04 117.792 96.28 130.366 85.8414C137.589 79.7892 135.992 73.9082 134.447 68.221C133.183 63.5661 131.875 58.7521 135.745 54.3326C139.541 49.9994 140.666 46.3392 138.915 44.0269C137.208 41.773 132.902 41.1544 129.702 42.7029C126.283 44.3574 124.996 46.7548 123.633 49.2931C122.382 51.6263 121.087 54.0385 118.077 55.688C115.455 57.126 112.878 57.6756 110.386 58.2071L109.672 58.3589Z" fill="#353535"/>
<path d="M103.238 101.829C103.116 101.855 102.989 101.849 102.871 101.81C102.753 101.771 102.646 101.702 102.563 101.609C102.48 101.515 102.423 101.402 102.398 101.28C102.373 101.157 102.38 101.03 102.42 100.912C110.823 75.6515 122.729 57.1638 131.237 46.1026C131.294 46.0291 131.365 45.9675 131.445 45.9213C131.526 45.8752 131.614 45.8454 131.706 45.8337C131.798 45.822 131.892 45.8286 131.981 45.8531C132.071 45.8776 132.154 45.9196 132.228 45.9766C132.301 46.0336 132.363 46.1045 132.409 46.1853C132.455 46.2661 132.485 46.3552 132.496 46.4475C132.508 46.5398 132.502 46.6335 132.478 46.7233C132.453 46.813 132.412 46.8971 132.355 46.9706C123.914 57.9454 112.099 76.2911 103.758 101.364C103.719 101.48 103.65 101.584 103.559 101.666C103.468 101.747 103.357 101.803 103.238 101.829Z" fill="#353535"/>
<path d="M87.0721 115.822C99.2276 107.546 103.043 91.9166 95.5931 80.9124C88.1436 69.9082 72.2507 67.6964 60.0953 75.9723C47.9399 84.2481 44.1249 99.8777 51.5744 110.882C59.0238 121.886 74.9167 124.098 87.0721 115.822Z" fill="#FECE2F"/>
<path d="M77.0969 120.895C75.5301 121.235 73.937 121.441 72.335 121.51C63.5673 121.89 55.5874 118.065 50.9911 111.276C47.2745 105.788 46.1406 99.0249 47.798 92.234C49.5476 85.3302 53.7875 79.327 59.6976 75.3855C71.9537 67.0371 88.2101 69.1848 95.9374 80.173C95.9979 80.2501 96.0739 80.3587 96.1452 80.4658L96.1762 80.5113C103.834 91.8249 99.9271 107.928 87.4672 116.41C84.3294 118.558 80.8089 120.08 77.0969 120.895ZM70.3033 72.3215C66.7914 73.0891 63.4602 74.527 60.491 76.5571C54.8691 80.3022 50.8347 86.0089 49.1683 92.573C47.6071 98.9694 48.6686 105.332 52.1574 110.483C56.4755 116.862 63.9962 120.455 72.2721 120.096C77.4314 119.851 82.4183 118.168 86.6745 115.238C98.4907 107.194 102.231 91.9724 95.0113 81.3072L94.9804 81.2622C94.9241 81.1779 94.8669 81.0937 94.8049 81.0145C89.4352 73.3794 79.7001 70.2828 70.3033 72.3215Z" fill="#353535"/>
<path d="M70.0731 76.6099C72.2321 73.847 76.4051 72.9088 78.8555 75.2355C81.8238 78.0539 79.5655 81.4766 76.9234 87.6125C75.5385 91.3121 72.6913 92.7256 70.5125 89.438C68.2941 86.1055 67.0953 80.4074 70.0731 76.6099Z" fill="white"/>
<path d="M80.8079 95.6581C76.7059 95.0392 77.0283 92.0559 80.184 89.4572C85.2856 84.8518 87.8329 81.6083 91.7691 83.0839C95.0189 84.302 95.6744 88.2431 93.747 91.1493C91.1007 95.1535 84.9716 96.2935 80.8079 95.6581Z" fill="white"/>
<path d="M75.3308 103.12C74.5429 99.196 77.4656 97.9665 80.9744 99.4253C87.0254 101.579 90.9373 102.175 90.8614 106.388C90.7983 109.866 87.3001 112.442 83.913 112.22C79.2494 111.923 76.1229 107.108 75.3308 103.12Z" fill="white"/>
<path d="M67.6584 92.4521C70.0178 95.6121 67.7241 97.8117 63.7715 97.8635C57.0997 98.2734 53.1128 99.2403 51.4622 95.4963C50.0989 92.405 52.3931 88.7978 55.7251 87.7012C60.3083 86.1844 65.2693 89.2377 67.6584 92.4521Z" fill="white"/>
<path d="M65.0742 114.282C61.7573 115.432 58.0462 113.855 57.6325 110.441C57.1313 106.308 60.9279 104.644 66.6764 100.856C69.987 98.453 72.9933 98.8615 72.6135 102.948C72.2364 107.098 69.6409 112.704 65.0742 114.282Z" fill="white"/>
<path d="M73.8636 91.922C73.7653 91.9434 73.666 91.9598 73.566 91.9711C72.6245 92.0788 71.2283 91.7931 69.9269 89.8298C67.3904 86.0202 66.4349 80.1042 69.5185 76.1713C70.1731 75.3345 70.992 74.6415 71.9246 74.1353C72.8571 73.629 73.8835 73.3201 74.9403 73.2278C75.7367 73.1525 76.5402 73.2466 77.2983 73.504C78.0565 73.7614 78.7523 74.1763 79.3403 74.7216C82.2443 77.4786 80.8245 80.6315 78.6758 85.4035C78.3259 86.181 77.9529 87.0089 77.5724 87.8934C76.7442 90.1058 75.3704 91.595 73.8636 91.922ZM74.2565 74.7537C72.8194 75.0761 71.5378 75.8861 70.6276 77.0469C67.987 80.4145 68.9006 85.7423 71.1002 89.0456C71.6009 89.8017 72.4075 90.6774 73.406 90.5641C74.4777 90.4402 75.5703 89.2157 76.2638 87.3618C76.6607 86.438 77.0361 85.6009 77.3897 84.8188C79.5774 79.96 80.4569 77.7288 78.3717 75.7487C77.9265 75.3385 77.3999 75.0275 76.8266 74.8362C76.2532 74.6449 75.6462 74.5777 75.0454 74.639C74.7801 74.6586 74.5164 74.6969 74.2565 74.7537Z" fill="#353535"/>
<path d="M86.8368 96.1408C84.8219 96.5802 82.7444 96.6535 80.7026 96.3573C78.2232 95.9832 77.41 94.8444 77.1641 93.9548C76.7462 92.439 77.6834 90.5999 79.7361 88.9098C80.4474 88.2668 81.1296 87.6311 81.7705 87.0339C85.6669 83.404 88.2414 81.0068 92.0147 82.4208C92.7739 82.6957 93.4599 83.1424 94.0195 83.7264C94.579 84.3103 94.9971 85.0157 95.241 85.7877C95.5272 86.7546 95.5943 87.7732 95.4374 88.7689C95.2805 89.7645 94.9035 90.712 94.3342 91.5418C92.7178 93.988 89.8704 95.4826 86.8368 96.1408ZM89.0389 83.5275C87.1748 83.932 85.3683 85.615 82.7311 88.0717C82.085 88.6739 81.3971 89.3142 80.6559 89.9834C79.0765 91.2855 78.2687 92.6548 78.5236 93.5792C78.7123 94.2625 79.5607 94.7544 80.9113 94.9582C85.0806 95.5952 90.7902 94.3396 93.157 90.7562C93.6096 90.1041 93.911 89.3583 94.0392 88.5736C94.1673 87.789 94.1188 86.9852 93.8974 86.2211C93.7211 85.651 93.4143 85.13 93.0017 84.6997C92.589 84.2695 92.0819 83.9419 91.521 83.7432C90.7326 83.4268 89.8689 83.3518 89.0389 83.5275Z" fill="#353535"/>
<path d="M85.8657 112.772C85.2098 112.916 84.5369 112.968 83.8665 112.926C79.0086 112.616 75.5454 107.827 74.639 103.257C74.2618 101.377 74.6516 99.8482 75.7369 98.9532C77.0015 97.9097 79.0073 97.8434 81.242 98.7727C82.0794 99.0695 82.9059 99.3474 83.6839 99.6079C88.3014 101.16 91.6405 102.28 91.5662 106.402C91.5395 107.26 91.3384 108.102 90.9754 108.879C90.6124 109.655 90.0951 110.348 89.4552 110.916C88.443 111.841 87.2047 112.482 85.8657 112.772ZM77.5751 99.6113C77.2312 99.6789 76.9085 99.8282 76.634 100.047C75.7826 100.749 75.8316 102.03 76.0223 102.98C76.805 106.92 79.8514 111.249 83.9548 111.511C84.7831 111.553 85.6113 111.43 86.3913 111.149C87.1714 110.867 87.8876 110.433 88.4983 109.871C88.9973 109.432 89.4017 108.895 89.6866 108.294C89.9715 107.692 90.131 107.039 90.1553 106.373C90.2088 103.416 88.0729 102.572 83.2374 100.949C82.4528 100.684 81.6182 100.405 80.7382 100.091C79.7531 99.6221 78.6527 99.4554 77.5747 99.6114L77.5751 99.6113Z" fill="#353535"/>
<path d="M65.6946 98.3638C65.0654 98.4964 64.4245 98.5657 63.7814 98.5708C62.8538 98.6272 61.9484 98.6995 61.0981 98.7667C55.879 99.1748 52.4313 99.4434 50.817 95.7827C50.5027 95.0478 50.347 94.2546 50.3601 93.4555C50.3731 92.6563 50.5547 91.8693 50.8928 91.1461C51.338 90.1786 51.9773 89.3137 52.7707 88.6056C53.564 87.8974 54.4945 87.361 55.5041 87.0299C60.247 85.4596 65.4922 88.3571 68.2225 92.0296C69.63 93.9143 69.4292 95.3233 69.0129 96.1736C68.4864 97.2472 67.2968 98.0162 65.6946 98.3638ZM56.6549 88.1794C56.4158 88.2313 56.1797 88.2958 55.9474 88.3725C55.124 88.641 54.3647 89.0768 53.717 89.6529C53.0692 90.2289 52.5468 90.9329 52.1824 91.7209C51.9239 92.2635 51.7835 92.8552 51.7705 93.4568C51.7576 94.0584 51.8724 94.6561 52.1074 95.2102C53.2677 97.8424 55.6683 97.7691 60.987 97.3544C61.845 97.2875 62.7583 97.2163 63.728 97.1566C65.7466 97.1295 67.2742 96.5132 67.7474 95.5462C68.1868 94.6494 67.6351 93.5987 67.0953 92.8752C64.8611 89.8711 60.5494 87.3345 56.654 88.1796L56.6549 88.1794Z" fill="#353535"/>
<path d="M64.4375 115.195C62.7197 115.592 60.9141 115.307 59.3992 114.399C58.7223 113.984 58.1485 113.419 57.7214 112.748C57.2944 112.077 57.0253 111.317 56.9348 110.527C56.4527 106.549 59.4287 104.654 63.9336 101.786C64.674 101.314 65.4626 100.812 66.2912 100.266C68.4347 98.7086 70.4703 98.2588 71.8475 99.0507C72.6432 99.5057 73.5441 100.566 73.3162 103.016C72.8882 107.72 69.9989 113.331 65.3047 114.951C65.0208 115.049 64.7312 115.131 64.4375 115.195ZM69.6761 100.158C68.738 100.405 67.8588 100.838 67.0906 101.432C66.2293 102 65.4348 102.506 64.6885 102.981C60.0204 105.956 57.975 107.391 58.3325 110.358C58.3962 110.939 58.5929 111.498 58.9071 111.991C59.2213 112.484 59.6445 112.898 60.1439 113.2C60.8488 113.613 61.6356 113.864 62.448 113.935C63.2605 114.006 64.0783 113.896 64.8428 113.613C68.9274 112.204 71.5329 107.034 71.9106 102.884C71.9841 102.115 71.9779 100.756 71.1478 100.28C70.6882 100.06 70.1647 100.017 69.6761 100.158Z" fill="#353535"/>
<path d="M186.544 67.5419C162.423 79.2809 187.448 93.35 165.078 108.913C156.495 114.885 155.723 122.342 152.742 129.372C152.234 129.627 111.77 141.618 71.886 140.504C71.3219 134.211 75.573 126.31 77.7668 120.027C85.5712 97.6602 89.2194 85.0393 107.041 79.338C108.294 78.9405 112.942 77.6974 112.946 77.6984C131.084 72.0129 123.25 57.6121 150.991 51.0525C173.824 45.6525 172.448 35.6392 190.24 30.7235C208.143 25.7814 230.735 46.0579 186.544 67.5419Z" fill="#FECE2F"/>
<path d="M140.589 91.1682C146.33 90.6391 156.339 85.2184 158.191 76.4888C160.989 80.6873 156.314 90.3458 156.314 90.3458L153.275 96.2341L146.468 100.454L134.065 101.592L140.589 91.1682Z" fill="#353535"/>
<path d="M146.618 101.145C146.59 101.151 146.562 101.156 146.534 101.158L134.133 102.296C134.002 102.309 133.87 102.284 133.752 102.224C133.635 102.165 133.536 102.074 133.467 101.962C133.398 101.849 133.362 101.72 133.362 101.588C133.363 101.456 133.4 101.327 133.47 101.215L139.992 90.7912C140.049 90.6992 140.127 90.6218 140.219 90.565C140.312 90.5082 140.416 90.4734 140.523 90.4634C145.641 89.9915 155.692 84.8693 157.501 76.3406C157.529 76.2044 157.596 76.0796 157.695 75.9822C157.794 75.8848 157.92 75.8193 158.056 75.7939C158.192 75.7678 158.333 75.7826 158.461 75.8363C158.589 75.89 158.698 75.9804 158.775 76.0961C161.765 80.5814 157.145 90.2471 156.947 90.6561L153.899 96.5609C153.84 96.6744 153.752 96.7698 153.644 96.8369L146.836 101.056C146.769 101.098 146.695 101.128 146.618 101.145ZM135.423 100.757L146.237 99.7625L152.739 95.7326L155.687 90.0178C156.728 87.8656 158.849 82.3225 158.272 78.7193C155.454 86.2753 146.762 91.1427 141.004 91.8328L135.423 100.757Z" fill="#353535"/>
<path d="M114.815 104.086C117.319 101.506 115.836 95.9821 111.504 91.7481C107.172 87.5142 101.63 86.1735 99.1264 88.7536C96.6225 91.3337 98.1047 96.8576 102.437 101.091C106.769 105.325 112.311 106.666 114.815 104.086Z" fill="#353535"/>
<path d="M112.763 105.961C111.564 106.191 110.328 106.146 109.147 105.832C106.44 105.028 103.968 103.575 101.945 101.598C99.9223 99.6204 98.4094 97.1789 97.5376 94.4845C96.8448 91.9034 97.2295 89.6926 98.6211 88.2589C100.013 86.8252 102.206 86.3808 104.795 87.0073C107.523 87.7581 110.007 89.2177 111.996 91.2389C114.063 93.1805 115.583 95.6341 116.405 98.3519C117.097 100.933 116.712 103.144 115.321 104.578C114.625 105.284 113.735 105.766 112.763 105.961ZM101.484 88.2615C100.782 88.3977 100.136 88.7412 99.6299 89.2481C98.5991 90.3099 98.3388 92.0389 98.897 94.1195C99.7033 96.568 101.086 98.786 102.928 100.585C104.77 102.385 107.016 103.712 109.477 104.455C111.563 104.961 113.28 104.653 114.31 103.592C115.34 102.53 115.601 100.801 115.043 98.7203C114.237 96.272 112.855 94.054 111.013 92.2545C109.172 90.455 106.926 89.127 104.466 88.3832C103.493 88.1199 102.474 88.0783 101.484 88.2615Z" fill="#353535"/>
<path d="M104.2 91.6427C100.486 89.7118 103.223 88.288 105.262 89.2438C107.603 90.3407 107.834 93.5329 104.2 91.6427Z" fill="white"/>
<path d="M93.6507 135.728C93.5147 135.757 93.3729 135.745 93.2433 135.694C93.1138 135.643 93.0022 135.554 92.9226 135.439C92.843 135.325 92.799 135.189 92.7962 135.049C92.7933 134.91 92.8318 134.772 92.9066 134.655C116.649 97.3872 158.165 57.5563 193.864 37.7932C193.945 37.7475 194.035 37.7184 194.127 37.7075C194.22 37.6967 194.313 37.7043 194.403 37.7299C194.492 37.7555 194.576 37.7987 194.649 37.8568C194.722 37.915 194.782 37.9871 194.827 38.0689C194.873 38.1507 194.901 38.2406 194.911 38.3334C194.922 38.4262 194.913 38.5202 194.887 38.6098C194.861 38.6994 194.818 38.7829 194.759 38.8555C194.701 38.9281 194.629 38.9883 194.547 39.0328C159.035 58.693 117.725 98.3287 94.0948 135.418C94.0449 135.497 93.98 135.564 93.9038 135.618C93.8275 135.671 93.7415 135.708 93.6507 135.728Z" fill="#353535"/>
<path d="M141.696 107.426C140.235 116.018 135.433 126.205 129.523 134.977C117.386 137.451 105.1 139.136 92.7435 140.023C94.7546 123.208 103.558 98.4227 119.727 87.6453C133.614 78.3936 145.144 87.1564 141.696 107.426Z" fill="#FECE2F"/>
<path d="M129.673 135.668L129.663 135.67C117.496 138.152 105.18 139.841 92.7925 140.729C92.689 140.736 92.5851 140.72 92.4883 140.682C92.3915 140.644 92.3042 140.586 92.2327 140.51C92.1612 140.434 92.1071 140.344 92.0744 140.245C92.0417 140.146 92.0312 140.041 92.0436 139.938C94.2136 121.784 103.682 97.4925 119.338 87.0555C125.704 82.8139 131.969 82.0939 136.533 85.074C142.071 88.6942 144.207 96.885 142.393 107.546C141.007 115.702 136.53 125.845 130.11 135.373C130.008 135.525 129.852 135.63 129.673 135.668ZM93.5505 139.257C105.492 138.362 117.365 136.72 129.1 134.34C135.325 125.043 139.658 115.203 141.001 107.306C142.69 97.3763 140.731 89.5086 135.761 86.2598C131.694 83.6012 125.991 84.3208 120.116 88.2351C105.076 98.2628 95.8719 121.515 93.5505 139.257Z" fill="#353535"/>
<path d="M161.382 112.025C156.178 117.366 155.225 123.519 152.743 129.372C152.728 129.379 152.712 129.384 152.695 129.387C146.669 131.094 140.463 132.641 134.128 134.015C130.156 134.877 123.722 136.083 119.797 136.777C133.535 134.033 139.797 117.226 140.291 113.231C146.303 105.25 156.294 108.955 156.294 108.955L161.382 112.025Z" fill="#353535"/>
<path d="M134.277 134.707C130.53 135.52 124.218 136.715 119.919 137.474C119.735 137.51 119.545 137.472 119.39 137.367C119.234 137.262 119.126 137.1 119.09 136.916C119.054 136.732 119.092 136.541 119.196 136.385C119.3 136.229 119.462 136.121 119.645 136.085L119.658 136.083C132.791 133.455 139.081 117.259 139.59 113.142C139.606 113.019 139.653 112.902 139.728 112.803C145.982 104.501 156.431 108.252 156.536 108.291C156.577 108.306 156.617 108.325 156.655 108.348L161.746 111.418C161.837 111.473 161.915 111.548 161.973 111.638C162.032 111.727 162.069 111.829 162.083 111.935C162.097 112.041 162.086 112.148 162.053 112.25C162.019 112.351 161.963 112.443 161.889 112.52C158.171 116.335 156.713 120.502 155.168 124.914C154.623 126.47 154.06 128.078 153.394 129.649C153.328 129.804 153.21 129.93 153.06 130.005C152.992 130.038 152.921 130.063 152.848 130.078C146.875 131.774 140.613 133.333 134.277 134.707ZM126.756 134.775C129.427 134.264 132.045 133.743 133.977 133.324C140.186 131.977 146.324 130.452 152.223 128.786C152.817 127.353 153.333 125.877 153.835 124.445C155.281 120.314 156.775 116.049 160.269 112.18L155.99 109.598C155.108 109.289 146.417 106.469 140.964 113.514C140.381 117.428 135.966 129.139 126.756 134.775Z" fill="#353535"/>
<path d="M186.544 67.5418C165.377 77.8433 182.052 89.9159 171.351 103.247C174.209 99.0656 173.949 95.0446 173.659 90.607C173.193 83.4605 169.247 69.7138 183.691 62.6888C203.595 53.0008 205.381 47.5724 204.527 42.5055C203.642 37.23 197.05 34.2022 189.833 36.3628C174.011 41.0926 173.466 49.8073 144.745 56.1824C129.046 59.6677 132.243 69.8996 115.985 76.5693C130.247 70.3231 124.921 57.2196 150.991 51.052C173.824 45.652 172.448 35.6387 190.24 30.723C208.032 25.8074 230.83 45.99 186.544 67.5418Z" fill="white"/>
<path d="M134.277 134.707C130.312 135.567 126.313 136.355 122.395 137.047C104.631 140.189 87.159 141.629 71.8677 141.211C71.6952 141.206 71.5304 141.137 71.4046 141.019C71.2787 140.9 71.2006 140.739 71.1849 140.567C70.7475 135.688 73.0997 129.883 75.1757 124.762C75.8853 123.012 76.5536 121.359 77.1022 119.793L78.1191 116.871C85.7905 94.7917 90.0164 82.6292 110.537 77.6281C119.951 75.334 122.953 71.0972 126.429 66.1915C127.444 64.7595 128.491 63.2817 129.738 61.8152C132.942 58.0484 138.234 53.3426 150.829 50.3642C163.005 47.4844 168.184 43.2957 173.193 39.2448C177.582 35.6949 181.729 32.3415 190.051 30.0419C198.858 27.6097 208.631 31.0606 211.83 37.7347C215.045 44.4437 210.918 52.6262 200.505 60.184C196.192 63.2393 191.624 65.9145 186.851 68.1799C175.026 73.935 175.423 80.0191 175.88 87.0649C176.323 93.8756 176.825 101.595 165.48 109.495C164.188 110.386 162.984 111.399 161.885 112.522C158.168 116.337 156.709 120.504 155.164 124.916C154.619 126.472 154.056 128.08 153.39 129.651C153.325 129.806 153.206 129.932 153.056 130.007C152.989 130.04 152.917 130.065 152.844 130.08C146.874 131.773 140.612 133.332 134.277 134.707ZM72.5494 139.812C87.5928 140.17 104.725 138.735 122.151 135.652C126.051 134.964 130.031 134.18 133.979 133.323C140.187 131.976 146.325 130.451 152.225 128.785C152.818 127.353 153.335 125.876 153.836 124.445C155.364 120.081 156.943 115.569 160.879 111.531C162.04 110.345 163.312 109.273 164.678 108.332C175.368 100.887 174.914 93.9055 174.475 87.1538C174.004 79.914 173.56 73.0755 186.237 66.9052C190.936 64.6761 195.434 62.0432 199.68 59.036C209.487 51.9182 213.453 44.3774 210.562 38.3458C207.695 32.3632 198.48 29.186 190.43 31.4062C182.389 33.628 178.353 36.8916 174.081 40.3472C168.95 44.497 163.644 48.788 151.157 51.7425C139.033 54.6096 134.069 58.9086 130.814 62.7353C129.609 64.1522 128.578 65.6066 127.582 67.0134C124.094 71.9356 120.799 76.5854 110.875 79.0037C91.0984 83.8256 86.9615 95.7283 79.4529 117.339L78.4357 120.264C77.8778 121.862 77.201 123.532 76.4844 125.299C74.5582 130.041 72.3898 135.39 72.5494 139.812Z" fill="#353535"/>
<path d="M234.47 71.1559C234.035 73.2934 233.136 75.3077 231.836 77.0553C231.529 77.4753 231.201 77.8952 230.839 78.3082C231.218 78.4539 231.59 78.6103 231.945 78.7746C231.792 86.693 222.971 96.7754 207.68 106.304C193.127 115.37 174.041 123.352 152.695 129.387C148.233 126.436 144.443 122.224 141.599 116.416C135.345 103.664 144.566 87.4195 158.651 84.3634C154.08 71.5753 168.988 60.7719 181.923 61.7778C182.438 60.4632 183.129 59.226 183.979 58.1007C185.242 56.4294 186.767 54.9758 188.496 53.7968C196.924 47.9421 210.022 47.5816 214.75 56.3339C227.146 52.9415 236.305 61.6829 234.47 71.1559Z" fill="#FECE2F"/>
<path d="M214.748 56.3363C202.231 46.4578 186.554 55.9125 183.265 64.0456C169.957 61.4288 156.269 73.7989 160.492 85.4724C146.409 88.9973 139.281 102.617 145.084 114.25C148.331 120.761 152.927 125.059 158.401 127.707C156.487 128.295 154.584 128.855 152.694 129.387C148.233 126.436 144.443 122.223 141.599 116.415C135.345 103.664 144.566 87.4195 158.651 84.3634C154.08 71.5753 168.988 60.7719 181.923 61.7778C186.785 49.2745 208.38 44.552 214.748 56.3363Z" fill="white"/>
<path d="M152.845 130.079C152.753 130.099 152.658 130.1 152.566 130.083C152.473 130.065 152.385 130.03 152.307 129.978C147.545 126.827 143.73 122.369 140.966 116.727C138.113 110.909 138.232 103.922 141.293 97.5584C144.588 90.7072 150.697 85.6326 157.738 83.8508C156.353 79.2507 157.283 74.5083 160.388 70.4191C164.946 64.4219 173.546 60.6139 181.459 61.0417C184.319 54.3792 192.072 49.4143 200.528 48.8948C207.068 48.4932 212.34 50.9002 215.091 55.5159C222.691 53.6313 229.831 56.0561 233.399 61.7731C236.535 66.7939 235.979 72.9418 231.993 78.0202C232.074 78.0549 232.153 78.0903 232.232 78.1263C232.37 78.1889 232.485 78.2946 232.559 78.4277C232.632 78.5608 232.662 78.7141 232.642 78.865L232.641 78.9231C232.612 81.9119 230.75 92.7628 208.051 106.906C194.873 115.115 177.774 122.542 158.606 128.385C156.802 128.938 154.932 129.489 152.885 130.069C152.873 130.072 152.858 130.076 152.845 130.079ZM175.225 62.9719C169.776 64.1541 164.631 67.1702 161.51 71.278C159.403 74.0527 157.311 78.5304 159.311 84.128C159.345 84.2224 159.358 84.3229 159.35 84.4227C159.342 84.5225 159.313 84.6194 159.265 84.707C159.216 84.7947 159.15 84.871 159.07 84.931C158.991 84.991 158.899 85.0333 158.802 85.0551C151.861 86.561 145.791 91.4648 142.565 98.1732C139.694 104.142 139.573 110.677 142.234 116.101C144.832 121.408 148.391 125.616 152.816 128.615C154.731 128.07 156.495 127.55 158.196 127.028C177.249 121.22 194.232 113.845 207.309 105.702C228.63 92.4174 231.055 82.4277 231.223 79.2248C231.012 79.1356 230.801 79.0491 230.59 78.9677C230.484 78.9269 230.389 78.861 230.314 78.7756C230.239 78.6901 230.185 78.5877 230.157 78.4771C230.13 78.3664 230.129 78.2507 230.156 78.1399C230.183 78.0291 230.236 77.9265 230.31 77.8407C234.431 73.1138 235.158 67.2438 232.209 62.5214C228.893 57.2136 222.114 55.0549 214.938 57.018C214.784 57.0607 214.621 57.0496 214.474 56.9867C214.328 56.9238 214.207 56.8128 214.131 56.6719C211.74 52.2457 206.815 49.9256 200.621 50.3059C192.491 50.8051 185.074 55.6291 182.58 62.0376C182.525 62.1787 182.426 62.2983 182.298 62.3788C182.171 62.4593 182.02 62.4964 181.87 62.4847C179.643 62.3245 177.405 62.4884 175.227 62.9715L175.225 62.9719Z" fill="#353535"/>
<path d="M152.892 130.064C152.764 130.092 152.63 130.083 152.506 130.038C152.382 129.994 152.273 129.916 152.191 129.812C152.109 129.709 152.057 129.584 152.042 129.453C152.027 129.322 152.048 129.189 152.104 129.07C163.558 104.654 183.988 79.6972 206.755 62.3093C206.904 62.1957 207.091 62.1461 207.277 62.1714C207.462 62.1968 207.63 62.295 207.743 62.4444C207.857 62.5938 207.906 62.7822 207.881 62.9682C207.856 63.1542 207.759 63.3224 207.61 63.436C185.015 80.6931 164.742 105.455 153.38 129.674C153.334 129.772 153.266 129.858 153.181 129.926C153.097 129.994 152.998 130.041 152.892 130.064Z" fill="#353535"/>
<path d="M208.31 94.5484C212.867 89.7213 214.222 83.5852 211.337 80.843C208.453 78.1008 202.421 79.791 197.865 84.6181C193.308 89.4452 191.953 95.5814 194.838 98.3236C197.722 101.066 203.754 99.3756 208.31 94.5484Z" fill="#353535"/>
<path d="M200.467 100.123C197.96 100.667 195.807 100.22 194.353 98.8373C192.77 97.3329 192.245 94.9397 192.872 92.0987C193.471 89.387 195.062 86.5572 197.352 84.1314C199.642 81.7033 202.371 79.9576 205.038 79.2105C207.829 78.4282 210.24 78.8254 211.823 80.3299C215.039 83.387 213.721 89.8468 208.824 95.0357C206.534 97.4639 203.804 99.2091 201.138 99.9567C200.912 100.02 200.688 100.076 200.467 100.123ZM206.008 80.4287C205.815 80.4707 205.618 80.5196 205.419 80.5755C202.995 81.2544 200.494 82.8635 198.377 85.1069C196.26 87.3498 194.794 89.9429 194.249 92.4087C193.734 94.7445 194.114 96.6637 195.322 97.812C196.53 98.9603 198.461 99.2381 200.757 98.5947C203.18 97.9158 205.681 96.3062 207.799 94.0632C212.08 89.5265 213.451 83.8273 210.853 81.3581C209.75 80.3079 208.045 79.9854 206.008 80.4273L206.008 80.4287Z" fill="#353535"/>
<path d="M204.86 84.6417C209.879 81.8789 206.301 80.6267 203.55 82.0228C200.391 83.626 199.949 87.3456 204.86 84.6417Z" fill="white"/>
<path d="M156.338 98.7897L195.658 78.7002C195.766 78.6458 195.883 78.6138 196.003 78.6061C196.123 78.5984 196.244 78.6152 196.357 78.6553C196.471 78.6955 196.575 78.7583 196.664 78.8399C196.753 78.9215 196.824 79.0202 196.874 79.1302C199.357 84.5428 199.659 90.7061 197.717 96.3301C195.775 101.954 191.739 106.603 186.454 109.303C181.169 112.004 175.045 112.547 169.364 110.818C163.682 109.09 158.883 105.225 155.972 100.031C155.912 99.9258 155.874 99.8096 155.86 99.6894C155.846 99.5691 155.856 99.4473 155.891 99.3314C155.925 99.2154 155.982 99.1076 156.059 99.0145C156.136 98.9214 156.231 98.845 156.338 98.7897Z" fill="white"/>
<path d="M180.979 112.005C176.035 113.077 170.875 112.525 166.262 110.431C161.648 108.337 157.825 104.812 155.357 100.375C155.251 100.186 155.184 99.9766 155.16 99.7607C155.137 99.5448 155.156 99.3264 155.219 99.1184C155.28 98.9124 155.382 98.7212 155.519 98.5563C155.657 98.3915 155.826 98.2565 156.017 98.1596L195.337 78.0676C195.528 77.9694 195.737 77.9113 195.95 77.8968C196.164 77.8823 196.379 77.9117 196.581 77.9832C196.785 78.055 196.973 78.1673 197.134 78.3133C197.294 78.4594 197.423 78.6362 197.514 78.8333C200.092 84.4092 200.413 90.7683 198.409 96.5697C196.405 102.371 192.234 107.161 186.774 109.931C184.94 110.87 182.992 111.567 180.979 112.005ZM156.659 99.4206C156.637 99.4315 156.618 99.4468 156.602 99.4656C156.587 99.4843 156.575 99.5061 156.568 99.5295C156.561 99.555 156.559 99.5817 156.562 99.6081C156.565 99.6345 156.573 99.66 156.586 99.6831C159.409 104.716 164.06 108.462 169.567 110.137C175.074 111.811 181.009 111.285 186.131 108.667C191.253 106.05 195.165 101.545 197.048 96.0944C198.931 90.6439 198.639 84.6705 196.233 79.424C196.223 79.3998 196.207 79.378 196.187 79.36C196.168 79.342 196.145 79.3281 196.12 79.3193C196.097 79.311 196.072 79.3075 196.048 79.3092C196.023 79.3108 195.999 79.3175 195.978 79.3289L156.659 99.4206Z" fill="#353535"/>
<path d="M176.003 88.7417L193.886 79.6048C195.087 81.9624 195.813 84.5344 196.021 87.1728C196.229 89.8112 195.915 92.4641 195.098 94.9788L176.003 88.7417Z" fill="#FECE2F"/>
<path d="M175.998 88.7437L176.001 88.7429L195.095 94.9812C194.287 97.499 192.991 99.8311 191.281 101.843C189.572 103.856 187.482 105.508 185.133 106.707L175.998 88.7437Z" fill="#FECE2F"/>
<path d="M175.998 88.7437L185.133 106.705C182.786 107.907 180.224 108.63 177.595 108.835C174.966 109.04 172.322 108.721 169.815 107.897L175.998 88.7437Z" fill="#FECE2F"/>
<path d="M158.114 97.8825L175.996 88.7442L169.811 107.898C167.301 107.083 164.975 105.779 162.968 104.06C160.961 102.341 159.311 100.242 158.114 97.8825Z" fill="#FECE2F"/>
<path d="M195.244 95.6713C195.122 95.6981 194.996 95.6922 194.877 95.6542L175.784 89.4157C175.652 89.3724 175.535 89.2905 175.448 89.1806C175.362 89.0706 175.31 88.9375 175.299 88.798C175.288 88.6585 175.318 88.5189 175.386 88.3969C175.454 88.2748 175.557 88.1758 175.681 88.1123L193.563 78.9754C193.73 78.8904 193.923 78.8754 194.101 78.9335C194.279 78.9916 194.427 79.1181 194.512 79.2853C195.76 81.7243 196.513 84.3869 196.729 87.1187C196.944 89.8506 196.617 92.5972 195.766 95.1995C195.728 95.3173 195.66 95.4228 195.568 95.5056C195.476 95.5884 195.364 95.6455 195.244 95.6713ZM177.836 88.5987L194.629 94.0842C195.918 89.5993 195.539 84.7949 193.564 80.5638L177.836 88.5987Z" fill="#353535"/>
<path d="M185.283 107.397C185.131 107.43 184.973 107.411 184.832 107.344C184.691 107.277 184.576 107.165 184.506 107.026L175.371 89.0673C175.286 88.9018 175.27 88.7098 175.326 88.5327C175.381 88.3556 175.504 88.2077 175.667 88.1207L175.671 88.1199C175.755 88.0755 175.846 88.0484 175.941 88.0402C176.035 88.032 176.13 88.043 176.22 88.0724L195.313 94.3108C195.49 94.369 195.638 94.4956 195.723 94.6629C195.808 94.8302 195.823 95.0244 195.766 95.2028C194.933 97.8104 193.593 100.226 191.823 102.309C190.053 104.392 187.888 106.101 185.454 107.338C185.4 107.365 185.343 107.385 185.283 107.397ZM177.399 89.9429L185.435 105.743C189.503 103.484 192.615 99.8196 194.193 95.4296L177.399 89.9429Z" fill="#353535"/>
<path d="M180.406 109.144C176.818 109.919 173.087 109.721 169.597 108.571C169.42 108.513 169.272 108.387 169.187 108.219C169.102 108.052 169.086 107.858 169.144 107.679L175.33 88.5257C175.373 88.3927 175.454 88.2755 175.564 88.189C175.673 88.1025 175.806 88.0505 175.945 88.0396C176.084 88.0287 176.223 88.0594 176.344 88.1279C176.466 88.1963 176.565 88.2994 176.628 88.424L185.763 106.385C185.805 106.468 185.831 106.559 185.838 106.651C185.846 106.744 185.835 106.837 185.806 106.925C185.778 107.014 185.732 107.096 185.672 107.166C185.612 107.237 185.539 107.295 185.456 107.337C183.858 108.155 182.16 108.763 180.406 109.144ZM170.707 107.434C175.179 108.733 179.965 108.361 184.179 106.388L176.145 90.5911L170.707 107.434Z" fill="#353535"/>
<path d="M169.964 108.589C169.842 108.616 169.716 108.61 169.598 108.572C166.998 107.733 164.588 106.384 162.509 104.605C160.431 102.825 158.724 100.65 157.488 98.2046C157.403 98.0374 157.388 97.8434 157.445 97.665C157.503 97.4867 157.629 97.3387 157.795 97.2535L175.68 88.1147C175.804 88.0513 175.944 88.0262 176.083 88.0428C176.221 88.0594 176.352 88.1168 176.458 88.2077C176.564 88.2987 176.641 88.4192 176.679 88.5539C176.717 88.6887 176.714 88.8316 176.671 88.9647L170.485 108.118C170.447 108.235 170.379 108.341 170.287 108.423C170.196 108.506 170.084 108.563 169.964 108.589ZM159.074 98.1865C161.33 102.274 164.986 105.404 169.365 106.993L174.801 90.1498L159.074 98.1865Z" fill="#353535"/>
<path d="M119.928 37.1365C121.04 30.5784 118.768 24.7156 114.854 24.0416C110.94 23.3675 106.866 28.1375 105.754 34.6956C104.643 41.2537 106.915 47.1165 110.829 47.7905C114.743 48.4645 118.817 43.6945 119.928 37.1365Z" fill="#353535"/>
<path d="M112.732 48.4398C112.068 48.5865 111.381 48.6029 110.71 48.4881C108.561 48.1184 106.801 46.4194 105.749 43.7052C104.745 41.114 104.499 37.8719 105.058 34.5756C106.254 27.5257 110.607 22.5924 114.971 23.3437C119.335 24.095 121.818 30.2065 120.623 37.2561C119.613 43.2099 116.351 47.6547 112.732 48.4398ZM113.247 24.7767C110.219 25.4336 107.349 29.5168 106.448 34.8152C105.932 37.8628 106.151 40.8384 107.064 43.194C107.929 45.4258 109.308 46.8112 110.947 47.0929C114.47 47.6993 118.188 43.1796 119.233 37.0165C120.278 30.8534 118.26 25.3456 114.735 24.7386C114.241 24.6549 113.736 24.6678 113.247 24.7767Z" fill="#353535"/>
<path d="M111.577 30.8147C114.215 25.7167 110.551 26.6692 109.039 29.3651C107.302 32.4606 108.995 35.8034 111.577 30.8147Z" fill="white"/>
<path d="M108.298 139.195C108.187 139.219 108.072 139.216 107.963 139.185C107.853 139.155 107.753 139.099 107.669 139.022C107.586 138.945 107.522 138.848 107.484 138.741C107.446 138.634 107.434 138.519 107.449 138.406C110.158 118.4 121.611 101.107 131.107 93.5066C131.179 93.4466 131.262 93.4017 131.352 93.3745C131.441 93.3473 131.536 93.3382 131.629 93.3479C131.722 93.3577 131.812 93.3859 131.895 93.4311C131.977 93.4762 132.05 93.5374 132.108 93.6109C132.167 93.6845 132.21 93.769 132.235 93.8594C132.261 93.9499 132.268 94.0446 132.257 94.138C132.246 94.2313 132.216 94.3214 132.17 94.4031C132.123 94.4847 132.061 94.5562 131.987 94.6134C122.704 102.044 111.503 118.978 108.846 138.599C108.827 138.743 108.764 138.877 108.666 138.984C108.568 139.09 108.439 139.164 108.298 139.195Z" fill="#353535"/>
<path d="M118.512 93.4931C120.046 92.7808 121.317 93.786 120.028 95.4484C113.779 103.52 110.954 110.239 108.87 113.712C108.712 113.975 108.478 114.182 108.198 114.305C107.918 114.428 107.607 114.461 107.307 114.4C107.007 114.339 106.733 114.186 106.524 113.962C106.314 113.739 106.178 113.455 106.134 113.152C105.427 108.388 109.812 97.5733 118.511 93.4932L118.512 93.4931Z" fill="white"/>
<path d="M127.508 88.4648C127.718 88.5236 127.906 88.6449 128.047 88.8128C129.155 90.2546 125.85 91.5148 123.971 92.0249C123.693 92.1243 123.393 92.1421 123.105 92.0763C122.817 92.0104 122.554 91.8636 122.346 91.6531C120.23 89.113 126.041 87.9869 127.508 88.4648Z" fill="white"/>
<path d="M228.008 75.081C227.444 74.5578 227.715 73.1105 228.111 72.1584C230.582 66.2183 228.432 61.3428 221.737 60.9601C220.689 60.8979 219.033 60.9833 218.95 59.9097C218.867 58.8361 220.529 58.2273 221.489 58.189C230.98 57.8056 234.464 67.7265 230.343 74.3215C229.803 75.1836 228.715 75.7373 228.008 75.081Z" fill="white"/>
</g>
<defs>
<clipPath id="clip0_241_995">
<rect width="225.937" height="141.42" fill="white" transform="translate(0 47.9053) rotate(-12.2414)"/>
</clipPath>
</defs>
</svg>
