<svg width="611" height="437" viewBox="0 0 611 437" fill="none" xmlns="http://www.w3.org/2000/svg">
<path d="M145.045 260.728C145.045 260.284 144.911 260.006 144.747 260.11C144.584 260.214 144.245 259.797 143.996 259.182C143.732 258.534 143.326 258.065 143.028 258.065C142.622 258.065 142.589 257.973 142.871 257.623C143.146 257.283 143.137 257.149 142.832 257.043C142.52 256.936 142.534 256.783 142.896 256.331C143.247 255.892 143.265 255.723 142.973 255.622C142.762 255.549 142.589 255.351 142.589 255.182C142.589 255.012 142.726 254.961 142.893 255.067C143.067 255.177 143.118 255.05 143.013 254.77C142.913 254.5 142.988 254.28 143.181 254.28C143.437 254.28 143.443 254.109 143.203 253.649C142.939 253.143 142.97 253.018 143.358 253.018C143.749 253.018 143.768 252.937 143.457 252.596C143.059 252.158 142.288 252.549 142.388 253.137C142.414 253.289 142.274 253.474 142.076 253.549C141.84 253.639 141.777 253.446 141.894 252.987C141.992 252.603 141.947 252.364 141.793 252.456C141.64 252.549 141.239 252.52 140.901 252.392C140.414 252.208 140.557 252.112 141.592 251.931C142.405 251.788 142.896 251.534 142.896 251.256C142.896 251.011 143.165 250.81 143.493 250.81C143.821 250.81 144.278 250.533 144.509 250.194C144.923 249.587 146.487 248.758 146.993 248.877C147.137 248.911 148.035 248.736 148.989 248.488C149.943 248.241 151.587 247.938 152.643 247.816C153.698 247.694 154.639 247.466 154.733 247.309C154.827 247.153 155.206 247.022 155.576 247.018C155.946 247.014 157.078 246.591 158.091 246.079C159.104 245.566 160.166 245.143 160.451 245.139C160.737 245.135 161.056 244.99 161.16 244.817C161.265 244.643 161.194 244.501 161.003 244.501C160.578 244.501 160.731 243.091 161.16 243.06C161.329 243.048 162.073 242.86 162.813 242.642C163.553 242.424 164.496 242.333 164.908 242.439C165.32 242.546 166.095 242.494 166.632 242.324C167.168 242.154 168.377 241.86 169.319 241.67C171.904 241.15 173.285 240.716 173.285 240.423C173.285 240.119 157.538 240.331 153.64 240.687C151.586 240.875 150.802 240.824 149.956 240.446C149.365 240.182 148.813 239.945 148.728 239.92C148.644 239.895 148.171 239.703 147.678 239.494C147.184 239.285 146.563 239.2 146.297 239.307C146.03 239.414 141.945 239.552 137.217 239.614C132.49 239.676 128.001 239.869 127.241 240.041C126.482 240.214 124.205 240.52 122.182 240.722C120.159 240.923 118.24 241.233 117.917 241.411C117.594 241.589 116.655 241.667 115.83 241.586C115.005 241.504 114.256 241.562 114.165 241.713C114.074 241.864 113.871 241.907 113.714 241.807C113.557 241.707 113.428 241.776 113.428 241.959C113.428 242.143 113.325 242.265 113.198 242.231C112.687 242.092 110.052 242.666 110.052 242.916C110.052 243.224 107.733 243.736 106.856 243.621C106.534 243.579 106.01 243.831 105.693 244.181C105.376 244.531 104.88 244.834 104.591 244.854C104.302 244.875 103.237 244.922 102.224 244.959C101.211 244.997 99.8301 245.191 99.1548 245.392C98.4794 245.592 97.4051 245.836 96.7673 245.933C96.1295 246.031 95.6826 246.235 95.7742 246.387C96.0599 246.862 95.3778 246.987 90.0447 247.433C89.7613 247.456 89.5541 247.61 89.5843 247.774C89.6144 247.939 89.3628 248.157 89.0252 248.259C88.6875 248.361 88.0625 248.688 87.6363 248.986C87.0787 249.376 85.9162 249.585 83.4923 249.731C81.6394 249.843 79.8041 249.919 79.4139 249.901C79.0236 249.883 78.2801 250.093 77.7616 250.369C77.2261 250.653 76.737 250.745 76.6294 250.58C76.3651 250.177 75.2845 249.789 75.5212 250.183C75.7707 250.598 75.472 250.577 74.6547 250.121C73.0051 249.203 65.1959 249.901 64.3812 251.04C64.129 251.393 64.1013 251.631 64.3045 251.7C64.4791 251.76 64.622 251.935 64.622 252.088C64.622 252.242 64.4288 252.292 64.1926 252.198C63.9565 252.105 63.6721 252.181 63.5606 252.366C63.263 252.861 65.1025 252.789 66.0953 252.267C66.5512 252.027 67.5458 251.727 68.3055 251.599C69.0652 251.471 69.9286 251.321 70.224 251.264C70.5195 251.208 70.7612 251.348 70.7612 251.575C70.7612 251.867 71.1429 251.958 72.0658 251.883C73.0742 251.802 73.2469 251.852 72.8267 252.102C72.5277 252.281 72.3522 252.541 72.4367 252.682C72.6189 252.985 70.9027 253.289 67.5801 253.544C65.7146 253.687 65.1057 253.63 64.899 253.295C64.7049 252.98 64.6301 252.969 64.6267 253.255C64.6198 253.836 62.7748 253.742 62.1138 253.127C61.8051 252.84 61.5525 252.739 61.5525 252.904C61.5525 253.085 60.5561 253.117 59.0201 252.985C57.6272 252.866 55.4517 252.69 54.1855 252.595C52.9193 252.499 51.4296 252.256 50.875 252.054C50.3205 251.852 49.5229 251.755 49.1027 251.837C48.6824 251.92 48.2515 251.843 48.145 251.666C48.026 251.468 48.1063 251.442 48.3533 251.599C48.6032 251.758 48.6806 251.73 48.5579 251.526C48.3268 251.142 46.8628 250.794 45.1302 250.711C44.1082 250.662 43.8968 250.539 43.8691 249.975C43.8393 249.369 44.051 249.271 45.8643 249.055C46.98 248.923 48.2382 248.845 48.6602 248.882L49.4276 248.95L48.6132 248.495C47.2008 247.706 45.8236 247.374 43.135 247.171C41.7 247.063 39.628 246.743 38.5306 246.46C36.0067 245.808 27.2489 245.758 26.8669 246.393C26.7355 246.612 26.4655 246.687 26.2669 246.561C25.754 246.235 20.1052 246.126 20.2974 246.445C20.4771 246.744 20.4314 246.749 16.4159 246.874C13.5817 246.963 12.3855 247.071 8.14185 247.62C6.20686 247.87 5.07552 247.727 3.96959 247.091C3.50645 246.824 3.60626 246.673 4.72166 245.949C5.6213 245.366 6.72038 245.022 8.37937 244.807C11.2105 244.439 13.9118 243.976 15.8579 243.524C17.0221 243.254 17.2543 243.087 17.1323 242.608C17.0447 242.264 16.8055 242.092 16.5529 242.191C16.3163 242.285 16.1227 242.204 16.1227 242.012C16.1227 241.82 16.3645 241.66 16.6599 241.658C17.119 241.654 17.1301 241.608 16.7367 241.347C16.4455 241.154 16.4137 241.039 16.6503 241.036C16.8566 241.034 16.9448 240.819 16.847 240.557C16.7236 240.226 17.0299 239.917 17.8543 239.541L19.0388 239L16.0397 238.81C14.3901 238.705 12.2146 238.634 11.2051 238.651C10.1956 238.669 9.36968 238.666 9.36968 238.644C9.36968 238.622 9.64593 238.277 9.98359 237.877C10.3212 237.477 10.5975 237.246 10.5975 237.363C10.5975 237.48 10.9086 237.367 11.2887 237.111C11.6689 236.855 13.004 236.482 14.2556 236.283C15.5071 236.083 17.0782 235.721 17.7468 235.479C18.4155 235.237 19.4632 235.033 20.075 235.027C21.7845 235.01 26.0906 233.859 24.8455 233.752C24.6907 233.739 24.2878 233.663 23.9502 233.583C23.6125 233.503 23.1676 233.4 22.9614 233.353C22.2591 233.195 22.2143 232.888 22.8626 232.677C23.2184 232.561 23.8706 232.122 24.3118 231.702C24.7531 231.281 25.4224 230.937 25.7991 230.937C26.1759 230.937 26.6417 230.742 26.8343 230.504C27.1221 230.147 26.869 230.033 25.4139 229.863C24.44 229.749 23.2288 229.587 22.7223 229.503C21.5174 229.303 16.7226 229.332 16.3933 229.541C15.949 229.823 12.4393 229.956 12.4393 229.691C12.4393 229.552 12.6464 229.261 12.8997 229.045C13.1529 228.829 13.3601 228.504 13.3601 228.323C13.3601 228.142 13.2692 228.087 13.1581 228.201C13.0471 228.315 12.7708 228.25 12.5442 228.057C12.3161 227.863 12.1323 227.84 12.1323 228.007C12.1323 228.173 11.9251 228.309 11.6719 228.309C10.9347 228.309 11.1369 227.971 12.1499 227.51C13.2892 226.992 13.126 226.775 11.2894 226.363C9.61398 225.989 9.29459 225.401 10.4958 224.903C11.739 224.388 17.5796 223.72 20.9184 223.711C22.4834 223.706 24.1302 223.608 24.5781 223.493L25.3924 223.283L24.5178 222.547C24.0368 222.143 23.4096 221.807 23.1241 221.801C22.3966 221.785 22.1754 221.283 22.5657 220.534C22.9778 219.743 25.6479 218.32 26.7207 218.32C27.173 218.32 27.4345 218.184 27.3267 218.004C27.2224 217.831 26.8837 217.689 26.574 217.689C26.054 217.689 25.4758 216.901 25.5897 216.348C25.7055 215.786 20.8353 216.415 20.4277 217.015C20.1164 217.473 12.2781 218.67 11.5075 218.377L10.7737 218.098L11.4875 217.706C11.8801 217.49 14.4304 216.931 17.1549 216.465C22.1403 215.611 23.3536 215.008 20.0868 215.008C19.083 215.008 18.1596 214.827 17.8594 214.573C17.433 214.212 16.8426 214.202 14.3557 214.514C9.78291 215.088 7.12534 215.482 6.50211 215.679C6.08919 215.809 5.96502 215.715 6.04167 215.332C6.15338 214.773 7.10305 214.117 8.59188 213.571C9.87339 213.1 9.0768 212.686 7.43825 212.97C6.72785 213.093 5.52503 213.294 4.76531 213.416L3.384 213.639L4.5351 212.505C5.1682 211.882 5.68619 211.321 5.68619 211.259C5.68619 211.197 4.82963 211.046 3.78273 210.925C1.30747 210.637 -0.0169826 209.924 0.000164418 208.888C0.00917162 208.342 1.99497 207.609 3.8427 207.47C4.60338 207.413 6.33079 207.141 7.68141 206.865C9.03202 206.589 11.1042 206.3 12.2862 206.222C13.4681 206.144 15.2638 205.931 16.2766 205.748C22.5663 204.613 23.982 204.333 24.2531 204.174C24.4197 204.076 23.9362 203.84 23.1787 203.651C22.4164 203.46 21.8015 203.121 21.8015 202.892C21.8015 202.361 24.8953 201.208 27.7031 200.692C29.069 200.441 30.0796 200.068 30.4105 199.692C30.7066 199.356 31.7342 198.932 32.7508 198.726C35.0574 198.26 34.9951 197.818 32.4889 196.866C31.9515 196.662 31.5742 196.331 31.6502 196.13C31.8234 195.674 33.2462 194.977 34.0056 194.977C34.3196 194.977 34.4911 194.835 34.3867 194.661C34.2824 194.488 33.1692 194.346 31.9129 194.346C29.8432 194.346 29.012 194.024 30.0126 193.609C30.9066 193.238 26.4269 193.439 24.2143 193.868C21.4589 194.404 19.9597 194.18 19.9597 193.233C19.9597 192.796 20.7615 192.223 22.9727 191.079C25.0557 190.001 25.861 189.437 25.5818 189.252C25.0515 188.9 25.5749 188.54 27.6337 187.841C30.5396 186.855 32.8448 185.201 32.5422 184.321C32.3355 183.719 33.4681 183.391 38.1474 182.697C40.4733 182.352 42.8027 181.851 43.3237 181.584C43.8447 181.317 44.9478 181.015 45.775 180.913C48.0558 180.632 52.4201 179.498 53.1027 179.008C53.4357 178.769 54.1264 178.564 54.6375 178.552C55.1486 178.54 55.843 178.408 56.1807 178.258C56.6695 178.043 56.5445 177.978 55.5668 177.941C52.9504 177.842 51.5621 177.577 51.2152 177.11C50.9784 176.791 50.6084 176.693 50.1408 176.825C49.5271 176.999 49.5033 176.978 49.9703 176.677C50.2688 176.485 50.7523 176.369 51.0447 176.418C51.3371 176.467 51.7622 176.388 51.9893 176.242C52.2336 176.085 52.7114 176.146 53.1593 176.392C53.7494 176.717 54.0446 176.726 54.4971 176.436C54.8646 176.2 55.1461 176.177 55.2637 176.372C55.3659 176.542 56.2356 176.686 57.1964 176.692C58.1572 176.699 59.2886 176.907 59.7107 177.154C60.6302 177.695 60.9385 177.734 60.9385 177.312C60.9385 177.139 60.7232 176.997 60.46 176.997C60.1968 176.997 60.0571 176.871 60.1496 176.717C60.2421 176.563 60.0285 176.36 59.6749 176.265C59.3214 176.17 59.0921 175.905 59.1655 175.677C59.3009 175.256 60.6758 175.009 64.929 174.642C68.7715 174.311 69.8403 174.133 69.8403 173.823C69.8403 173.66 69.6331 173.527 69.3799 173.527C69.1241 173.527 68.9194 173.246 68.9194 172.896C68.9194 172.433 69.1241 172.265 69.6868 172.265C70.5698 172.265 70.7204 171.779 69.9053 171.56C69.6034 171.479 68.0494 171.489 66.452 171.581C61.7996 171.851 59.9386 171.761 58.9653 171.22C58.4709 170.945 57.978 170.776 57.8698 170.845C57.7616 170.914 57.7302 170.57 57.7999 170.082C57.9521 169.016 57.5204 168.85 54.3687 168.761C52.4824 168.708 52.336 168.66 52.9915 168.311C54.07 167.736 58.026 166.912 60.3851 166.77C61.5907 166.697 62.7296 166.438 63.1392 166.144C64.0113 165.516 64.5367 165.508 65.1263 166.114C65.3915 166.386 66.1306 166.584 66.8694 166.58C69.1445 166.568 77.6328 165.681 78.7853 165.335C79.8616 165.012 79.8942 164.959 79.6671 163.925C79.5241 163.273 79.5562 162.722 79.749 162.524C79.9679 162.299 79.9585 162.064 79.7187 161.767C78.9853 160.859 79.9182 160.671 84.3978 160.824C87.8785 160.943 88.9642 160.877 89.6705 160.507C90.4178 160.116 93.7868 159.576 96.0852 159.479C96.4228 159.465 97.3898 159.326 98.2339 159.171L99.7687 158.889L98.3874 158.66C97.6277 158.533 95.3485 158.503 93.3226 158.591C91.2967 158.68 88.3959 158.733 86.8765 158.71C85.357 158.687 82.3872 158.899 80.2769 159.182C76.1013 159.741 71.7951 160.132 69.9413 160.121C69.2949 160.117 68.6792 160.237 68.5732 160.389C68.4671 160.54 67.9491 160.682 67.4221 160.704C66.895 160.727 66.4638 160.862 66.4638 161.006C66.4638 161.15 66.153 161.177 65.7731 161.067C65.2325 160.911 65.1825 160.94 65.5429 161.199C65.9398 161.485 65.9292 161.531 65.4662 161.535C65.1707 161.538 64.929 161.698 64.929 161.892C64.929 162.108 64.6371 162.047 64.1724 161.734C63.3321 161.168 62.9637 161.079 63.2192 161.504C63.3116 161.658 63.1126 161.858 62.7769 161.948C62.4275 162.042 62.1663 161.956 62.1663 161.747C62.1662 161.536 61.6816 161.382 61.0152 161.382C60.2836 161.382 59.8904 161.52 59.9361 161.762C59.9855 162.023 59.6547 162.094 58.875 161.992C57.5972 161.824 56.3365 161.089 56.3295 160.508C56.3262 160.259 56.2182 160.29 56.0272 160.594C55.7963 160.961 55.7286 160.868 55.725 160.179C55.719 159.041 56.2247 158.07 56.8235 158.07C57.0808 158.07 57.2059 157.928 57.1016 157.755C56.9972 157.581 57.1617 157.428 57.4672 157.415C58.4787 157.371 59.1211 157.18 59.8051 156.719C60.4183 156.307 61.8594 156.465 61.8594 156.946C61.8594 157.033 61.6743 157.031 61.4482 156.941C61.222 156.852 60.8421 157.026 60.604 157.327C60.231 157.8 60.2314 157.838 60.6074 157.605C60.9426 157.398 60.9933 157.469 60.8272 157.914C60.6979 158.26 60.7695 158.596 61.0052 158.749C61.5925 159.132 62.087 159.06 61.5528 158.67C61.2064 158.416 61.3842 158.375 62.2713 158.502C62.9233 158.595 63.701 158.509 64.0114 158.31C64.4362 158.038 64.6818 158.043 65.022 158.333C65.3845 158.643 65.5176 158.608 65.7096 158.157C65.8406 157.849 65.9258 157.49 65.8989 157.36C65.8721 157.23 66.0459 157.123 66.2851 157.123C66.5242 157.123 66.7726 156.961 66.837 156.763C66.9013 156.564 67.3592 156.358 67.8545 156.303C68.3498 156.249 68.9093 155.988 69.098 155.723C69.2866 155.457 69.5529 155.345 69.6897 155.472C69.8265 155.6 69.8517 155.456 69.7457 155.152C69.5084 154.472 70.0955 154.409 70.3487 155.087C70.5095 155.518 70.5967 155.512 71.1064 155.038C71.6506 154.532 71.6827 154.535 71.6871 155.103C71.691 155.606 71.74 155.627 71.9894 155.231C72.433 154.525 72.3696 154.372 71.5481 154.16C71.027 154.025 70.8146 153.765 70.8485 153.303C70.9026 152.566 71.9718 152.015 73.2038 152.09C74.3521 152.159 75.3659 151.753 75.3659 151.224C75.3659 150.883 75.671 150.783 76.517 150.847C77.7541 150.939 79.8354 150.584 80.5842 150.153C80.956 149.939 80.9265 149.883 80.4307 149.863C80.093 149.85 79.1261 149.772 78.282 149.691C75.6718 149.439 72.1999 149.447 70.9474 149.707C70.0875 149.886 69.8119 149.856 69.9657 149.6C70.0978 149.381 70.0147 149.31 69.7485 149.415C69.496 149.514 69.0886 149.225 68.7646 148.717C68.3692 148.097 68.3172 147.814 68.582 147.723C68.8307 147.638 68.7706 147.45 68.3989 147.15C67.8944 146.744 67.9269 146.719 68.7663 146.869C69.2728 146.959 69.5145 146.949 69.3035 146.847C68.5261 146.471 68.9542 146.083 70.1475 146.083C70.9227 146.083 71.3771 146.228 71.3801 146.477C71.3834 146.767 71.4545 146.759 71.6487 146.444C71.8144 146.175 71.9843 146.135 72.1056 146.337C72.3117 146.679 72.7024 146.653 73.6618 146.231C73.9908 146.086 74.714 145.958 75.2689 145.946C76.5411 145.92 76.9542 145.137 75.696 145.137C75.1984 145.137 74.741 144.932 74.6409 144.663C74.5217 144.344 74.6558 144.19 75.0532 144.19C75.3772 144.19 75.7527 144.013 75.8877 143.796C76.2398 143.231 77.4907 142.561 77.8128 142.765C77.963 142.861 78.1728 142.795 78.2788 142.618C78.3849 142.442 78.8528 142.298 79.3187 142.298C79.7845 142.298 80.916 142.067 81.8329 141.785C83.2803 141.341 83.4104 141.239 82.8191 141.011C82.4445 140.866 79.8815 140.767 77.1234 140.791C74.3654 140.815 71.9284 140.719 71.7078 140.579C71.4794 140.434 71.2163 140.475 71.0967 140.673C70.85 141.084 61.3079 141.394 61.0707 141C60.9874 140.861 60.7048 140.833 60.4428 140.936C60.1202 141.063 60.0777 141.194 60.3112 141.343C60.5009 141.463 60.2362 141.562 59.723 141.562C59.2099 141.562 58.7901 141.426 58.7901 141.26C58.7901 141.094 58.5796 141.138 58.3223 141.358C58.0649 141.577 57.7562 141.656 57.6362 141.532C57.5162 141.409 57.7612 141.04 58.1808 140.712L58.9436 140.115L58.1762 140.266C57.5037 140.399 57.4847 140.381 58.0227 140.118C58.908 139.686 60.3629 139.731 61.2157 140.216C62.0469 140.69 63.0875 140.534 63.0875 139.936C63.0875 139.66 63.6936 139.537 65.0827 139.529C66.3346 139.521 67.078 139.646 67.078 139.864C67.078 140.054 67.2506 139.978 67.4617 139.693C67.7388 139.32 68.5699 139.12 70.4545 138.974C71.8895 138.863 73.9355 138.571 75.0012 138.326C76.0668 138.082 77.379 137.868 77.9173 137.851C78.4555 137.834 79.5865 137.627 80.4306 137.39C81.8698 136.986 81.7073 136.97 77.8215 137.132C75.5423 137.226 73.4703 137.306 73.2171 137.309C72.9639 137.312 69.7868 137.647 66.1571 138.053C62.5273 138.46 58.57 138.836 57.3632 138.889C56.1563 138.942 55.232 139.092 55.3093 139.222C55.3866 139.352 54.8546 139.459 54.1271 139.46C53.3997 139.46 51.5613 139.667 50.0418 139.918C47.4363 140.349 41.3072 140.794 42.1396 140.491C42.3517 140.414 42.4471 140.221 42.3517 140.063C42.2563 139.904 42.5662 139.767 43.0404 139.759C43.5147 139.751 44.3861 139.474 44.977 139.145C45.5679 138.816 46.3276 138.414 46.6653 138.253C47.7751 137.721 65.8791 134.643 70.1475 134.26C71.4137 134.147 75.0742 133.773 78.2819 133.429C81.4896 133.086 85.7234 132.667 87.6903 132.498C89.6572 132.33 91.9311 131.987 92.7434 131.735C93.8105 131.405 94.2791 131.376 94.432 131.631C94.6259 131.953 97.8553 131.865 101.764 131.43C102.355 131.364 104.22 131.222 105.908 131.114C108.937 130.919 113.553 130.265 116.136 129.664C116.866 129.494 117.592 129.437 117.75 129.537C117.908 129.638 120.047 129.407 122.502 129.025C126.136 128.459 127.098 128.402 127.67 128.716C128.245 129.032 128.981 128.979 131.721 128.424C136.282 127.501 142.233 126.3 145.199 125.705C146.549 125.434 148.511 125.011 149.559 124.765C150.607 124.519 151.919 124.318 152.475 124.319C153.031 124.319 154.108 124.116 154.868 123.866C156.148 123.445 158.77 122.978 165.765 121.923C169.359 121.381 170.082 121.256 173.746 120.545C175.434 120.217 178.197 119.714 179.885 119.428C181.573 119.141 183.369 118.837 183.875 118.751C187.459 118.142 188.142 118.153 188.855 118.833C189.239 119.2 189.554 119.662 189.554 119.859C189.554 120.056 189.658 120.2 189.784 120.179C189.911 120.159 190.33 120.159 190.716 120.179C191.303 120.211 191.367 120.313 191.11 120.806C190.735 121.528 191.035 121.917 191.598 121.437C192.231 120.897 192.087 121.383 191.358 122.243C190.976 122.695 190.209 123.1 189.503 123.222C188.473 123.401 188.355 123.5 188.685 123.908C189.18 124.522 188.762 124.56 208.432 122.114C209.783 121.946 212.2 121.741 213.804 121.657C215.408 121.574 218.308 121.357 220.25 121.174C222.191 120.992 224.747 120.786 225.928 120.717C227.11 120.648 228.623 120.445 229.291 120.265C229.959 120.086 232.607 119.93 235.177 119.919C237.746 119.909 240.032 119.837 240.255 119.759C240.808 119.568 248.001 119.181 249.712 119.25C250.469 119.281 251.3 119.502 251.558 119.742C252.136 120.28 253.61 120.334 260.461 120.068C263.611 119.946 266.503 119.668 267.453 119.396C268.692 119.041 270.748 118.944 276.201 118.983C280.122 119.011 286.645 118.926 290.697 118.795C298.908 118.53 298.469 118.527 306.965 118.906C312.466 119.151 315.64 119.161 320.471 118.949C321.316 118.912 321.764 118.817 321.469 118.737C321.174 118.658 320.932 118.445 320.932 118.263C320.932 118.046 321.793 117.996 323.464 118.118C324.857 118.219 329.036 118.445 332.75 118.621C336.464 118.797 341.229 119.086 343.34 119.264C351.818 119.979 355.052 120.231 359.455 120.52C370.468 121.243 376.273 121.531 382.323 121.654C385.109 121.711 388.562 121.855 389.997 121.973C391.432 122.091 393.573 122.175 394.755 122.159C395.937 122.144 398.285 122.271 399.973 122.441C401.662 122.612 407.129 122.814 412.124 122.89C417.118 122.967 421.815 123.168 422.56 123.337C423.306 123.506 425.001 123.721 426.328 123.815C427.654 123.909 429.174 124.059 429.704 124.148C431.519 124.453 434.353 124.661 438.497 124.792C442.146 124.908 445.691 125.185 450.928 125.764C451.773 125.857 452.947 125.973 453.538 126.022C454.128 126.07 455.648 126.201 456.914 126.312C458.18 126.424 460.321 126.602 461.672 126.708C463.022 126.814 464.196 126.944 464.281 126.998C464.365 127.051 465.22 127.181 466.18 127.286C467.14 127.391 468.128 127.556 468.375 127.654C468.623 127.751 470.047 127.873 471.541 127.925C475.644 128.067 475.638 128.066 475.638 128.576C475.638 128.836 475.785 129.049 475.964 129.049C476.142 129.049 476.189 128.883 476.067 128.68C475.915 128.428 476.015 128.378 476.381 128.522C476.675 128.639 477.221 128.734 477.594 128.734C478.05 128.734 478.285 128.939 478.317 129.365C478.372 130.119 478.205 130.155 477.59 129.522C476.947 128.862 476.229 128.911 476.444 129.601C476.551 129.941 476.518 130.018 476.358 129.801C476.181 129.56 475.317 129.515 473.643 129.659C470.762 129.906 468.588 129.838 464.588 129.375C462.984 129.19 460.912 128.962 459.984 128.868C459.055 128.775 458.134 128.645 457.937 128.578C457.74 128.512 457.498 128.673 457.4 128.936C457.268 129.291 456.976 129.359 456.276 129.201C455.177 128.953 454.47 128.859 451.542 128.569C450.36 128.452 449.311 128.305 449.21 128.241C448.995 128.105 444.889 128.082 439.264 128.187C435.695 128.253 433.179 128.072 431.301 127.615C430.243 127.358 422.842 127.246 422.842 127.488C422.842 127.612 423.774 127.816 424.914 127.942C426.053 128.067 427.262 128.226 427.6 128.294C429.968 128.774 436.311 129.312 441.413 129.466C442.594 129.501 443.707 129.627 443.886 129.744C444.183 129.939 453.582 130.693 454.087 130.561C454.207 130.53 455.341 130.604 456.607 130.725C458.565 130.913 463.564 131.291 464.818 131.346C465.272 131.365 465.325 131.773 464.909 132.037C464.61 132.227 462.296 132.27 460.202 132.126C459.563 132.082 458.928 131.859 458.79 131.631C458.605 131.322 458.077 131.27 456.73 131.429C455.734 131.547 454.826 131.699 454.713 131.768C454.6 131.837 454.298 131.679 454.042 131.415C453.786 131.152 453.504 131.058 453.414 131.207C453.241 131.495 447.045 131.373 445.25 131.045C444.659 130.938 443.617 130.82 442.935 130.784C442.253 130.749 441.39 130.551 441.017 130.346C440.474 130.048 440.338 130.058 440.338 130.394C440.338 130.642 439.928 130.85 439.341 130.898C436.914 131.1 433.516 131.081 430.823 130.851C428.885 130.685 428.058 130.706 428.358 130.912C429.568 131.745 427.298 132.155 423.763 131.743C420.628 131.378 420.068 131.359 418.714 131.57C418.015 131.679 417.035 131.656 416.536 131.519C415.221 131.157 408.388 130.516 405.345 130.469C403.91 130.447 401.838 130.332 400.741 130.213C399.643 130.094 397.433 129.924 395.829 129.835C394.226 129.746 390.427 129.465 387.388 129.21C384.349 128.955 379.829 128.651 377.344 128.534C373.293 128.344 372.804 128.377 372.628 128.847C372.461 129.295 371.927 129.371 369.013 129.359C367.133 129.352 364.973 129.461 364.213 129.602L362.832 129.858L365.134 130.209C366.4 130.403 367.919 130.557 368.51 130.552C369.101 130.547 371.518 130.764 373.882 131.032C376.246 131.301 380.735 131.679 383.858 131.873C386.981 132.067 389.844 132.293 390.22 132.376C390.595 132.459 393.703 132.665 397.126 132.834C403.278 133.138 407.589 133.385 410.87 133.624C411.799 133.691 414.984 133.89 417.949 134.066C420.914 134.242 423.538 134.449 423.781 134.526C424.024 134.603 424.499 134.774 424.837 134.905C425.175 135.036 425.982 135.183 426.631 135.231C427.28 135.28 427.971 135.544 428.167 135.819C428.45 136.216 429.249 136.336 432.052 136.401C433.993 136.446 435.719 136.57 435.887 136.676C436.056 136.783 437.23 136.953 438.497 137.055C444.55 137.542 450.6 137.937 453.384 138.028C455.072 138.083 458.664 138.376 461.365 138.679C464.066 138.982 467.519 139.277 469.039 139.334C479.555 139.733 487.954 140.235 492.368 140.728C493.887 140.898 496.55 141.129 498.286 141.24C500.022 141.352 501.515 141.564 501.604 141.713C501.693 141.861 501.309 141.994 500.75 142.008C500.192 142.022 499.345 142.063 498.868 142.098C498.391 142.134 497.941 142.063 497.868 141.941C497.795 141.819 497.224 141.864 496.6 142.041C495.967 142.221 494.578 142.271 493.457 142.154C492.351 142.04 486.474 141.891 480.396 141.823C474.319 141.755 467.067 141.608 464.281 141.496C459.316 141.296 457.909 141.418 461.166 141.766C462.07 141.862 462.876 142.01 462.957 142.094C463.176 142.319 462.054 142.876 461.123 143.004C460.038 143.153 459.695 143.553 460.623 143.587C461.031 143.602 463.161 143.747 465.355 143.908C467.55 144.07 471.867 144.286 474.948 144.389C480.013 144.557 480.55 144.628 480.55 145.128C480.55 145.822 481.786 145.986 489.233 146.281C492.236 146.4 494.765 146.617 494.853 146.763C494.941 146.91 495.618 147.029 496.358 147.029C498.88 147.029 498.173 147.9 495.075 148.61C494.201 148.81 493.027 148.948 492.466 148.916C488.728 148.703 489.708 149.324 493.902 149.826C495.591 150.028 497.939 150.262 499.121 150.346C500.302 150.43 502.444 150.64 503.879 150.813C505.314 150.986 508.214 151.221 510.325 151.335C512.923 151.476 514.261 151.677 514.469 151.957C514.639 152.186 515.734 152.462 516.924 152.575C518.106 152.688 519.211 152.954 519.38 153.166C519.549 153.378 520.696 153.647 521.929 153.764C523.162 153.881 524.48 154.185 524.859 154.44C525.292 154.732 526.62 154.955 528.449 155.042C532.393 155.231 535.483 155.586 535.654 155.871C535.834 156.17 533.146 156.598 532.733 156.336C532.564 156.228 532.426 156.275 532.426 156.439C532.426 156.603 532.909 156.831 533.5 156.945C534.667 157.17 534.887 157.562 534.037 157.901C533.034 158.301 534.438 158.933 537.594 159.504C540.244 159.984 541.919 160.577 540.698 160.603C539.551 160.628 541.322 161.184 543.166 161.378C544.261 161.493 545.317 161.724 545.514 161.891C545.71 162.059 546.744 162.34 547.812 162.517C550.779 163.008 550.747 163.402 547.72 163.647C546.589 163.738 545.555 164.009 545.244 164.295C544.808 164.696 544.275 164.744 542.328 164.557C538.37 164.177 537.587 164.251 536.993 165.06C536.702 165.457 536.524 165.88 536.597 166.001C536.67 166.123 537.66 166.321 538.798 166.443C539.936 166.564 541.005 166.775 541.174 166.911C541.343 167.047 542.137 167.259 542.939 167.382C545.14 167.718 544.688 168.164 542.146 168.164C540.908 168.164 539.79 168.271 539.663 168.401C539.535 168.531 538.247 168.637 536.801 168.637C534.973 168.637 534.132 168.757 534.041 169.032C533.951 169.302 534.28 169.426 535.086 169.428C535.733 169.428 536.746 169.56 537.337 169.719C537.928 169.878 539.58 170.098 541.01 170.208C542.439 170.317 543.764 170.54 543.954 170.702C544.144 170.865 544.38 170.915 544.479 170.814C544.577 170.713 544.979 170.748 545.371 170.892C545.923 171.094 545.596 171.2 543.937 171.355C541.979 171.538 539.746 171.998 538.565 172.463C537.815 172.757 538.981 173.081 542.478 173.549C544.209 173.781 545.625 174.055 545.625 174.158C545.625 174.261 546.523 174.286 547.62 174.215C549.224 174.11 549.615 174.174 549.615 174.545C549.615 175.117 548.644 176.052 548.056 176.045C547.695 176.041 547.7 175.988 548.08 175.735C548.472 175.474 548.459 175.428 547.994 175.424C547.693 175.421 547.365 175.64 547.264 175.909C547.108 176.326 546.553 176.374 543.514 176.233C539.704 176.057 538.768 176.266 539.47 177.135C540.645 178.59 545.438 180.151 548.733 180.151C550.724 180.151 551.764 180.533 551.764 181.266C551.764 181.633 551.273 181.727 549.385 181.721C548.076 181.717 546.453 181.564 545.778 181.381C545.103 181.198 541.921 180.984 538.707 180.906C533.024 180.767 532.863 180.78 532.818 181.397C532.773 182.004 533.148 182.441 533.807 182.55C533.976 182.578 535.3 182.831 536.749 183.111C541.494 184.03 545.706 184.59 550.018 184.874C554.013 185.138 555.375 185.499 554.962 186.185C554.868 186.342 554.659 186.386 554.497 186.284C554.336 186.181 554.242 186.285 554.289 186.515C554.335 186.746 554.134 186.914 553.839 186.89C553.545 186.866 553.371 186.957 553.453 187.092C553.534 187.227 553.131 187.427 552.558 187.538C551.319 187.777 551.026 188.345 551.66 189.276C551.998 189.772 552.034 190.068 551.793 190.366C551.397 190.856 551.656 191.191 552.429 191.191C552.738 191.191 552.992 191.251 552.992 191.323C552.992 191.396 553.083 191.701 553.195 192.001C553.382 192.502 553.176 192.53 550.663 192.337C549.158 192.222 547.409 192.044 546.776 191.941C545.86 191.792 545.625 191.854 545.625 192.245C545.625 192.516 545.402 192.865 545.13 193.022C544.427 193.426 544.849 195.243 545.73 195.609C546.36 195.87 546.363 195.885 545.778 195.925C545.164 195.967 545.164 195.967 545.778 196.238C546.377 196.503 545.54 196.616 542.401 196.695C541.092 196.728 540.099 197.152 540.099 197.679C540.099 197.961 539.781 198.133 539.255 198.135C538.791 198.138 538.097 198.226 537.713 198.332C537.059 198.512 537.049 198.55 537.56 198.948C537.859 199.182 538.482 199.377 538.944 199.383C539.406 199.389 540.695 199.89 541.809 200.497C542.932 201.109 544.281 201.601 544.838 201.601C546.698 201.601 549.599 202.003 549.456 202.24C549.378 202.37 549.55 202.457 549.837 202.433C550.124 202.409 550.408 202.634 550.468 202.933C550.608 203.627 548.796 204.824 547.861 204.655C547.487 204.587 547.131 204.687 547.069 204.876C546.924 205.322 543.342 205.448 541.909 205.058C541.301 204.892 538.158 204.717 534.926 204.67C529.461 204.591 527.85 204.752 529.893 205.173C530.357 205.269 531.359 205.492 532.118 205.669C532.878 205.845 534.087 205.996 534.804 206.003C535.522 206.011 536.109 206.159 536.109 206.333C536.109 206.506 536.325 206.648 536.589 206.648C536.854 206.648 537.354 206.804 537.7 206.995C538.324 207.337 538.322 207.345 537.603 207.714C536.344 208.359 536.734 208.968 538.851 209.659C539.936 210.014 540.889 210.511 540.968 210.763C541.048 211.015 541.234 211.304 541.384 211.405C541.853 211.722 541.291 212.695 540.76 212.485C540.491 212.379 540.356 212.38 540.46 212.486C540.563 212.593 540.3 213.038 539.874 213.475C539.315 214.05 538.737 214.285 537.787 214.322C537.064 214.351 536.529 214.467 536.597 214.581C536.666 214.694 535.399 214.718 533.784 214.633C531.435 214.509 530.743 214.574 530.331 214.956C529.759 215.487 526.745 215.706 525.172 215.331C524.572 215.188 524.134 215.232 524.003 215.449C523.888 215.64 523.468 215.796 523.07 215.796C522.147 215.796 521.375 216.099 521.375 216.461C521.375 216.616 521.575 216.742 521.82 216.742C522.065 216.742 522.382 216.958 522.526 217.221C522.687 217.517 523.887 217.919 525.687 218.279C529.234 218.988 531.844 220.072 531.598 220.733C531.503 220.987 531.229 221.117 530.988 221.023C530.748 220.928 530.629 220.979 530.723 221.136C530.817 221.292 530.533 221.863 530.09 222.403C529.498 223.127 529.122 223.333 528.668 223.185C528.326 223.073 528.128 223.112 528.224 223.271C528.319 223.429 527.916 223.572 527.329 223.589C526.742 223.606 525.292 223.865 524.107 224.163L521.952 224.706L522.638 225.456C523.015 225.868 523.451 226.206 523.607 226.206C523.763 226.206 524.365 226.437 524.945 226.719C525.955 227.212 525.979 227.263 525.532 227.965C525.238 228.426 525.179 228.769 525.374 228.892C525.543 229 525.594 229.236 525.485 229.416C525.358 229.627 525.193 229.591 525.02 229.315C524.846 229.037 524.671 229 524.521 229.209C524.395 229.386 523.877 229.736 523.37 229.987L522.449 230.443L523.421 230.551C524.473 230.667 525.035 231.476 524.273 231.777C524.015 231.878 523.728 231.883 523.634 231.787C523.541 231.691 523.005 231.878 522.443 232.203C521.881 232.527 520.896 232.894 520.255 233.017C519.613 233.141 518.902 233.433 518.675 233.667C518.136 234.22 517.925 234.208 515.073 233.459C512.514 232.786 511.792 232.848 510.742 233.835C510.149 234.391 509.91 234.419 508.307 234.114C506.203 233.714 502.239 233.663 502.465 234.039C502.552 234.183 503.631 234.478 504.862 234.693C508 235.243 508.353 235.361 507.838 235.689C506.945 236.256 510.944 237.595 514.853 238.037C515.908 238.157 516.839 238.366 516.92 238.502C517.002 238.638 516.779 239.128 516.425 239.59C515.831 240.367 515.819 240.474 516.276 240.993C516.548 241.302 516.771 241.632 516.771 241.727C516.771 242.117 511.573 241.556 509.864 240.981C507.407 240.156 502.432 239.553 501.972 240.025C501.729 240.275 501.727 240.49 501.964 240.784C502.285 241.182 502.777 241.352 506.871 242.479C508.148 242.831 508.79 243.166 508.79 243.482C508.79 243.882 508.427 243.924 506.512 243.745C505.053 243.61 504.164 243.651 504.038 243.86C503.93 244.039 504.011 244.186 504.218 244.186C504.425 244.186 504.523 244.259 504.436 244.349C504.23 244.561 499.882 243.623 499.45 243.274C499.11 243 494.628 242.29 493.672 242.359C493.376 242.381 493.135 242.576 493.135 242.793C493.135 243.01 493.063 243.379 492.976 243.613C492.825 244.017 496.574 244.834 503.033 245.805C504.004 245.95 505.298 246.285 505.91 246.547C506.522 246.81 507.455 247.026 507.983 247.027C509.373 247.03 511.37 247.654 511.047 247.985C510.898 248.139 509.028 248.305 506.893 248.355C504.758 248.404 503.034 248.468 503.062 248.498C503.09 248.527 503.795 248.827 504.629 249.164C506.082 249.75 506.117 249.792 505.453 250.157C504.933 250.443 504.378 250.454 503.23 250.201C501.361 249.789 501.116 249.784 501.116 250.154C501.116 250.314 501.528 250.538 502.033 250.652C503.711 251.03 503.348 251.441 501.334 251.441C500.163 251.441 498.978 251.641 498.402 251.936C497.82 252.235 497.167 252.343 496.757 252.21C495.881 251.924 481.469 251.815 481.638 252.096C481.995 252.689 477.968 252.686 474.532 252.09C467.574 250.883 461.654 250.197 457.835 250.155C455.724 250.131 452.547 249.917 450.775 249.679C449.002 249.441 445.844 249.099 443.757 248.92C441.669 248.741 439.874 248.54 439.766 248.474C439.659 248.407 438.535 248.262 437.268 248.151C436.002 248.04 434.483 247.89 433.892 247.816C432.662 247.663 427.061 247.343 422.995 247.192C420.053 247.083 415.584 246.793 412.558 246.514C411.545 246.421 407.609 246.284 403.81 246.21C400.011 246.136 395.522 245.959 393.834 245.817C392.146 245.675 387.476 245.573 383.458 245.59C377.381 245.616 376.103 245.7 375.861 246.086C375.614 246.481 375.528 246.485 375.294 246.111C375.11 245.818 374.715 245.733 374.111 245.858C373.611 245.96 373.053 245.889 372.868 245.699C372.683 245.509 372.076 245.324 371.518 245.287C370.961 245.25 370.229 245.136 369.891 245.034C368.052 244.474 366.135 244.311 365.363 244.649C364.743 244.92 363.196 244.6 363.41 244.244C363.488 244.113 362.009 243.968 360.122 243.922C355.042 243.796 354.515 243.739 353.94 243.248C353.473 242.85 353.426 242.868 353.518 243.414C353.589 243.83 353.474 243.992 353.162 243.916C352.909 243.854 352.391 243.801 352.011 243.797C351.631 243.794 351.32 243.682 351.32 243.549C351.32 243.416 351.098 243.219 350.826 243.112C350.467 242.97 350.381 243.052 350.515 243.41C350.642 243.75 350.581 243.826 350.319 243.655C350.11 243.518 348.627 243.362 347.023 243.307C343.65 243.193 344.151 243.194 328.298 243.252C321.63 243.276 315.32 243.193 314.276 243.068C313.232 242.942 312.146 242.932 311.862 243.043C311.339 243.249 301.312 243.656 298.231 243.596C295.822 243.55 293.089 245.005 294.609 245.526C294.836 245.603 294.679 245.827 294.225 246.072C293.804 246.301 293.382 246.608 293.288 246.754C292.95 247.284 290.343 247.579 289.603 247.172C289.137 246.915 287.901 246.823 285.957 246.9C284.34 246.964 279.028 247.091 274.153 247.183C269.278 247.274 264.954 247.436 264.544 247.541C264.134 247.647 262.391 247.755 260.672 247.782C258.952 247.809 257.268 247.99 256.931 248.185C256.327 248.534 253.48 249.106 253.003 248.975C252.416 248.813 251.326 248.854 250.331 249.075C249.74 249.206 248.981 249.29 248.643 249.261C248.305 249.232 247.753 249.183 247.415 249.152C247.077 249.122 245.489 249.263 243.885 249.467C242.281 249.671 240.372 249.835 239.642 249.831C238.912 249.828 238.152 249.959 237.954 250.123C237.755 250.287 237.144 250.52 236.595 250.641C235.778 250.82 235.597 250.763 235.597 250.326C235.597 249.853 235.343 249.818 233.372 250.015C232.148 250.138 228.936 250.271 226.235 250.311C223.534 250.351 220.58 250.551 219.67 250.755C218.761 250.958 217.95 251.125 217.868 251.125C217.786 251.125 217.89 251.338 218.101 251.598C218.311 251.859 218.949 252.072 219.52 252.072C220.09 252.072 220.556 252.131 220.556 252.203C220.556 252.276 220.64 252.56 220.743 252.834C220.998 253.519 220.134 253.485 219.452 252.784C219.065 252.387 218.882 252.344 218.79 252.628C218.72 252.845 218.536 252.942 218.381 252.843C218.227 252.745 218.101 252.78 218.101 252.92C218.101 253.061 217.79 253.193 217.41 253.214C217.03 253.236 214.924 253.414 212.729 253.61C210.534 253.806 206.114 254.024 202.906 254.093C199.699 254.163 196.729 254.298 196.307 254.393C194.877 254.715 187.014 255.462 182.801 255.677C174.993 256.073 169.074 257.221 167.854 258.574C167.472 258.997 166.799 259.339 166.316 259.355C162.344 259.488 156.828 259.913 154.407 260.273C153.394 260.424 151.617 260.634 150.458 260.741C149.299 260.847 147.657 261.069 146.809 261.234C145.962 261.4 145.218 261.535 145.156 261.535C145.095 261.535 145.045 261.172 145.045 260.728ZM145.045 257.858C145.045 257.513 144.909 257.487 144.442 257.744C144.082 257.942 143.912 258.267 144.018 258.552C144.155 258.919 144.293 258.945 144.62 258.666C144.854 258.467 145.045 258.103 145.045 257.858ZM196.767 253.166C197.968 252.724 197.938 252.717 195.386 252.871C189.542 253.223 187.712 253.402 187.712 253.619C187.712 254.031 195.476 253.642 196.767 253.166ZM54.1855 249.357C54.1855 249.289 53.9783 249.233 53.7251 249.233C53.4718 249.233 53.2646 249.371 53.2646 249.539C53.2646 249.707 53.4718 249.762 53.7251 249.663C53.9783 249.563 54.1855 249.425 54.1855 249.357ZM76.4399 248.287C76.5471 248.109 76.2957 247.971 75.8622 247.971C75.4402 247.971 75.0095 248.113 74.9051 248.287C74.798 248.465 75.0494 248.602 75.4828 248.602C75.9049 248.602 76.3356 248.46 76.4399 248.287ZM61.8594 246.673C61.8594 246.347 61.4919 246.317 60.8102 246.586C60.0399 246.889 60.2467 247.268 61.092 247.102C61.5141 247.019 61.8594 246.826 61.8594 246.673ZM235.547 246.621C236.594 246.322 236.738 246.206 236.222 246.081C235.403 245.881 225.637 246.303 220.403 246.764C218.981 246.889 229.964 247.195 232.221 247.093C233.318 247.043 234.815 246.831 235.547 246.621ZM246.187 245.651C246.525 245.569 245.903 245.513 244.806 245.527C242.187 245.561 241.15 245.851 242.811 246.085C243.486 246.18 244.384 246.155 244.806 246.029C245.228 245.903 245.85 245.733 246.187 245.651ZM50.2969 245.743C50.9289 245.724 50.9248 245.708 50.2151 245.416C49.3782 245.073 48.6603 245.244 48.6603 245.787C48.6603 245.985 48.8783 246.06 49.1458 245.955C49.4128 245.849 49.9308 245.754 50.2969 245.743ZM250.799 245.388C250.881 245.304 250.334 245.211 249.585 245.182C248.835 245.153 248.126 245.287 248.009 245.481C247.86 245.729 248.221 245.791 249.223 245.688C250.008 245.607 250.717 245.473 250.799 245.388ZM490.833 241.663C490.95 241.467 490.46 241.361 489.546 241.384C488.236 241.418 488.173 241.449 488.991 241.663C490.334 242.014 490.621 242.014 490.833 241.663ZM17.7151 237.031C17.4935 236.94 17.2288 236.951 17.1268 237.056C17.0248 237.161 17.2061 237.235 17.5296 237.221C17.8872 237.206 17.96 237.132 17.7151 237.031ZM21.341 236.615C21.9579 236.412 21.988 236.361 21.4945 236.354C21.1569 236.348 20.6043 236.466 20.2667 236.615C19.4845 236.961 20.2915 236.961 21.341 236.615ZM25.4599 236.739C25.7269 236.634 25.9454 236.293 25.9454 235.981C25.9454 235.498 25.7523 235.439 24.6408 235.581C23.2303 235.762 22.3099 236.3 23.4102 236.3C23.7717 236.3 24.1528 236.442 24.2571 236.615C24.4755 236.979 24.7752 237.009 25.4599 236.739ZM524.138 231.253C524.138 231.079 523.896 230.94 523.6 230.942C523.141 230.946 523.13 230.992 523.524 231.253C524.103 231.638 524.138 231.638 524.138 231.253ZM33.063 218.42C32.8414 218.329 32.5766 218.34 32.4746 218.445C32.3726 218.549 32.5539 218.624 32.8775 218.61C33.2351 218.595 33.3078 218.52 33.063 218.42ZM30.5498 217.499C30.5498 216.985 29.696 216.927 28.5745 217.366C27.3536 217.843 27.6433 218.178 29.1685 218.054C30.0951 217.978 30.5498 217.795 30.5498 217.499ZM36.2514 217.727C35.9449 217.217 34.8472 217.087 34.8472 217.561C34.8472 217.826 35.1623 218.004 35.6327 218.004C36.0647 218.004 36.3431 217.879 36.2514 217.727ZM33.9263 217.373C34.2688 217.146 34.0919 217.066 33.2356 217.063C32.6025 217.06 32.0846 217.2 32.0846 217.373C32.0846 217.775 33.3213 217.775 33.9263 217.373ZM545.625 180.467C545.625 180.293 545.486 180.151 545.318 180.151C545.149 180.151 545.011 180.293 545.011 180.467C545.011 180.64 545.149 180.782 545.318 180.782C545.486 180.782 545.625 180.64 545.625 180.467ZM547.85 174.58C547.639 174.492 547.294 174.492 547.083 174.58C546.872 174.667 547.044 174.739 547.466 174.739C547.888 174.739 548.061 174.667 547.85 174.58ZM543.246 170.781C542.866 170.706 542.244 170.706 541.864 170.781C541.484 170.856 541.795 170.917 542.555 170.917C543.315 170.917 543.625 170.856 543.246 170.781ZM529.049 168.234C529.049 168.099 527.909 167.82 526.516 167.615C525.124 167.409 523.652 167.142 523.245 167.022C522.787 166.886 522.578 166.921 522.694 167.115C522.798 167.287 524.097 167.608 525.582 167.829C527.067 168.049 528.42 168.275 528.588 168.33C528.757 168.385 528.93 168.441 528.972 168.455C529.014 168.469 529.049 168.369 529.049 168.234ZM81.3512 165.325C81.8994 165.083 81.8767 165.052 81.1391 165.032C80.6848 165.02 80.2277 165.152 80.1234 165.325C79.8969 165.702 80.4984 165.702 81.3512 165.325ZM526.9 163.477C526.9 163.328 525.514 163.044 523.82 162.846C520.003 162.4 519.318 162.391 519.708 162.792C519.872 162.961 521.523 163.225 523.376 163.379C525.23 163.534 526.781 163.68 526.823 163.704C526.866 163.728 526.9 163.626 526.9 163.477ZM64.13 159.7C64.2169 159.555 64.087 159.437 63.8411 159.437C63.5953 159.437 63.3942 159.555 63.3942 159.7C63.3942 159.845 63.5242 159.963 63.6831 159.963C63.8419 159.963 64.043 159.845 64.13 159.7ZM105.198 159.116C104.976 159.025 104.712 159.037 104.61 159.141C104.508 159.246 104.689 159.321 105.013 159.307C105.37 159.292 105.443 159.217 105.198 159.116ZM57.562 158.701C57.562 158.528 57.3203 158.388 57.0249 158.39C56.5658 158.394 56.5546 158.44 56.9481 158.701C57.5274 159.086 57.562 159.086 57.562 158.701ZM58.7898 158.209C58.7898 158.133 58.6517 158.07 58.4829 158.07C58.3141 158.07 58.1759 158.221 58.1759 158.404C58.1759 158.588 58.3141 158.651 58.4829 158.543C58.6517 158.436 58.7898 158.286 58.7898 158.209ZM76.2864 156.013C76.7085 155.892 78.0207 155.674 79.2025 155.529C80.3843 155.384 81.8347 155.116 82.4256 154.933C83.0165 154.749 83.4999 154.611 83.4999 154.626C83.4999 154.746 85.6025 154.071 86.6462 153.615C88.2298 152.924 88.3298 152.392 86.8765 152.392C86.1261 152.392 85.8021 152.25 85.8021 151.919C85.8021 151.434 87.1759 151.242 89.4564 151.409C90.4499 151.482 93.2844 150.938 93.9334 150.55C94.4181 150.261 92.8691 149.934 90.8484 149.9C89.5338 149.878 88.4137 150.1 87.0299 150.657C85.953 151.091 84.7872 151.448 84.4393 151.451C83.9356 151.455 83.8976 151.515 84.2527 151.745C84.4978 151.905 84.8086 151.965 84.9433 151.88C85.078 151.794 85.1882 151.858 85.1882 152.022C85.1882 152.305 84.5163 152.504 82.1718 152.918C81.6101 153.017 81.076 153.298 80.9848 153.542C80.8493 153.905 80.7312 153.912 80.337 153.583C79.9333 153.246 79.8843 153.262 80.0358 153.678C80.168 154.041 80.0391 154.161 79.5561 154.122C79.1928 154.093 78.4372 154.198 77.877 154.356C77.1707 154.554 76.7238 154.527 76.419 154.267C76.1718 154.056 75.9795 154.028 75.9795 154.203C75.9795 154.551 73.6407 155.547 72.8229 155.547C72.5331 155.547 72.296 155.741 72.296 155.978C72.296 156.299 72.7076 156.387 73.9075 156.321C74.7939 156.273 75.8644 156.134 76.2864 156.013ZM88.9137 144.573C88.6922 144.497 88.3651 144.585 88.1867 144.768C87.9589 145.003 88.0788 145.044 88.5893 144.906C89.0044 144.795 89.1436 144.652 88.9137 144.573ZM459.676 143.323C459.676 143.193 459.256 143.056 458.744 143.02C458.211 142.981 457.891 143.082 457.995 143.256C458.209 143.612 459.677 143.671 459.676 143.323ZM89.7926 141.336L90.56 141.312L89.844 141.017C89.0351 140.684 87.6439 140.94 87.6439 141.423C87.6439 141.599 87.9526 141.656 88.3345 141.551C88.7144 141.446 89.3705 141.349 89.7926 141.336ZM457.221 141.404C457.221 141.26 457.014 141.141 456.76 141.141C456.507 141.141 456.3 141.26 456.3 141.404C456.3 141.549 456.507 141.667 456.76 141.667C457.014 141.667 457.221 141.549 457.221 141.404ZM458.506 141.452C458.285 141.361 458.02 141.372 457.918 141.477C457.816 141.581 457.997 141.656 458.321 141.642C458.678 141.627 458.751 141.552 458.506 141.452ZM95.0684 140.821C94.8468 140.73 94.5821 140.741 94.4801 140.846C94.3781 140.95 94.5594 141.025 94.8829 141.011C95.2405 140.996 95.3133 140.921 95.0684 140.821ZM60.6316 140.405C60.6316 140.232 60.4935 140.09 60.3246 140.09C60.1558 140.09 60.0177 140.232 60.0177 140.405C60.0177 140.579 60.1558 140.721 60.3246 140.721C60.4935 140.721 60.6316 140.579 60.6316 140.405ZM68.6125 139.578C68.6125 139.225 68.036 139.535 67.8709 139.977C67.7093 140.41 67.7542 140.429 68.145 140.096C68.4021 139.877 68.6125 139.644 68.6125 139.578ZM71.6821 139.617C71.6821 139.357 71.6277 139.144 71.5614 139.144C71.4951 139.144 71.3613 139.357 71.2641 139.617C71.1669 139.877 71.2212 140.09 71.3847 140.09C71.5483 140.09 71.6821 139.877 71.6821 139.617ZM473.547 128.834C473.325 128.743 473.061 128.754 472.959 128.859C472.857 128.964 473.038 129.038 473.362 129.024C473.719 129.009 473.792 128.935 473.547 128.834ZM190.922 122.447C191.019 122.285 190.973 122.073 190.819 121.976C190.665 121.878 190.46 122.01 190.363 122.269C190.172 122.78 190.633 122.927 190.922 122.447ZM45.2228 257.829C45.0461 257.612 45.0221 257.43 45.1694 257.425C45.3167 257.42 45.1789 257.261 44.8632 257.073C44.0533 256.589 44.7708 256.175 46.3581 256.209C47.1871 256.227 47.3865 256.302 46.972 256.441C46.3871 256.636 45.9511 257.439 46.4348 257.43C47.3361 257.413 47.987 257.001 47.8466 256.536C47.7095 256.082 47.7461 256.086 48.1319 256.567C48.6561 257.221 50.992 257.341 51.1939 256.725C51.2965 256.412 51.4213 256.414 51.8002 256.735C52.3978 257.242 52.7504 258.473 52.2429 258.281C52.0451 258.206 51.9281 257.953 51.9828 257.72C52.0523 257.422 51.9114 257.453 51.5142 257.823C51.0605 258.245 50.4021 258.338 48.245 258.287C46.5297 258.247 45.4268 258.079 45.2228 257.829ZM41.0091 257.134C40.6002 256.874 40.7968 256.173 41.2785 256.173C41.6287 256.173 41.9361 257.064 41.6489 257.246C41.5216 257.327 41.2337 257.276 41.0091 257.134ZM47.5037 254.596C47.1641 254.037 47.1996 253.959 47.8135 253.917C48.1948 253.89 48.714 253.845 48.9672 253.817C49.786 253.725 49.9401 254.014 49.4001 254.627C48.7179 255.402 47.9861 255.39 47.5037 254.596ZM233.449 252.248C233.449 252.172 233.587 252.022 233.756 251.914C233.924 251.807 234.063 251.87 234.063 252.053C234.063 252.237 233.924 252.388 233.756 252.388C233.587 252.388 233.449 252.325 233.449 252.248ZM237.05 252.033C237.259 251.817 237.506 251.72 237.601 251.818C237.695 251.915 237.525 252.091 237.222 252.21C236.785 252.381 236.749 252.344 237.05 252.033ZM72.296 251.164C72.296 251.012 72.509 250.706 72.7694 250.484C73.1375 250.17 73.3248 250.164 73.611 250.458C73.8972 250.752 73.8772 250.903 73.5212 251.134C72.9424 251.51 72.296 251.526 72.296 251.164ZM418.851 248.287C418.851 248.113 419.05 247.971 419.293 247.971C419.537 247.971 419.821 248.113 419.925 248.287C420.03 248.46 419.831 248.602 419.483 248.602C419.135 248.602 418.851 248.46 418.851 248.287ZM413.633 247.952C413.633 247.593 414.457 247.556 414.668 247.906C414.75 248.043 414.551 248.176 414.225 248.202C413.899 248.227 413.633 248.114 413.633 247.952ZM109.221 247.443C108.945 246.703 109.366 246.594 110.427 247.132C110.98 247.412 111.295 247.663 111.126 247.689C109.832 247.889 109.365 247.829 109.221 247.443ZM374.649 246.71C374.649 246.536 374.71 246.394 374.785 246.394C374.859 246.394 375.005 246.536 375.11 246.71C375.214 246.883 375.153 247.025 374.974 247.025C374.795 247.025 374.649 246.883 374.649 246.71ZM370.224 246.436C370.092 246.217 370.066 245.952 370.168 245.847C370.442 245.565 370.742 245.98 370.593 246.438C370.489 246.758 370.417 246.758 370.224 246.436ZM371.349 246.501C370.721 246.24 370.914 245.809 371.58 245.987C371.917 246.078 372.194 246.278 372.194 246.431C372.194 246.732 371.954 246.751 371.349 246.501ZM518.51 244.922C518.157 244.559 518.286 244.186 518.766 244.186C519.019 244.186 519.226 244.399 519.226 244.659C519.226 245.152 518.863 245.285 518.51 244.922ZM137.564 242.99C137.481 242.852 137.683 242.719 138.013 242.693C138.342 242.668 138.532 242.78 138.434 242.943C138.216 243.305 137.768 243.329 137.564 242.99ZM140.331 242.448C140.427 242.189 140.733 241.967 141.011 241.954C141.288 241.94 142.137 241.865 142.896 241.787C143.892 241.685 144.149 241.734 143.817 241.964C143.437 242.228 143.433 242.285 143.792 242.289C144.031 242.291 144.14 242.382 144.035 242.49C143.93 242.598 143.014 242.739 142 242.802C140.463 242.899 140.185 242.839 140.331 242.448ZM15.0615 241.684C14.8345 241.307 15.4119 240.933 15.8208 241.192C16.1641 241.411 15.9387 241.978 15.5088 241.978C15.3599 241.978 15.1586 241.846 15.0615 241.684ZM17.9645 233.48C17.9645 233.316 18.1011 233.096 18.2679 232.99C18.442 232.88 18.4934 233.006 18.3886 233.287C18.1845 233.833 17.9645 233.933 17.9645 233.48ZM20.2155 233.317C20.2155 233.065 20.3329 232.932 20.4763 233.023C20.6198 233.115 20.6577 233.321 20.5605 233.483C20.3123 233.895 20.2155 233.849 20.2155 233.317ZM555.14 192.138C554.887 191.97 554.818 191.832 554.987 191.832C555.156 191.832 555.501 191.97 555.754 192.138C556.007 192.306 556.076 192.444 555.908 192.444C555.739 192.444 555.394 192.306 555.14 192.138ZM50.809 168.728C50.809 168.591 51.0852 168.48 51.4229 168.48C51.7605 168.48 52.0368 168.613 52.0368 168.776C52.0368 168.938 51.7605 169.05 51.4229 169.024C51.0852 168.998 50.809 168.865 50.809 168.728ZM63.6633 164.095L62.9435 163.497L64.7804 163.246C65.7907 163.108 67.3423 162.987 68.2284 162.977C69.1146 162.968 69.8398 162.863 69.84 162.745C69.8403 162.499 71.6686 162.988 71.954 163.311C72.0577 163.428 71.7164 163.44 71.1956 163.339C70.6126 163.225 69.9047 163.341 69.3538 163.64C68.8617 163.907 67.7338 164.14 66.8475 164.156C65.9611 164.173 65.236 164.301 65.236 164.441C65.236 164.893 64.4014 164.71 63.6633 164.095ZM59.7939 164.188C59.8959 164.084 60.1606 164.072 60.3822 164.164C60.6271 164.264 60.5543 164.339 60.1967 164.354C59.8732 164.368 59.6919 164.293 59.7939 164.188ZM54.2097 159.831C54.1964 159.499 54.2689 159.313 54.3709 159.417C54.4729 159.522 54.4838 159.794 54.3952 160.022C54.2972 160.274 54.2244 160.199 54.2097 159.831ZM62.593 157.18C62.6787 157.038 62.4662 156.672 62.1207 156.368C61.5026 155.824 61.523 155.801 63.3918 154.892C65.6426 153.799 65.8499 153.774 65.8499 154.6C65.8499 154.989 65.6437 155.233 65.3127 155.236C64.8773 155.24 64.8578 155.294 65.2098 155.523C65.4487 155.679 65.8976 155.756 66.2074 155.694C66.5172 155.633 66.7708 155.727 66.7708 155.904C66.7708 156.081 66.3218 156.201 65.7731 156.17C65.2245 156.139 64.4993 156.13 64.1616 156.15C63.6502 156.181 63.6245 156.238 64.0081 156.493C64.4016 156.754 64.3905 156.799 63.9314 156.804C63.6359 156.806 63.3942 156.95 63.3942 157.124C63.3942 157.297 63.1789 157.439 62.9157 157.439C62.6525 157.439 62.5073 157.323 62.593 157.18ZM66.5179 154.635C66.2093 154.439 66.2213 154.307 66.5754 154.005C67.0721 153.581 67.4679 153.951 67.1261 154.52C67.0042 154.722 66.7359 154.773 66.5179 154.635ZM55.8737 141.352C55.7694 141.178 55.8913 141.036 56.1445 141.036C56.3977 141.036 56.6903 141.178 56.7946 141.352C56.899 141.525 56.7772 141.667 56.5239 141.667C56.2707 141.667 55.9781 141.525 55.8737 141.352ZM62.1605 139.939C62.6026 139.392 62.7803 139.335 62.7803 139.741C62.7803 139.896 62.5536 140.112 62.2764 140.221C61.8551 140.387 61.8362 140.341 62.1605 139.939ZM495.984 134.849C496.344 134.479 498.309 134.189 498.706 134.448C498.934 134.596 498.982 134.734 498.814 134.754C497.161 134.949 495.844 134.993 495.984 134.849ZM494.12 134.46C493.865 134.293 494.056 134.202 494.658 134.202C495.171 134.202 495.59 134.32 495.59 134.465C495.59 134.8 494.638 134.797 494.12 134.46ZM486.228 134.057C484.914 133.755 481.724 133.538 475.764 133.346C473.723 133.28 471.757 133.064 471.396 132.865C471.003 132.649 469.628 132.539 467.971 132.591C466.448 132.639 465.202 132.646 465.202 132.607C465.202 132.497 466.988 131.573 467.2 131.573C467.303 131.573 467.301 131.715 467.197 131.888C467.086 132.072 467.398 132.204 467.946 132.204C468.463 132.204 468.885 132.062 468.885 131.888C468.885 131.715 469.032 131.573 469.21 131.573C469.389 131.573 469.432 131.75 469.305 131.967C469.134 132.259 469.19 132.278 469.517 132.042C469.76 131.866 470.236 131.739 470.573 131.759C470.911 131.778 471.921 131.816 472.817 131.841C473.713 131.867 474.383 131.995 474.304 132.125C474.226 132.255 475.012 132.341 476.051 132.315C477.09 132.289 478.182 132.401 478.478 132.563C478.836 132.759 479.015 132.742 479.015 132.512C479.015 132.322 479.182 132.272 479.386 132.402C479.59 132.532 480.937 132.676 482.379 132.724C483.821 132.771 485.001 132.827 485.001 132.847C485.001 132.868 485.691 132.931 486.535 132.987C487.379 133.043 488.105 133.12 488.147 133.159C488.219 133.225 488.535 133.32 489.068 133.437C489.312 133.491 487.871 134.407 487.61 134.364C487.525 134.35 486.904 134.212 486.228 134.057ZM473.796 132.48C473.796 132.328 473.528 132.204 473.201 132.204C472.873 132.204 472.53 132.328 472.439 132.48C472.348 132.632 472.616 132.756 473.035 132.756C473.454 132.756 473.796 132.632 473.796 132.48ZM490.216 131.568C490.11 131.391 489.894 131.329 489.737 131.429C489.58 131.529 489.451 131.468 489.451 131.295C489.451 130.684 489.947 130.674 490.313 131.278C490.517 131.614 490.622 131.888 490.546 131.888C490.47 131.888 490.322 131.744 490.216 131.568ZM483.645 130.337C483.321 130.005 482.992 129.799 482.914 129.879C482.836 129.96 482.099 130.073 481.277 130.131C479.853 130.232 478.087 129.582 478.535 129.122C478.893 128.754 481.013 128.84 481.476 129.242C481.95 129.653 482.814 129.666 483.201 129.269C483.527 128.934 485.092 129.007 485.309 129.367C485.604 129.858 485.166 130.942 484.673 130.942C484.431 130.942 483.968 130.67 483.645 130.337ZM486.813 130.578C486.682 130.36 486.728 130.299 486.927 130.425C487.11 130.542 487.347 130.493 487.453 130.316C487.739 129.841 488.121 129.928 488.121 130.469C488.121 131.025 487.131 131.107 486.813 130.578ZM127.938 128.228C128.04 128.123 128.305 128.112 128.527 128.203C128.772 128.304 128.699 128.379 128.341 128.394C128.018 128.407 127.836 128.333 127.938 128.228ZM189.861 119.271C189.861 119.097 189.922 118.955 189.996 118.955C190.071 118.955 190.217 119.097 190.321 119.271C190.426 119.444 190.365 119.586 190.186 119.586C190.007 119.586 189.861 119.444 189.861 119.271ZM197.018 119.303C196.523 118.928 196.641 118.391 197.187 118.537C197.535 118.631 197.758 118.502 197.79 118.19C197.819 117.917 197.865 117.481 197.893 117.22C197.921 116.96 198.197 116.729 198.507 116.708C198.816 116.686 199.173 116.639 199.3 116.603C199.426 116.567 199.944 116.424 200.451 116.284C201.577 115.973 202.189 115.508 201.964 115.134C201.872 114.98 202.069 114.855 202.402 114.855C202.736 114.855 203.079 115.032 203.164 115.249C203.273 115.523 203.398 115.54 203.574 115.305C204.024 114.703 204.964 114.515 205.46 114.928C205.858 115.259 205.895 115.251 205.678 114.88C205.478 114.54 205.544 114.483 205.951 114.643C206.245 114.759 206.673 114.854 206.901 114.854C207.129 114.854 207.399 115.124 207.501 115.453C207.62 115.838 207.883 115.998 208.238 115.903C209.021 115.693 208.94 114.913 208.15 115.062C207.526 115.18 207.526 115.176 208.125 114.883C208.462 114.718 209.206 114.573 209.778 114.561C210.349 114.549 211.661 114.4 212.694 114.23C215.37 113.789 222.096 113.016 225.161 112.797C226.596 112.695 228.392 112.555 229.151 112.486C230.752 112.341 233.912 112.111 238.053 111.836C239.657 111.73 241.867 111.565 242.964 111.47C245.602 111.24 249.754 111.223 250.331 111.439C250.585 111.534 251.379 111.721 252.096 111.854C252.814 111.987 253.401 112.201 253.401 112.328C253.401 112.456 253.059 112.911 252.642 113.34C252.024 113.975 251.596 114.114 250.339 114.089C249.42 114.07 248.836 114.188 248.898 114.377C248.955 114.553 250.065 114.709 251.364 114.723C253.406 114.745 254.765 115.153 254.301 115.604C254.094 115.806 250.024 116.005 250.025 115.814C250.025 115.72 249.093 115.688 247.953 115.742C246.813 115.796 245.088 115.712 244.12 115.554C243.151 115.396 242.293 115.334 242.213 115.417C242.133 115.499 241.475 115.596 240.751 115.633C240.027 115.669 239.053 115.809 238.586 115.943C238.082 116.088 237.58 116.052 237.348 115.854C237.134 115.671 235.623 115.489 233.991 115.449C231.97 115.399 231.086 115.268 231.22 115.036C231.329 114.85 231.183 114.892 230.897 115.131C230.538 115.43 229.986 115.502 229.127 115.36C228.307 115.226 227.945 115.266 228.072 115.478C228.29 115.839 228.249 115.846 225.468 115.923C224.37 115.953 223.162 116.09 222.782 116.226C222.402 116.363 222.091 116.358 222.091 116.217C222.091 116.075 221.746 115.959 221.324 115.959C220.902 115.959 220.556 116.065 220.556 116.195C220.556 116.325 220.341 116.432 220.078 116.432C219.815 116.432 219.671 116.312 219.76 116.165C219.973 115.811 216.819 116.331 216.59 116.688C216.171 117.341 210.427 118.004 210.427 117.399C210.427 117.214 210.281 117.063 210.102 117.063C209.923 117.063 209.856 117.195 209.953 117.356C210.231 117.818 209.525 118.102 209.068 117.713C208.762 117.451 208.618 117.467 208.502 117.775C208.403 118.041 207.898 118.163 207.085 118.116C206.391 118.076 205.823 118.176 205.823 118.338C205.823 118.86 204.245 118.517 203.939 117.929C203.776 117.616 203.51 117.445 203.346 117.549C203.183 117.652 203.12 117.854 203.207 117.998C203.293 118.141 203.161 118.338 202.914 118.435C202.668 118.533 202.383 118.474 202.281 118.306C202.169 118.119 201.776 118.183 201.274 118.47C200.33 119.011 197.393 119.585 197.018 119.303ZM192.623 117.87C192.623 117.316 192.808 117.234 193.071 117.672C193.168 117.833 193.107 118.055 192.935 118.163C192.764 118.272 192.623 118.141 192.623 117.87ZM193.78 117.325C193.958 117.142 194.286 117.054 194.507 117.13C194.737 117.208 194.598 117.351 194.183 117.463C193.672 117.6 193.552 117.559 193.78 117.325ZM299.521 116.525C299.141 116.449 298.831 116.279 298.831 116.147C298.831 115.761 300.165 115.971 300.297 116.378C300.363 116.581 300.371 116.728 300.314 116.704C300.258 116.68 299.901 116.6 299.521 116.525ZM293.152 115.801C293.996 115.428 294.48 115.428 293.919 115.801C293.666 115.969 293.252 116.099 292.999 116.089C292.695 116.078 292.747 115.98 293.152 115.801ZM295.011 115.83C294.917 115.673 295.116 115.618 295.454 115.709C296.17 115.902 296.261 116.116 295.626 116.116C295.382 116.116 295.106 115.987 295.011 115.83ZM255.495 115.116C255.012 114.617 255.231 114.583 259.025 114.559C261.25 114.545 263.378 114.473 263.754 114.398C264.131 114.323 264.51 114.381 264.598 114.527C264.685 114.673 265.18 114.762 265.696 114.725C267.093 114.625 267.1 115.085 265.703 115.222C265.043 115.286 264.569 115.23 264.649 115.097C264.901 114.678 264.428 114.833 263.947 115.328C263.425 115.864 262.128 115.961 261.842 115.484C261.715 115.274 261.449 115.279 261.05 115.499C260.37 115.873 259.73 115.619 260.043 115.099C260.18 114.872 260.104 114.85 259.818 115.035C259.581 115.188 258.627 115.389 257.698 115.481C256.37 115.613 255.9 115.535 255.495 115.116ZM280.106 115.485C280.106 115.312 280.167 115.17 280.242 115.17C280.316 115.17 280.462 115.312 280.567 115.485C280.671 115.659 280.61 115.801 280.431 115.801C280.253 115.801 280.106 115.659 280.106 115.485ZM267.828 114.854C267.551 114.671 267.513 114.547 267.733 114.544C267.934 114.541 268.184 114.681 268.288 114.854C268.524 115.246 268.418 115.246 267.828 114.854ZM387.721 114.811C387.88 114.547 386.71 114.237 386.473 114.48C386.143 114.819 384.779 114.883 384.779 114.56C384.779 114.359 383.905 114.311 382.4 114.428C380.554 114.572 379.78 114.498 378.947 114.098C378.356 113.815 378.105 113.648 378.39 113.728C378.674 113.808 378.95 113.749 379.003 113.599C379.057 113.448 379.307 113.278 379.561 113.222C379.814 113.166 380.122 112.978 380.246 112.804C380.37 112.63 380.474 112.799 380.477 113.18C380.481 113.833 380.528 113.846 381.326 113.417C382.083 113.011 382.213 113.021 382.595 113.515C382.999 114.039 383.011 114.039 382.835 113.515C382.692 113.089 382.819 112.963 383.392 112.963C383.8 112.963 384.275 113.211 384.447 113.515C384.621 113.821 384.764 113.892 384.769 113.673C384.779 113.26 385.7 113.104 385.7 113.515C385.7 113.645 386.744 113.743 388.02 113.733C389.297 113.723 390.41 113.83 390.494 113.97C390.578 114.11 390.943 114.225 391.304 114.225C391.83 114.225 391.885 114.304 391.578 114.619C391.194 115.014 387.488 115.2 387.721 114.813V114.811ZM392.76 114.802C392.76 114.657 392.863 114.529 392.99 114.518C393.117 114.506 393.662 114.437 394.202 114.364C395.417 114.201 395.849 114.742 394.681 114.963C393.526 115.182 392.76 115.118 392.76 114.802ZM370.659 113.75C370.659 113.577 370.141 113.435 369.508 113.435C368.875 113.435 368.255 113.577 368.131 113.75C367.981 113.961 367.904 113.961 367.9 113.75C367.893 113.355 366.054 113.262 366.054 113.657C366.054 113.815 365.929 113.866 365.775 113.768C365.483 113.583 362.783 113.284 359.915 113.121C358.987 113.068 358.227 112.993 358.227 112.954C358.227 112.743 354.188 112.74 353.93 112.951C353.468 113.328 350.4 113.591 350.4 113.253C350.4 113.093 350.192 112.962 349.939 112.962C349.686 112.962 349.479 113.099 349.479 113.266C349.479 113.456 347.317 113.515 343.723 113.421C340.558 113.339 337.635 113.274 337.227 113.275C336.82 113.278 336.026 113.148 335.462 112.988C334.846 112.813 334.438 112.812 334.438 112.985C334.438 113.272 333.364 113.225 333.073 112.926C332.989 112.84 331.592 112.82 329.969 112.881C328.012 112.956 326.871 112.869 326.584 112.623C326.246 112.335 326.149 112.349 326.145 112.686C326.142 112.96 326.057 112.998 325.915 112.79C325.78 112.592 324.033 112.445 321.546 112.421C319.266 112.4 312.36 112.301 306.198 112.201C300.035 112.102 292.127 112.002 288.624 111.979C285.121 111.956 282.255 111.848 282.254 111.74C282.254 111.631 281.494 111.542 280.566 111.542C279.638 111.542 278.878 111.649 278.878 111.779C278.878 111.909 278.732 112.015 278.553 112.015C278.375 112.015 278.314 111.873 278.418 111.7C278.522 111.526 278.392 111.384 278.129 111.384C277.866 111.385 277.651 111.243 277.651 111.069C277.651 110.896 277.504 110.754 277.326 110.754C277.147 110.754 277.086 110.896 277.19 111.069C277.302 111.255 276.964 111.383 276.364 111.38C275.595 111.376 275.46 111.301 275.809 111.069C276.149 110.843 276.163 110.762 275.864 110.759C275.551 110.755 275.564 110.645 275.918 110.281C276.172 110.02 276.665 109.807 277.015 109.807C277.364 109.807 277.651 109.656 277.651 109.471C277.651 109.271 277.916 109.221 278.303 109.347C278.742 109.49 278.887 109.445 278.745 109.21C278.63 109.018 278.617 108.861 278.717 108.861C278.817 108.861 279.003 109.153 279.132 109.51L279.365 110.159L280.175 109.504C280.73 109.056 281.051 108.961 281.197 109.205C281.349 109.456 281.486 109.435 281.668 109.131C281.877 108.784 283.983 108.706 292.911 108.715C298.952 108.722 306.382 108.818 309.421 108.93C312.46 109.041 317.501 109.214 320.625 109.315C331.902 109.678 334.808 109.81 335.06 109.971C335.625 110.329 338.099 110.648 338.473 110.41C338.704 110.263 338.973 110.315 339.111 110.534C339.289 110.816 339.426 110.791 339.651 110.438C339.818 110.178 339.956 110.107 339.959 110.281C339.962 110.48 341.86 110.582 345.105 110.558C350.233 110.52 358.994 111.029 358.995 111.365C358.995 111.463 360.065 111.526 361.374 111.507C363.616 111.473 368.78 111.905 369.696 112.203C370.033 112.312 370.04 112.43 369.729 112.815C369.416 113.203 369.424 113.266 369.771 113.153C370.006 113.077 370.584 112.928 371.055 112.821C371.583 112.702 371.844 112.48 371.734 112.243C371.637 112.031 371.718 112.08 371.915 112.351C372.204 112.751 372.598 112.8 373.977 112.608C374.946 112.472 375.913 112.498 376.219 112.666C376.515 112.829 377.146 112.981 377.622 113.005C378.418 113.044 378.428 113.059 377.746 113.191C377.173 113.302 377.103 113.398 377.439 113.617C377.913 113.925 377.514 113.964 373.191 114.028C371.683 114.051 370.659 113.938 370.659 113.75ZM281.446 110.913C281.349 110.654 281.146 110.52 280.995 110.616C280.562 110.892 280.674 111.385 281.171 111.385C281.445 111.385 281.553 111.2 281.446 110.913ZM263.543 111.992C263.859 111.385 263.84 111.316 263.406 111.487C262.972 111.658 262.953 111.589 263.265 110.99L263.628 110.293L263.933 110.997C264.283 111.804 264.917 111.921 265.176 111.227C265.273 110.967 265.242 110.754 265.107 110.754C264.971 110.754 264.861 110.539 264.861 110.277C264.861 109.889 265.138 109.837 266.344 110.002C267.358 110.14 267.828 110.091 267.828 109.848C267.828 109.65 268.314 109.492 268.92 109.492C269.637 109.492 269.941 109.611 269.804 109.839C269.656 110.085 269.782 110.083 270.24 109.832C270.775 109.537 270.853 109.559 270.704 109.958C270.606 110.222 270.402 110.438 270.251 110.438C270.1 110.438 269.977 110.58 269.977 110.754C269.977 111.411 270.531 111.031 270.898 110.123C271.325 109.063 271.336 109.058 272.105 109.481C272.493 109.694 272.613 110.028 272.507 110.598C272.424 111.045 272.477 111.369 272.624 111.319C272.772 111.268 272.962 111.366 273.046 111.535C273.137 111.717 272.407 111.865 271.26 111.897C269.487 111.946 269.292 111.886 268.985 111.194C268.655 110.449 267.521 110.122 267.521 110.772C267.521 110.956 267.658 111.02 267.824 110.914C267.996 110.805 268.051 110.926 267.953 111.191C267.85 111.465 267.575 111.581 267.292 111.469C266.976 111.344 266.882 111.403 267.023 111.637C267.27 112.048 266.25 112.351 265.065 112.219C264.643 112.172 264.046 112.26 263.738 112.414C263.235 112.665 263.215 112.621 263.543 111.992ZM271.94 110.806C272.027 110.662 271.903 110.543 271.665 110.543C271.427 110.543 271.303 110.662 271.39 110.806C271.477 110.951 271.6 111.069 271.665 111.069C271.729 111.069 271.853 110.951 271.94 110.806ZM259.408 112.051C259.316 111.898 259.515 111.698 259.852 111.607C260.259 111.498 260.401 111.275 260.276 110.941C260.173 110.664 260.218 110.438 260.377 110.438C260.798 110.438 260.73 111.469 260.278 111.933C259.82 112.404 259.635 112.429 259.408 112.051ZM261.29 111.174C261.377 110.943 261.487 110.754 261.535 110.754C261.584 110.754 261.694 110.943 261.78 111.174C261.867 111.406 261.756 111.595 261.535 111.595C261.314 111.595 261.204 111.406 261.29 111.174ZM262.474 110.291C262.802 110.036 263.373 109.823 263.743 109.817C264.475 109.806 264.941 110.285 264.483 110.576C264.325 110.676 264.144 110.595 264.079 110.395C263.991 110.122 263.799 110.122 263.306 110.392C262.362 110.911 261.769 110.839 262.474 110.291ZM258.395 110.248C258.497 110.143 258.762 110.132 258.984 110.223C259.229 110.323 259.156 110.398 258.798 110.413C258.475 110.427 258.293 110.352 258.395 110.248ZM274.581 110.123C274.188 109.861 274.199 109.816 274.658 109.812C274.953 109.809 275.195 109.949 275.195 110.123C275.195 110.508 275.16 110.508 274.581 110.123ZM272.932 109.642C272.786 109.25 272.865 109.223 273.36 109.496C274.072 109.887 274.139 110.123 273.539 110.123C273.304 110.123 273.031 109.907 272.932 109.642Z" fill="#FECE2F"/>
<path d="M219.929 32.8143C219.863 33.081 219.696 33.2143 219.429 33.2143C219.229 33.1476 219.163 32.981 219.229 32.7143C220.029 29.5143 220.429 26.481 220.429 23.6143C220.429 19.881 219.763 16.4143 218.429 13.2143C216.963 9.74762 214.696 7.18095 211.629 5.51428C208.629 3.84762 205.063 3.01428 200.929 3.01428C191.396 3.01428 183.929 5.34762 178.529 10.0143C173.196 14.6809 170.529 22.1476 170.529 32.4143C170.529 40.281 172.096 46.981 175.229 52.5143C178.363 58.0476 182.263 62.2143 186.929 65.0143C191.663 67.7476 196.396 69.1143 201.129 69.1143C205.129 69.1143 209.429 68.381 214.029 66.9143C218.629 65.381 222.596 62.6476 225.929 58.7143C226.263 58.381 226.496 58.2143 226.629 58.2143C226.763 58.2143 226.796 58.3143 226.729 58.5143C226.729 58.6476 226.629 58.8476 226.429 59.1143C222.429 63.981 218.163 67.5143 213.629 69.7143C209.096 71.9143 203.729 73.0143 197.529 73.0143C191.663 73.0143 186.263 71.5476 181.329 68.6143C176.396 65.681 172.463 61.5476 169.529 56.2143C166.663 50.881 165.229 44.781 165.229 37.9143C165.229 30.7143 166.896 24.281 170.229 18.6143C173.563 12.9476 178.029 8.51428 183.629 5.31428C189.296 2.11429 195.463 0.514287 202.129 0.514287C206.396 0.514287 210.229 1.21429 213.629 2.61428C217.096 3.94762 219.796 5.68095 221.729 7.81428C223.663 9.94762 224.629 12.1143 224.629 14.3143C224.629 14.9143 224.596 15.3476 224.529 15.6143L219.929 32.8143Z" fill="#353535"/>
<path d="M276.419 27.2143C276.619 27.2143 276.719 27.3143 276.719 27.5143C276.719 27.7143 276.619 27.8143 276.419 27.8143C275.152 27.8143 274.119 28.2476 273.319 29.1143C272.586 29.981 271.719 31.5476 270.719 33.8143L253.819 72.7143C250.552 79.781 247.586 84.781 244.919 87.7143C242.319 90.7143 239.386 92.2143 236.119 92.2143C233.852 92.2143 231.852 91.6476 230.119 90.5143C228.452 89.381 227.386 87.9476 226.919 86.2143C226.852 85.681 227.052 84.9143 227.519 83.9143C227.919 82.9143 228.386 82.1476 228.919 81.6143C229.452 81.1476 229.752 81.2143 229.819 81.8143C230.152 83.7476 231.019 85.581 232.419 87.3143C233.886 89.1143 235.719 90.0143 237.919 90.0143C240.452 90.0143 242.686 88.981 244.619 86.9143C246.619 84.8476 248.819 81.281 251.219 76.2143C251.352 75.9476 251.419 75.5143 251.419 74.9143C251.419 73.6476 251.086 72.3476 250.419 71.0143L234.319 33.8143C233.319 31.5476 232.419 29.981 231.619 29.1143C230.886 28.2476 229.886 27.8143 228.619 27.8143C228.352 27.8143 228.219 27.7143 228.219 27.5143C228.219 27.3143 228.352 27.2143 228.619 27.2143C229.352 27.2809 230.719 27.3143 232.719 27.3143H238.919C242.319 27.3143 244.652 27.2809 245.919 27.2143C246.252 27.2143 246.419 27.3143 246.419 27.5143C246.419 27.7143 246.252 27.8143 245.919 27.8143C241.586 27.8143 239.419 29.0476 239.419 31.5143C239.419 32.1143 239.619 32.881 240.019 33.8143L254.519 67.4143C254.852 68.0143 255.152 68.0143 255.419 67.4143L270.019 33.8143C270.419 32.881 270.619 32.1143 270.619 31.5143C270.619 29.0476 268.452 27.8143 264.119 27.8143C263.719 27.8143 263.519 27.7143 263.519 27.5143C263.519 27.3143 263.719 27.2143 264.119 27.2143C265.386 27.2809 267.719 27.3143 271.119 27.3143H272.319C274.319 27.3143 275.686 27.2809 276.419 27.2143Z" fill="#353535"/>
<path d="M332.928 74.9143C333.195 75.0476 333.228 75.2143 333.028 75.4143C332.895 75.6143 332.695 75.6476 332.428 75.5143C326.895 72.7143 321.895 68.8476 317.428 63.9143C312.962 58.9143 308.695 52.8143 304.628 45.6143L292.428 57.3143V65.6143C292.428 67.6143 292.928 69.0476 293.928 69.9143C294.995 70.7143 296.495 71.181 298.428 71.3143C298.628 71.3143 298.728 71.4143 298.728 71.6143C298.795 71.8143 298.695 71.9143 298.428 71.9143C297.095 71.8476 294.228 71.8143 289.828 71.8143C285.428 71.8143 282.562 71.8476 281.228 71.9143C280.895 71.9143 280.728 71.8143 280.728 71.6143C280.728 71.3476 280.895 71.2143 281.228 71.2143C283.295 71.2143 284.795 70.8476 285.728 70.1143C286.662 69.3143 287.128 67.781 287.128 65.5143L287.028 10.2143C287.028 8.41429 286.728 7.14762 286.128 6.41428C285.595 5.68095 284.828 5.31428 283.828 5.31428C283.562 5.31428 283.095 5.38095 282.428 5.51428C282.028 5.58095 281.828 5.41429 281.828 5.01428C284.295 4.41428 286.395 3.74761 288.128 3.01428C289.928 2.28095 291.495 1.28095 292.828 0.0142868C293.295 -0.0523829 293.462 0.114284 293.328 0.514287C292.928 1.98095 292.662 3.91428 292.528 6.31428C292.462 8.64762 292.428 12.5476 292.428 18.0143V56.6143L304.328 45.1143L303.728 44.0143C304.062 44.0143 305.095 43.581 306.828 42.7143L318.128 31.7143C318.862 31.0476 319.228 30.4476 319.228 29.9143C319.228 28.8476 317.828 28.1476 315.028 27.8143C314.762 27.8143 314.628 27.7143 314.628 27.5143C314.695 27.3143 314.862 27.2143 315.128 27.2143C318.462 27.3476 320.962 27.4143 322.628 27.4143C324.095 27.4143 326.095 27.3476 328.628 27.2143C328.895 27.2143 328.995 27.3143 328.928 27.5143C328.928 27.7143 328.762 27.8143 328.428 27.8143C325.295 27.8143 322.195 29.1476 319.128 31.8143L308.328 42.1143C308.662 42.0476 308.928 42.0476 309.128 42.1143C312.995 50.381 316.695 57.081 320.228 62.2143C323.828 67.281 328.062 71.5143 332.928 74.9143Z" fill="#353535"/>
<path d="M343.251 56.0143C343.118 48.0143 342.484 36.981 341.351 22.9143C341.218 21.3143 341.018 18.481 340.751 14.4143C340.484 10.2809 340.351 7.28095 340.351 5.41428C340.351 3.88095 340.618 2.78095 341.151 2.11428C341.684 1.44762 342.551 1.11429 343.751 1.11429C344.818 1.11429 345.618 1.44762 346.151 2.11428C346.684 2.78095 346.951 3.88095 346.951 5.41428C346.951 7.88095 346.584 13.881 345.851 23.4143C344.718 37.4143 344.084 48.281 343.951 56.0143C343.951 56.281 343.851 56.4143 343.651 56.4143C343.451 56.4143 343.318 56.281 343.251 56.0143ZM342.651 72.4143C341.584 72.4143 340.718 72.181 340.051 71.7143C339.384 71.181 339.051 70.5476 339.051 69.8143C339.051 68.881 339.584 68.081 340.651 67.4143C341.718 66.681 343.084 66.3143 344.751 66.3143C345.818 66.3143 346.684 66.5476 347.351 67.0143C348.018 67.481 348.351 68.081 348.351 68.8143C348.351 69.8143 347.784 70.681 346.651 71.4143C345.584 72.081 344.251 72.4143 342.651 72.4143Z" fill="#353535"/>
<path d="M113.189 209.684C113.189 211.364 113.669 212.714 114.629 213.734C115.649 214.694 116.969 215.234 118.589 215.354C118.829 215.354 118.949 215.444 118.949 215.624C118.949 215.804 118.829 215.894 118.589 215.894C117.509 215.834 114.929 215.804 110.849 215.804C106.829 215.804 104.249 215.834 103.109 215.894C102.869 215.894 102.749 215.804 102.749 215.624C102.749 215.384 102.869 215.264 103.109 215.264C106.649 215.384 108.419 213.524 108.419 209.684V183.134C108.419 181.694 108.149 180.644 107.609 179.984C107.129 179.324 106.289 178.994 105.089 178.994C104.549 178.994 103.859 179.084 103.019 179.264C102.839 179.324 102.719 179.294 102.659 179.174C102.599 178.994 102.629 178.874 102.749 178.814C107.729 177.614 111.179 176.354 113.099 175.034C113.339 174.854 113.549 174.824 113.729 174.944C113.909 175.004 113.999 175.094 113.999 175.214C113.759 176.834 113.549 178.364 113.369 179.804C113.249 181.184 113.189 182.804 113.189 184.664V209.684ZM109.949 161.624C108.869 161.624 107.969 161.384 107.249 160.904C106.589 160.364 106.259 159.734 106.259 159.014C106.259 158.114 106.679 157.364 107.519 156.764C108.419 156.104 109.559 155.774 110.939 155.774C112.019 155.774 112.889 156.044 113.549 156.584C114.269 157.064 114.629 157.694 114.629 158.474C114.629 159.314 114.179 160.064 113.279 160.724C112.439 161.324 111.329 161.624 109.949 161.624Z" fill="#353535"/>
<path d="M244.225 160.274C244.545 160.274 244.705 160.474 244.705 160.874C244.705 161.194 244.545 161.354 244.225 161.354C242.385 161.354 240.865 162.234 239.665 163.994C238.465 165.674 236.825 168.954 234.745 173.834L221.545 206.474C221.465 206.634 221.425 206.914 221.425 207.314C221.425 207.474 221.545 207.914 221.785 208.634L222.865 210.914C222.945 211.074 222.985 211.274 222.985 211.514C222.985 211.994 222.745 212.314 222.265 212.474L209.185 217.274C208.705 217.434 208.425 217.514 208.345 217.514C207.865 217.514 207.425 217.154 207.025 216.434L194.905 184.994L186.265 206.474C186.185 206.714 186.145 207.034 186.145 207.434C186.145 207.834 186.265 208.234 186.505 208.634L187.465 210.914C187.545 211.074 187.585 211.274 187.585 211.514C187.585 211.994 187.345 212.314 186.865 212.474L173.785 217.274C173.305 217.434 173.025 217.514 172.945 217.514C172.705 217.514 172.465 217.394 172.225 217.154C171.985 216.914 171.825 216.674 171.745 216.434L154.945 173.954C153.105 169.074 151.545 165.754 150.265 163.994C148.985 162.234 147.465 161.354 145.705 161.354C145.385 161.354 145.225 161.194 145.225 160.874C145.225 160.474 145.385 160.274 145.705 160.274C147.305 160.434 149.065 160.514 150.985 160.514H169.345C171.265 160.514 173.185 160.434 175.105 160.274C175.505 160.274 175.705 160.474 175.705 160.874C175.705 161.194 175.505 161.354 175.105 161.354C172.305 161.354 170.905 162.834 170.905 165.794C170.905 167.794 171.585 170.514 172.945 173.954L184.825 204.194C184.985 204.674 185.185 204.914 185.425 204.914C185.665 204.834 185.865 204.594 186.025 204.194L194.425 183.554L190.705 173.954C188.865 169.154 187.225 165.874 185.785 164.114C184.425 162.274 182.665 161.354 180.505 161.354C180.185 161.354 180.025 161.194 180.025 160.874C180.025 160.474 180.185 160.274 180.505 160.274C182.585 160.434 184.665 160.514 186.745 160.514H205.105C207.825 160.514 210.385 160.434 212.785 160.274C213.185 160.274 213.385 160.474 213.385 160.874C213.385 161.194 213.185 161.354 212.785 161.354C208.865 161.354 206.905 163.114 206.905 166.634C206.905 168.714 207.465 171.154 208.585 173.954L220.105 204.194C220.265 204.594 220.465 204.834 220.705 204.914C221.025 204.914 221.265 204.674 221.425 204.194L233.665 173.954C234.865 170.914 235.465 168.514 235.465 166.754C235.465 163.154 233.225 161.354 228.745 161.354C228.265 161.354 228.025 161.194 228.025 160.874C228.025 160.474 228.265 160.274 228.745 160.274C231.465 160.434 234.345 160.514 237.385 160.514H238.825C240.665 160.514 242.465 160.434 244.225 160.274Z" fill="#353535"/>
<path d="M271.358 201.554C271.358 210.434 273.758 214.914 278.558 214.994C278.958 214.994 279.158 215.194 279.158 215.594C279.158 215.914 278.958 216.034 278.558 215.954C277.038 215.874 271.838 215.834 262.958 215.834C254.158 215.834 248.998 215.874 247.478 215.954C246.998 215.954 246.758 215.794 246.758 215.474C246.758 215.154 246.998 214.994 247.478 214.994C249.958 214.994 251.758 213.914 252.878 211.754C253.998 209.514 254.558 206.114 254.558 201.554V178.034C254.558 174.434 254.158 171.874 253.358 170.354C252.638 168.754 251.118 167.954 248.798 167.954C248.078 167.954 247.518 167.994 247.118 168.074C246.798 168.154 246.598 168.074 246.518 167.834C246.438 167.514 246.558 167.314 246.878 167.234C251.118 166.274 255.478 164.954 259.958 163.274C264.518 161.594 268.278 159.754 271.238 157.754C271.638 157.514 271.918 157.394 272.078 157.394C272.478 157.394 272.678 157.674 272.678 158.234C272.118 163.594 271.758 167.674 271.598 170.474C271.438 173.194 271.358 176.394 271.358 180.074V201.554ZM260.318 148.634C257.518 148.634 255.278 147.994 253.598 146.714C251.918 145.434 251.078 143.794 251.078 141.794C251.078 139.394 252.238 137.354 254.558 135.674C256.878 133.914 259.798 133.034 263.318 133.034C266.198 133.034 268.478 133.674 270.158 134.954C271.838 136.154 272.678 137.754 272.678 139.754C272.678 142.234 271.518 144.354 269.198 146.114C266.878 147.794 263.918 148.634 260.318 148.634Z" fill="#353535"/>
<path d="M338.146 204.794C338.226 204.714 338.386 204.754 338.626 204.914C338.866 205.074 338.866 205.314 338.626 205.634C335.586 209.474 331.706 212.434 326.986 214.514C322.346 216.594 317.626 217.634 312.826 217.634C307.626 217.634 302.786 216.474 298.306 214.154C293.906 211.754 290.386 208.394 287.746 204.074C285.106 199.754 283.786 194.754 283.786 189.074C283.786 183.554 285.186 178.474 287.986 173.834C290.866 169.114 294.746 165.354 299.626 162.554C304.506 159.754 309.866 158.354 315.706 158.354C322.266 158.354 327.706 160.074 332.026 163.514C336.346 166.954 338.506 171.714 338.506 177.794C338.506 180.514 338.026 183.434 337.066 186.554C327.066 186.794 314.626 187.194 299.746 187.754C302.226 193.914 305.986 199.114 311.026 203.354C316.146 207.514 321.306 209.594 326.506 209.594C331.546 209.594 335.426 207.994 338.146 204.794ZM308.506 160.874C304.826 160.874 302.026 162.074 300.106 164.474C298.186 166.874 297.226 170.394 297.226 175.034C297.226 178.794 297.946 182.714 299.386 186.794C305.946 186.634 310.706 186.474 313.666 186.314C317.986 186.154 320.666 186.074 321.706 186.074C322.506 185.194 322.906 183.874 322.906 182.114C322.906 179.554 322.146 176.594 320.626 173.234C319.186 169.794 317.346 166.874 315.106 164.474C312.866 162.074 310.666 160.874 308.506 160.874Z" fill="#353535"/>
<path d="M349.298 192.314C349.378 191.994 349.538 191.834 349.778 191.834C350.018 191.834 350.178 192.034 350.258 192.434C350.818 199.474 352.818 205.194 356.258 209.594C359.698 213.914 364.098 216.074 369.458 216.074C372.338 216.074 374.538 215.594 376.058 214.634C377.658 213.674 378.458 212.034 378.458 209.714C378.378 206.594 376.938 203.714 374.138 201.074C371.418 198.434 367.418 195.474 362.138 192.194C357.098 188.914 353.298 185.954 350.738 183.314C348.178 180.594 346.898 177.514 346.898 174.074C346.898 171.194 347.978 168.554 350.138 166.154C352.378 163.754 355.378 161.874 359.138 160.514C362.978 159.074 367.218 158.354 371.858 158.354C374.978 158.354 378.298 158.674 381.818 159.314C385.338 159.954 388.218 160.914 390.458 162.194C392.778 163.394 393.738 164.834 393.338 166.514L389.258 181.874C389.178 182.114 389.018 182.234 388.778 182.234C388.618 182.234 388.538 182.074 388.538 181.754C387.898 174.714 385.818 169.394 382.298 165.794C378.858 162.114 374.418 160.274 368.978 160.274C366.098 160.274 364.098 160.714 362.978 161.594C361.858 162.474 361.298 163.714 361.298 165.314C361.298 167.474 362.498 169.594 364.898 171.674C367.378 173.674 371.618 176.514 377.618 180.194C382.738 183.234 386.818 186.354 389.858 189.554C392.978 192.754 394.538 196.514 394.538 200.834C394.538 204.114 393.378 207.074 391.058 209.714C388.818 212.274 385.658 214.274 381.578 215.714C377.498 217.074 372.858 217.754 367.658 217.754C363.898 217.754 360.218 217.314 356.618 216.434C353.018 215.554 350.138 214.394 347.978 212.954C345.898 211.514 345.058 209.914 345.458 208.154L349.298 192.314Z" fill="#353535"/>
<path d="M452.585 216.554C451.785 216.474 450.665 216.314 449.225 216.074C447.785 215.834 445.825 215.714 443.345 215.714H420.545C418.465 215.714 415.345 215.794 411.185 215.954L403.145 216.074C402.025 216.074 401.465 215.634 401.465 214.754C401.465 214.354 401.825 213.514 402.545 212.234L433.865 162.914C434.025 162.434 434.105 162.154 434.105 162.074C434.105 161.514 433.785 161.274 433.145 161.354L420.665 162.074C417.385 162.154 414.385 163.394 411.665 165.794C408.945 168.194 406.865 172.114 405.425 177.554C405.265 177.954 405.065 178.154 404.825 178.154C404.585 178.074 404.465 177.834 404.465 177.434C405.105 173.114 405.425 169.594 405.425 166.874C405.425 164.954 405.305 163.034 405.065 161.114V160.754C405.065 160.034 405.425 159.674 406.145 159.674C406.705 159.674 407.745 159.794 409.265 160.034C410.865 160.274 413.145 160.394 416.105 160.394H436.265L453.305 160.154C454.025 160.154 454.385 160.434 454.385 160.994C454.385 161.314 453.705 162.514 452.345 164.594C450.345 167.474 448.545 170.394 446.945 173.354L421.385 213.194C421.225 213.674 421.145 213.954 421.145 214.034C421.145 214.594 421.545 214.834 422.345 214.754L436.025 214.034C439.625 214.034 442.505 213.354 444.665 211.994C446.825 210.554 448.545 208.514 449.825 205.874C451.105 203.234 452.385 199.514 453.665 194.714C453.745 194.314 453.905 194.154 454.145 194.234C454.465 194.234 454.585 194.434 454.505 194.834C453.785 200.834 453.425 205.474 453.425 208.754C453.425 210.034 453.505 212.114 453.665 214.994V215.474C453.665 216.194 453.305 216.554 452.585 216.554Z" fill="#353535"/>
<path d="M209.485 299.514C209.485 297.914 209.185 296.748 208.585 296.014C208.051 295.281 207.118 294.914 205.785 294.914C205.118 294.914 204.351 295.014 203.485 295.214C203.285 295.281 203.151 295.248 203.085 295.114C203.018 294.914 203.051 294.781 203.185 294.714C208.585 293.381 212.385 291.981 214.585 290.514C214.918 290.314 215.185 290.281 215.385 290.414C215.585 290.481 215.685 290.581 215.685 290.714C215.418 292.514 215.185 294.214 214.985 295.814C214.851 297.348 214.785 299.148 214.785 301.214V324.814C214.785 329.948 213.651 334.148 211.385 337.414C209.118 340.681 206.518 343.048 203.585 344.514C200.651 345.981 198.085 346.781 195.885 346.914C195.418 346.981 195.218 346.914 195.285 346.714C195.285 346.514 195.485 346.381 195.885 346.314C199.285 345.914 202.385 344.314 205.185 341.514C208.051 338.781 209.485 333.648 209.485 326.114V299.514ZM209.985 275.614C208.785 275.614 207.785 275.348 206.985 274.814C206.251 274.214 205.885 273.514 205.885 272.714C205.885 271.714 206.351 270.881 207.285 270.214C208.285 269.481 209.551 269.114 211.085 269.114C212.285 269.114 213.251 269.414 213.985 270.014C214.785 270.548 215.185 271.248 215.185 272.114C215.185 273.048 214.685 273.881 213.685 274.614C212.751 275.281 211.518 275.614 209.985 275.614Z" fill="#353535"/>
<path d="M274.153 322.514C274.153 322.181 274.253 322.014 274.453 322.014C274.719 321.948 274.853 322.114 274.853 322.514C274.853 327.248 274.053 330.848 272.453 333.314C270.919 335.714 269.119 336.914 267.053 336.914C265.319 336.914 263.953 336.181 262.953 334.714C262.019 333.248 261.219 330.981 260.553 327.914L259.553 322.914C258.153 327.048 255.786 330.414 252.453 333.014C249.186 335.614 245.619 336.914 241.753 336.914C236.686 336.914 232.819 335.514 230.153 332.714C227.486 329.848 226.153 326.448 226.153 322.514C226.153 320.248 227.019 318.248 228.753 316.514C230.486 314.781 232.753 313.448 235.553 312.514C238.353 311.514 241.353 311.014 244.553 311.014C248.753 311.014 252.986 311.348 257.253 312.014L255.253 302.514C254.453 299.048 253.119 296.481 251.253 294.814C249.386 293.148 246.519 292.314 242.653 292.314C239.919 292.314 237.319 292.914 234.853 294.114C232.386 295.248 230.319 297.014 228.653 299.414C227.053 301.748 226.219 304.648 226.153 308.114C226.153 308.514 226.019 308.714 225.753 308.714C225.553 308.714 225.453 308.514 225.453 308.114C225.586 304.514 226.619 301.348 228.553 298.614C230.553 295.814 233.053 293.681 236.053 292.214C239.053 290.681 242.053 289.914 245.053 289.914C249.853 289.914 253.419 290.948 255.753 293.014C258.153 295.014 259.819 298.181 260.753 302.514L265.853 326.914C266.319 328.981 266.853 330.581 267.453 331.714C268.053 332.781 268.819 333.314 269.753 333.314C270.286 333.314 270.886 333.014 271.553 332.414C272.219 331.814 272.819 330.714 273.353 329.114C273.886 327.514 274.153 325.314 274.153 322.514ZM258.353 319.314C258.419 318.781 258.419 318.181 258.353 317.514L257.653 313.914C253.253 313.114 249.153 312.714 245.353 312.714C240.286 312.714 236.653 313.381 234.453 314.714C232.319 315.981 231.253 318.381 231.253 321.914C231.253 325.314 232.319 328.114 234.453 330.314C236.586 332.514 239.786 333.614 244.053 333.614C253.119 333.614 257.886 328.848 258.353 319.314Z" fill="#353535"/>
<path d="M329.706 338.914C329.972 339.048 330.006 339.214 329.806 339.414C329.672 339.614 329.472 339.648 329.206 339.514C323.672 336.714 318.672 332.848 314.206 327.914C309.739 322.914 305.472 316.814 301.406 309.614L289.206 321.314V329.614C289.206 331.614 289.706 333.048 290.706 333.914C291.772 334.714 293.272 335.181 295.206 335.314C295.406 335.314 295.506 335.414 295.506 335.614C295.572 335.814 295.472 335.914 295.206 335.914C293.872 335.848 291.006 335.814 286.606 335.814C282.206 335.814 279.339 335.848 278.006 335.914C277.672 335.914 277.506 335.814 277.506 335.614C277.506 335.348 277.672 335.214 278.006 335.214C280.072 335.214 281.572 334.848 282.506 334.114C283.439 333.314 283.906 331.781 283.906 329.514L283.806 274.214C283.806 272.414 283.506 271.148 282.906 270.414C282.372 269.681 281.606 269.314 280.606 269.314C280.339 269.314 279.872 269.381 279.206 269.514C278.806 269.581 278.606 269.414 278.606 269.014C281.072 268.414 283.172 267.748 284.906 267.014C286.706 266.281 288.272 265.281 289.606 264.014C290.072 263.948 290.239 264.114 290.106 264.514C289.706 265.981 289.439 267.914 289.306 270.314C289.239 272.648 289.206 276.548 289.206 282.014V320.614L301.106 309.114L300.506 308.014C300.839 308.014 301.872 307.581 303.606 306.714L314.906 295.714C315.639 295.048 316.006 294.448 316.006 293.914C316.006 292.848 314.606 292.148 311.806 291.814C311.539 291.814 311.406 291.714 311.406 291.514C311.472 291.314 311.639 291.214 311.906 291.214C315.239 291.348 317.739 291.414 319.406 291.414C320.872 291.414 322.872 291.348 325.406 291.214C325.672 291.214 325.772 291.314 325.706 291.514C325.706 291.714 325.539 291.814 325.206 291.814C322.072 291.814 318.972 293.148 315.906 295.814L305.106 306.114C305.439 306.048 305.706 306.048 305.906 306.114C309.772 314.381 313.472 321.081 317.006 326.214C320.606 331.281 324.839 335.514 329.706 338.914Z" fill="#353535"/>
<path d="M355.474 301.514C355.474 299.381 355.14 297.814 354.474 296.814C353.874 295.814 352.774 295.314 351.174 295.314C350.907 295.314 350.307 295.381 349.374 295.514C349.174 295.581 349.04 295.548 348.974 295.414C348.974 295.214 349.04 295.081 349.174 295.014C356.174 293.281 361.24 291.348 364.374 289.214C364.64 289.014 364.874 288.948 365.074 289.014C365.34 289.081 365.474 289.248 365.474 289.514C365.14 292.181 364.874 294.548 364.674 296.614C364.54 298.681 364.474 300.881 364.474 303.214V322.914C364.474 328.648 363.14 333.381 360.474 337.114C357.807 340.914 354.707 343.681 351.174 345.414C347.64 347.214 344.54 348.181 341.874 348.314H341.774C341.374 348.314 341.174 348.181 341.174 347.914C341.174 347.648 341.407 347.514 341.874 347.514C345.607 347.248 348.807 345.714 351.474 342.914C354.14 340.114 355.474 334.614 355.474 326.414V301.514ZM357.174 277.414C355.44 277.414 354.074 277.048 353.074 276.314C352.074 275.514 351.574 274.548 351.574 273.414C351.574 271.948 352.24 270.714 353.574 269.714C354.907 268.648 356.64 268.114 358.774 268.114C360.507 268.114 361.874 268.514 362.874 269.314C363.94 270.048 364.474 271.014 364.474 272.214C364.474 273.614 363.774 274.848 362.374 275.914C361.04 276.914 359.307 277.414 357.174 277.414Z" fill="#353535"/>
<path d="M416.471 327.114C416.538 326.981 416.638 326.981 416.771 327.114C416.971 327.248 417.005 327.414 416.871 327.614C414.338 330.814 411.338 333.214 407.871 334.814C404.405 336.348 400.671 337.114 396.671 337.114C392.605 337.114 388.838 336.148 385.371 334.214C381.905 332.281 379.138 329.548 377.071 326.014C375.005 322.481 373.971 318.448 373.971 313.914C373.971 309.248 375.071 305.048 377.271 301.314C379.538 297.514 382.571 294.548 386.371 292.414C390.171 290.214 394.305 289.114 398.771 289.114C403.771 289.114 407.905 290.514 411.171 293.314C414.505 296.114 416.171 299.881 416.171 304.614C416.171 306.948 415.805 309.214 415.071 311.414C409.605 311.481 398.538 311.748 381.871 312.214C382.671 316.148 384.238 319.648 386.571 322.714C388.971 325.781 391.738 328.148 394.871 329.814C398.005 331.481 401.071 332.314 404.071 332.314C409.605 332.314 413.738 330.581 416.471 327.114ZM394.971 290.814C390.571 290.814 387.205 292.148 384.871 294.814C382.538 297.414 381.371 301.381 381.371 306.714C381.371 308.581 381.505 310.214 381.771 311.614L393.571 311.214C396.438 311.014 400.871 310.848 406.871 310.714C407.405 309.648 407.671 308.314 407.671 306.714C407.671 304.381 407.071 301.981 405.871 299.514C404.671 296.981 403.071 294.914 401.071 293.314C399.138 291.648 397.105 290.814 394.971 290.814Z" fill="#353535"/>
<path d="M424.823 317.814C424.89 317.548 424.99 317.448 425.123 317.514C425.323 317.514 425.423 317.648 425.423 317.914C425.29 323.714 426.523 328.114 429.123 331.114C431.723 334.114 435.49 335.614 440.423 335.614C443.756 335.614 446.323 335.081 448.123 334.014C449.99 332.948 450.923 331.114 450.923 328.514C450.856 325.781 449.69 323.448 447.423 321.514C445.223 319.514 441.723 317.248 436.923 314.714C432.59 312.314 429.323 310.148 427.123 308.214C424.923 306.281 423.823 304.014 423.823 301.414C423.823 299.281 424.623 297.281 426.223 295.414C427.823 293.481 430.023 291.948 432.823 290.814C435.623 289.681 438.756 289.114 442.223 289.114C446.556 289.114 450.456 289.714 453.923 290.914C457.456 292.114 458.956 293.848 458.423 296.114L455.623 307.214C455.556 307.414 455.423 307.514 455.223 307.514C455.09 307.514 455.056 307.381 455.123 307.114C455.123 301.514 453.956 297.414 451.623 294.814C449.356 292.148 445.69 290.814 440.623 290.814C437.156 290.814 434.756 291.314 433.423 292.314C432.156 293.314 431.523 294.681 431.523 296.414C431.523 297.814 432.056 299.148 433.123 300.414C434.19 301.614 435.556 302.748 437.223 303.814C438.89 304.814 441.423 306.248 444.823 308.114C449.356 310.581 452.923 313.014 455.523 315.414C458.19 317.748 459.523 320.548 459.523 323.814C459.523 326.214 458.656 328.448 456.923 330.514C455.256 332.514 452.856 334.148 449.723 335.414C446.656 336.614 443.156 337.214 439.223 337.214C436.023 337.214 433.056 336.848 430.323 336.114C427.656 335.448 425.59 334.481 424.123 333.214C422.656 331.948 422.056 330.581 422.323 329.114L424.823 317.814Z" fill="#353535"/>
<path d="M504.385 336.314C503.985 336.314 503.285 336.214 502.285 336.014C501.285 335.814 499.951 335.714 498.285 335.714H477.785L471.485 335.814C470.351 335.881 468.885 335.914 467.085 335.914C466.218 335.914 465.785 335.614 465.785 335.014C465.785 334.548 466.085 333.914 466.685 333.114L494.585 292.414C494.785 292.081 494.885 291.848 494.885 291.714C494.885 291.514 494.785 291.381 494.585 291.314C494.451 291.181 494.251 291.148 493.985 291.214L477.985 292.214C475.718 292.281 473.818 293.114 472.285 294.714C470.751 296.248 469.551 299.114 468.685 303.314C468.618 303.581 468.485 303.714 468.285 303.714C468.085 303.714 467.985 303.581 467.985 303.314C468.318 300.981 468.485 298.448 468.485 295.714C468.485 294.648 468.418 293.114 468.285 291.114C468.285 290.381 468.585 290.014 469.185 290.014C469.585 290.014 470.251 290.114 471.185 290.314C472.185 290.514 473.685 290.614 475.685 290.614H494.585L499.885 290.414L505.085 290.314C505.618 290.314 505.885 290.548 505.885 291.014C505.885 291.481 505.218 292.548 503.885 294.214C502.285 296.414 501.151 298.114 500.485 299.314L476.685 333.814C476.485 334.081 476.385 334.314 476.385 334.514C476.385 334.981 476.718 335.181 477.385 335.114L494.685 334.014C496.951 333.948 498.718 333.514 499.985 332.714C501.251 331.848 502.251 330.414 502.985 328.414C503.785 326.348 504.551 323.314 505.285 319.314C505.418 318.981 505.551 318.814 505.685 318.814C505.885 318.814 505.985 318.981 505.985 319.314C505.451 323.581 505.185 327.581 505.185 331.314C505.185 333.048 505.218 334.348 505.285 335.214C505.285 335.948 504.985 336.314 504.385 336.314Z" fill="#353535"/>
<path d="M549.785 117.485L550.863 114.457C552.558 109.699 555.068 107.669 561.801 105.641C568.318 103.656 571.427 101.311 572.826 97.3831C575.124 90.9309 571.492 84.4796 564.824 82.1042C558.372 79.8059 551.94 82.4705 548.888 88.5314C548.536 89.1786 548.194 89.3399 547.654 89.1476C547.15 88.9679 546.927 88.5639 547.133 87.9858C547.377 87.3019 547.842 86.4517 548.652 85.3181C552.301 80.3233 558.892 78.1217 565.416 80.4457C573.31 83.2574 577.247 90.7921 574.679 98.0017C572.997 102.723 569.652 105.269 562.642 107.279C556.312 109.087 554.159 110.798 552.606 115.158C552.256 116.146 551.661 117.794 551.553 118.113C551.348 118.69 550.881 118.971 550.342 118.779C549.763 118.574 549.579 118.063 549.785 117.485ZM544.208 130.406C544.58 129.361 545.718 128.791 546.762 129.163C547.806 129.535 548.364 130.709 547.992 131.754C547.632 132.763 546.46 133.32 545.414 132.947C544.368 132.575 543.849 131.414 544.208 130.406Z" fill="#353535"/>
<g clip-path="url(#clip0_379_2)">
<path d="M109.209 418.013C110.439 417.489 111.857 418.192 112.381 419.421C112.906 420.651 112.203 422.069 110.973 422.594C107.979 423.758 104.791 424.366 101.448 424.598C101.191 424.616 100.954 424.555 100.718 424.494C99.6915 424.229 98.9073 423.353 98.8563 422.245C98.7876 420.881 99.8442 419.722 101.209 419.653C104.017 419.536 106.591 419.022 109.209 418.013ZM64.6993 395.079C67.7574 403.782 71.2611 413.694 88.9416 418.256C90.2834 418.602 91.0447 419.893 90.6985 421.235C90.3522 422.577 89.0614 423.338 87.7195 422.992C67.5133 417.778 63.3705 406.101 60.0603 396.744C59.635 395.456 60.2384 394.096 61.5471 393.592C62.8355 393.167 64.2537 393.87 64.6993 395.079ZM91.793 407.206C64.8776 400.26 67.9503 375.629 72.594 357.633C77.2377 339.637 86.467 316.594 113.382 323.539C140.298 330.484 137.225 355.116 132.581 373.112C127.938 391.108 118.708 414.151 91.793 407.206ZM127.873 339.485C124.425 332.618 118.238 329.843 112.16 328.275C106.162 326.727 99.483 326.182 93.2043 330.287C91.8931 331.127 92.1147 333.205 93.6143 333.592L109.716 337.747C113.663 338.765 119.957 340.473 125.856 342.08C127.356 342.467 128.614 340.855 127.873 339.485ZM118.361 381.565C116.368 375.915 111.772 371.867 106.007 370.717C104.487 370.408 102.947 370.179 101.307 370.009C99.4891 369.876 98.1703 371.725 98.8297 373.41C101.567 380.094 101.621 386.085 101.618 386.421C101.608 387.766 100.572 388.845 99.2069 388.914C99.0491 388.873 98.8912 388.832 98.6544 388.771C97.6283 388.507 96.8645 387.552 96.8135 386.444C96.8339 386.365 96.6682 376.894 91.0894 369.477C87.8201 365.182 82.0352 364.11 78.3 363.904C77.055 363.835 76.0009 364.657 75.7743 365.862C70.7463 392.851 82.1226 399.659 93.015 402.47C99.882 404.242 107.767 404.677 114.835 398.166C116.169 396.911 117.15 395.396 117.835 393.721C119.505 389.858 119.775 385.55 118.361 381.565Z" fill="#353535"/>
</g>
<defs>
<clipPath id="clip0_379_2">
<rect width="104.341" height="104.341" fill="white" transform="matrix(-0.968283 -0.249856 -0.249856 0.968283 164.102 335.785)"/>
</clipPath>
</defs>
</svg>
