<svg width="109" height="32" viewBox="0 0 109 32" fill="none" xmlns="http://www.w3.org/2000/svg">
<g clip-path="url(#clip0_453_8)">
<path d="M43.1288 1.02668C43.5132 1.0373 43.8775 1.18605 44.1463 1.4384L58.9463 15.0384C59.5244 15.5696 59.5244 16.4303 58.9463 16.9615L44.1463 30.5615C43.7763 30.9175 43.2242 31.0609 42.7039 30.9361C42.1864 30.8112 41.7818 30.4393 41.6459 29.9639C41.51 29.4857 41.6661 28.9784 42.0535 28.6384L55.8071 16L42.0535 3.36152C41.617 2.97105 41.484 2.3734 41.7211 1.85543C41.961 1.34011 42.5189 1.01074 43.1288 1.02668Z" fill="black"/>
<path d="M94.0001 30.7333C91.5861 30.7398 89.2074 30.1531 87.0734 29.0247C84.9393 27.8963 83.1152 26.2608 81.7615 24.262C80.4078 22.2633 79.566 19.9625 79.31 17.5621C79.0541 15.1617 79.3919 12.7352 80.2937 10.4959C81.1955 8.25671 82.6338 6.27337 84.4819 4.72036C86.33 3.16734 88.5315 2.09224 90.8926 1.5896C93.2537 1.08696 95.7021 1.17219 98.0226 1.83778C100.343 2.50337 102.464 3.72894 104.2 5.4067V1.26663C104.2 0.966055 104.319 0.677788 104.532 0.465246C104.745 0.252705 105.033 0.133301 105.333 0.133301C105.634 0.133301 105.922 0.252705 106.135 0.465246C106.347 0.677788 106.467 0.966055 106.467 1.26663V8.06663C106.467 8.30459 106.392 8.53654 106.253 8.72958C106.114 8.92262 105.917 9.06697 105.692 9.14217L98.8915 11.4088C98.606 11.5038 98.2944 11.4815 98.0253 11.3467C97.7562 11.212 97.5517 10.9759 97.4567 10.6903C97.3617 10.4048 97.3841 10.0932 97.5188 9.82409C97.6536 9.55501 97.8897 9.35048 98.1753 9.2555L103.196 7.58497C101.178 5.38699 98.435 3.98951 95.4705 3.64836C92.5059 3.30721 89.5177 4.04521 87.0528 5.72727C84.5879 7.40932 82.8113 9.92289 82.0482 12.8078C81.2851 15.6927 81.5866 18.7559 82.8975 21.4367C84.2084 24.1175 86.441 26.2364 89.1865 27.4056C91.9321 28.5748 95.0069 28.7161 97.848 27.8035C100.689 26.8909 103.107 24.9855 104.658 22.4362C106.209 19.8868 106.79 16.8641 106.294 13.9214C106.268 13.7741 106.271 13.6229 106.304 13.4768C106.336 13.3307 106.397 13.1924 106.484 13.07C106.57 12.9477 106.679 12.8436 106.806 12.7638C106.933 12.684 107.074 12.63 107.222 12.6051C107.369 12.5802 107.52 12.5848 107.666 12.6185C107.812 12.6523 107.95 12.7147 108.071 12.802C108.193 12.8893 108.296 12.9998 108.375 13.1272C108.453 13.2545 108.506 13.3962 108.529 13.544C108.665 14.3556 108.733 15.1771 108.733 16C108.729 19.9061 107.175 23.651 104.413 26.413C101.651 29.1751 97.9062 30.7288 94.0001 30.7333Z" fill="black"/>
<path d="M16.8712 1.02668C16.4868 1.0373 16.1225 1.18605 15.8537 1.4384L1.05371 15.0384C0.475586 15.5696 0.475586 16.4303 1.05371 16.9615L15.8537 30.5615C16.2237 30.9175 16.7758 31.0609 17.2961 30.9361C17.8136 30.8112 18.2182 30.4393 18.3541 29.9639C18.49 29.4857 18.3339 28.9784 17.9465 28.6384L4.19293 16L17.9465 3.36152C18.383 2.97105 18.516 2.3734 18.2789 1.85543C18.039 1.34011 17.4811 1.01074 16.8712 1.02668Z" fill="black"/>
</g>
<defs>
<clipPath id="clip0_453_8">
<rect width="109" height="32" fill="white"/>
</clipPath>
</defs>
</svg>
