<svg width="105" height="66" viewBox="0 0 105 66" fill="none" xmlns="http://www.w3.org/2000/svg">
<path d="M11.3941 36.644C18.1102 28.5397 29.2926 23.7339 46.2723 21.7237C61.6319 19.8716 77.6324 13.4509 83.7211 6.64324C87.9403 1.94387 81.26 2.5411 73.9323 7.51635C65.4936 13.2631 56.0013 16.4963 43.0181 18.0076C24.2437 20.2291 8.80168 27.1037 3.45111 35.6563C0.595074 40.1319 7.74937 41.0239 11.3941 36.644Z" fill="#353535"/>
<path d="M91.3453 27.2944C77.799 39.7944 67.5573 40.0845 50.2644 40.5082C37.0822 40.8307 16.4269 51.2703 11.1715 60.3259C7.98724 65.8169 12.973 67.2754 17.3778 61.8926C26.2749 51.1004 42.2431 44.0625 58.5974 43.685C76.0469 43.3098 86.1892 39.6848 97.3858 29.777C105.969 22.2054 97.4012 21.6961 91.3453 27.2944Z" fill="#353535"/>
</svg>
