<svg width="99" height="105" viewBox="0 0 99 105" fill="none" xmlns="http://www.w3.org/2000/svg">
<path fill-rule="evenodd" clip-rule="evenodd" d="M58.7517 0.413842C54.6312 1.47897 56.0047 3.57487 59.9242 2.64718C67.0262 0.963585 77.4782 5.25853 83.3072 11.4775C92.8882 21.6822 96.9417 51.1279 90.9117 67.2079C85.1832 82.5663 81.3307 87.4797 69.6727 94.5233C52.4202 104.934 37.0437 104.625 16.5417 87.2391C-2.05074 71.5027 0.796788 46.4207 23.1077 27.8668C26.2232 25.2899 32.2197 19.1053 36.6752 13.9514C42.2697 7.45757 46.0552 4.39955 49.7737 3.40314C53.0902 2.54417 52.8222 1.58219 49.3046 1.58219C43.7771 1.58219 38.9867 5.05224 30.5112 15.1194C26.6922 19.6547 22.5047 23.8125 18.7527 26.733C-6.67371 46.6268 -6.23828 74.0793 20.0257 94.3855C28.0657 100.604 51.1472 109.71 69.6727 99.2988C85.1832 90.5716 88.3992 86.9299 95.2332 69.9566C102.201 52.6053 98.7172 22.9875 88.3657 11.5117C81.7997 4.29634 66.8922 -1.6477 58.7517 0.413842ZM48.7352 12.9206C47.2612 13.9514 46.1222 14.879 45.1171 15.7724C43.4422 17.2498 45.2847 19.9299 47.1942 18.8304C48.7352 17.9371 50.8457 16.116 53.3582 14.2262C55.4017 12.7144 55.1672 11.821 52.5877 11.4087C51.3482 11.2026 50.9797 11.3058 48.7352 12.9206ZM70.8451 19.0706C69.1702 19.6891 62.1352 25.3243 62.1352 26.0802C62.1352 26.6643 63.7097 27.3855 64.9827 27.3855C66.0211 27.3855 74.8652 21.2012 74.8652 20.4797C74.8652 19.6894 71.9507 18.6583 70.8451 19.0706ZM40.1257 32.8829C36.6752 34.326 32.4207 38.3803 33.6602 39.0675C35.3687 39.9952 44.0787 35.8378 44.0787 34.0855C44.0452 33.1578 41.4322 32.3332 40.1257 32.8829ZM57.5792 37.5561C50.6447 42.332 50.3097 42.813 52.7551 43.5689C54.1622 44.0156 62.8387 39.3767 62.8387 38.2085C62.8052 36.5937 59.5557 36.1817 57.5792 37.5561ZM78.9186 40.3048C76.7747 41.2668 70.8451 45.0463 70.8451 45.4586C70.8451 48.173 83.1062 44.0839 83.5082 41.2321C83.7092 39.8234 81.0962 39.3084 78.9186 40.3048ZM20.7292 52.8458C15.5368 56.694 15.0007 57.4152 16.7762 58.2398C18.5852 59.0988 18.6522 59.0304 26.5582 53.5673C28.7357 52.0556 28.9367 51.4715 27.4627 50.7843C25.4862 49.8566 24.2132 50.2345 20.7292 52.8458ZM43.8777 56.213C39.7907 59.0991 39.0872 59.8203 39.6902 60.5419C40.6282 61.7101 42.1357 61.5726 44.7487 59.9578C46.1222 59.0988 48.0987 57.8962 49.1371 57.2778C51.4487 55.9034 51.6497 55.4567 50.5107 54.5291C48.9362 53.2234 47.5962 53.5673 43.8777 56.213ZM68.9691 66.5547C65.1166 68.1352 60.1586 72.6366 61.6327 73.2207C64.4131 74.3202 74.8987 67.8607 72.3191 66.6238C71.3476 66.1427 69.9742 66.1424 68.9691 66.5547ZM37.3452 79.4053C35.2682 80.1612 30.6452 83.7689 30.6452 84.6279C30.6452 86.7238 39.6231 83.2535 40.9296 80.6079C41.7001 79.0274 39.9247 78.4433 37.3452 79.4053ZM72.4866 81.9475C66.3226 85.1429 64.1451 88.0634 68.0647 87.9603C69.4046 87.926 76.7077 83.6658 77.4782 82.4976C78.7512 80.4361 76.0042 80.0921 72.4866 81.9475Z" fill="#353535"/>
</svg>
