<svg width="145" height="145" viewBox="0 0 145 145" fill="none" xmlns="http://www.w3.org/2000/svg">
<path d="M51.0558 39.9911C58.7771 39.4474 58.8496 39.411 58.8496 38.396C58.8496 36.9823 55.442 33.7921 54.427 34.2634C54.3908 34.2996 52.6146 34.4446 50.5121 34.6259C37.6796 35.6771 36.9908 35.9673 39.927 38.9398C41.6308 40.6435 41.9208 40.6436 51.0558 39.9911Z" fill="#353535"/>
<path d="M56.2757 50.7569C57.0732 52.5331 60.1907 52.6422 72.2982 51.4097C76.032 51.0109 76.4669 49.6694 73.4581 47.6756C71.5006 46.3706 70.1594 46.2983 63.9244 47.1683C57.0007 48.0746 55.4057 48.8356 56.2757 50.7569Z" fill="#353535"/>
<path d="M92.9248 62.7194C92.9248 60.0007 88.7922 59.1307 81.0347 60.1819C75.2347 60.9794 73.7123 61.8857 74.9448 63.8069C76.6848 66.3807 92.9248 65.4382 92.9248 62.7194Z" fill="#353535"/>
<path d="M86.5807 37.8522C88.4295 36.3297 85.2394 32.9946 82.1219 33.1758C81.5781 33.2121 79.1495 33.3571 76.6482 33.5383C68.3107 34.1183 66.9694 34.7709 69.1081 37.3084C70.4856 38.9034 84.7682 39.3747 86.5807 37.8522Z" fill="#353535"/>
<path d="M65.0124 64.6046C65.0124 63.0821 60.7711 61.1246 58.2699 61.4508C58.0886 61.4871 56.6387 61.6321 55.0437 61.8133C46.7787 62.6833 44.1324 64.6046 47.9024 67.0696C50.0411 68.4471 65.0124 66.3084 65.0124 64.6046Z" fill="#353535"/>
<path d="M106.699 48.8359C106.699 46.4434 102.494 45.2108 96.7307 45.8633C90.2782 46.6245 87.9944 47.6036 89.0456 49.2348C90.3869 51.2286 106.699 50.8659 106.699 48.8359Z" fill="#353535"/>
<path d="M68.0568 80.6273C70.6668 80.4098 74.5093 80.156 76.5393 80.011C80.6355 79.7572 81.2518 79.2135 79.1493 77.6547C77.3731 76.3497 65.7731 75.7698 61.9669 76.821C55.9856 78.4885 60.3355 81.2073 68.0568 80.6273Z" fill="#353535"/>
<path d="M38.7669 77.5459C31.4082 78.7422 28.9068 80.3734 31.7343 82.1859C34.3443 83.8171 50.1855 81.2798 48.953 79.431C47.503 77.256 44.3494 76.6397 38.7669 77.5459Z" fill="#353535"/>
<path d="M41.0872 54.2733C41.0872 53.1858 39.6009 51.7359 38.3321 51.5184C36.2296 51.1559 23.361 51.3009 21.7297 51.6997C17.6335 52.6784 21.4758 57.2096 24.1583 56.9921C24.3396 56.9558 41.0872 55.7958 41.0872 54.2733Z" fill="#353535"/>
<path d="M102.567 105.966C100.356 106.437 100.573 108.213 103.147 110.098C104.017 110.751 116.668 109.591 117.466 108.757C119.641 106.618 108.911 104.589 102.567 105.966Z" fill="#353535"/>
<path d="M124.39 62.2124C122.94 60.8349 110.542 59.4936 109.817 60.6173C109.128 61.7411 110.252 64.5324 117.285 64.3874C124.68 64.2787 126.275 64.0249 124.39 62.2124Z" fill="#353535"/>
<path d="M111.847 75.0811C111.122 74.4286 97.7822 74.2472 93.5772 74.8634C89.9884 75.4072 89.0097 76.6037 91.2935 77.6912C92.7072 78.3799 95.4622 77.8724 109.708 76.7849C112.645 76.5312 113.08 76.2049 111.847 75.0811Z" fill="#353535"/>
<path d="M96.8758 90.4511C95.8245 90.0886 89.4446 89.9801 86.3996 90.3063C79.5121 90.9951 77.4821 92.0461 79.3308 93.8948C80.4908 95.0548 81.7958 95.055 90.0246 93.8587C93.5046 93.3512 96.912 92.9525 97.5645 92.9525C99.377 92.9525 98.9058 91.1398 96.8758 90.4511Z" fill="#353535"/>
<path d="M66.9333 93.6413C64.8308 93.2788 54.1008 93.315 52.3246 93.6413C47.5396 94.5838 52.5783 98.5349 54.6083 98.2086C58.632 97.5561 66.8608 96.5774 68.5645 96.5774C71.6458 96.5774 70.3408 94.2213 66.9333 93.6413Z" fill="#353535"/>
<path d="M83.9347 108.794C82.8472 107.815 71.7186 106.8 69.0361 107.452C65.3748 108.359 68.0572 112.092 72.0447 111.657C75.3072 111.295 79.7297 110.751 82.4847 110.715C84.8047 110.715 85.3122 110.026 83.9347 108.794Z" fill="#353535"/>
</svg>
