<svg width="163" height="163" viewBox="0 0 163 163" fill="none" xmlns="http://www.w3.org/2000/svg">
<path d="M101.006 106.129C95.1347 105.828 90.8436 104.693 84.8426 101.83C73.2811 96.314 66.2983 86.0884 53.4619 80.9778C38.262 74.9423 38.6339 82.5206 41.8094 83.0895C48.31 84.1972 50.0486 84.5197 53.7335 86.0751C68.8859 92.4935 72.5862 101.524 86.3755 107.259C91.0226 109.205 97.1702 110.415 101.197 110.546C107.763 110.738 106.659 106.393 101.006 106.129Z" fill="#353535"/>
<path d="M57.5022 54.5187C67.459 54.4029 71.127 55.7813 79.2493 62.6979C95.2015 76.2228 98.0168 77.9717 106.683 79.6396C110.832 80.436 118.549 80.1979 118.995 79.262C119.98 77.1975 117.414 75.6349 113.49 75.9257C98.9132 77.0136 90.3359 68.3593 84.3891 63.2579C78.9415 58.5973 72.454 52.2917 66.0141 50.7736C58.7927 49.0517 51.2088 49.8603 51.5545 52.3232C51.8231 54.31 52.5651 54.5963 57.5022 54.5187Z" fill="#353535"/>
<path d="M124.468 89.679C117.749 90.7991 113.932 90.9378 109.471 90.229C97.1846 88.2869 86.6885 83.5834 76.2895 75.2764C66.1684 67.2371 58.2193 63.7824 47.9997 62.9617C39.857 62.3209 36.0785 63.0865 37.3306 65.137C37.9069 66.054 37.8113 66.042 47.5887 67.2938C59.8822 68.8674 65.9438 71.3202 75.5199 78.6602C87.6005 87.9047 98.5107 92.8735 110.383 94.5504C117.195 95.5022 127.287 94.6065 128.293 92.9235C129.405 91.0885 127.228 89.2051 124.468 89.679Z" fill="#353535"/>
</svg>
