<svg width="192" height="178" viewBox="0 0 192 178" fill="none" xmlns="http://www.w3.org/2000/svg">
<g clip-path="url(#clip0_241_943)">
<path d="M125.025 167.116C121.459 168.535 117.428 168.174 114.113 166.231L19.2207 110.635C15.9033 108.691 13.6169 105.351 13.1117 101.547C12.1169 94.0685 16.7506 85.9129 24.0493 82.7353C25.0899 82.283 26.288 82.3559 27.2704 82.9315L134.342 145.664C135.324 146.24 135.974 147.249 136.09 148.379C136.884 156.299 132.035 164.328 125.025 167.116L125.025 167.116Z" fill="#FECE2F"/>
<path d="M113.903 166.589L19.0109 110.993C15.5724 108.978 13.213 105.467 12.6995 101.601C11.6688 93.8531 16.4762 85.5791 23.8822 82.3545C25.0415 81.8508 26.3864 81.9328 27.48 82.5735L134.551 145.306C135.644 145.946 136.374 147.08 136.503 148.338C137.309 156.375 132.441 164.613 125.179 167.502C121.555 168.944 117.34 168.603 113.903 166.589L113.903 166.589ZM27.0607 83.2892C26.1957 82.7823 25.132 82.7173 24.2156 83.1156C17.1364 86.1979 12.5398 94.0985 13.5235 101.493C14.0035 105.107 16.2115 108.391 19.43 110.277L114.322 165.874C117.539 167.759 121.483 168.079 124.87 166.731C131.801 163.974 136.447 156.102 135.676 148.419C135.574 147.425 134.997 146.528 134.132 146.022L27.0607 83.2892Z" fill="#353535"/>
<path d="M141.433 143.518C141.459 144.168 141.308 144.831 140.954 145.435C139.966 147.121 137.793 147.687 136.1 146.695L25.2052 81.7224C24.0423 81.041 23.6504 79.5487 24.3309 78.3873C24.4269 78.2234 24.542 78.0752 24.6668 77.9423C23.0644 76.4319 22.6487 73.9699 23.8063 71.9941C24.8557 70.203 26.8844 69.3466 28.82 69.6911C28.8201 69.1056 28.9678 68.5128 29.2856 67.9704C30.241 66.3398 32.341 65.7945 33.976 66.7524L144.871 131.725C146.225 132.518 146.682 134.255 145.891 135.605C145.465 136.332 144.764 136.795 143.996 136.947C144.047 136.996 144.098 137.047 144.144 137.1C145.271 138.303 145.53 140.142 144.656 141.635C143.959 142.824 142.718 143.491 141.433 143.518L141.433 143.518Z" fill="#FECE2F"/>
<path d="M135.891 147.053L24.9953 82.0803C23.6366 81.2842 23.1775 79.5333 23.972 78.1772C24.0136 78.1062 24.0593 78.036 24.1088 77.9672C22.5556 76.276 22.2736 73.7878 23.4477 71.7839C24.471 70.0373 26.4321 69.0457 28.4334 69.2214C28.497 68.706 28.6643 68.2082 28.9268 67.7601C29.9962 65.9348 32.3555 65.3222 34.1857 66.3945L145.081 131.367C146.631 132.275 147.155 134.271 146.25 135.815C145.899 136.415 145.364 136.881 144.731 137.152C145.749 138.493 145.88 140.367 145.015 141.845C144.335 143.005 143.169 143.756 141.844 143.906C141.805 144.518 141.625 145.113 141.313 145.645C140.21 147.527 137.778 148.159 135.89 147.053L135.891 147.053ZM33.7662 67.1102C32.3316 66.2697 30.4826 66.7498 29.6444 68.1805C29.3772 68.6365 29.236 69.1593 29.2357 69.6922C29.2357 69.8148 29.1811 69.9309 29.087 70.0097C28.993 70.0882 28.8689 70.1211 28.7479 70.0997C26.9338 69.7767 25.0923 70.6225 24.1654 72.2044C23.122 73.9853 23.4453 76.2208 24.952 77.6408C25.1185 77.798 25.1271 78.0598 24.9705 78.2267C24.8589 78.3456 24.7645 78.4706 24.6898 78.598C24.1266 79.5593 24.4517 80.8005 25.4148 81.3647L136.31 146.338C137.801 147.211 139.724 146.712 140.595 145.225C140.895 144.713 141.041 144.128 141.018 143.534C141.014 143.423 141.054 143.315 141.13 143.234C141.206 143.153 141.312 143.106 141.423 143.104C142.622 143.078 143.696 142.45 144.297 141.425C145.063 140.117 144.88 138.493 143.841 137.383C143.793 137.329 143.751 137.287 143.709 137.248C143.597 137.14 143.553 136.98 143.597 136.831C143.64 136.683 143.762 136.57 143.914 136.54C144.595 136.406 145.185 135.988 145.532 135.395C146.206 134.245 145.815 132.76 144.661 132.084L33.7659 67.1107L33.7662 67.1102Z" fill="#353535"/>
<path d="M35.389 77.6849C35.3349 77.6532 35.2872 77.6089 35.2506 77.5528C35.1255 77.3603 35.1796 77.1033 35.372 76.9786C36.7016 76.1175 38.3807 75.7433 39.9793 75.9526C41.5758 76.1618 43.1231 76.9568 44.2257 78.1335C44.3828 78.3011 44.3742 78.5638 44.207 78.7201C44.0393 78.8767 43.7762 78.8675 43.6195 78.7C42.6462 77.6613 41.2812 76.96 39.8732 76.7759C38.4676 76.5918 36.9923 76.9197 35.8259 77.6755C35.6893 77.7637 35.5205 77.7619 35.389 77.6849Z" fill="#353535"/>
<path d="M40.0069 87.936C38.5233 87.0668 37.4462 85.4764 37.3568 83.7767C37.3447 83.5477 37.5206 83.3528 37.7499 83.3412C37.9795 83.3303 38.1748 83.5062 38.187 83.7347C38.2919 85.7207 40.0111 87.5299 42.0189 87.7668C42.2474 87.794 42.4102 88.0002 42.384 88.2276C42.3576 88.4554 42.1514 88.618 41.9235 88.5912C41.245 88.5109 40.5943 88.28 40.0072 87.936L40.0069 87.936Z" fill="#353535"/>
<path d="M49.0073 87.5083C48.9769 87.4906 48.9484 87.4685 48.9224 87.4425C48.7604 87.2798 48.7609 87.0168 48.9233 86.8555C50.1628 85.6246 52.3462 85.4868 53.7881 86.5407C53.9735 86.6765 54.0136 86.9363 53.8782 87.1209C53.7429 87.3058 53.4845 87.3474 53.2975 87.2095C52.191 86.3985 50.4559 86.5061 49.5102 87.4448C49.3737 87.5802 49.1661 87.6014 49.0071 87.5082L49.0073 87.5083Z" fill="#353535"/>
<path d="M63.9378 91.8399C63.852 91.7896 63.7839 91.7089 63.7517 91.6068C63.6821 91.3881 63.8031 91.1549 64.0217 91.0862C66.2247 90.3926 68.8107 91.2661 70.1693 93.1623C70.3032 93.3489 70.2601 93.6083 70.0737 93.7414C69.887 93.8745 69.6276 93.8302 69.4936 93.6446C68.3568 92.0588 66.113 91.2987 64.2735 91.8779C64.1567 91.9147 64.036 91.8974 63.9378 91.8399Z" fill="#353535"/>
<path d="M72.2044 105.082C70.9076 104.322 69.8237 103.198 69.1835 101.852C69.0849 101.645 69.1731 101.398 69.3803 101.3C69.5877 101.202 69.8356 101.29 69.9342 101.497C71.0221 103.784 73.5531 105.353 76.0889 105.311C76.3185 105.307 76.508 105.491 76.5123 105.72C76.5164 105.949 76.3339 106.138 76.1044 106.142C74.7449 106.164 73.386 105.774 72.2043 105.082L72.2044 105.082Z" fill="#353535"/>
<path d="M106.871 120.605C106.698 120.504 106.619 120.29 106.693 120.098C107.084 119.075 106.992 117.881 106.448 116.903C105.901 115.921 104.916 115.189 103.813 114.945C103.589 114.895 103.447 114.674 103.496 114.45C103.546 114.226 103.767 114.085 103.992 114.134C105.323 114.429 106.513 115.314 107.174 116.5C107.837 117.691 107.947 119.147 107.469 120.396C107.387 120.61 107.147 120.717 106.932 120.634C106.911 120.626 106.89 120.616 106.871 120.605L106.871 120.605Z" fill="#353535"/>
<path d="M108.81 126.913C108.759 126.883 108.708 126.851 108.658 126.819C108.465 126.694 108.41 126.437 108.535 126.245C108.66 126.052 108.919 126.001 109.11 126.123C110.6 127.084 112.863 126.69 113.858 125.286C113.991 125.099 114.252 125.051 114.437 125.189C114.625 125.321 114.669 125.58 114.537 125.767C113.312 127.495 110.677 128.007 108.81 126.913Z" fill="#353535"/>
<path d="M131.456 131.445C131.37 131.394 131.301 131.313 131.269 131.211C130.896 130.032 130.068 128.983 128.996 128.333C127.927 127.687 126.609 127.434 125.39 127.649C125.165 127.688 124.948 127.538 124.908 127.312C124.868 127.086 125.018 126.871 125.244 126.831C126.659 126.582 128.188 126.877 129.426 127.624C130.668 128.377 131.63 129.594 132.062 130.963C132.131 131.181 132.01 131.414 131.791 131.483C131.674 131.519 131.554 131.502 131.456 131.445L131.456 131.445Z" fill="#353535"/>
<path d="M133.079 141.132C131.519 140.218 130.532 138.373 130.805 136.59C130.84 136.363 131.052 136.208 131.279 136.243C131.507 136.278 131.662 136.491 131.627 136.717C131.357 138.477 132.679 140.386 134.456 140.802C134.679 140.854 134.819 141.078 134.767 141.301C134.715 141.524 134.491 141.663 134.268 141.61C133.846 141.511 133.446 141.348 133.079 141.132Z" fill="#353535"/>
<path d="M125.025 167.116C121.459 168.535 117.428 168.174 114.113 166.231L82.0599 147.452C88.743 150.445 94.3103 150.424 95.0956 148.729C95.8818 147.037 92.7983 143.644 91.4928 142.413C88.9086 139.976 90.638 137.038 94.834 139.344C100.414 142.406 113.816 150.67 115.427 147.919C116.725 145.704 110.536 141.868 112.55 138.431C113.994 135.965 121.397 138.079 124.077 139.649L134.342 145.664C135.324 146.239 135.974 147.249 136.09 148.379C136.884 156.298 132.035 164.328 125.025 167.116L125.025 167.116Z" fill="#353535"/>
<path d="M113.903 166.589L81.8501 147.81C81.6593 147.698 81.5892 147.458 81.69 147.262C81.7908 147.066 82.0276 146.983 82.2292 147.073C88.7886 150.011 94.09 149.91 94.7182 148.554C95.3135 147.273 92.8811 144.292 91.2078 142.714C89.6764 141.27 89.6098 139.775 90.2231 138.933C90.8764 138.037 92.4834 137.579 95.0338 138.981C95.8659 139.437 96.8462 139.995 97.9818 140.641C101.205 142.474 105.216 144.756 108.645 146.318C113.801 148.667 114.855 148.073 115.068 147.709C115.512 146.951 114.656 145.717 113.751 144.41C112.499 142.604 110.94 140.355 112.191 138.221C113.912 135.282 121.852 137.866 124.286 139.292L134.551 145.306C135.644 145.946 136.374 147.08 136.503 148.338C137.309 156.375 132.441 164.614 125.179 167.502C121.555 168.944 117.34 168.603 113.903 166.589L113.903 166.589ZM86.2597 149.432L114.322 165.874C117.54 167.759 121.483 168.079 124.87 166.731C131.801 163.974 136.447 156.102 135.677 148.419C135.574 147.425 134.997 146.528 134.132 146.022L123.867 140.007C120.985 138.318 114.093 136.62 112.909 138.641C111.925 140.319 113.201 142.159 114.434 143.938C115.496 145.469 116.498 146.915 115.786 148.13C114.326 150.621 106.673 146.539 97.5719 141.362C96.4396 140.717 95.4615 140.161 94.635 139.707C92.6883 138.638 91.3544 138.793 90.8959 139.423C90.5097 139.953 90.6209 141.02 91.778 142.111C92.2657 142.571 96.5119 146.668 95.4729 148.904C94.9944 149.937 93.2773 150.432 90.7625 150.263C89.3829 150.169 87.8538 149.885 86.26 149.432L86.2597 149.432Z" fill="#353535"/>
<path d="M82.0673 136.377C79.8462 135.076 77.6245 135.005 76.9085 136.227C76.1925 137.449 77.7105 139.775 79.4718 140.807C81.2332 141.839 83.9381 142.295 84.7436 140.92C85.5491 139.545 83.5226 137.229 82.0674 136.377L82.0673 136.377Z" fill="#353535"/>
<path d="M79.2622 141.165C77.3304 140.033 75.6898 137.484 76.5496 136.017C77.3971 134.57 79.8058 134.571 82.277 136.019C83.7891 136.905 86.092 139.441 85.1023 141.13C84.1187 142.809 81.0786 142.229 79.2622 141.165ZM81.8577 136.735C79.8686 135.569 77.8523 135.439 77.2673 136.437C76.7275 137.359 77.9909 139.458 79.6816 140.449C81.388 141.449 83.7618 141.773 84.3846 140.71C84.9852 139.685 83.2852 137.571 81.8577 136.735Z" fill="#353535"/>
<path d="M39.1377 63.2102L145.437 125.49L142.573 130.379L36.2736 68.0986L39.1377 63.2102Z" fill="#FECE2F"/>
<path d="M142.364 130.737L36.0639 68.4565C35.8658 68.3405 35.799 68.0859 35.9148 67.8884L38.7788 63C38.8946 62.8024 39.1493 62.7363 39.3474 62.8524L145.647 125.133C145.845 125.249 145.912 125.503 145.796 125.701L142.932 130.589C142.816 130.787 142.562 130.853 142.364 130.737ZM36.8422 67.951L142.424 129.811L144.869 125.638L39.2869 63.7784L36.8422 67.951Z" fill="#353535"/>
<path d="M118.902 109.944L145.437 125.491L142.573 130.379L116.038 114.832L118.902 109.944Z" fill="#353535"/>
<path d="M142.364 130.737L115.829 115.19C115.63 115.074 115.564 114.819 115.679 114.622L118.543 109.733C118.659 109.536 118.914 109.47 119.112 109.586L145.647 125.132C145.845 125.248 145.912 125.503 145.796 125.701L142.932 130.589C142.816 130.787 142.562 130.853 142.364 130.737ZM116.607 114.684L142.424 129.811L144.869 125.638L119.052 110.512L116.607 114.684Z" fill="#353535"/>
<path d="M115.584 113.063L59.9062 84.7169C55.1058 81.9044 51.8885 83.487 52.5456 85.7364C52.5639 85.7993 52.5843 85.862 52.6071 85.9244L65.7408 122.058C67.5572 127.055 72.5376 129.973 77.7851 129.114C77.7851 129.114 110.111 121.605 120.193 119.141C124.292 118.14 116.643 113.684 115.584 113.063Z" fill="#353535"/>
<path d="M70.261 128.15C68.0556 126.857 66.2969 124.802 65.3504 122.199L52.2166 86.065C52.1908 85.9941 52.1678 85.9232 52.1469 85.852C51.8752 84.9219 52.1474 84.0562 52.893 83.4763C54.0251 82.5961 56.5927 82.2983 60.1054 84.3525L115.772 112.694C115.78 112.697 115.787 112.701 115.794 112.705L115.823 112.723C119.97 115.152 121.979 117.03 121.794 118.306C121.708 118.905 121.203 119.322 120.293 119.544C110.323 121.981 78.2034 129.443 77.8801 129.518C77.8714 129.521 77.8624 129.522 77.8532 129.524C75.1189 129.971 72.4665 129.442 70.2608 128.149L70.261 128.15ZM115.385 113.428L59.7183 85.0865C59.711 85.0829 59.7037 85.0789 59.6967 85.0748C56.7401 83.3426 54.4064 83.3531 53.4048 84.1319C52.9344 84.4976 52.771 85.0266 52.9448 85.621C52.9605 85.6751 52.9785 85.7297 52.998 85.7836L66.1317 121.917C67.8845 126.739 72.6414 129.53 77.7036 128.707C78.5178 128.518 110.207 121.154 120.093 118.738C120.403 118.663 120.927 118.49 120.972 118.186C121.063 117.554 119.659 115.931 115.404 113.438L115.385 113.427L115.385 113.428Z" fill="#353535"/>
<path d="M114.808 111.614L53.1575 75.4927C47.6435 72.2621 44.0371 73.9271 44.8399 76.4289C44.8623 76.4988 44.8872 76.5687 44.9145 76.638L60.7353 116.891C62.9234 122.458 68.6444 125.81 74.5704 124.997L117.42 119.118C117.494 119.108 117.567 119.096 117.639 119.081C120.213 118.558 119.352 114.276 114.808 111.614L114.808 111.614Z" fill="white"/>
<path d="M114.808 111.614L55.7034 76.9844C50.1893 73.7538 46.25 74.4711 47.0528 76.9729C47.0752 77.0428 63.2811 118.383 63.2811 118.383C65.4692 123.95 68.6441 125.81 74.5701 124.997L117.419 119.119C117.493 119.108 117.566 119.096 117.638 119.081C120.213 118.559 119.352 114.276 114.808 111.614L114.808 111.614Z" fill="#FECE2F"/>
<path d="M66.0356 123.705C63.5167 122.229 61.482 119.927 60.3484 117.042L44.5278 76.7894C44.4973 76.7114 44.4691 76.6331 44.4439 76.5549C44.1267 75.5659 44.3871 74.645 45.1584 74.0287C46.392 73.0435 49.2818 72.7417 53.367 75.1352L115.018 111.256C118.308 113.184 119.739 115.961 119.451 117.707C119.296 118.648 118.666 119.297 117.722 119.488C117.642 119.505 117.56 119.519 117.477 119.53L74.6278 125.409C71.5577 125.83 68.5545 125.181 66.0355 123.705L66.0356 123.705ZM52.9478 75.8509C49.4655 73.8106 46.7878 73.7913 45.6786 74.6774C45.1764 75.0788 45.0232 75.641 45.2355 76.3033C45.2552 76.3651 45.2773 76.4266 45.3014 76.4876L61.122 116.741C63.2481 122.15 68.7548 125.376 74.5128 124.586L117.362 118.708C117.427 118.699 117.491 118.688 117.554 118.675C118.169 118.55 118.531 118.179 118.631 117.57C118.866 116.14 117.533 113.691 114.599 111.972L52.9478 75.8509Z" fill="#353535"/>
<path d="M156.926 121.277C153.064 122.573 153.242 128.559 148.875 128.873C141.421 129.408 139.789 121.087 131.907 119.205C126.434 117.898 122.577 121.65 117.929 119.77C110.388 116.719 112.182 109.007 104.837 105.943C99.159 103.574 95.1044 108.859 86.6791 103.923C78.2539 98.9866 80.8817 92.8658 76.0413 89.0717C69.7759 84.1617 63.9249 89.4974 57.5793 84.4113C53.6645 81.2744 55.0537 76.0771 51.2361 71.9405C45.7425 65.9856 37.6844 68.6296 34.5069 61.8649C33.9133 60.6011 34.0485 59.4599 34.4836 58.3607C35.4142 56.0104 37.7147 53.8561 37.1985 51.129C36.5088 47.499 31.7593 43.2851 35.8691 40.2277C41.2182 36.2497 47.5472 40.8549 51.6812 46.4841C68.6224 69.5403 97.8962 84.7777 97.8962 84.7777C97.8962 84.7777 113.92 95.2761 134.107 101.826C140.416 103.876 147.133 105.537 153.896 106.371C160.829 107.226 167.941 110.496 167.084 117.106C166.428 122.187 160.428 120.103 156.926 121.277L156.926 121.277Z" fill="white"/>
<path d="M156.926 121.277C153.064 122.572 153.242 128.559 148.875 128.872C141.42 129.408 139.789 121.087 131.907 119.205C126.434 117.898 122.577 121.65 117.929 119.77C110.388 116.719 112.182 109.007 104.837 105.943C99.1589 103.574 95.1043 108.859 86.679 103.923C78.2538 98.9866 80.8816 92.8658 76.0412 89.0716C69.7758 84.1616 63.9248 89.4973 57.5792 84.4112C53.6644 81.2743 55.0536 76.0771 51.236 71.9404C45.7424 65.9855 37.6843 68.6295 34.5068 61.8649C33.9132 60.601 34.0484 59.4598 34.4835 58.3606C34.9445 59.7949 35.9302 60.9909 37.4589 61.7577C39.8858 62.9758 42.7197 62.9098 45.431 63.0411C48.1395 63.1732 51.0626 63.6325 52.9634 65.5685C55.5248 68.1726 55.3044 72.4217 57.1276 75.5843C60.7973 81.9581 70.2839 81.1654 76.534 85.0475C81.6595 88.2308 84.4733 94.5576 90.0184 96.9327C94.1477 98.7009 98.9554 97.8841 103.247 99.2111C107.454 100.51 110.744 103.711 114.292 106.319C118.073 109.099 122.298 111.277 126.756 112.746C127.971 113.146 129.258 113.499 130.514 113.268C134.174 112.597 135.198 107.766 134.563 104.103C134.433 103.354 134.272 102.592 134.107 101.826C140.416 103.875 147.134 105.536 153.896 106.371C160.829 107.226 167.941 110.496 167.084 117.106C166.428 122.187 160.428 120.103 156.927 121.277L156.926 121.277Z" fill="#FECE2F"/>
<path d="M86.4697 104.281C81.4505 101.34 80.2376 97.9496 79.1673 94.9582C78.3915 92.7892 77.7212 90.916 75.784 89.3976C72.7976 87.0585 69.949 87.1366 66.9322 87.2205C63.8384 87.3063 60.6394 87.3962 57.3188 84.7343C55.1926 83.0304 54.5693 80.8014 53.9095 78.4415C53.3192 76.3303 52.7086 74.1472 50.9313 72.2213C48.4645 69.5479 45.4714 68.6642 42.5771 67.8093C39.1518 66.7976 35.9169 65.8417 34.1312 62.0407C33.0382 59.7136 34.1899 57.7879 35.3036 55.9256C36.233 54.3719 37.1106 52.9044 36.7885 51.2056C36.5844 50.1297 35.9745 48.9429 35.385 47.7951C34.0389 45.1752 32.5134 42.2058 35.6197 39.8948C37.3702 38.5926 39.3202 38.0926 41.4158 38.4089C44.8808 38.9314 48.7443 41.7853 52.0164 46.2379C68.7071 68.9548 97.7972 84.2577 98.0882 84.4097C98.1005 84.4159 98.1129 84.4232 98.1243 84.4308C98.193 84.4757 105.13 88.9989 115.439 93.8908C124.943 98.4008 139.338 104.155 153.947 105.959C159.431 106.636 163.81 108.611 165.96 111.378C167.26 113.052 167.777 114.997 167.497 117.161C167 121.001 163.664 121.121 160.72 121.228C159.431 121.275 158.097 121.323 157.059 121.671C155.419 122.221 154.568 123.704 153.667 125.274C152.587 127.156 151.471 129.102 148.906 129.287C144.717 129.588 142.302 127.232 139.745 124.739C137.584 122.632 135.35 120.453 131.812 119.609C129.263 119 127.06 119.534 124.929 120.052C122.548 120.63 120.299 121.176 117.773 120.154C113.828 118.558 112.342 115.724 110.904 112.984C109.503 110.311 108.178 107.787 104.678 106.326C102.406 105.379 100.444 105.71 98.1728 106.093C95.0401 106.622 91.4894 107.222 86.4702 104.281L86.4697 104.281ZM75.0092 87.8663C75.437 88.1169 75.8655 88.4074 76.2964 88.7452C78.4232 90.4119 79.1649 92.4852 79.9502 94.6803C81.0227 97.6779 82.1315 100.778 86.8892 103.565C91.647 106.353 94.8928 105.805 98.0322 105.274C100.331 104.886 102.502 104.52 104.996 105.56C108.775 107.136 110.232 109.914 111.64 112.599C113.071 115.327 114.423 117.904 118.083 119.385C120.361 120.306 122.484 119.79 124.731 119.245C126.957 118.704 129.259 118.146 132.003 118.801C135.764 119.699 138.187 122.061 140.325 124.146C142.849 126.607 145.029 128.732 148.845 128.458C150.968 128.306 151.929 126.632 152.946 124.86C153.884 123.224 154.854 121.534 156.793 120.884C157.945 120.498 159.34 120.447 160.688 120.398C163.681 120.29 166.265 120.196 166.673 117.053C166.923 115.116 166.463 113.378 165.304 111.886C163.288 109.292 159.112 107.433 153.847 106.783C139.123 104.965 124.633 99.1733 115.071 94.6346C104.968 89.8398 98.083 85.3936 97.6871 85.136C97.2688 84.9164 90.0238 81.0841 80.9021 74.6155C72.2675 68.4926 60.1309 58.6843 51.3466 46.7282C48.2053 42.4529 44.5413 39.7194 41.2935 39.2297C39.4253 38.9479 37.6839 39.3958 36.1176 40.561C33.5745 42.453 34.7563 44.7538 36.1247 47.4175C36.7416 48.6178 37.3792 49.8592 37.6055 51.053C37.9866 53.0614 36.9859 54.7344 36.0181 56.3526C34.9693 58.1061 33.9788 59.762 34.8841 61.6895C36.5105 65.1515 39.4304 66.014 42.8118 67.0134C45.6748 67.8586 48.9196 68.8176 51.5427 71.6595C53.4557 73.733 54.0938 76.014 54.7107 78.2201C55.3335 80.4475 55.922 82.5511 57.8387 84.0875C60.921 86.5571 63.8286 86.4764 66.9078 86.3908C69.5339 86.3179 72.2381 86.2429 75.0095 87.8667L75.0092 87.8663Z" fill="#353535"/>
<path d="M161.36 110.605C158.585 115.342 156.01 117.368 150.119 115.922C142.186 113.972 130.149 108.894 114.955 100.905C108.792 97.6661 102.11 93.9481 94.9723 89.7661C70.2354 75.273 53.0376 62.8371 45.1961 54.4489C41.0547 50.0167 41.5628 46.7801 44.3384 42.0428C58.1212 18.5188 94.4223 21.5258 124.596 39.2044C143.27 50.1451 158.188 65.8785 163.582 81.8597C166.907 91.7021 166.614 101.638 161.36 110.605Z" fill="#FECE2F"/>
<path d="M75.9262 43.9054C76.5673 43.5829 76.4295 42.0224 75.6183 40.4199C74.8072 38.8175 73.63 37.7798 72.9889 38.1023C72.3478 38.4248 72.4857 39.9853 73.2968 41.5878C74.1079 43.1903 75.2851 44.2279 75.9262 43.9054Z" fill="white"/>
<path d="M158.091 86.9585C158.513 86.3786 157.676 85.052 156.222 83.9956C154.767 82.9392 153.247 82.5529 152.825 83.1328C152.403 83.7127 153.24 85.0393 154.694 86.0957C156.149 87.1521 157.669 87.5384 158.091 86.9585Z" fill="white"/>
<path d="M89.9208 43.8426C91.7151 43.9307 93.1969 43.4212 93.2305 42.7045C93.2642 41.9878 91.8368 41.3354 90.0426 41.2473C88.2483 41.1591 86.7665 41.6686 86.7328 42.3853C86.6992 43.102 88.1266 43.7544 89.9208 43.8426Z" fill="white"/>
<path d="M137.915 69.3666C138.518 68.9786 138.217 67.4408 137.242 65.9318C136.267 64.4229 134.987 63.5143 134.384 63.9023C133.78 64.2904 134.082 65.8282 135.057 67.3371C136.032 68.846 137.311 69.7547 137.915 69.3666Z" fill="white"/>
<path d="M129.351 54.1393C131.052 54.7215 132.618 54.6434 132.85 53.9647C133.081 53.286 131.89 52.2638 130.19 51.6815C128.49 51.0992 126.924 51.1774 126.692 51.8561C126.46 52.5348 127.651 53.557 129.351 54.1393Z" fill="white"/>
<path d="M101.555 76.9061C103.255 77.4884 104.821 77.4102 105.053 76.7315C105.284 76.0528 104.094 75.0306 102.393 74.4483C100.693 73.8661 99.1267 73.9442 98.8951 74.6229C98.6635 75.3016 99.8541 76.3239 101.555 76.9061Z" fill="white"/>
<path d="M63.7135 47.8905C65.4138 48.4728 66.98 48.3946 67.2116 47.7159C67.4432 47.0372 66.2526 46.015 64.5522 45.4327C62.8518 44.8504 61.2856 44.9286 61.054 45.6073C60.8224 46.286 62.0131 47.3082 63.7135 47.8905Z" fill="white"/>
<path d="M142.534 92.5939C143.234 92.757 144.129 91.473 144.533 89.726C144.937 87.9791 144.697 86.4307 143.997 86.2677C143.297 86.1046 142.402 87.3886 141.998 89.1355C141.594 90.8825 141.834 92.4308 142.534 92.5939Z" fill="white"/>
<path d="M150.538 73.1664C151.142 72.7784 150.841 71.2406 149.866 69.7316C148.891 68.2227 147.611 67.3141 147.008 67.7021C146.404 68.0902 146.705 69.628 147.68 71.1369C148.655 72.6458 149.935 73.5545 150.538 73.1664Z" fill="white"/>
<path d="M116.64 66.9315C118.435 67.0196 119.916 66.5101 119.95 65.7934C119.984 65.0767 118.556 64.4243 116.762 64.3361C114.968 64.248 113.486 64.7575 113.452 65.4742C113.419 66.1909 114.846 66.8433 116.64 66.9315Z" fill="white"/>
<path d="M88.7327 60.8384C89.4178 60.6239 89.5347 59.0623 88.9936 57.3504C88.4526 55.6386 87.4587 54.4247 86.7735 54.6392C86.0884 54.8537 85.9715 56.4153 86.5125 58.1272C87.0536 59.839 88.0475 61.0529 88.7327 60.8384Z" fill="white"/>
<path d="M118.858 80.3102C119.553 80.1298 119.747 78.576 119.291 76.8398C118.835 75.1036 117.902 73.8424 117.207 74.0228C116.512 74.2033 116.318 75.7571 116.774 77.4933C117.23 79.2295 118.163 80.4907 118.858 80.3102Z" fill="white"/>
<path d="M137.939 82.4071C139.73 82.2754 141.138 81.5886 141.083 80.873C141.029 80.1573 139.533 79.6839 137.742 79.8156C135.951 79.9472 134.543 80.6341 134.597 81.3497C134.652 82.0653 136.148 82.5387 137.939 82.4071Z" fill="white"/>
<path d="M104.584 54.8122C106.144 53.927 107.12 52.7035 106.764 52.0794C106.408 51.4553 104.855 51.6669 103.294 52.5521C101.734 53.4372 100.758 54.6607 101.114 55.2848C101.47 55.909 103.023 55.6973 104.584 54.8122Z" fill="white"/>
<path d="M161.36 110.605C158.585 115.342 156.01 117.368 150.119 115.922C142.186 113.972 130.149 108.894 114.955 100.905C122.582 104.422 130.209 105.839 134.083 103.961C140.804 100.701 143.948 100.648 149.394 103.288C158.928 107.909 167.341 93.8997 163.582 81.8598C166.906 91.7022 166.614 101.638 161.36 110.605L161.36 110.605Z" fill="#353535"/>
<path d="M114.745 101.262C114.558 101.153 114.485 100.917 114.582 100.721C114.681 100.519 114.924 100.434 115.128 100.528C122.938 104.129 130.307 105.33 133.901 103.587C140.677 100.301 143.9 100.163 149.576 102.915C152.65 104.405 155.843 103.937 158.568 101.597C163.397 97.4495 165.382 89.0172 163.185 81.9826C163.117 81.7654 163.237 81.5346 163.454 81.4646C163.67 81.3954 163.903 81.5124 163.976 81.7278C167.513 92.1999 166.733 102.258 161.719 110.815C158.935 115.568 156.246 117.853 150.021 116.325C141.875 114.323 129.683 109.118 114.762 101.272C114.756 101.269 114.751 101.266 114.745 101.262ZM164.885 88.8374C164.676 94.1224 162.597 99.2314 159.111 102.226C156.12 104.795 152.605 105.305 149.214 103.661C143.827 101.049 140.754 101.188 134.266 104.334C131.538 105.657 127.019 105.465 121.733 103.917C133.604 109.854 143.365 113.835 150.217 115.519C155.969 116.931 158.361 114.901 161.002 110.395C164.789 103.931 166.096 96.5808 164.885 88.8372L164.885 88.8374Z" fill="#353535"/>
<path d="M64.993 114.83C62.752 109.902 65.7896 107.569 68.1163 109.32C69.8854 110.651 72.1798 114.661 72.0537 118.199C71.9283 121.719 67.8947 121.213 64.9929 114.831L64.993 114.83Z" fill="white"/>
<path d="M61.8174 103.026C62.1131 102.554 62.6505 102.243 63.2077 102.221C63.9107 102.193 64.5749 102.604 65.0226 103.147C65.546 103.782 65.8263 104.612 65.7948 105.433C65.7689 106.11 65.4328 106.871 64.7704 107.015C64.494 107.075 64.206 107.015 63.9339 106.938C62.3215 106.48 60.736 104.751 61.8176 103.026L61.8174 103.026Z" fill="white"/>
<path d="M131.201 43.3806C128.404 43.3395 125.783 43.8914 123.6 45.9013C122.22 47.1705 119.112 52.9443 110.866 50.2048C102.057 47.2785 81.3418 23.5152 57.0306 31.1796C54.6912 31.9173 52.8829 32.7623 51.4397 33.6338C68.2478 19.6598 98.6835 24.0217 124.597 39.2045C126.857 40.5282 129.062 41.9236 131.201 43.3805L131.201 43.3806Z" fill="white"/>
<path d="M94.7633 90.1248C70.8351 76.1055 53.1242 63.5362 44.8927 54.7321C40.5153 50.0482 41.1944 46.5849 43.9787 41.8327C45.9012 38.5512 48.3217 35.6854 51.1734 33.3144C59.2526 26.5973 70.8262 23.7471 84.6427 25.0719C97.4838 26.3033 111.748 31.1951 124.807 38.8464C127.06 40.1664 129.29 41.5765 131.435 43.0376C147.51 53.9775 159.371 68.0793 163.977 81.7276C167.514 92.2 166.733 102.259 161.719 110.816C158.935 115.569 156.246 117.854 150.02 116.326C141.882 114.326 129.69 109.121 114.763 101.273C108.506 97.9849 101.777 94.2342 94.7636 90.125L94.7633 90.1248ZM124.388 39.5622C111.431 31.9709 97.2882 27.1182 84.5652 25.8983C70.9738 24.5952 59.6114 27.3803 51.7058 33.953C48.9285 36.2625 46.5702 39.055 44.6963 42.2534C42.0562 46.7595 41.4556 49.839 45.4998 54.1666C53.6777 62.9132 71.3219 75.4294 95.1826 89.4092C102.185 93.5119 108.902 97.2562 115.148 100.538C130.017 108.356 142.143 113.536 150.216 115.519C155.968 116.932 158.361 114.902 161.001 110.396C165.89 102.052 166.646 92.2295 163.189 81.9912C158.64 68.5114 146.896 54.5631 130.968 43.7232C128.838 42.2728 126.624 40.873 124.387 39.5624L124.388 39.5622Z" fill="#353535"/>
</g>
<defs>
<clipPath id="clip0_241_943">
<rect width="153.69" height="115.731" fill="white" transform="translate(58.5039) rotate(30.3658)"/>
</clipPath>
</defs>
</svg>
