<svg width="496" height="472" viewBox="0 0 496 472" fill="none" xmlns="http://www.w3.org/2000/svg">
<path d="M214.363 1.16797C216.011 0.398141 217.581 2.36803 216.454 3.79515C204.953 18.3691 194.762 35.8442 227.103 40.4034C249.463 43.5554 237.394 56.8786 234.712 59.0865C234.411 59.3344 234.046 59.4938 233.659 59.5446C192.812 64.8886 165.651 23.9113 214.363 1.16797Z" fill="#1A1A1A"/>
<path d="M302.374 1.16797C300.727 0.398141 299.157 2.36803 300.283 3.79515C311.784 18.3691 321.976 35.8442 289.634 40.4034C267.275 43.5554 279.343 56.8786 282.026 59.0865C282.327 59.3344 282.691 59.4938 283.078 59.5446C323.926 64.8886 351.087 23.9113 302.374 1.16797Z" fill="#1A1A1A"/>
<path d="M302.966 7.51782C302.966 7.51782 315.691 20.9943 309.074 31.6733C302.457 42.3524 284.896 40.8267 284.896 40.8267L287.187 46.6746C287.187 46.6746 308.82 45.6578 314.928 33.707C320.781 22.2561 312.383 13.1118 302.966 7.51782Z" fill="#FECE2F"/>
<path d="M212.362 2.1778C212.362 2.1778 192.332 15.3824 193.02 31.4194C193.784 49.2181 210.835 57.6095 210.835 57.6095C210.835 57.6095 186.964 49.9391 187.929 30.6565C188.947 10.3143 212.362 2.1778 212.362 2.1778Z" fill="#FECE2F"/>
<path d="M226.506 61.0095C208.091 61.0095 192.272 51.7626 188.206 37.829C184.097 23.75 193.718 9.70879 213.941 0.265675C215.108 -0.278086 216.431 0.0336308 217.232 1.04148C218.031 2.04933 218.033 3.40276 217.236 4.4126C210.983 12.336 204.17 22.3368 207.009 29.4087C209.029 34.4429 215.838 37.8111 227.242 39.4184C235.311 40.5568 239.975 43.165 241.105 47.1735C242.588 52.4358 237.311 58.2379 235.345 59.8553C234.897 60.2238 234.358 60.4578 233.787 60.5325C231.33 60.8542 228.897 61.0095 226.506 61.0095ZM214.785 2.07025C195.531 11.0592 186.311 24.218 190.12 37.2703C193.795 49.8634 210.255 61.6091 233.529 58.5576C233.729 58.5317 233.92 58.4491 234.078 58.3176C235.382 57.245 240.39 51.9847 239.186 47.7133C238.303 44.5802 234.076 42.3932 226.964 41.3903C214.629 39.6515 207.497 35.9746 205.159 30.1496C201.958 22.1774 208.676 12.0422 215.671 3.17968C216.001 2.7614 215.754 2.38495 215.67 2.27938C215.585 2.17282 215.273 1.84218 214.785 2.07025Z" fill="#1A1A1A"/>
<path d="M290.23 61.0095C287.839 61.0095 285.408 60.8542 282.948 60.5325C282.377 60.4588 281.839 60.2238 281.391 59.8553C279.426 58.2379 274.149 52.4368 275.632 47.1735C276.761 43.165 281.425 40.5558 289.495 39.4184C300.899 37.8111 307.707 34.4429 309.728 29.4087C312.567 22.3368 305.754 12.336 299.501 4.4126C298.704 3.40276 298.706 2.04934 299.506 1.04149C300.306 0.032637 301.628 -0.280075 302.796 0.265678C323.019 9.7078 332.64 23.75 328.531 37.829C324.466 51.7616 308.644 61.0085 290.23 61.0095ZM301.625 1.99157C301.325 1.99157 301.131 2.19872 301.068 2.27939C300.984 2.38396 300.736 2.76041 301.066 3.17869C308.06 12.0412 314.779 22.1764 311.578 30.1486C309.239 35.9746 302.107 39.6505 289.773 41.3893C282.66 42.3922 278.434 44.5782 277.551 47.7123C276.347 51.9837 281.356 57.244 282.659 58.3176C282.818 58.4481 283.007 58.5307 283.208 58.5566C306.485 61.6001 322.943 49.8604 326.617 37.2693C330.426 24.218 321.205 11.0592 301.952 2.06925C301.832 2.01348 301.722 1.99157 301.625 1.99157Z" fill="#1A1A1A"/>
<path d="M300.931 181.614C300.931 181.614 344.716 163.963 358.543 202.335C364.684 176.163 414.694 154.233 433.054 207.706C460.124 170.633 454.818 136.589 445.601 127.38C436.383 118.171 425.628 134.287 425.628 134.287L408.587 119.142C426.148 99.6903 456.18 95.7495 471.206 118.682C491.285 149.327 504.492 192.357 487.593 255.288C468.71 325.607 358.032 329.474 328.842 298.776" fill="white"/>
<path d="M435.485 125.206L428.045 106.096C428.045 106.096 412.17 111.212 408.585 119.142C415.498 125.538 425.626 134.287 425.626 134.287C425.626 134.287 431.26 127.38 435.485 125.206Z" fill="#1A1A1A"/>
<path d="M451.15 169.283C448.521 180.974 442.964 194.133 433.053 207.706C424.844 183.798 410.31 174.97 396.197 174.849C390.895 181.464 387.717 189.851 387.717 198.984C387.717 220.329 405.036 237.633 426.401 237.633C447.766 237.633 465.086 220.329 465.086 198.984C465.085 187.045 459.665 176.372 451.15 169.283Z" fill="#1A1A1A"/>
<path d="M420.356 185.508C425.892 196.187 438.617 229.243 414.185 246.279C402.463 254.452 396.115 254.161 396.115 254.161C396.115 254.161 425.892 256.068 432.382 231.086C438.872 206.104 422.456 187.796 420.356 185.508Z" fill="#FECE2F"/>
<path d="M460.887 108.463C460.887 108.463 432.255 99.6903 413.167 122.575C409.731 120.668 408.586 119.142 408.586 119.142C408.586 119.142 432.254 92.8255 460.887 108.463Z" fill="#FECE2F"/>
<path d="M337.96 180.168C337.96 180.168 351.449 193.135 352.595 209.917C353.74 226.699 366.593 224.792 368.119 217.165C369.645 209.537 373.464 170.252 409.921 177.689C402.746 173.388 369.962 169.659 360.177 200.492C359.656 202.134 357.373 202.17 356.806 200.543C353.067 189.82 346.328 182.419 337.96 180.168Z" fill="#FECE2F"/>
<path d="M481.372 270.929C473.168 259.306 459.636 251.706 444.319 251.706C419.289 251.706 398.998 271.979 398.998 296.986C398.998 303.844 400.532 310.342 403.263 316.167C434.534 312.695 466.319 298.678 481.372 270.929Z" fill="#1A1A1A"/>
<path d="M474.629 123.72C491.554 176.863 491.045 195.425 483.155 225.937C476.698 250.91 483.919 258.23 486.082 259.761C491.931 244.839 495.027 226.834 494.746 207.626C494.651 201.145 493.717 150.8 474.629 123.72Z" fill="#1A1A1A"/>
<path d="M387.504 317.935C362.419 317.935 339.343 311.269 328.117 299.463C327.738 299.064 327.754 298.434 328.153 298.055C328.552 297.675 329.183 297.692 329.562 298.091C345.308 314.649 385.32 320.739 420.649 311.952C440.752 306.954 476.055 292.912 486.63 255.021C502.634 197.68 488.724 147.276 470.369 119.227C462.199 106.742 451.177 103.998 443.369 103.894C429.7 103.695 415.662 111.462 409.923 118.997L425.461 132.806C427.26 130.402 432.458 124.179 438.446 123.586C441.319 123.304 443.968 124.34 446.303 126.675C456.444 136.806 461.098 173.776 433.835 208.322C433.611 208.606 433.248 208.748 432.893 208.688C432.535 208.63 432.237 208.383 432.115 208.043C421.537 178.687 403.593 175.414 393.822 176.084C376.671 177.253 361.977 190.964 359.516 202.54C359.423 202.975 359.053 203.296 358.609 203.327C358.166 203.351 357.754 203.088 357.603 202.67C353.963 192.571 347.861 185.545 339.465 181.786C322.477 174.182 301.512 182.45 301.303 182.535C300.792 182.74 300.212 182.494 300.006 181.983C299.8 181.472 300.047 180.893 300.557 180.687C301.444 180.33 322.497 172.014 340.269 179.963C348.394 183.596 354.483 190.075 358.398 199.242C362.586 187.685 377.047 175.229 393.686 174.094C403.817 173.415 422.262 176.655 433.364 205.678C460.465 170.186 452.704 135.884 444.894 128.081C442.974 126.163 440.928 125.334 438.646 125.567C432.305 126.191 426.513 134.752 426.456 134.838C426.295 135.078 426.039 135.236 425.753 135.273C425.464 135.309 425.178 135.22 424.963 135.03L407.922 119.885C407.545 119.55 407.478 118.989 407.764 118.575C413.485 110.319 428.121 101.899 442.883 101.899C443.054 101.899 443.223 101.9 443.395 101.902C451.686 102.012 463.387 104.918 472.037 118.137C490.63 146.551 504.732 197.573 488.55 255.554C477.704 294.417 441.654 308.78 421.13 313.883C410.099 316.629 398.604 317.934 387.504 317.935Z" fill="#1A1A1A"/>
<path d="M133.217 249.149C133.217 249.149 126.048 343.8 171.624 374.499C207.472 433.848 201.29 462.411 201.29 462.411C204.344 468.895 295.536 474.995 315.817 457.452C330.07 446.01 336.009 410.824 328.157 404.002C337.196 394.519 335.287 385.366 324.598 372.016C329.18 365.913 328.798 352.945 321.158 342.776C338.912 331.861 343.179 311.567 342.154 277.799C341.4 252.913 354.445 230.729 324.743 202.078C295.041 173.427 168.552 167.031 149.605 196.962C134.1 221.454 133.217 249.149 133.217 249.149Z" fill="white"/>
<path d="M171.626 374.499C193.565 410.822 199.76 435.61 201.266 449.379C227.952 444.761 248.248 421.519 248.248 393.538C248.248 362.235 222.849 336.86 191.517 336.86C176.134 336.86 162.198 342.993 151.979 352.926C157.085 361.543 163.517 369.037 171.626 374.499Z" fill="#1A1A1A"/>
<path d="M147.717 344.174C147.717 344.174 160.188 367.566 174.695 382.061C189.201 396.555 202.436 445.883 201.672 465.462C213.888 417.786 191.619 391.723 185.257 382.316C178.894 372.906 147.717 344.174 147.717 344.174Z" fill="#FECE2F"/>
<path d="M201.29 464.551C200.772 464.551 200.336 464.153 200.297 463.63L200.152 461.642C199.093 446.742 196.611 411.85 171.713 382.129C149.807 355.98 139.053 329.086 138.947 328.818C138.745 328.306 138.996 327.727 139.508 327.526C140.022 327.326 140.6 327.575 140.801 328.087C140.906 328.353 151.553 354.961 173.241 380.851C198.552 411.065 201.066 446.409 202.14 461.5L202.283 463.479C202.325 464.028 201.913 464.506 201.364 464.547C201.34 464.55 201.315 464.551 201.29 464.551Z" fill="#1A1A1A"/>
<path d="M172.649 278.824C161.042 337.661 99.7604 342.948 84.0557 329.645C84.0557 329.645 93.1536 338.285 108.125 348.064C121.439 356.763 142.435 361.708 169.065 368.871C195.694 376.033 202.864 386.778 213.105 403.662C203.033 408.437 199.278 409.631 188.353 414.577C183.403 403.662 176.234 395.475 155.749 394.452C135.189 393.426 22.2901 396.73 5.70412 348.406C-21.2746 269.8 89.1763 219.475 89.1763 219.475C84.0557 183.66 131.937 167.033 166.503 184.684" fill="white"/>
<path d="M164.26 259.755C160.952 251.873 172.15 242.973 177.24 259.246C183.225 278.384 190.983 306.032 240.611 310.355C203.454 314.424 176.985 297.133 164.26 259.755Z" fill="#FECE2F"/>
<path d="M303.22 336.8C303.22 336.8 318.49 362.227 309.836 363.753C320.271 372.652 317.217 388.671 308.819 392.994C320.017 406.98 321.29 423.762 312.637 429.864C316.708 444.103 302.456 472.836 202.181 463.681C227.885 474.106 274.713 472.848 295.202 468.131C308.64 465.038 320.418 456.615 323.58 451.222C323.58 451.222 340.377 427.066 328.415 402.91C337.323 389.179 332.487 375.449 324.852 370.363C337.579 353.073 312.892 335.02 303.22 336.8Z" fill="#FECE2F"/>
<path d="M285.876 242.588C283.982 232.951 281.074 222.775 276.606 213.846L285.876 242.588Z" fill="#FECE2F"/>
<path d="M285.876 243.584C285.41 243.584 284.992 243.255 284.9 242.779C282.723 231.706 279.633 222.121 275.715 214.292C275.469 213.8 275.668 213.202 276.16 212.956C276.655 212.711 277.252 212.909 277.498 213.401C281.496 221.39 284.645 231.145 286.856 242.396C286.962 242.935 286.61 243.458 286.07 243.565C286.004 243.578 285.94 243.584 285.876 243.584Z" fill="#1A1A1A"/>
<path d="M237.715 311.2C233.541 311.2 229.069 310.986 224.274 310.512C197.171 307.831 181.383 292.312 172.913 279.764C163.754 266.2 161.033 253.469 160.921 252.933C160.809 252.395 161.154 251.869 161.693 251.756C162.233 251.641 162.76 251.988 162.873 252.527C162.979 253.037 174.099 303.546 224.472 308.529C259.528 311.997 277.027 301.416 284.336 294.8C289.4 290.216 290.973 286.36 290.973 285.474C290.973 284.923 291.42 284.478 291.97 284.478C292.52 284.478 292.967 284.923 292.967 285.474C292.967 287.512 290.411 291.989 285.675 296.277C279.13 302.198 264.729 311.2 237.715 311.2Z" fill="#1A1A1A"/>
<path d="M318.889 302.816C310.925 302.817 302.737 301.275 295.174 298.164C294.664 297.955 294.422 297.372 294.631 296.863C294.842 296.355 295.425 296.114 295.933 296.322C311.869 302.88 330.636 302.242 343.743 294.704C353.814 288.913 360.006 279.482 361.651 267.434C366.123 234.668 328.652 208.277 328.272 208.013C327.819 207.7 327.708 207.079 328.021 206.627C328.335 206.178 328.956 206.065 329.408 206.376C329.797 206.646 368.264 233.721 363.627 267.701C361.896 280.384 355.364 290.318 344.738 296.43C337.366 300.671 328.284 302.816 318.889 302.816Z" fill="#1A1A1A"/>
<path d="M264.821 383.283C256.072 383.283 250.12 379.503 248.476 372.892C243.63 353.395 282.373 338.041 284.025 337.396C284.539 337.194 285.116 337.45 285.316 337.962C285.516 338.474 285.262 339.052 284.749 339.252C284.361 339.403 245.984 354.603 250.411 372.411C251.815 378.06 257.064 381.291 264.823 381.291C264.882 381.291 264.939 381.291 264.996 381.29C279.348 381.201 297.304 370.634 301.287 353.714C301.413 353.179 301.951 352.848 302.487 352.973C303.023 353.1 303.355 353.636 303.229 354.171C299.023 372.033 280.115 383.189 265.009 383.281C264.947 383.283 264.884 383.283 264.821 383.283Z" fill="#1A1A1A"/>
<path d="M268.244 419.327C252.822 419.327 248.412 411.163 247.157 406.258C244.847 397.232 249.649 385.341 257.232 381.311C257.718 381.05 258.321 381.237 258.58 381.722C258.84 382.207 258.654 382.81 258.169 383.069C251.432 386.65 247.019 397.679 249.089 405.765C251.03 413.351 258.012 417.462 268.743 417.332C296.657 417.004 303.828 387.573 303.896 387.275C304.021 386.739 304.557 386.402 305.094 386.531C305.63 386.656 305.964 387.19 305.839 387.726C305.766 388.038 298.228 418.977 268.767 419.324C268.59 419.326 268.417 419.327 268.244 419.327Z" fill="#1A1A1A"/>
<path d="M274.49 450.823C266.98 450.823 261.366 448.771 257.801 444.72C254.656 441.148 253.353 436.139 254.132 430.614C254.208 430.071 254.723 429.697 255.257 429.767C255.802 429.844 256.182 430.348 256.105 430.892C255.41 435.832 256.543 440.276 259.297 443.404C262.539 447.087 267.787 448.883 274.958 448.827C291.703 448.631 303.495 436.059 307.364 424.462C307.497 424.066 307.863 423.794 308.28 423.781C308.657 423.788 317.573 423.614 323.155 432.644C323.445 433.112 323.299 433.726 322.831 434.014C322.363 434.305 321.748 434.16 321.459 433.691C317.318 426.991 311.057 425.956 309.011 425.799C304.575 438.222 292.466 450.612 274.981 450.818C274.817 450.822 274.652 450.823 274.49 450.823Z" fill="#1A1A1A"/>
<path d="M167.529 185.195C167.529 185.195 177.771 173.94 194.67 169.846C205.936 122.606 226.761 79.4586 240.076 55.7522C255.439 46.0312 279.678 58.8215 279.678 58.8215C279.678 58.8215 282.068 96.0004 299.65 158.59C302.845 169.962 310.063 194.233 310.063 194.233" fill="white"/>
<path d="M226.13 293.072C226.32 290.359 223.574 287.958 219.999 287.709C216.423 287.459 213.371 289.457 213.182 292.17C212.991 294.881 215.737 297.284 219.313 297.533C222.889 297.781 225.941 295.785 226.13 293.072Z" fill="#FECE2F"/>
<path d="M343.016 286.818C346.235 285.243 347.968 282.177 346.886 279.968C345.804 277.759 342.317 277.245 339.097 278.819C335.878 280.393 334.145 283.461 335.227 285.668C336.309 287.877 339.796 288.392 343.016 286.818Z" fill="#FECE2F"/>
<path d="M108.523 184.745C97.4528 191.992 94.55 212.238 106.614 226.7C110.432 232.422 108.905 233.566 92.8714 236.999C76.8377 240.432 -4.4773 274.758 6.97608 350.277C-13.2573 305.652 12.1854 261.451 89.1772 219.475C87.1457 206.104 93.635 191.611 108.523 184.745Z" fill="#FECE2F"/>
<path d="M284.133 95.7495C284.133 95.7495 286.169 120.16 285.66 133.128C285.151 146.095 290.072 158.438 300.845 164.726C295.076 141.265 284.133 95.7495 284.133 95.7495Z" fill="#FECE2F"/>
<path d="M198.084 383.537C198.084 383.537 195.183 392.747 178.795 401.615C182.892 405.878 186.647 408.607 188.354 414.577C203.034 407.584 213.106 403.662 213.106 403.662C213.106 403.662 203.034 388.995 198.084 383.537Z" fill="#1A1A1A"/>
<path d="M319.878 344.029C319.496 344.029 319.13 343.807 318.965 343.434C318.744 342.931 318.972 342.343 319.477 342.122C344.095 331.299 340.446 298.473 340.407 298.143C340.341 297.596 340.731 297.1 341.277 297.036C341.824 296.978 342.32 297.357 342.385 297.904C342.427 298.25 346.261 332.524 320.28 343.944C320.15 344.002 320.013 344.029 319.878 344.029Z" fill="#1A1A1A"/>
<path d="M224.192 337.465C223.988 337.465 223.781 337.402 223.604 337.273C223.159 336.948 223.063 336.325 223.388 335.882C230.987 325.516 243.674 321.437 244.21 321.268C244.738 321.105 245.294 321.395 245.46 321.918C245.625 322.443 245.334 323.002 244.809 323.168C244.684 323.207 232.2 327.231 224.997 337.058C224.802 337.324 224.499 337.465 224.192 337.465Z" fill="#1A1A1A"/>
<path d="M234.84 344.66C234.653 344.66 234.463 344.608 234.295 344.498C233.834 344.196 233.706 343.579 234.007 343.119C239.705 334.422 250.336 331.458 250.786 331.336C251.318 331.191 251.865 331.507 252.008 332.035C252.153 332.566 251.84 333.113 251.309 333.258C251.205 333.286 240.95 336.158 235.676 344.21C235.484 344.502 235.165 344.66 234.84 344.66Z" fill="#1A1A1A"/>
<path d="M324.98 373.013C324.751 373.013 324.52 372.934 324.332 372.773C316.653 366.196 309.254 365.003 309.18 364.992C308.637 364.909 308.262 364.401 308.344 363.858C308.426 363.316 308.933 362.944 309.477 363.022C309.8 363.071 317.489 364.289 325.63 371.261C326.048 371.619 326.097 372.247 325.738 372.664C325.54 372.895 325.26 373.013 324.98 373.013Z" fill="#1A1A1A"/>
<path d="M328.169 404.888C327.83 404.888 327.5 404.714 327.313 404.404C323.489 398.023 317.14 394.329 317.078 394.293C316.6 394.019 316.436 393.41 316.71 392.934C316.985 392.457 317.595 392.294 318.07 392.566C318.349 392.727 324.935 396.56 329.023 403.381C329.307 403.853 329.152 404.464 328.68 404.747C328.52 404.842 328.344 404.888 328.169 404.888Z" fill="#1A1A1A"/>
<path d="M205.523 132.866C201.435 144.696 197.705 157.121 194.669 169.846C180.107 173.374 170.495 182.213 168.113 184.593C167.579 184.782 167.054 184.974 166.536 185.171L166.505 184.684C151.326 176.933 133.582 175.794 118.884 179.985C118.972 210.852 144.039 235.848 174.955 235.848C205.924 235.848 231.029 210.765 231.029 179.824C231.028 160.152 220.873 142.861 205.523 132.866Z" fill="#1A1A1A"/>
<path d="M212.871 113.294C212.871 113.294 195.819 156.775 194.801 171.269C185.13 172.794 175.713 177.625 168.077 186.017C157.133 180.423 146.698 176.609 131.428 177.88C146.19 181.949 160.697 184.746 168.586 192.374C174.186 187.289 190.473 177.117 201.163 177.625C202.69 160.589 206.763 137.959 212.871 113.294Z" fill="#FECE2F"/>
<path d="M310.063 195.23C309.633 195.23 309.237 194.95 309.108 194.518C309.035 194.275 301.851 170.108 298.69 158.859C282.448 101.039 279.119 64.4105 278.726 59.4569C275.279 57.7669 254.349 48.1365 240.82 56.4612C231.254 73.522 207.995 118.266 195.639 170.075C195.552 170.44 195.268 170.725 194.904 170.812C178.492 174.787 168.366 185.753 168.265 185.863C167.896 186.27 167.267 186.3 166.857 185.93C166.449 185.56 166.42 184.93 166.79 184.523C167.212 184.06 177.196 173.251 193.841 169.024C206.344 116.996 229.713 72.1646 239.206 55.2632C239.286 55.1188 239.402 54.9973 239.541 54.9096C255.213 44.9925 279.132 57.4064 280.143 57.9402C280.449 58.1015 280.649 58.4112 280.672 58.7558C280.696 59.1273 283.263 96.5701 300.608 158.319C303.765 169.555 310.945 193.706 311.017 193.948C311.173 194.475 310.873 195.031 310.345 195.187C310.252 195.217 310.157 195.23 310.063 195.23Z" fill="#1A1A1A"/>
<path d="M228.904 64.0789C228.904 64.0789 213.673 55.0013 195.002 68.3174C183.78 75.0338 208.783 92.4212 227.711 76.8941" fill="#FECE2F"/>
<path d="M210.602 84.1482C206.635 84.1482 202.957 83.2938 199.953 81.9921C194.793 79.7573 191.448 76.2597 191.226 72.8647C191.127 71.3499 191.613 69.1849 194.489 67.4629C213.405 53.9675 229.257 63.1278 229.415 63.2234C229.887 63.5043 230.041 64.1147 229.761 64.5868C229.481 65.0588 228.868 65.2142 228.395 64.9344C227.794 64.5798 213.466 56.3726 195.581 69.1271C193.897 70.1389 193.124 71.338 193.216 72.7342C193.383 75.3007 196.41 78.2864 200.745 80.1646C207.52 83.0976 217.993 83.5766 227.078 76.1233C227.504 75.7727 228.133 75.8365 228.482 76.2607C228.832 76.686 228.77 77.3144 228.344 77.662C222.583 82.3895 216.293 84.1482 210.602 84.1482Z" fill="#1A1A1A"/>
<path d="M215.712 77.3393C215.271 77.3393 214.868 77.0445 214.749 76.5994C214.608 76.0685 214.924 75.5228 215.456 75.3804C217.393 74.8645 220.338 73.5489 220.51 72.3638C220.59 71.8061 219.906 71.0412 218.63 70.2634C212.311 66.4053 205.191 70.0663 205.118 70.1031C204.63 70.361 204.027 70.1718 203.771 69.6858C203.515 69.1988 203.701 68.5963 204.189 68.3404C204.521 68.1671 212.392 64.1217 219.668 68.5634C221.745 69.8302 222.692 71.2066 222.481 72.6506C222.059 75.5497 216.979 77.0366 215.965 77.3064C215.881 77.3284 215.796 77.3393 215.712 77.3393Z" fill="#1A1A1A"/>
<path d="M285.897 64.2532C285.897 64.2532 302.007 54.6527 321.754 68.7357C333.622 75.8395 307.179 94.2288 287.16 77.8064" fill="white"/>
<path d="M305.255 85.421C299.248 85.422 292.61 83.5646 286.527 78.5752C286.102 78.2266 286.04 77.5992 286.39 77.1739C286.74 76.7487 287.367 76.6869 287.793 77.0365C297.421 84.934 308.523 84.4261 315.703 81.3179C320.308 79.3241 323.522 76.1462 323.702 73.4114C323.8 71.9106 322.973 70.6249 321.242 69.5892C302.227 56.033 287.045 64.7322 286.408 65.1086C285.935 65.3885 285.323 65.2341 285.042 64.761C284.761 64.288 284.916 63.6785 285.388 63.3977C285.554 63.2971 302.288 53.6269 322.334 67.925C325.284 69.6878 325.795 71.9554 325.691 73.5409C325.461 77.0564 321.851 80.8259 316.497 83.1463C313.324 84.5187 309.441 85.421 305.255 85.421Z" fill="#1A1A1A"/>
<path d="M299.85 78.2207C299.767 78.2207 299.68 78.2097 299.594 78.1878C298.528 77.905 293.187 76.3414 292.745 73.3119C292.526 71.8081 293.518 70.373 295.694 69.0455C303.36 64.3687 311.66 68.6282 312.009 68.8124C312.495 69.0684 312.681 69.6689 312.426 70.1559C312.172 70.6419 311.571 70.8331 311.081 70.5761C311.006 70.5363 303.419 66.6653 296.733 70.7464C295.363 71.582 294.629 72.4136 294.719 73.0261C294.906 74.3108 298.044 75.717 300.106 76.2637C300.638 76.4051 300.955 76.9499 300.813 77.4827C300.695 77.9259 300.292 78.2207 299.85 78.2207Z" fill="#1A1A1A"/>
<path d="M222.079 55.1526C222.079 55.1526 232.192 101.83 235.261 117.454C239.655 139.824 268.742 141.079 274.811 116.618C280.101 95.2943 288.412 73.9682 291.66 58.6961C292.977 52.5045 292.84 45.3759 291.133 42.19C284.855 30.4822 238.61 33.8275 229.402 36.7544C218.731 39.8915 222.079 55.1526 222.079 55.1526Z" fill="white"/>
<path d="M233.238 106.722C233.732 109.297 234.9 115.614 235.261 117.454C239.655 139.824 268.742 141.078 274.81 116.618C275.295 114.665 276.818 109.366 277.321 107.418C271.882 94.4568 240.214 95.7116 233.238 106.722Z" fill="#FECE2F"/>
<path d="M254.49 135.593C254.337 135.593 254.187 135.591 254.036 135.587C245.919 135.388 236.665 129.762 234.284 117.645C234.084 116.628 233.637 114.238 233.194 111.87C232.836 109.958 232.481 108.059 232.26 106.909C232.213 106.661 232.261 106.403 232.396 106.189C236.841 99.1724 249.591 96.3829 259.876 97.2354C269.263 98.0222 275.958 101.593 278.242 107.034C278.325 107.234 278.342 107.457 278.288 107.668C278.06 108.547 277.628 110.102 277.175 111.729C276.618 113.727 276.043 115.795 275.78 116.857C272.341 130.72 262.271 135.593 254.49 135.593ZM234.294 106.934C234.515 108.1 234.833 109.797 235.152 111.505C235.594 113.866 236.041 116.248 236.24 117.263C238.146 126.966 245.15 133.378 254.085 133.597C254.218 133.6 254.354 133.602 254.49 133.602C261.54 133.602 270.682 129.121 273.844 116.379C274.114 115.288 274.694 113.207 275.254 111.195C275.65 109.772 276.031 108.403 276.27 107.504C274.174 103.003 268.021 99.9174 259.71 99.2212C248.805 98.309 238.002 101.61 234.294 106.934Z" fill="#1A1A1A"/>
<path d="M280.112 96.2813C284.519 81.6246 289.446 67.7637 291.719 57.0757C292.949 51.2906 292.822 44.629 291.226 41.6522C288.236 36.0772 275.55 34.1571 262.686 33.9749C255.965 40.6942 251.81 49.973 251.81 60.2218C251.811 77.6749 263.867 92.3086 280.112 96.2813Z" fill="#FECE2F"/>
<path d="M238.714 84.3982C243.164 84.3982 246.77 82.2509 246.77 79.602C246.77 76.9531 243.164 74.8057 238.714 74.8057C234.265 74.8057 230.658 76.9531 230.658 79.602C230.658 82.2509 234.265 84.3982 238.714 84.3982Z" fill="white"/>
<path d="M238.715 85.3941C233.638 85.3941 229.661 82.8496 229.661 79.6019C229.661 76.3543 233.638 73.8108 238.715 73.8108C243.791 73.8108 247.768 76.3553 247.768 79.6019C247.768 82.8496 243.79 85.3941 238.715 85.3941ZM238.715 75.8016C234.888 75.8016 231.654 77.5414 231.654 79.601C231.654 81.6605 234.887 83.4013 238.715 83.4013C242.541 83.4013 245.774 81.6605 245.774 79.601C245.774 77.5414 242.541 75.8016 238.715 75.8016Z" fill="#1A1A1A"/>
<path d="M238.342 81.1904C240.134 81.1904 241.586 79.7395 241.586 77.9498C241.586 76.1599 240.134 74.7091 238.342 74.7091C236.551 74.7091 235.099 76.1599 235.099 77.9498C235.099 79.7395 236.551 81.1904 238.342 81.1904Z" fill="#1A1A1A"/>
<path d="M238.342 82.1863C236.004 82.1863 234.102 80.2861 234.102 77.9498C234.102 75.6134 236.004 73.7132 238.342 73.7132C240.681 73.7132 242.583 75.6134 242.583 77.9498C242.583 80.2861 240.68 82.1863 238.342 82.1863ZM238.342 75.706C237.103 75.706 236.096 76.7128 236.096 77.9508C236.096 79.1887 237.103 80.1955 238.342 80.1955C239.582 80.1955 240.589 79.1887 240.589 77.9508C240.589 76.7128 239.581 75.706 238.342 75.706Z" fill="#1A1A1A"/>
<path d="M273.242 84.3982C277.692 84.3982 281.298 82.2509 281.298 79.602C281.298 76.9531 277.692 74.8057 273.242 74.8057C268.792 74.8057 265.186 76.9531 265.186 79.602C265.186 82.2509 268.792 84.3982 273.242 84.3982Z" fill="white"/>
<path d="M273.242 85.3941C268.165 85.3941 264.189 82.8496 264.189 79.6019C264.189 76.3543 268.165 73.8108 273.242 73.8108C278.319 73.8108 282.295 76.3553 282.295 79.6019C282.295 82.8496 278.319 85.3941 273.242 85.3941ZM273.242 75.8016C269.415 75.8016 266.183 77.5414 266.183 79.601C266.183 81.6605 269.415 83.4013 273.242 83.4013C277.069 83.4013 280.301 81.6605 280.301 79.601C280.301 77.5414 277.069 75.8016 273.242 75.8016Z" fill="#1A1A1A"/>
<path d="M272.869 81.1904C274.66 81.1904 276.113 79.7395 276.113 77.9498C276.113 76.1599 274.66 74.7091 272.869 74.7091C271.078 74.7091 269.625 76.1599 269.625 77.9498C269.625 79.7395 271.078 81.1904 272.869 81.1904Z" fill="#1A1A1A"/>
<path d="M272.869 82.1863C270.531 82.1863 268.629 80.2852 268.629 77.9488C268.629 75.6124 270.531 73.7122 272.869 73.7122C275.208 73.7122 277.11 75.6124 277.11 77.9488C277.11 80.2852 275.208 82.1863 272.869 82.1863ZM272.869 75.705C271.63 75.705 270.623 76.7119 270.623 77.9498C270.623 79.1877 271.63 80.1955 272.869 80.1955C274.108 80.1955 275.116 79.1877 275.116 77.9498C275.116 76.7119 274.108 75.705 272.869 75.705Z" fill="#1A1A1A"/>
<path d="M247.153 115.987C248.836 115.927 250.138 114.129 250.061 111.971C249.983 109.812 248.557 108.111 246.873 108.17C245.19 108.23 243.887 110.03 243.965 112.188C244.041 114.347 245.469 116.048 247.153 115.987Z" fill="#1A1A1A"/>
<path d="M247.061 116.978C244.883 116.978 243.056 114.871 242.96 112.216C242.863 109.511 244.6 107.247 246.829 107.167C246.868 107.165 246.908 107.164 246.948 107.164C249.126 107.164 250.953 109.272 251.049 111.927V111.928C251.146 114.632 249.409 116.895 247.18 116.975C247.141 116.977 247.101 116.978 247.061 116.978ZM246.949 109.155C246.932 109.155 246.916 109.156 246.9 109.156C245.789 109.196 244.897 110.564 244.954 112.144C245.01 113.723 245.989 114.984 247.111 114.985C248.222 114.945 249.114 113.577 249.057 111.998C249.001 110.442 248.042 109.155 246.949 109.155Z" fill="#1A1A1A"/>
<path d="M266.097 112.169C266.174 110.01 264.872 108.211 263.188 108.151C261.505 108.091 260.077 109.793 260 111.951C259.923 114.11 261.225 115.908 262.909 115.968C264.593 116.028 266.02 114.327 266.097 112.169Z" fill="#1A1A1A"/>
<path d="M262.992 116.978C262.952 116.978 262.912 116.977 262.872 116.975C260.642 116.895 258.906 114.631 259.002 111.928C259.002 111.927 259.002 111.927 259.002 111.927C259.1 109.224 261.006 107.093 263.222 107.167C265.453 107.247 267.188 109.512 267.092 112.216C266.997 114.871 265.169 116.978 262.992 116.978ZM260.996 111.998C260.939 113.577 261.831 114.945 262.944 114.985C262.961 114.985 262.977 114.986 262.993 114.986C264.084 114.986 265.044 113.7 265.1 112.144C265.157 110.566 264.265 109.197 263.152 109.157C263.135 109.157 263.119 109.156 263.103 109.156C262.011 109.155 261.052 110.442 260.996 111.998Z" fill="#1A1A1A"/>
<path d="M279.552 34.6391C279.552 29.9016 275.708 26.0614 270.966 26.0614C270.758 26.0614 270.554 26.0784 270.349 26.0923C268.486 24.0915 265.837 22.8317 262.886 22.8317C262.238 22.8317 261.607 22.8985 260.993 23.014C259.125 20.9256 256.417 19.603 253.392 19.603C249.06 19.603 245.367 22.3059 243.889 26.1122C238.734 26.6231 234.707 30.9682 234.707 36.2525C234.707 41.1184 238.123 45.1817 242.688 46.1945C243.6 48.2431 245.65 49.6732 248.038 49.6732C249.637 49.6732 251.085 49.0318 252.141 47.9941C253.436 49.8604 255.592 51.0854 258.037 51.0854C260.771 51.0854 263.146 49.5567 264.356 47.3089C265.534 48.1584 266.978 48.6644 268.542 48.6644C272.403 48.6644 275.543 45.6119 275.698 41.7917C278.02 40.257 279.552 37.6278 279.552 34.6391Z" fill="#1A1A1A"/>
<path d="M254.49 135.593C254.337 135.593 254.187 135.591 254.036 135.587C245.919 135.388 236.665 129.762 234.284 117.645C231.257 102.233 221.237 55.9713 221.106 55.3658C221.071 55.2044 217.692 39.1585 229.122 35.8003C237.299 33.2 285.206 29.0272 292.013 41.72C293.788 45.0303 294.05 52.2566 292.636 58.9032C290.97 66.7359 287.957 76.2269 284.767 86.2725C281.619 96.1847 278.365 106.435 275.779 116.857C272.341 130.719 262.271 135.592 254.49 135.593ZM258.315 34.9907C245.999 34.9907 233.929 36.362 229.705 37.7055C220.034 40.5478 223.021 54.7981 223.052 54.9415V54.9435C223.153 55.4106 233.204 101.81 236.239 117.264C238.145 126.967 245.15 133.379 254.084 133.598C254.218 133.601 254.353 133.603 254.489 133.603C261.539 133.603 270.681 129.122 273.843 116.38C276.444 105.896 279.708 95.614 282.865 85.671C286.04 75.6721 289.039 66.229 290.685 58.4899C291.99 52.3582 291.805 45.5532 290.255 42.6621C287.126 36.8261 272.556 34.9907 258.315 34.9907Z" fill="#1A1A1A"/>
<path d="M232.407 66.975C231.812 66.975 231.224 66.7101 230.832 66.2062C230.156 65.3387 230.312 64.0869 231.181 63.4107C234.495 60.8383 239.305 60.9857 242.374 62.2126C243.396 62.6209 243.893 63.7801 243.484 64.8019C243.074 65.8227 241.913 66.3187 240.892 65.9104C239.127 65.2053 235.708 64.9374 233.629 66.5557C233.265 66.8376 232.834 66.975 232.407 66.975Z" fill="#1A1A1A"/>
<path d="M280.38 66.975C279.952 66.975 279.522 66.8376 279.157 66.5557C277.077 64.9374 273.657 65.2043 271.893 65.9114C270.872 66.3177 269.711 65.8228 269.301 64.802C268.893 63.7802 269.389 62.6219 270.412 62.2116C273.481 60.9867 278.293 60.8373 281.605 63.4107C282.474 64.0869 282.631 65.3387 281.955 66.2062C281.562 66.7101 280.974 66.975 280.38 66.975Z" fill="#1A1A1A"/>
<path d="M253.529 128.246C247.318 128.246 244.072 122.412 243.936 122.161C243.673 121.678 243.852 121.072 244.335 120.81C244.821 120.548 245.423 120.727 245.686 121.209C245.728 121.283 248.615 126.365 253.699 126.252H253.72C254.261 126.252 254.705 126.684 254.717 127.227C254.729 127.778 254.292 128.233 253.741 128.244C253.67 128.245 253.599 128.246 253.529 128.246Z" fill="#1A1A1A"/>
<path d="M363.029 258.484C363.029 258.484 366.338 284.675 340.633 297.134C341.142 302.728 341.142 308.322 341.142 308.322C341.142 308.322 355.904 317.221 395.098 316.459C394.843 304.508 388.481 299.931 379.573 295.862C370.665 291.793 377.791 275.774 363.029 258.484Z" fill="#1A1A1A"/>
<path d="M436.072 125.245C436.072 125.245 448.288 122.956 451.724 143.171C455.16 163.386 447.906 180.931 447.906 180.931C447.906 180.931 460.632 162.733 456.687 138.594C453.633 119.906 439.89 121.813 436.072 125.245Z" fill="#1A1A1A"/>
<path d="M261.227 307.558C261.227 307.558 236.54 319 188.947 309.084C173.423 304.762 164.514 316.204 159.17 321.035C153.825 325.866 145.427 339.088 145.427 339.088L138.555 327.138C138.555 327.138 170.114 309.084 172.913 277.3C182.584 294.082 205.49 317.476 261.227 307.558Z" fill="#1A1A1A"/>
<path d="M319.255 302.219C319.255 302.219 336.434 304.889 340.252 314.043C341.779 305.27 342.924 294.972 342.924 294.972C342.924 294.972 334.143 303.363 319.255 302.219Z" fill="#1A1A1A"/>
<path d="M252.065 358.667C252.065 358.667 242.903 367.82 242.648 390.705C242.394 413.59 249.265 437.618 259.699 446.009C252.064 430.244 259.954 417.404 259.954 417.404C259.954 417.404 240.611 411.556 249.773 390.197C253.082 384.603 258.681 381.298 258.681 381.298C258.681 381.298 242.649 379.009 252.065 358.667Z" fill="#1A1A1A"/>
<path d="M133.72 329.171C133.72 329.171 102.67 334.765 76.7111 315.949C50.7521 297.132 54.9456 318.606 62.968 329.171C74.1662 343.92 102.162 358.158 140.338 361.718C115.396 354.09 91.9115 339.782 84.0566 329.645C95.5438 336.8 113.868 340.359 133.72 329.171Z" fill="#1A1A1A"/>
<path d="M128.375 251.873C128.375 251.873 86.381 267.383 86.8903 292.81C87.3997 318.237 106.614 305.651 107.76 296.497C108.367 291.644 112.595 273.867 129.138 265.984C145.681 258.103 138.809 247.804 128.375 251.873Z" fill="#FECE2F"/>
<path d="M87.4161 302.298C86.9924 302.298 86.5997 302.027 86.4661 301.602C77.735 273.94 118.465 253.973 120.202 253.135C120.7 252.898 121.295 253.106 121.533 253.601C121.772 254.096 121.564 254.692 121.067 254.93C120.658 255.128 80.1543 274.983 88.367 301.003C88.5325 301.527 88.2414 302.088 87.7161 302.253C87.6164 302.283 87.5157 302.298 87.4161 302.298Z" fill="#1A1A1A"/>
<path d="M27.5908 372.78C27.5908 372.78 56.6041 386.51 77.9827 389.562C99.1799 392.587 152.044 393.376 159.297 394.902C166.551 396.427 171.131 397.572 175.712 399.479C161.206 386.893 147.081 384.604 127.229 386.511C102.906 388.848 93.6855 385.225 81.8005 378.501C50.1148 360.574 27.5908 372.78 27.5908 372.78Z" fill="#1A1A1A"/>
<path d="M248.248 200.001C248.248 200.001 253.592 196.187 263.518 198.475C273.443 200.764 274.97 196.95 280.315 192.373C285.66 187.795 297.112 188.177 291.004 195.424C284.895 202.671 278.406 206.866 270.389 206.866C262.372 206.867 250.919 199.238 248.248 200.001Z" fill="#FECE2F"/>
<path d="M268.723 207.017C265.664 207.017 262.426 206.341 259.09 204.675C242.406 196.34 197.812 194.564 197.363 194.546C196.813 194.525 196.385 194.063 196.406 193.513C196.426 192.963 196.874 192.494 197.44 192.556C199.288 192.626 242.917 194.367 259.983 202.893C276.135 210.962 290.021 193.458 290.159 193.281C290.497 192.847 291.124 192.766 291.557 193.107C291.992 193.444 292.071 194.07 291.733 194.504C291.611 194.659 281.803 207.017 268.723 207.017Z" fill="#1A1A1A"/>
<path d="M259.955 352.31C259.955 352.31 289.987 323.831 312.637 338.58C320.018 343.157 322.818 346.462 322.818 346.462C322.818 346.462 311.619 338.58 301.439 342.903C291.259 347.226 294.313 334.002 259.955 352.31Z" fill="#1A1A1A"/>
<path d="M326.534 449.424C326.355 449.424 326.174 449.376 326.011 449.276C325.542 448.986 325.398 448.372 325.688 447.904C332.435 437.015 336.351 415.246 327.403 404.529C327.125 404.196 327.094 403.723 327.326 403.358C339.133 384.724 324.986 373.653 324.377 373.191C324.003 372.906 323.878 372.398 324.078 371.972C327.624 364.459 328.116 357.747 325.543 352.023C321.048 342.02 308.571 338.254 308.445 338.217C307.918 338.062 307.615 337.508 307.77 336.981C307.925 336.453 308.48 336.154 309.006 336.305C309.555 336.465 322.475 340.352 327.358 351.195C330.105 357.296 329.715 364.335 326.201 372.129C329.028 374.673 340.087 386.271 329.387 403.816C338.685 415.807 334.188 437.968 327.383 448.951C327.194 449.257 326.868 449.424 326.534 449.424Z" fill="#1A1A1A"/>
<path d="M165.024 368.203C191.366 380.026 199.955 389.943 206.254 406.725C212.363 404.818 213.106 403.662 213.106 403.662C213.106 403.662 202.436 375.449 165.024 368.203Z" fill="white"/>
<path d="M188.354 415.571C187.975 415.571 187.612 415.354 187.446 414.987C182.444 403.959 175.132 396.417 155.7 395.446C153.429 395.333 150.046 395.292 145.763 395.241C111.845 394.836 21.7457 393.759 4.77202 348.756C-7.23759 316.916 3.524 284.283 35.8915 254.382C58.1404 233.83 83.6777 221.025 88.0926 218.886C86.4778 205.878 91.6742 194.387 102.777 186.467C119.826 174.304 146.219 173.207 166.956 183.795C167.447 184.046 167.641 184.645 167.391 185.135C167.141 185.624 166.54 185.819 166.049 185.57C145.947 175.304 120.404 176.341 103.935 188.087C93.2611 195.702 88.3697 206.798 90.162 219.332C90.2248 219.768 89.9935 220.191 89.5948 220.376C89.3147 220.506 61.3063 233.606 37.2113 255.875C5.06209 285.59 -5.22502 316.603 6.63705 348.053C23.1313 391.783 112.24 392.848 145.787 393.249C150.091 393.301 153.491 393.342 155.8 393.457C175.71 394.451 183.549 402.063 188.844 413.262C193.197 411.302 196.342 409.969 199.39 408.677C203.259 407.037 206.633 405.606 211.68 403.233C201.493 386.513 194.102 376.636 168.807 369.832C165.868 369.041 162.999 368.277 160.201 367.533C137.495 361.494 119.56 356.723 107.579 348.897C92.7049 339.18 83.4614 330.453 83.3697 330.366C82.979 329.995 82.9541 329.38 83.3149 328.979C83.6758 328.578 84.2898 328.536 84.7015 328.884C91.6532 334.772 109.231 337.468 128.117 330.868C141.454 326.207 164.848 313.223 171.672 278.629C171.779 278.091 172.298 277.737 172.843 277.845C173.383 277.951 173.735 278.475 173.628 279.015C166.612 314.582 142.515 327.947 128.775 332.749C114.266 337.82 100.404 337.518 91.1967 334.481C95.3295 337.849 101.298 342.414 108.671 347.23C120.382 354.88 138.18 359.615 160.713 365.608C163.513 366.353 166.384 367.117 169.324 367.908C195.828 375.037 203.204 385.416 213.958 403.145C214.105 403.386 214.142 403.677 214.061 403.947C213.979 404.217 213.788 404.44 213.534 404.561C207.885 407.239 204.137 408.827 200.169 410.51C196.926 411.886 193.571 413.308 188.766 415.483C188.631 415.544 188.492 415.571 188.354 415.571Z" fill="#1A1A1A"/>
<path d="M234.313 139.079C234.313 139.079 251.111 209.484 269.245 184.238C271.726 179.615 275.162 144.698 270.962 150.037C267.136 154.903 267.208 168.98 262.245 170.506C253.998 173.041 243.411 155.249 234.313 139.079Z" fill="#FECE2F"/>
<path d="M255.118 187.012C254.888 187.012 254.656 186.932 254.468 186.77C246.534 179.92 232.155 139.902 231.546 138.202C231.36 137.683 231.631 137.113 232.149 136.929C232.665 136.742 233.237 137.015 233.423 137.53C233.569 137.942 248.23 178.754 255.769 185.262C256.186 185.621 256.232 186.251 255.872 186.667C255.676 186.895 255.398 187.012 255.118 187.012Z" fill="#1A1A1A"/>
<path d="M261.227 23.5368C261.227 23.5368 249.647 13.2392 243.412 26.3343C239.213 27.4786 231.832 31.0379 235.65 40.9551C235.396 34.2168 240.486 29.8946 246.594 29.8946C248.63 23.9192 257.283 24.936 259.573 28.7503C261.61 26.2078 268.354 26.8432 268.735 32.0557C271.916 30.0211 277.516 28.8778 279.806 36.6329C280.824 28.115 274.461 26.0803 269.881 25.6989C267.844 21.5022 261.227 23.5368 261.227 23.5368Z" fill="white"/>
<path d="M258.039 52.0833C255.726 52.0833 253.537 51.1014 251.999 49.4113C250.849 50.229 249.476 50.6701 248.04 50.6701C245.505 50.6701 243.185 49.2659 241.999 47.052C237.168 45.7524 233.711 41.2878 233.711 36.2535C233.711 30.6795 237.747 26.0276 243.193 25.197C245.003 21.1746 248.944 18.6072 253.394 18.6072C256.384 18.6072 259.256 19.8182 261.357 21.9464C261.875 21.8737 262.389 21.8369 262.887 21.8369C265.819 21.8369 268.657 23.01 270.747 25.0716C270.822 25.0686 270.895 25.0666 270.967 25.0666C276.25 25.0666 280.55 29.3619 280.55 34.6392C280.55 37.6896 279.104 40.5309 276.66 42.3365C276.241 46.4824 272.769 49.6613 268.543 49.6613C267.179 49.6613 265.861 49.3257 264.673 48.6833C263.149 50.8036 260.692 52.0833 258.039 52.0833ZM252.143 46.9993C252.173 46.9993 252.205 47.0003 252.236 47.0042C252.529 47.0311 252.795 47.1875 252.963 47.4285C254.119 49.0956 256.016 50.0915 258.04 50.0915C260.315 50.0915 262.401 48.8457 263.48 46.8389C263.617 46.586 263.855 46.4037 264.134 46.34C264.414 46.2772 264.708 46.336 264.942 46.5023C266.001 47.2662 267.247 47.6695 268.544 47.6695C271.864 47.6695 274.57 45.0702 274.704 41.7529C274.717 41.4332 274.883 41.1394 275.15 40.9621C277.283 39.5509 278.556 37.1877 278.556 34.6392C278.556 30.4594 275.152 27.0584 270.967 27.0584C270.806 27.0584 270.646 27.0713 270.488 27.0823C270.19 27.0912 269.826 26.9917 269.621 26.7706C267.854 24.8734 265.463 23.8277 262.887 23.8277C262.337 23.8277 261.763 23.8835 261.18 23.993C260.834 24.0567 260.484 23.9382 260.252 23.6783C258.501 21.7214 256.002 20.599 253.394 20.599C249.572 20.599 246.205 22.9045 244.819 26.4738C244.683 26.8233 244.362 27.0673 243.989 27.1042C239.267 27.5723 235.706 31.5051 235.706 36.2535C235.706 40.5249 238.734 44.2974 242.906 45.2236C243.215 45.2923 243.472 45.5024 243.601 45.7912C244.381 47.545 246.125 48.6774 248.042 48.6774C249.323 48.6774 250.532 48.1824 251.446 47.2851C251.631 47.1018 251.882 46.9993 252.143 46.9993Z" fill="#1A1A1A"/>
<path d="M399.49 255.386C390.792 255.386 383.277 252.619 380.261 248.359C379.943 247.911 380.049 247.289 380.499 246.971C380.949 246.654 381.572 246.76 381.889 247.209C386.288 253.421 402.406 256.001 415.825 249.891C424.682 245.857 438.542 235.01 431.859 207.674C431.728 207.14 432.055 206.6 432.59 206.47C433.126 206.342 433.665 206.667 433.795 207.201C438.925 228.184 432.676 244.404 416.651 251.702C411.022 254.267 405.018 255.386 399.49 255.386Z" fill="#1A1A1A"/>
</svg>
