<svg width="225" height="127" viewBox="0 0 225 127" fill="none" xmlns="http://www.w3.org/2000/svg">
<path fill-rule="evenodd" clip-rule="evenodd" d="M157.737 15.1922C119.81 0.89036 54.1814 -4.92767 58.1543 6.40052C59.3977 9.94599 60.8036 10.358 68.9063 9.51707C118.076 4.38854 194.105 28.65 206.105 53.3163C208.895 59.0573 208.751 59.2008 203.101 55.6852C184.534 44.2654 163.12 38.2931 124.153 33.6199C41.3366 23.6391 -17.2296 46.5402 5.04908 80.4458C16.7248 98.236 57.0262 113.358 98.0458 116.548C106.431 117.205 103.827 118.914 92.8487 118.615C66.8936 117.964 57.695 115.405 46.0517 113.347L41.6867 109.897C35.3182 105.026 21.2169 100.249 5.83214 97.7652C-0.866108 96.6591 0.976432 108.003 28.6393 116.43C31.6283 117.341 29.8827 117.761 21.4218 117.996C14.7407 118.184 14.3635 118.354 15.9386 120.493C18.1979 123.613 35.726 124.874 43.8078 122.451C47.0924 121.436 48.6109 121.474 52.7959 122.334C87.4206 129.712 147.343 127.7 184.186 117.461C218.82 107.842 233.356 87.972 219.366 69.5345C217.375 66.9048 215.637 63.4712 214.21 59.2633C208.507 42.8622 187.216 26.3061 157.737 15.1922ZM207.193 65.0009C214.299 72.6672 189.916 93.7982 164.516 102.066C108.542 120.181 4.80298 99.3981 8.6596 70.9483C12.9673 39.0785 115.726 29.7988 186.767 54.2307C189.845 55.2566 206.215 63.873 207.193 65.0009ZM218.437 81.0046C216.398 92.3527 203.828 101.91 184.127 108.574C178.665 110.438 176.847 107.608 180.098 106.219C213.467 91.4721 215.053 72.3268 215.34 71.8971C217.167 73.2316 219.121 77.5575 218.437 81.0046Z" fill="#FECE2F"/>
</svg>
