<svg width="407" height="753" viewBox="0 0 407 753" fill="none" xmlns="http://www.w3.org/2000/svg">
<path d="M-124.938 111.742C-140.394 133.689 -154.481 166.543 -132.412 204.293C-99.9701 259.77 -122.061 294.242 -157.381 323.085C-164.891 329.241 -171.642 336.538 -177.311 344.979C-208.609 391.512 -209.707 495.263 -147.628 550.319C-87.3748 603.757 -43.5973 620.863 3.07837 629.448C60.7672 640.063 145.357 640.84 174.589 596.529C192.769 568.936 192.054 538.846 185.505 508.662C171.801 445.614 177.641 421.059 215.824 369.073C216.645 367.937 217.489 366.775 218.258 365.593C249.555 319.059 238.541 245.254 197.223 207.352C152.587 166.413 106.655 105.917 50.9891 80.4102C-6.73345 53.9654 -92.6811 65.966 -124.938 111.742Z" fill="#FECE2F"/>
<path d="M328.095 450.608C328.054 483.337 294.008 518.205 261.281 518.168C228.553 518.132 208.767 483.852 208.831 451.098C208.872 418.37 228.758 382.129 261.485 382.165C294.238 382.224 328.136 417.88 328.095 450.608Z" fill="#FECE2F"/>
</svg>
