<svg width="794" height="546" viewBox="0 0 794 546" fill="none" xmlns="http://www.w3.org/2000/svg">
<path d="M292.518 100.026C293.316 97.1968 293.351 95.0869 292.621 93.6965C291.907 92.2484 290.527 91.1734 288.48 90.4716C288.134 90.3739 287.985 90.2384 288.034 90.0652C288.157 89.8505 288.363 89.7838 288.651 89.8653C290.681 90.6248 292.216 91.1512 293.256 91.4444L304.69 94.6691C305.729 94.9623 307.313 95.3154 309.44 95.7285C309.729 95.8099 309.841 95.9661 309.776 96.1971C309.785 96.3867 309.616 96.4326 309.269 96.3348C307.158 95.864 305.42 96.0595 304.054 96.9213C302.706 97.7253 301.632 99.5421 300.834 102.372L288.326 146.722C287.528 149.551 287.486 151.69 288.199 153.138C288.929 154.529 290.317 155.575 292.364 156.276C292.71 156.374 292.822 156.53 292.699 156.745C292.65 156.918 292.482 156.964 292.193 156.883C290.163 156.123 288.628 155.597 287.589 155.304L276.155 152.079C275.115 151.786 273.532 151.433 271.404 151.02C271.115 150.938 270.966 150.803 270.957 150.613C271.022 150.382 271.228 150.316 271.575 150.413C273.686 150.884 275.416 150.717 276.765 149.913C278.131 149.052 279.212 147.206 280.01 144.376L292.518 100.026ZM328.823 168.336C323.106 166.724 318.333 163.975 314.504 160.089C310.733 156.22 308.228 151.618 306.99 146.281C305.768 140.887 305.98 135.274 307.625 129.441C309.254 123.667 312.212 118.703 316.5 114.552C320.804 110.342 325.921 107.452 331.849 105.883C337.836 104.329 344.034 104.456 350.444 106.264C356.276 107.909 361.128 110.711 364.999 114.671C368.885 118.572 371.477 123.199 372.772 128.552C374.068 133.905 373.91 139.44 372.297 145.157C370.652 150.989 367.649 156.002 363.287 160.195C358.925 164.389 353.722 167.254 347.677 168.791C341.633 170.328 335.349 170.176 328.823 168.336ZM335.2 167.61C341.725 169.45 347.369 168.891 352.131 165.932C356.95 162.99 360.362 157.968 362.365 150.865C363.994 145.09 364.29 139.064 363.255 132.788C362.22 126.511 360.005 120.993 356.61 116.232C353.272 111.488 349.12 108.416 344.154 107.015C337.802 105.224 332.253 105.778 327.507 108.679C322.836 111.538 319.539 116.375 317.617 123.189C315.972 129.022 315.622 135.126 316.567 141.502C317.512 147.877 319.608 153.487 322.855 158.33C326.176 163.132 330.291 166.225 335.2 167.61ZM400.556 188.567C394.839 186.955 390.066 184.206 386.237 180.321C382.465 176.452 379.961 171.849 378.723 166.513C377.501 161.118 377.713 155.505 379.358 149.673C380.986 143.898 383.945 138.935 388.233 134.783C392.537 130.573 397.654 127.683 403.582 126.114C409.569 124.56 415.767 124.688 422.177 126.496C428.009 128.141 432.861 130.943 436.731 134.902C440.618 138.804 443.21 143.431 444.505 148.783C445.801 154.136 445.643 159.671 444.03 165.388C442.385 171.22 439.382 176.233 435.02 180.427C430.658 184.62 425.455 187.485 419.41 189.022C413.366 190.559 407.081 190.408 400.556 188.567ZM406.933 187.841C413.458 189.681 419.102 189.122 423.864 186.164C428.683 183.221 432.095 178.199 434.098 171.096C435.727 165.321 436.023 159.296 434.988 153.019C433.953 146.742 431.738 141.224 428.343 136.463C425.005 131.719 420.853 128.647 415.887 127.246C409.535 125.455 403.986 126.009 399.24 128.91C394.569 131.769 391.272 136.606 389.35 143.42C387.705 149.253 387.355 155.357 388.3 161.733C389.245 168.109 391.341 173.718 394.588 178.562C397.909 183.363 402.024 186.456 406.933 187.841Z" fill="black"/>
<path d="M219.401 193.113L735.814 331.486C739.641 332.511 743.204 331.667 743.757 329.603L792.998 145.834C793.55 143.77 790.887 141.258 787.06 140.232L270.647 1.85986C266.82 0.834458 263.257 1.67878 262.704 3.74204L213.463 187.512C212.911 189.575 215.574 192.088 219.401 193.113ZM786.824 141.113C789.751 141.897 791.787 143.818 791.365 145.396L742.124 329.166C741.701 330.744 738.976 331.389 736.05 330.605L219.637 192.233C216.711 191.449 214.674 189.527 215.096 187.949L264.337 4.1796C264.76 2.60189 267.485 1.95619 270.411 2.74028L786.824 141.113Z" fill="#353535"/>
<path d="M262.476 7.26407L256.239 30.5373L784.9 172.191L791.136 148.918C792.041 145.54 790.032 142.064 786.652 141.158L270.239 2.78574C266.859 1.88001 263.381 3.8863 262.476 7.26407Z" fill="#FECE2F"/>
<path d="M256.207 31.2554L784.868 172.91C785.318 173.03 785.782 172.763 785.903 172.312L792.139 149.039C793.163 145.215 790.884 141.27 787.057 140.245L270.644 1.87213C266.817 0.846727 262.87 3.12351 261.846 6.94758L255.61 30.2208C255.489 30.6715 255.756 31.1345 256.207 31.2554ZM784.488 171.059L257.461 29.8424L263.479 7.38513C264.262 4.46099 267.28 2.71981 270.207 3.5039L786.62 141.876C789.546 142.66 791.289 145.677 790.506 148.602L784.488 171.059Z" fill="#353535"/>
<path d="M293.723 32.5903L303.466 35.201C304.967 35.6031 306.515 34.7101 306.916 33.2106L309.525 23.4744C309.927 21.9748 309.033 20.4275 307.532 20.0254L297.789 17.4147C296.288 17.0126 294.74 17.9056 294.339 19.4051L291.73 29.1413C291.328 30.6409 292.222 32.1882 293.723 32.5903ZM307.095 21.6572C307.695 21.818 308.053 22.4368 307.892 23.0369L305.283 32.773C305.123 33.3731 304.504 33.7302 303.903 33.5692L294.16 30.9586C293.56 30.7978 293.202 30.1789 293.363 29.5789L295.971 19.8427C296.132 19.2426 296.751 18.8856 297.352 19.0465L307.095 21.6572Z" fill="#353535"/>
<path d="M313.676 38.0847L327.229 41.7163C327.68 41.8371 328.144 41.5696 328.265 41.1192C328.385 40.6689 328.117 40.2054 327.667 40.0846L314.113 36.453C313.663 36.3322 313.199 36.5997 313.078 37.0501C312.958 37.5005 313.225 37.964 313.676 38.0847Z" fill="#353535"/>
<path d="M283.326 29.8043C283.535 29.8603 283.765 29.8367 283.967 29.7199C284.371 29.4868 284.51 28.9703 284.276 28.5663L274.352 11.3909C274.119 10.987 273.602 10.8484 273.198 11.0815C272.793 11.3147 272.655 11.8311 272.888 12.2352L282.813 29.4106C282.929 29.6127 283.117 29.7484 283.326 29.8043Z" fill="#353535"/>
<path d="M269.773 26.1727C269.982 26.2287 270.212 26.2051 270.414 26.0883L287.596 16.1761C288 15.9429 288.139 15.4265 287.905 15.0225C287.672 14.6186 287.155 14.48 286.751 14.7131L269.569 24.6254C269.164 24.8585 269.026 25.375 269.259 25.779C269.376 25.9812 269.564 26.1167 269.773 26.1727Z" fill="#353535"/>
<g clip-path="url(#clip0_474_3)">
<path d="M36.1697 408.597C41.4848 419.319 49.4755 432.415 59.26 445.968C68.3239 458.524 77.5031 469.498 85.5617 477.731C96.9329 489.356 106.076 495.536 109.534 493.031C113.281 490.323 109.467 478.096 100.617 461.797C95.4937 452.369 88.6865 441.577 80.6742 430.483C70.9245 416.985 61.0488 405.313 52.5745 396.903C42.0451 386.457 33.6763 381.046 30.3979 383.414C27.1318 385.777 29.6146 395.378 36.1697 408.597V408.597Z" fill="#1A1A1A"/>
<path d="M103.657 493.396C106.243 494.556 108.493 494.851 110.04 493.73C112.427 492.006 114.476 485.509 101.376 461.384C96.0447 451.574 89.1286 440.714 81.3738 429.976C71.9808 416.972 61.9687 405.008 53.1825 396.289C38.5265 381.749 32.4278 380.881 29.8924 382.713C25.3165 386.024 30.3594 398.826 35.3958 408.982C40.9109 420.107 49.1373 433.422 58.5596 446.474C67.3844 458.699 76.5077 469.717 84.9443 478.337C89.9509 483.455 97.6952 490.723 103.657 493.396V493.396ZM35.5651 384.602C39.115 386.194 44.4974 390.107 51.9664 397.517C60.6876 406.172 70.6345 418.059 79.9742 430.99C87.6863 441.668 94.5622 452.464 99.8585 462.211C110.436 481.69 111.409 490.61 109.029 492.33C105.582 494.827 94.5662 485.701 86.1796 477.127C77.8021 468.567 68.7356 457.618 59.9607 445.461C50.5923 432.484 42.4181 419.256 36.9441 408.213C29.284 392.765 28.8016 385.635 30.9044 384.114C31.7343 383.514 33.2655 383.571 35.5651 384.602V384.602Z" fill="#1A1A1A"/>
<path d="M36.1698 408.597C41.4849 419.319 49.4755 432.415 59.26 445.968C68.3239 458.524 77.5032 469.498 85.5617 477.731C89.9209 473.085 95.0865 467.622 100.617 461.797C117.664 443.859 138.211 422.474 149.619 410.812C149.9 410.914 150.181 411.015 150.462 411.106C180.786 421.464 199.108 393.897 222.097 398.941C231.003 400.893 239.385 406.727 245.272 412.07C247.981 414.522 250.157 416.875 251.62 418.699C251.816 418.946 251.998 419.181 252.169 419.406C259.347 428.928 279.11 430.708 276.135 412.805C271.801 386.766 245.764 375.399 234.749 370.272C223.054 364.83 221.249 354.657 234.843 343.282C244.613 335.11 282.856 301.312 287.925 287.645C292.496 275.309 284.674 265.909 275.972 269.341L275.968 269.339C275.029 269.711 274.079 270.23 273.129 270.914C269.304 273.675 264.683 277.417 259.831 281.495C249.176 290.43 237.372 300.954 230.252 306.154C228.475 299.911 216.647 295.207 209.237 298.856C205.477 292.59 194.401 290.214 187.13 293.995C181.911 288.466 171.686 289.844 165.605 294.357C140.65 312.884 101.898 359.745 52.5748 396.903C47.2339 400.936 41.7629 404.851 36.1698 408.597V408.597Z" fill="#FECE2F"/>
<path d="M150.462 411.106C180.785 421.464 199.107 393.897 222.097 398.941C231.002 400.894 239.385 406.727 245.271 412.07C247.98 414.523 250.157 416.875 251.619 418.7C249.077 414.539 245.22 410.507 242.347 406.476C238.339 400.851 233.267 395.467 226.599 393.656C218.387 391.425 209.795 395.074 201.282 395.248C197.447 395.327 193.591 394.692 189.788 395.195C184.444 395.894 179.668 398.754 174.759 400.975C169.689 403.267 164.334 404.917 158.86 405.88C156.922 406.219 154.903 406.497 153.252 407.564C151.955 408.404 151.028 409.666 150.462 411.106V411.106Z" fill="white"/>
<path d="M85.2079 478.52C85.3206 478.571 85.4443 478.597 85.5703 478.595C85.8056 478.593 86.0297 478.494 86.191 478.322C90.2759 473.968 95.3401 468.608 101.243 462.392C118.282 444.463 138.612 423.307 149.849 411.812C167.174 417.862 180.932 411.641 193.083 406.145C202.794 401.752 211.967 397.603 221.911 399.785C231.707 401.934 240.388 408.805 244.69 412.71C247.391 415.158 249.865 417.788 251.478 419.927C256.039 425.976 265.361 428.994 271.427 426.384C274.16 425.209 278.515 421.863 276.986 412.663C272.7 386.914 247.971 375.45 236.087 369.94L235.113 369.488C229.823 367.026 226.755 363.651 226.242 359.728C225.616 354.937 228.781 349.48 235.396 343.945C235.868 343.551 282.877 303.735 288.734 287.945C291.253 281.146 290.342 274.494 286.354 270.584C283.516 267.802 279.546 267.029 275.721 268.511C275.697 268.518 275.672 268.526 275.649 268.536C274.623 268.942 273.606 269.506 272.624 270.212C269.217 272.671 264.851 276.145 259.274 280.834C255.905 283.658 252.4 286.66 249.01 289.564C242.046 295.529 235.445 301.182 230.654 304.779C229.499 302.3 226.959 300.047 223.466 298.515C218.729 296.411 213.482 296.143 209.555 297.765C205.34 291.76 194.768 289.451 187.302 292.947C181.687 287.647 171.421 288.963 165.089 293.663C154.531 301.503 141.479 314.424 126.367 329.386C105.958 349.592 80.5584 374.739 52.0545 396.213C46.5737 400.352 41.0679 404.277 35.6892 407.88C35.3281 408.121 35.2026 408.593 35.3956 408.982C40.9105 420.108 49.1369 433.423 58.5594 446.474C67.3842 458.7 76.5075 469.717 84.9441 478.337C85.0206 478.414 85.1102 478.476 85.2079 478.52ZM229.776 400.617C227.394 399.549 224.879 398.666 222.282 398.096C211.779 395.792 202.352 400.056 192.372 404.57C179.813 410.251 166.827 416.124 149.913 410C149.595 409.884 149.238 409.966 149.002 410.208C137.844 421.614 117.232 443.06 99.9913 461.202C94.3807 467.111 89.5266 472.247 85.5505 476.481C77.3494 468.02 68.5164 457.314 59.9602 445.461C50.7827 432.749 42.7516 419.795 37.2821 408.891C42.4864 405.387 47.8028 401.589 53.0943 397.592C81.691 376.049 107.136 350.856 127.582 330.614C142.647 315.698 155.658 302.816 166.119 295.05C173.333 289.696 182.65 290.509 186.501 294.588C186.767 294.868 187.185 294.94 187.527 294.761C194.415 291.179 204.997 293.472 208.496 299.301C208.727 299.686 209.214 299.83 209.617 299.631C213.158 297.887 218.196 298.065 222.766 300.094C222.786 300.103 222.807 300.112 222.828 300.121C226.28 301.669 228.743 304.01 229.42 306.391C229.497 306.662 229.699 306.879 229.969 306.971C230.236 307.063 230.531 307.018 230.76 306.852C235.658 303.274 242.69 297.252 250.134 290.876C253.52 287.976 257.022 284.976 260.384 282.157C265.929 277.495 270.262 274.047 273.633 271.614C274.478 271.006 275.349 270.519 276.222 270.167C276.243 270.161 276.265 270.153 276.287 270.145C279.527 268.867 282.756 269.478 285.145 271.82C287.884 274.504 289.839 279.993 287.114 287.345C282.166 300.686 244.188 334.338 234.289 342.619C227.197 348.553 223.822 354.547 224.529 359.953C225.123 364.493 228.531 368.332 234.384 371.056L235.36 371.509C246.976 376.894 271.146 388.099 275.282 412.948C276.286 418.99 274.718 423.088 270.746 424.796C265.438 427.079 256.911 424.262 252.858 418.885C251.182 416.663 248.628 413.946 245.851 411.429C242.551 408.433 236.739 403.739 229.776 400.617V400.617Z" fill="#1A1A1A"/>
<path d="M266.622 291.502C268.616 292.396 270.427 292.262 271.873 291.111C273.327 289.953 278.263 285.704 280.705 279.656C282.057 276.309 282.162 273.584 281.02 271.559C280.094 269.916 278.393 268.855 276.103 268.488C275.632 268.413 275.189 268.733 275.113 269.205C275.037 269.676 275.358 270.119 275.829 270.195C277.051 270.391 278.683 270.933 279.515 272.409C280.374 273.932 280.232 276.215 279.103 279.01C276.819 284.666 272.168 288.668 270.797 289.759C269.839 290.522 268.612 290.545 267.145 289.839C263.696 288.167 260.683 283.455 260.691 281.494C260.693 281.017 260.307 280.628 259.831 280.626C259.354 280.625 258.965 281.01 258.963 281.488C258.95 284.73 263.136 289.817 266.391 291.394C266.469 291.432 266.545 291.467 266.622 291.502Z" fill="#1A1A1A"/>
<path d="M204.777 327.894C205.074 328.027 205.433 327.986 205.695 327.759C205.886 327.595 224.892 311.21 230.767 306.849C231.15 306.564 231.23 306.023 230.946 305.639C230.662 305.256 230.121 305.176 229.737 305.461C223.812 309.86 204.759 326.285 204.568 326.451C204.206 326.762 204.165 327.308 204.477 327.669C204.562 327.768 204.665 327.843 204.777 327.894Z" fill="#1A1A1A"/>
<path d="M186.07 318.111C186.357 318.24 186.706 318.206 186.967 317.995L209.78 299.529C210.151 299.229 210.208 298.684 209.908 298.314C209.61 297.943 209.065 297.885 208.694 298.185L185.882 316.651C185.51 316.951 185.453 317.495 185.753 317.866C185.841 317.975 185.95 318.058 186.07 318.111V318.111Z" fill="#1A1A1A"/>
<path d="M166.761 311.447C167.053 311.577 167.406 311.541 167.668 311.322L187.682 294.657C188.048 294.352 188.099 293.807 187.794 293.44C187.488 293.074 186.944 293.023 186.577 293.329L166.563 309.994C166.197 310.299 166.146 310.844 166.451 311.211C166.538 311.316 166.645 311.394 166.761 311.447Z" fill="#1A1A1A"/>
<path d="M246.025 311.485C246.18 311.555 246.357 311.579 246.537 311.546C247.006 311.458 247.315 311.006 247.226 310.536C246.475 306.525 243.345 303.047 239.435 301.879C238.977 301.743 238.496 302.003 238.359 302.461C238.223 302.918 238.482 303.399 238.94 303.536C242.246 304.522 244.893 307.464 245.528 310.856C245.583 311.145 245.775 311.373 246.025 311.485Z" fill="#1A1A1A"/>
<path d="M240.549 311.226C240.746 311.314 240.976 311.329 241.195 311.25C241.644 311.088 241.877 310.593 241.716 310.144C240.738 307.422 238.525 305.226 235.796 304.272C235.345 304.115 234.853 304.353 234.695 304.803C234.537 305.254 234.774 305.75 235.225 305.905C237.437 306.677 239.299 308.526 240.09 310.73C240.173 310.96 240.343 311.133 240.549 311.226V311.226Z" fill="#1A1A1A"/>
<path d="M234.321 398.747C234.371 398.769 234.424 398.787 234.48 398.8C234.945 398.908 235.409 398.618 235.517 398.153C236.192 395.241 238.174 392.673 240.82 391.284C241.242 391.061 241.405 390.539 241.184 390.116C240.961 389.694 240.44 389.531 240.017 389.753C236.933 391.373 234.622 394.368 233.834 397.763C233.739 398.172 233.952 398.581 234.321 398.747V398.747Z" fill="#1A1A1A"/>
<path d="M229.647 399.082C229.745 399.125 229.852 399.152 229.966 399.156C230.442 399.175 230.845 398.804 230.864 398.327C230.972 395.697 232.043 393.065 233.801 391.105C234.119 390.75 234.09 390.203 233.735 389.885C233.379 389.566 232.834 389.596 232.516 389.951C230.464 392.238 229.265 395.188 229.138 398.257C229.123 398.621 229.334 398.941 229.647 399.082V399.082Z" fill="#1A1A1A"/>
<path d="M265.849 427.01C266.058 427.104 266.303 427.115 266.532 427.02C267.857 426.473 268.682 425.313 268.915 423.664C269.498 419.553 266.198 412.194 259.667 406.996C255.928 404.023 250.395 407.687 246.733 410.113C245.99 410.605 245.348 411.03 244.846 411.315C244.431 411.551 244.285 412.078 244.52 412.493C244.754 412.908 245.282 413.054 245.697 412.819C246.252 412.504 246.917 412.064 247.686 411.554C250.932 409.405 255.836 406.158 258.591 408.349C264.558 413.098 267.708 419.871 267.205 423.422C267.06 424.445 266.612 425.118 265.874 425.422C265.433 425.604 265.223 426.109 265.405 426.551C265.492 426.764 265.654 426.923 265.849 427.01V427.01Z" fill="#1A1A1A"/>
<path d="M149.619 410.812C139.507 407.224 131.561 400.335 128.701 397.503C125.841 394.67 116.522 398.759 122.782 407.25C129.042 415.74 119.808 416.659 115.46 421.277C111.826 425.138 122.507 432.833 115.836 439.014C107.718 446.535 108.478 453.541 108.478 453.541L149.619 410.812Z" fill="#1A1A1A"/>
<path d="M108.124 454.33C108.148 454.341 108.173 454.351 108.198 454.36C108.515 454.468 108.867 454.383 109.099 454.141L150.24 411.412C150.444 411.2 150.527 410.9 150.459 410.614C150.392 410.328 150.183 410.096 149.908 409.998C138.987 406.122 130.832 398.398 129.308 396.889C127.601 395.198 124.117 395.432 121.854 397.391C120.792 398.31 117.67 401.774 122.086 407.764C123.609 409.83 124.227 411.479 123.974 412.804C123.628 414.617 121.563 415.909 119.377 417.275C117.781 418.273 116.13 419.305 114.831 420.685C112.87 422.768 114.16 425.59 115.408 428.318C116.974 431.742 118.593 435.282 115.249 438.381C106.908 446.108 107.586 453.332 107.619 453.636C107.652 453.942 107.846 454.206 108.124 454.33V454.33ZM148.081 411.164L109.499 451.235C109.938 448.69 111.438 444.265 116.422 439.648C120.685 435.699 118.63 431.206 116.979 427.596C115.705 424.812 114.981 423.045 116.088 421.869C117.235 420.651 118.789 419.68 120.292 418.74C122.807 417.168 125.183 415.682 125.671 413.127C126.019 411.302 125.302 409.212 123.477 406.737C121.056 403.452 120.876 400.522 122.984 398.697C124.546 397.345 127.028 397.064 128.093 398.117C129.604 399.614 137.442 407.046 148.081 411.164V411.164Z" fill="#1A1A1A"/>
<path d="M211.731 321.453C198.963 333.123 191.464 336.984 193.649 331.806C195.505 327.407 204.356 326.757 211.731 321.453Z" fill="#1A1A1A"/>
<path d="M193.332 334.78C194.16 335.152 195.767 335.002 199.918 332.202C203.241 329.962 207.527 326.465 212.313 322.09C212.651 321.781 212.69 321.263 212.402 320.907C212.115 320.552 211.599 320.483 211.227 320.75C208.036 323.046 204.537 324.456 201.45 325.701C197.465 327.306 194.024 328.693 192.853 331.47C192.204 333.008 192.273 334.069 193.057 334.623C193.139 334.681 193.23 334.735 193.332 334.78V334.78ZM205.194 326.022C198.175 331.843 194.961 333.209 194.137 333.204C194.145 333.049 194.198 332.725 194.445 332.142C195.336 330.028 198.318 328.826 202.094 327.304C203.093 326.902 204.132 326.483 205.194 326.022V326.022Z" fill="#1A1A1A"/>
<path d="M193.135 312.011C180.367 323.681 172.868 327.542 175.053 322.365C176.909 317.965 185.76 317.315 193.135 312.011V312.011Z" fill="#1A1A1A"/>
<path d="M174.736 325.339C175.564 325.71 177.171 325.56 181.323 322.761C184.645 320.52 188.931 317.024 193.718 312.649C194.056 312.34 194.094 311.821 193.806 311.466C193.519 311.11 193.003 311.042 192.631 311.309C189.44 313.605 185.941 315.015 182.853 316.259C178.869 317.865 175.428 319.252 174.257 322.029C173.608 323.566 173.677 324.627 174.461 325.181C174.543 325.239 174.633 325.293 174.736 325.339V325.339ZM186.598 316.581C179.58 322.4 176.365 323.767 175.542 323.762C175.549 323.607 175.602 323.283 175.849 322.7C176.74 320.586 179.722 319.384 183.498 317.863C184.496 317.46 185.537 317.041 186.598 316.581V316.581Z" fill="#1A1A1A"/>
<path d="M176.199 303.152C163.431 314.822 155.932 318.683 158.117 313.506C159.973 309.106 168.824 308.457 176.199 303.152Z" fill="#1A1A1A"/>
<path d="M157.8 316.48C158.628 316.851 160.235 316.702 164.387 313.902C167.709 311.661 171.996 308.165 176.782 303.79C177.119 303.481 177.158 302.963 176.87 302.607C176.583 302.252 176.067 302.183 175.695 302.45C172.504 304.745 169.005 306.156 165.918 307.4C161.934 309.006 158.493 310.393 157.321 313.169C156.672 314.707 156.741 315.768 157.525 316.322C157.607 316.38 157.698 316.434 157.8 316.48V316.48ZM169.662 307.721C162.643 313.542 159.43 314.908 158.606 314.903C158.613 314.748 158.667 314.424 158.913 313.841C159.805 311.728 162.787 310.525 166.563 309.004C167.561 308.602 168.601 308.183 169.662 307.721Z" fill="#1A1A1A"/>
</g>
<g clip-path="url(#clip1_474_3)">
<path d="M660.441 90.4849C653.668 84.5378 652.876 75.2114 653.721 67.8528C654.567 60.4942 647.767 56.4928 647.767 56.4928L654.688 57.9665C654.688 57.9665 659.471 51.7378 667.61 57.5872C675.75 63.4367 682.472 74.2106 696.118 85.2647C707.118 94.2013 719.08 101.884 731.782 108.172C724.338 105.113 711.091 97.9993 695.773 98.6116C680.455 99.2238 673.985 102.378 660.441 90.4849V90.4849Z" fill="#FECE2F"/>
<path d="M668.932 58.5907C669.879 59.8227 670.429 61.3137 670.508 62.8656C670.588 64.4176 670.193 65.957 669.377 67.2792C666.478 71.8602 661.723 72.6908 662.195 80.371C662.684 88.3178 665.338 96.2988 676.506 99.1082L703.194 98.8906L684.672 91.2309C684.672 91.2309 667.869 84.9637 670.834 77.5196C673.8 70.0754 682.537 71.47 682.537 71.47L668.932 58.5907Z" fill="white"/>
<path d="M687.959 77.9887C687.959 77.9887 677.054 76.5342 681.361 81.0938C685.669 85.6534 699.152 88.3241 699.152 88.3241L687.959 77.9887Z" fill="white"/>
<path d="M731.61 109.662C731.473 109.646 731.339 109.612 731.212 109.559C730.1 109.103 728.862 108.557 727.507 107.961C719.953 104.632 708.543 99.6039 695.829 100.11C693.236 100.214 690.941 100.388 688.722 100.556C678.143 101.354 671.155 101.888 659.451 91.6123C651.967 85.0399 651.394 74.9676 652.231 67.6816C652.957 61.3651 647.066 57.8214 647.007 57.7864C646.699 57.606 646.466 57.3221 646.349 56.9854C646.232 56.6487 646.238 56.2813 646.367 55.9491C646.497 55.6169 646.74 55.3415 647.054 55.1723C647.367 55.0031 647.731 54.9512 648.08 55.0259L654.186 56.3265C655.964 54.6566 661.104 51.0629 668.486 56.3693C672.444 59.2127 676.01 63.1103 680.14 67.6233C685.343 73.548 691 79.0566 697.062 84.0989C707.977 92.9767 719.853 100.604 732.467 106.837C732.776 106.999 733.02 107.264 733.155 107.586C733.29 107.909 733.309 108.268 733.207 108.602C733.106 108.937 732.891 109.225 732.599 109.418C732.308 109.611 731.958 109.696 731.611 109.658L731.61 109.662ZM661.431 89.3575C672.186 98.7971 677.979 98.3616 688.495 97.5639C690.636 97.4023 693.064 97.2183 695.709 97.1126C701.558 96.9385 707.398 97.6775 713.019 99.3029C706.825 95.3622 700.865 91.064 695.171 86.4303C688.993 81.2972 683.226 75.6871 677.925 69.6517C673.908 65.2644 670.438 61.4715 666.733 58.8091C659.853 53.8603 656.037 58.6732 655.878 58.8793C655.704 59.1033 655.472 59.2741 655.206 59.3721C654.94 59.47 654.652 59.4913 654.375 59.4333L652.722 59.0814C654.688 61.6227 655.581 64.8324 655.211 68.0241C654.456 74.6018 654.921 83.642 661.431 89.3575V89.3575Z" fill="#353535"/>
<path d="M669.217 115.174C668.86 115.133 668.529 114.964 668.286 114.7C668.042 114.435 667.902 114.091 667.891 113.732C667.879 113.372 667.998 113.021 668.224 112.741C668.45 112.461 668.769 112.272 669.123 112.208L677.818 110.639L685.131 103.204L683.349 100.08C683.153 99.7343 683.103 99.3252 683.208 98.9425C683.314 98.5596 683.567 98.2343 683.912 98.0377C684.257 97.8411 684.666 97.7893 685.049 97.8937C685.432 97.9981 685.758 98.2502 685.955 98.5947L688.301 102.709C688.463 102.993 688.527 103.322 688.485 103.646C688.443 103.969 688.297 104.271 688.068 104.503L679.625 113.084C679.408 113.305 679.127 113.454 678.822 113.508L669.658 115.163C669.513 115.188 669.364 115.192 669.217 115.174V115.174Z" fill="#353535"/>
<path d="M661.189 113.07C660.829 113.028 660.497 112.858 660.253 112.591C660.009 112.324 659.87 111.977 659.861 111.615C659.853 111.253 659.975 110.901 660.206 110.622C660.437 110.344 660.761 110.158 661.119 110.099L669.722 108.687L676.286 102.939L676.122 100.348C676.097 99.9514 676.23 99.5606 676.493 99.2619C676.756 98.9633 677.127 98.7813 677.524 98.7561C677.921 98.7309 678.312 98.8643 678.61 99.1274C678.909 99.3903 679.091 99.761 679.116 100.158L679.327 103.487C679.341 103.716 679.303 103.945 679.214 104.157C679.126 104.37 678.99 104.558 678.818 104.71L671.373 111.226C671.162 111.411 670.904 111.532 670.628 111.578L661.6 113.057C661.464 113.08 661.326 113.084 661.189 113.07V113.07Z" fill="#353535"/>
<path d="M663.066 63.949C664.174 64.0764 665.176 63.2812 665.303 62.1728C665.431 61.0645 664.636 60.0628 663.527 59.9354C662.419 59.8081 661.417 60.6033 661.29 61.7116C661.163 62.82 661.958 63.8216 663.066 63.949V63.949Z" fill="#353535"/>
<path d="M676.141 100.56C663.741 97.4462 660.955 86.9978 660.398 81.0473C659.821 74.8892 662.653 72.1898 665.15 69.8043C666.272 68.8221 667.266 67.703 668.11 66.4734C668.759 65.4174 669.073 64.1901 669.013 62.9522C668.952 61.7143 668.519 60.5236 667.77 59.5362L670.095 57.6423C671.247 59.1152 671.917 60.9069 672.016 62.7741C672.114 64.6413 671.636 66.4935 670.645 68.0793C669.673 69.5187 668.523 70.8287 667.221 71.9779C664.831 74.256 662.943 76.0552 663.385 80.7655C663.868 85.9274 666.263 94.987 676.872 97.6515L676.141 100.56Z" fill="#353535"/>
<path d="M725.362 106.475C719.539 104.428 713.453 102.517 707.568 100.67C686.337 94.0052 668.006 88.2508 669.136 78.4729C669.984 71.0875 677.68 69.6083 681.627 69.8576L681.438 72.8557L681.533 71.3567L681.441 72.856C681.092 72.8349 672.855 72.4229 672.115 78.8213C671.275 86.1342 690.18 92.0702 708.466 97.8114C714.376 99.6662 720.486 101.584 726.356 103.648L725.362 106.475Z" fill="#353535"/>
<path d="M700.028 90.0051C699.425 89.9197 685.2 87.8563 680.283 82.8401C678.651 81.1779 678.142 79.6518 678.763 78.2969C679.982 75.6367 685.191 75.6807 687.374 75.8228L687.18 78.8202C684.772 78.6663 682.109 79.0035 681.529 79.5217C681.736 79.9889 682.042 80.4058 682.425 80.744C685.92 84.3093 696.619 86.502 700.447 87.0426L700.028 90.0051Z" fill="#353535"/>
<path d="M684.376 116.916C684.186 116.894 684.002 116.836 683.835 116.745L678.273 113.744C678.096 113.652 677.939 113.526 677.811 113.373C677.683 113.221 677.587 113.044 677.529 112.854C677.47 112.663 677.45 112.463 677.469 112.265C677.489 112.067 677.547 111.874 677.642 111.699C677.737 111.524 677.865 111.369 678.02 111.244C678.175 111.119 678.354 111.026 678.545 110.97C678.736 110.915 678.937 110.898 679.135 110.921C679.333 110.944 679.524 111.006 679.698 111.104L685.26 114.106C685.567 114.271 685.807 114.539 685.938 114.862C686.07 115.185 686.084 115.544 685.979 115.876C685.875 116.209 685.657 116.495 685.364 116.685C685.072 116.874 684.722 116.956 684.376 116.916V116.916Z" fill="#353535"/>
</g>
<defs>
<clipPath id="clip0_474_3">
<rect width="241.33" height="278.712" fill="white" transform="matrix(-0.912477 -0.409127 -0.409127 0.912477 334.649 291.544)"/>
</clipPath>
<clipPath id="clip1_474_3">
<rect width="93" height="61" fill="white" transform="translate(646.786 51.8907) rotate(6.5553)"/>
</clipPath>
</defs>
</svg>
