<svg width="158" height="168" viewBox="0 0 158 168" fill="none" xmlns="http://www.w3.org/2000/svg">
<path d="M84.715 162.47L84.815 162.367C84.9259 162.181 84.9943 161.969 85.015 161.752V161.547C85.0218 161.491 85.0163 161.435 84.999 161.382C84.9817 161.328 84.953 161.279 84.915 161.239L68.415 114.777C68.3901 114.624 68.3204 114.48 68.215 114.367C67.7465 113.409 66.9276 112.68 65.937 112.339C64.9464 111.998 63.8644 112.073 62.9272 112.547C61.99 113.021 61.2734 113.855 60.9339 114.869C60.5945 115.882 60.6596 116.993 61.115 117.957L81.215 159.495C79.8692 159.192 78.4927 159.053 77.115 159.085C72.815 159.085 69.415 160.316 69.415 161.752C69.415 163.188 72.915 164.418 77.115 164.418C80.515 164.418 83.315 163.701 84.315 162.675C84.615 162.572 84.615 162.47 84.715 162.47Z" fill="#1A1A1A"/>
<path d="M60.5149 57.3416C60.5149 57.3416 37.4149 18.3673 29.6149 26.0596C23.6149 32.0083 39.4149 64.4185 38.1149 73.239C36.9149 81.957 22.2149 136.111 75.5149 129.444" fill="white"/>
<path d="M43.3148 72.0083C43.1148 80.1108 35.9148 127.29 74.7148 125.342L60.6148 57.3416C60.6148 57.3416 37.5148 18.3673 29.7148 26.0596C24.3148 32.7262 43.5148 63.0852 43.3148 72.0083Z" fill="#FECE2F"/>
<path d="M63.7149 164.931C63.8258 164.745 63.8941 164.533 63.9149 164.316V163.906L51.0149 117.137C51.0149 117.034 50.9149 116.829 50.9149 116.726C50.5303 115.733 49.7769 114.938 48.8205 114.515C47.8641 114.091 46.7829 114.075 45.8149 114.47C44.8468 114.865 44.0712 115.637 43.6586 116.618C43.246 117.599 43.2303 118.708 43.6149 119.701L60.4149 162.06C59.0021 161.751 57.5589 161.613 56.1149 161.649C51.8149 161.649 48.4149 162.88 48.4149 164.316C48.4149 165.752 51.9149 166.983 56.1149 166.983C59.4149 166.983 62.2149 166.265 63.3149 165.239C63.5149 165.239 63.6149 165.034 63.7149 164.931Z" fill="#1A1A1A"/>
<path d="M32.5714 28.7092C34.3848 26.4251 33.7718 22.8338 31.2023 20.6878C28.6328 18.5417 25.0797 18.6536 23.2663 20.9376C21.4529 23.2217 22.0658 26.813 24.6354 28.9591C27.2049 31.1051 30.758 30.9932 32.5714 28.7092Z" fill="#1A1A1A"/>
<path d="M42.1148 52.0083C43.7165 52.0083 45.0148 50.6766 45.0148 49.0339C45.0148 47.3913 43.7165 46.0596 42.1148 46.0596C40.5132 46.0596 39.2148 47.3913 39.2148 49.0339C39.2148 50.6766 40.5132 52.0083 42.1148 52.0083Z" fill="#1A1A1A"/>
<path d="M157.315 96.4186C154.639 92.2005 151.664 88.1898 148.415 84.4186C146.815 82.5724 145.015 80.7263 143.215 78.9827C142.315 78.0596 141.415 77.3417 140.415 76.4186C139.97 75.9833 139.502 75.5724 139.015 75.1878L137.515 73.957C136.915 73.4442 136.215 72.9314 135.515 72.4186C140.415 73.7519 145.115 75.3929 149.915 77.1365C150.087 77.2035 150.279 77.1981 150.447 77.1212C150.616 77.0444 150.748 76.9025 150.815 76.7263C150.88 76.5346 150.876 76.3251 150.802 76.1365C150.729 75.948 150.591 75.7931 150.415 75.7006C143.332 72.6237 136.087 69.9529 128.715 67.7006C128.526 67.617 128.32 67.5819 128.115 67.5981C122.75 64.4363 117.045 61.9238 111.115 60.1109C106.342 58.6164 101.46 57.5189 96.5149 56.8288H97.6149C99.7149 56.9314 101.715 57.1365 103.815 57.4442L105.315 57.6493C105.815 57.7519 106.315 57.7519 106.815 57.8545L109.915 58.4699L111.415 58.7776L112.915 59.0852L116.015 59.8032C116.515 59.9058 117.015 60.1109 117.515 60.2135L119.015 60.6237L122.015 61.5468C122.188 61.5797 122.366 61.5581 122.527 61.4848C122.688 61.4116 122.823 61.2902 122.915 61.1365C123.015 60.7263 122.915 60.316 122.515 60.2135L119.515 58.9827L118.015 58.3673L116.515 57.7519L113.515 56.7263L112.015 56.2135C111.515 56.1109 111.015 55.9058 110.515 55.8032L108.115 55.0852C109.022 55.1717 109.923 55.3087 110.815 55.4955C116.453 56.4063 122.03 57.6737 127.515 59.2904C127.688 59.3335 127.87 59.3166 128.033 59.2424C128.196 59.1682 128.33 59.0408 128.415 58.8801C128.515 58.4699 128.415 58.0596 128.015 57.957C122.592 55.8919 117.048 54.1791 111.415 52.8288C105.726 51.4749 99.941 50.5833 94.1149 50.1622C88.2199 49.7177 82.2987 49.7863 76.4149 50.3673C73.4618 50.6609 70.5247 51.106 67.6149 51.7006C66.1149 52.0083 64.7149 52.316 63.2149 52.7263C62.5149 52.9314 61.7149 53.1365 61.0149 53.3417C60.6335 53.4326 60.2642 53.5704 59.9149 53.7519L59.5149 53.8545C57.6149 50.8801 54.4149 45.8545 50.8149 40.8288C42.9149 30.0596 36.8149 24.316 32.5149 23.8032C31.7779 23.6986 31.0273 23.7639 30.318 23.9946C29.6087 24.2252 28.9585 24.6154 28.4149 25.1365C24.3149 29.1365 28.1149 41.2391 32.1149 53.957C34.5149 61.6494 37.0149 69.6493 36.5149 73.034C36.4149 73.7519 36.2149 74.675 36.0149 75.9058C34.2149 85.7519 29.9149 108.931 41.9149 122.06C47.5149 128.111 55.8149 131.188 66.7149 131.188C68.6149 131.188 70.7149 131.085 72.7149 130.88C74.2774 132.366 75.9129 133.77 77.6149 135.085C83.3076 139.582 89.5636 143.273 96.2149 146.06C102.796 148.797 109.681 150.692 116.715 151.701C116.898 151.715 117.08 151.66 117.228 151.547C117.375 151.434 117.477 151.27 117.515 151.085C117.551 150.881 117.509 150.672 117.397 150.5C117.285 150.327 117.112 150.206 116.915 150.162C110.15 148.732 103.572 146.496 97.3149 143.496C92.8786 141.282 88.6593 138.637 84.7149 135.598L86.0149 136.316C86.6149 136.624 87.2149 136.931 87.7149 137.239C90.8662 138.832 94.105 140.236 97.4149 141.444C97.6602 141.558 97.8945 141.696 98.1149 141.854C101.031 143.59 104.036 145.164 107.115 146.572C107.277 146.626 107.452 146.624 107.614 146.568C107.775 146.514 107.916 146.407 108.015 146.265C108.098 146.086 108.113 145.882 108.058 145.692C108.002 145.503 107.88 145.342 107.715 145.239C106.115 144.316 104.415 143.393 102.815 142.47C102.847 142.292 102.826 142.11 102.755 141.945C102.683 141.78 102.565 141.641 102.415 141.547C101.515 141.239 100.615 140.829 99.7149 140.419C99.5089 140.342 99.3332 140.198 99.2149 140.008C98.5149 139.598 97.9149 138.983 97.2149 138.572L96.2149 137.854C95.9237 137.559 95.5855 137.316 95.2149 137.137C94.6149 136.624 93.9149 136.111 93.3149 135.598L91.4149 133.957C90.4149 133.034 89.5149 132.213 88.6149 131.29C88.9346 131.518 89.2687 131.723 89.6149 131.906C90.3149 132.419 91.1149 132.931 91.9149 133.444C98.0105 137.399 104.396 140.863 111.015 143.803C111.177 143.856 111.352 143.854 111.514 143.799C111.675 143.744 111.816 143.638 111.915 143.496C111.998 143.317 112.013 143.113 111.958 142.923C111.902 142.733 111.78 142.572 111.615 142.47C105.268 139.168 99.1827 135.361 93.4149 131.085C92.7149 130.572 92.0149 130.06 91.3149 129.444C90.6149 128.931 89.9149 128.419 89.2149 127.803C87.8149 126.675 86.4149 125.547 85.1149 124.316C82.4149 121.957 79.8149 119.496 77.3149 116.931C76.3149 115.906 75.3149 114.778 74.4149 113.752C74.3149 113.547 74.1149 113.342 74.0149 113.137C76.1149 115.29 78.3149 117.342 80.5149 119.393C82.3149 121.034 84.1149 122.572 86.0149 124.111C87.9149 125.649 89.8149 127.085 91.8149 128.419C93.8149 129.752 95.8149 131.085 97.9149 132.213C100.012 133.418 102.183 134.479 104.415 135.393C104.577 135.446 104.752 135.444 104.914 135.389C105.075 135.334 105.216 135.228 105.315 135.085C105.398 134.907 105.413 134.703 105.358 134.513C105.302 134.323 105.18 134.162 105.015 134.06C102.915 132.931 101.015 131.701 99.1149 130.47C97.2149 129.137 95.3149 127.701 93.5149 126.265C93.3149 126.06 93.0149 125.854 92.8149 125.649L93.4149 126.06C94.1149 126.47 94.7149 126.88 95.4149 127.29L99.5149 129.649C100.815 130.47 102.215 131.188 103.615 131.906L105.715 133.034C106.395 133.418 107.096 133.76 107.815 134.06L112.015 136.213C112.315 136.419 112.715 136.213 113.015 135.906C113.064 135.819 113.096 135.723 113.107 135.623C113.119 135.523 113.11 135.423 113.082 135.326C113.054 135.23 113.007 135.141 112.944 135.064C112.881 134.987 112.803 134.924 112.715 134.88L108.715 132.419C108.015 132.008 107.415 131.598 106.715 131.188L104.815 129.957C103.515 129.137 102.215 128.316 100.915 127.393L97.1149 124.726C96.5149 124.316 95.8149 123.803 95.2149 123.393L93.3149 122.06C92.0149 121.137 90.8149 120.213 89.5149 119.29L85.8149 116.521L82.1149 113.649C81.0149 112.726 79.9149 111.906 78.8149 110.983C78.6149 110.778 78.4149 110.47 78.2149 110.265C78.3149 110.367 78.5149 110.47 78.6149 110.572C83.8149 114.06 88.9149 117.547 93.9149 121.034C99.0149 124.624 104.015 128.213 108.815 132.111C108.966 132.22 109.15 132.269 109.334 132.25C109.517 132.232 109.688 132.146 109.815 132.008C109.886 131.944 109.942 131.865 109.981 131.777C110.02 131.688 110.04 131.593 110.04 131.496C110.04 131.398 110.02 131.303 109.981 131.214C109.942 131.126 109.886 131.047 109.815 130.983C108.015 129.342 106.215 127.701 104.315 126.162C104.615 126.162 104.815 126.162 105.015 125.854C105.081 125.79 105.127 125.707 105.145 125.614C105.163 125.522 105.152 125.427 105.115 125.342C106.415 126.572 107.715 127.803 108.915 129.034C113.992 134.14 118.767 139.551 123.215 145.239C123.27 145.318 123.341 145.385 123.424 145.434C123.506 145.483 123.598 145.513 123.692 145.523C123.787 145.532 123.883 145.521 123.973 145.49C124.063 145.459 124.145 145.408 124.215 145.342C124.364 145.225 124.466 145.056 124.503 144.868C124.539 144.679 124.508 144.483 124.415 144.316C120.279 138.282 115.769 132.527 110.915 127.085C106.315 121.957 101.615 117.137 96.6149 112.316C97.2149 112.829 97.8149 113.239 98.3149 113.752C102.724 117.406 106.93 121.31 110.915 125.444C110.978 125.517 111.055 125.574 111.141 125.614C111.227 125.654 111.32 125.675 111.415 125.675C111.509 125.675 111.603 125.654 111.689 125.614C111.775 125.574 111.852 125.517 111.915 125.444C112.049 125.314 112.133 125.139 112.151 124.951C112.169 124.762 112.121 124.573 112.015 124.419C109.2 120.931 106.195 117.61 103.015 114.47C105.515 116.521 108.015 118.572 110.515 120.726C111.515 121.649 112.415 122.47 113.415 123.393C113.907 124.144 114.342 124.932 114.715 125.752C116.401 128.933 117.807 132.263 118.915 135.701C118.968 135.891 119.093 136.052 119.261 136.148C119.43 136.244 119.629 136.268 119.815 136.213C120.001 136.159 120.158 136.031 120.251 135.859C120.345 135.685 120.368 135.481 120.315 135.29C119.617 132.682 118.783 130.114 117.815 127.598C118.273 128.017 118.707 128.462 119.115 128.931C121.915 131.803 124.615 134.675 127.215 137.752C127.342 137.889 127.513 137.976 127.696 137.994C127.88 138.012 128.064 137.963 128.215 137.854C128.291 137.797 128.355 137.724 128.402 137.639C128.449 137.555 128.479 137.462 128.488 137.364C128.498 137.268 128.487 137.17 128.457 137.078C128.427 136.986 128.379 136.901 128.315 136.829C125.915 133.649 123.315 130.47 120.615 127.496C118.715 125.342 116.715 123.29 114.715 121.137C113.515 119.085 112.315 117.034 110.915 115.085C108.712 112.076 106.341 109.199 103.815 106.47C102.615 105.239 101.515 104.111 100.315 102.983C103.815 105.239 107.215 107.803 110.615 110.367L113.515 112.829C114.495 113.629 115.429 114.485 116.315 115.393L117.715 116.726L119.015 118.06L121.715 120.829C121.778 120.902 121.855 120.959 121.941 120.999C122.027 121.039 122.12 121.06 122.215 121.06C122.309 121.06 122.403 121.039 122.489 120.999C122.575 120.959 122.652 120.902 122.715 120.829C122.849 120.699 122.933 120.523 122.951 120.336C122.969 120.147 122.921 119.958 122.815 119.803L120.315 116.829C119.911 116.291 119.476 115.778 119.015 115.29L117.715 113.854C116.815 112.931 115.915 111.906 115.015 110.983L112.215 108.213C108.456 104.612 104.481 101.256 100.315 98.1622C97.9149 96.4186 95.5149 94.675 93.1149 93.034C94.5149 93.6494 95.9149 94.3673 97.2149 95.0853C100.615 96.8288 104.015 98.7776 107.315 100.829C110.597 102.873 113.768 105.099 116.815 107.496L119.115 109.342L121.315 111.29C122.015 111.906 122.815 112.624 123.515 113.239L124.615 114.265L125.115 114.778L125.615 115.29L127.715 117.444C128.415 118.162 129.015 118.88 129.715 119.598L130.715 120.726C131.015 121.137 131.315 121.444 131.615 121.854L133.415 124.111C133.542 124.248 133.713 124.334 133.896 124.353C134.08 124.371 134.264 124.322 134.415 124.213C134.492 124.157 134.557 124.084 134.605 123.999C134.653 123.915 134.682 123.821 134.692 123.724C134.701 123.627 134.69 123.528 134.66 123.436C134.629 123.344 134.58 123.26 134.515 123.188L133.215 121.239L132.315 120.008L131.415 118.778C130.815 118.06 130.215 117.239 129.515 116.419L127.515 114.162L127.015 113.547L126.515 113.034L125.515 112.008L123.415 109.854L121.215 107.803L119.015 105.854C116.915 104.008 114.815 102.265 112.615 100.624C113.515 101.239 114.515 101.854 115.415 102.572C119.321 105.252 122.94 108.347 126.215 111.803C126.342 111.941 126.513 112.027 126.696 112.045C126.88 112.064 127.064 112.014 127.215 111.906C127.291 111.848 127.355 111.776 127.402 111.69C127.449 111.606 127.479 111.513 127.488 111.416C127.498 111.319 127.487 111.222 127.457 111.129C127.427 111.037 127.379 110.952 127.315 110.88C124.267 106.985 120.813 103.442 117.015 100.316C115.915 99.3929 114.715 98.3673 113.515 97.4442C115.815 98.8801 118.115 100.521 120.315 102.162C120.466 102.271 120.65 102.32 120.834 102.302C121.017 102.283 121.188 102.197 121.315 102.06C121.386 101.995 121.442 101.916 121.481 101.828C121.52 101.74 121.54 101.644 121.54 101.547C121.54 101.45 121.52 101.354 121.481 101.266C121.442 101.177 121.386 101.098 121.315 101.034C117.717 97.6474 113.836 94.5928 109.715 91.9058C105.58 89.1527 101.232 86.7515 96.7149 84.7263C95.9332 84.3409 95.1321 83.9986 94.3149 83.7006C95.9149 84.1109 97.5149 84.6237 99.2149 85.1365L102.115 86.0596L105.015 87.0852C105.715 87.3929 106.515 87.7006 107.215 88.0083C107.815 88.5211 108.515 88.9314 109.115 89.4442C112.556 92.135 115.798 95.0832 118.815 98.2647C119.6 99.0354 120.334 99.8577 121.015 100.726C121.768 101.534 122.47 102.39 123.115 103.29C124.502 104.999 125.804 106.78 127.015 108.624C127.061 108.698 127.121 108.762 127.191 108.812C127.261 108.863 127.34 108.899 127.423 108.918C127.507 108.937 127.593 108.939 127.678 108.923C127.762 108.908 127.843 108.876 127.915 108.829C128.08 108.726 128.202 108.565 128.258 108.376C128.313 108.186 128.298 107.982 128.215 107.803C127.115 105.854 126.015 103.803 124.715 101.957C124.115 101.034 123.415 100.111 122.815 99.0853C122.115 98.1622 121.515 97.2391 120.715 96.316C119.915 95.2904 119.115 94.3673 118.315 93.4442C118.415 93.4442 118.515 93.5468 118.615 93.5468L121.315 95.0853C122.515 95.8032 123.815 96.6237 125.015 97.4442C125.815 99.0853 126.515 100.726 127.215 102.367C127.292 102.535 127.425 102.67 127.59 102.745C127.756 102.821 127.942 102.832 128.115 102.778C128.206 102.753 128.291 102.708 128.363 102.644C128.435 102.582 128.493 102.503 128.531 102.414C128.569 102.326 128.588 102.23 128.585 102.133C128.582 102.036 128.558 101.941 128.515 101.854C128.215 101.034 127.915 100.213 127.615 99.2904C132.234 102.588 136.643 106.185 140.815 110.06C140.948 110.196 141.127 110.272 141.315 110.272C141.502 110.272 141.682 110.196 141.815 110.06C141.948 109.923 142.022 109.74 142.022 109.547C142.022 109.354 141.948 109.17 141.815 109.034C136.905 103.866 131.55 99.1626 125.815 94.9827C125.669 94.6308 125.502 94.2883 125.315 93.957C124.691 92.6493 123.99 91.3819 123.215 90.1622C123.035 89.8976 122.868 89.6237 122.715 89.3417C128.665 93.0338 134.286 97.2551 139.515 101.957C139.653 102.081 139.831 102.149 140.015 102.149C140.199 102.149 140.376 102.081 140.515 101.957C140.586 101.893 140.642 101.814 140.681 101.725C140.72 101.637 140.74 101.541 140.74 101.444C140.74 101.347 140.72 101.251 140.681 101.163C140.642 101.075 140.586 100.996 140.515 100.931C134.94 95.3832 128.882 90.3708 122.415 85.957C122.039 85.6485 121.637 85.374 121.215 85.1365L120.715 84.8288C121.462 85.0214 122.197 85.2611 122.915 85.5468C125.415 86.4699 127.915 87.3929 130.415 88.5211C130.577 88.5741 130.752 88.5728 130.914 88.5174C131.075 88.4622 131.216 88.3558 131.315 88.2135C131.398 88.0348 131.413 87.8309 131.358 87.6413C131.302 87.4517 131.18 87.2901 131.015 87.1878C128.617 85.8467 126.147 84.6481 123.615 83.5981C121.115 82.5724 118.615 81.4442 116.015 80.6237L115.115 80.316C113.14 78.4082 110.998 76.6916 108.715 75.1878C107.515 74.3673 106.315 73.5468 105.015 72.8288C105.069 72.822 105.124 72.8275 105.176 72.8452C105.228 72.863 105.276 72.8924 105.315 72.9314C114.116 75.36 122.394 79.4657 129.715 85.034L132.415 87.1878L133.715 88.316L134.415 88.9314L135.015 89.5468C136.715 91.0853 138.315 92.7263 139.915 94.4699C142.996 97.9546 145.837 101.656 148.415 105.547C148.526 105.704 148.69 105.812 148.876 105.85C149.061 105.888 149.254 105.853 149.415 105.752C149.556 105.629 149.66 105.467 149.713 105.284C149.766 105.103 149.767 104.909 149.715 104.726C147.313 100.563 144.57 96.6171 141.515 92.9314C140.015 91.0853 138.415 89.3417 136.715 87.5981L136.115 86.9827L135.515 86.3673L134.215 85.1365C133.315 84.316 132.415 83.4955 131.515 82.7776C125.757 77.9451 119.317 74.0373 112.415 71.1878C112.515 71.1878 112.515 71.1878 112.615 71.2904C115.299 72.0941 117.937 73.0528 120.515 74.1622C123.115 75.2904 125.615 76.5211 128.015 77.8545C130.436 79.2709 132.743 80.8829 134.915 82.675C137.083 84.4719 139.09 86.4627 140.915 88.6237C141.042 88.761 141.213 88.8469 141.396 88.8658C141.58 88.8845 141.764 88.8351 141.915 88.7263C141.991 88.6688 142.055 88.5956 142.102 88.5112C142.149 88.4268 142.179 88.3331 142.188 88.2363C142.198 88.1396 142.187 88.0419 142.157 87.9496C142.127 87.8573 142.079 87.7724 142.015 87.7006C140.242 85.3367 138.304 83.1086 136.215 81.034C134.062 79.0454 131.791 77.1956 129.415 75.4955C126.995 73.8555 124.491 72.349 121.915 70.9827C120.315 70.1622 118.815 69.4442 117.215 68.7263C119.015 69.034 120.815 69.4442 122.615 69.7519C123.515 69.957 124.515 70.1622 125.415 70.3673H125.515C129.147 72.1886 132.625 74.3156 135.915 76.7263C136.415 77.034 136.915 77.4442 137.415 77.7519C137.9 78.1028 138.368 78.4794 138.815 78.8801C139.715 79.5981 140.715 80.4186 141.615 81.2391C143.415 82.7776 145.115 84.5211 146.815 86.2647C150.149 89.8241 153.223 93.6292 156.015 97.6494C156.129 97.8019 156.294 97.9067 156.477 97.9444C156.661 97.9821 156.852 97.9502 157.015 97.8545C157.515 97.2391 157.615 96.8288 157.315 96.4186ZM44.0149 120.521C32.9149 108.316 37.0149 86.0596 38.8149 76.5211C39.0149 75.2904 39.2149 74.2647 39.3149 73.5468C39.9149 69.6493 37.5149 62.0596 34.7149 53.4442C31.5149 42.9827 27.4149 30.0596 30.3149 27.1878C30.598 26.931 30.9335 26.7424 31.2969 26.6358C31.6603 26.5293 32.0423 26.5077 32.4149 26.5724C39.0149 27.4955 51.5149 45.5468 57.6149 55.2904C57.1217 55.7873 56.7898 56.4282 56.6645 57.1257C56.5392 57.8231 56.6267 58.5432 56.9149 59.1878C56.6149 59.2904 56.3149 59.2904 56.0149 59.3929C55.4029 59.516 54.8011 59.6875 54.2149 59.9058L53.3149 60.2135C53.0149 60.316 52.7149 60.4186 52.3149 60.5211H52.2149C51.8016 60.6741 51.4228 60.9114 51.1014 61.2188C50.78 61.5262 50.5228 61.8972 50.3452 62.3095C50.1676 62.7217 50.0733 63.1666 50.0681 63.6172C50.0629 64.0679 50.1469 64.515 50.3149 64.9314C50.5915 65.7383 51.1661 66.4014 51.9149 66.7776L51.1149 66.9827C50.8016 67.0385 50.4982 67.1422 50.2149 67.2904H50.1149C49.2859 67.5853 48.6022 68.2008 48.2098 69.0058C47.8174 69.8106 47.7475 70.741 48.0149 71.5981C48.2122 72.2158 48.5833 72.7597 49.0817 73.1614C49.58 73.5629 50.1831 73.8041 50.8149 73.8545H50.5149C50.0878 73.9279 49.6791 74.0871 49.312 74.3228C48.945 74.5586 48.627 74.8663 48.3762 75.2284C48.1253 75.5905 47.9466 75.9997 47.8503 76.4328C47.754 76.8659 47.742 77.3141 47.8149 77.7519C47.9039 78.3201 48.1349 78.855 48.4854 79.3043C48.8359 79.7538 49.294 80.1023 49.8149 80.316C49.0737 80.651 48.4797 81.2555 48.1473 82.013C47.8149 82.7706 47.7678 83.6275 48.0149 84.4186C47.4327 84.6352 46.9218 85.0159 46.5411 85.5169C46.1603 86.018 45.9251 86.619 45.8624 87.251C45.7998 87.883 45.9122 88.5203 46.1868 89.0897C46.4615 89.6591 46.8871 90.1375 47.4149 90.4699L47.8149 90.7776L48.5149 91.1878C48.4148 91.6609 48.4148 92.1506 48.5149 92.6237C48.0868 93.1394 47.7971 93.7605 47.6744 94.426C47.5516 95.0914 47.6001 95.7782 47.8149 96.4186C48.0864 97.2219 48.6021 97.9145 49.2862 98.3946C49.9703 98.8747 50.7866 99.1167 51.6149 99.0853C51.6329 99.4687 51.7002 99.848 51.8149 100.213L51.9149 100.624L52.0149 100.931L52.3149 101.649C51.8502 102.164 51.5304 102.798 51.3895 103.484C51.2486 104.171 51.292 104.883 51.5149 105.547C51.6978 106.257 52.1238 106.876 52.7149 107.29C52.4147 108.117 52.4147 109.028 52.7149 109.854C52.9991 110.771 53.61 111.545 54.4256 112.02C55.2412 112.496 56.2015 112.637 57.1149 112.419C56.9147 113.226 56.9147 114.073 57.1149 114.88C57.413 115.707 57.9633 116.413 58.684 116.893C59.4046 117.373 60.2572 117.603 61.1149 117.547L62.6149 119.701C64.7949 122.632 67.167 125.407 69.7149 128.008L70.4149 128.726C58.6149 129.444 49.7149 126.675 44.0149 120.521ZM52.5149 73.5468H52.2149C52.3149 73.5468 52.4149 73.4442 52.5149 73.4442C52.4149 73.4442 52.5149 73.4442 52.5149 73.5468ZM75.5149 121.957C78.7863 125.773 82.2935 129.371 86.0149 132.726L85.6149 132.419L84.9149 131.803L83.4149 130.675C81.5149 129.137 79.6149 127.496 77.8149 125.752C76.0518 124.031 74.414 122.18 72.9149 120.213C71.4013 118.269 70.0309 116.212 68.8149 114.06C68.8149 113.957 68.7149 113.957 68.7149 113.854L70.9149 116.111C72.3149 118.06 73.9149 120.008 75.5149 121.957ZM106.915 81.034C108.415 81.6494 109.815 82.2647 111.215 82.8801L112.515 83.4955C112.915 83.7006 113.415 83.9058 113.815 84.1109L116.315 85.3417C117.331 86.2811 118.299 87.274 119.215 88.316L119.915 89.034L120.515 89.8545C120.915 90.3673 121.315 90.8801 121.715 91.4955C121.815 91.5981 121.815 91.7006 121.915 91.8032L120.315 90.7776C119.905 90.4673 119.47 90.1928 119.015 89.957L117.715 89.1365L115.015 87.5981L112.215 86.0596C112.015 85.957 111.715 85.7519 111.515 85.6494C109.707 83.8991 107.804 82.2554 105.815 80.7263C106.115 80.8288 106.515 80.9314 106.915 81.034Z" fill="#1A1A1A"/>
<path d="M40.9149 76.8287C38.1328 75.0384 35.5507 72.9404 33.2149 70.5723L31.4149 68.7262L29.8149 66.7775L29.4149 66.2646L29.0149 65.7518L28.2149 64.7262L27.4149 63.7005L26.7149 62.6749L26.0149 61.6493C25.7486 61.3323 25.514 60.9888 25.3149 60.6236L23.9149 58.3672C23.5149 57.6493 23.0149 56.8288 22.6149 56.1108C22.2149 55.3929 21.7149 54.5723 21.3149 53.7518C20.4149 52.2134 19.7149 50.5723 18.9149 49.0339C18.2149 47.3928 17.4149 45.7518 16.8149 44.1108C14.1224 37.4504 11.9163 30.5939 10.2149 23.598C9.3149 20.1108 8.5149 16.5211 7.8149 12.9313C7.7149 12.6236 7.7149 12.2134 7.6149 11.9057C8.67573 9.45937 9.12264 6.77963 8.9149 4.11078C8.81358 3.29352 8.45673 2.53196 7.89784 1.94024C7.33894 1.34853 6.60811 0.958538 5.8149 0.828735C5.07926 0.838828 4.35537 1.01935 3.69733 1.3568C3.0393 1.69425 2.46416 2.17991 2.0149 2.77745C1.17707 3.59496 0.557374 4.61896 0.214901 5.75181C-0.0116279 6.60516 -0.048361 7.4998 0.107414 8.36966C0.26319 9.23951 0.607495 10.0624 1.1149 10.7775C2.01789 11.9136 3.23985 12.7372 4.6149 13.1364V13.4441C5.0149 17.1364 5.6149 20.8288 6.2149 24.5211C7.49714 31.8841 9.26793 39.1489 11.5149 46.2646C12.1149 48.1108 12.7149 49.8544 13.3149 51.598C14.0149 53.3416 14.6149 55.0852 15.4149 56.8288C15.7542 57.7119 16.1553 58.5689 16.6149 59.3929C17.0149 60.2134 17.4149 61.1364 17.8149 61.957L19.1149 64.5211C19.3104 64.9528 19.5447 65.3648 19.8149 65.7518L20.5149 66.9826L21.2149 68.2134L22.0149 69.4441L22.8149 70.6749L23.2149 71.2903L23.6149 71.9057L25.3149 74.2646L27.2149 76.5211C29.762 79.5583 32.6485 82.2779 35.8149 84.6236C35.9149 84.7262 36.0149 84.7262 36.1149 84.8288C36.6182 85.1535 37.1798 85.3714 37.7667 85.4699C38.3535 85.5682 38.9536 85.5451 39.5315 85.4017C40.1094 85.2582 40.6535 84.9976 41.1315 84.6349C41.6096 84.2722 42.012 83.815 42.3149 83.2903C42.6424 82.7735 42.8661 82.195 42.9731 81.5884C43.08 80.982 43.0679 80.3597 42.9375 79.7581C42.8072 79.1564 42.5611 78.5874 42.2139 78.0844C41.8666 77.5815 41.425 77.1546 40.9149 76.8287Z" fill="#1A1A1A"/>
<path d="M54.9148 47.1875C55.0148 48.3158 55.0148 49.444 55.1148 50.5722C55.4116 50.6862 55.6595 50.9042 55.8148 51.1876C57.9148 54.4696 60.7148 57.3414 63.0148 60.5209C62.9148 58.5722 62.8148 56.6234 62.6148 54.6747C62.3148 51.8029 61.9148 49.0337 61.4148 46.2645C60.9148 43.4952 60.3148 40.726 59.6148 37.9568C58.3231 32.4955 56.6179 27.146 54.5148 21.9568C53.5148 19.3927 52.4148 16.8286 51.2148 14.2645C50.7148 13.1363 50.1148 12.0081 49.6148 10.8799C50.5919 8.48214 51.0031 5.88164 50.8148 3.29011C50.7135 2.47285 50.3566 1.71128 49.7977 1.11957C49.2388 0.527848 48.508 0.137859 47.7148 0.00805664C46.9792 0.0181487 46.2553 0.198669 45.5972 0.536123C44.9392 0.873576 44.3641 1.35923 43.9148 1.95678C43.077 2.77428 42.4573 3.79828 42.1148 4.93114C41.8883 5.78448 41.8515 6.67912 42.0073 7.54897C42.1631 8.41883 42.5074 9.24169 43.0148 9.95678C44.0117 11.2994 45.4852 12.1842 47.1148 12.4183C47.5148 13.444 47.9148 14.4696 48.3148 15.5978C49.2148 18.1619 50.0148 20.726 50.7148 23.2901C52.1584 28.4733 53.2609 33.7502 54.0148 39.085C54.4148 41.8542 54.7148 44.5209 54.9148 47.1875Z" fill="#1A1A1A"/>
</svg>