
<svg width="159" height="84" viewBox="0 0 159 84" fill="none" xmlns="http://www.w3.org/2000/svg">
<path d="M132.831 82.3742L132.867 82.3372C132.907 82.27 132.932 82.1939 132.939 82.1155V82.0416C132.941 82.0217 132.939 82.0013 132.933 81.9821C132.927 81.9629 132.917 81.9452 132.903 81.9308L126.969 65.1921C126.96 65.1367 126.935 65.085 126.897 65.0443C126.729 64.6992 126.434 64.4365 126.078 64.3138C125.722 64.1908 125.333 64.2177 124.996 64.3884C124.659 64.5592 124.401 64.8599 124.279 65.225C124.157 65.5901 124.18 65.9903 124.344 66.3376L131.572 81.3026C131.088 81.1932 130.593 81.1434 130.098 81.1548C128.552 81.1548 127.329 81.5982 127.329 82.1155C127.329 82.6328 128.588 83.0762 130.098 83.0762C131.321 83.0762 132.328 82.8176 132.687 82.4481C132.795 82.4111 132.795 82.3742 132.831 82.3742Z" fill="#1A1A1A"/>
<path d="M124.128 44.4996C124.128 44.4996 115.82 30.4583 113.015 33.2296C110.858 35.3728 116.54 47.0492 116.072 50.2269C115.641 53.3677 110.354 72.8777 129.522 70.4759" fill="white"/>
<path d="M117.942 49.7835C117.87 52.7026 115.281 69.6999 129.235 68.9979L124.164 44.4996C124.164 44.4996 115.857 30.4583 113.052 33.2296C111.11 35.6314 118.014 46.5688 117.942 49.7835Z" fill="#FECE2F"/>
<path d="M125.279 83.261C125.319 83.1937 125.344 83.1176 125.351 83.0393V82.8915L120.712 66.042C120.712 66.005 120.676 65.9311 120.676 65.8942C120.538 65.5365 120.267 65.2497 119.923 65.0975C119.579 64.9449 119.19 64.939 118.842 65.0812C118.494 65.2235 118.215 65.5017 118.067 65.855C117.918 66.2086 117.913 66.608 118.051 66.9657L124.093 82.2263C123.585 82.1151 123.066 82.0656 122.546 82.0785C121 82.0785 119.777 82.5219 119.777 83.0393C119.777 83.5566 121.036 84 122.546 84C123.733 84 124.74 83.7413 125.136 83.3718C125.207 83.3718 125.243 83.2979 125.279 83.261V83.261Z" fill="#1A1A1A"/>
<path d="M114.079 34.1844C114.731 33.3615 114.511 32.0676 113.587 31.2945C112.663 30.5213 111.385 30.5616 110.733 31.3845C110.081 32.2074 110.301 33.5012 111.225 34.2744C112.149 35.0475 113.427 35.0072 114.079 34.1844Z" fill="#1A1A1A"/>
<path d="M117.511 42.5783C118.087 42.5783 118.554 42.0986 118.554 41.5067C118.554 40.9149 118.087 40.4352 117.511 40.4352C116.935 40.4352 116.468 40.9149 116.468 41.5067C116.468 42.0986 116.935 42.5783 117.511 42.5783Z" fill="#1A1A1A"/>
<path d="M158.939 58.5779C157.977 57.0583 156.907 55.6133 155.739 54.2547C155.163 53.5896 154.516 52.9245 153.869 52.2963C153.545 51.9638 153.221 51.7051 152.862 51.3726C152.702 51.2157 152.533 51.0677 152.358 50.9291L151.819 50.4857C151.603 50.301 151.351 50.1162 151.1 49.9315C152.862 50.4118 154.552 51.003 156.278 51.6312C156.34 51.6553 156.409 51.6534 156.47 51.6257C156.53 51.598 156.578 51.5469 156.602 51.4834C156.625 51.4143 156.624 51.3389 156.597 51.2709C156.571 51.203 156.521 51.1472 156.458 51.1139C153.911 50.0054 151.305 49.0432 148.654 48.2317C148.586 48.2016 148.512 48.189 148.438 48.1948C146.509 47.0557 144.457 46.1505 142.325 45.4974C140.608 44.959 138.853 44.5636 137.074 44.315H137.47C138.225 44.3519 138.944 44.4258 139.7 44.5367L140.239 44.6106C140.419 44.6475 140.599 44.6475 140.778 44.6845L141.893 44.9062L142.433 45.017L142.972 45.1279L144.087 45.3865C144.267 45.4235 144.447 45.4974 144.626 45.5343L145.166 45.6822L146.245 46.0147C146.307 46.0266 146.371 46.0188 146.429 45.9924C146.487 45.966 146.535 45.9223 146.568 45.8669C146.604 45.7191 146.568 45.5713 146.425 45.5343L145.346 45.0909L144.806 44.8692L144.267 44.6475L143.188 44.278L142.649 44.0933C142.469 44.0563 142.289 43.9824 142.109 43.9455L141.246 43.6868C141.572 43.718 141.896 43.7673 142.217 43.8346C144.245 44.1627 146.25 44.6193 148.223 45.2018C148.285 45.2173 148.35 45.2113 148.409 45.1845C148.468 45.1578 148.516 45.1119 148.546 45.054C148.582 44.9062 148.546 44.7584 148.402 44.7214C146.452 43.9774 144.459 43.3604 142.433 42.8739C140.387 42.3861 138.306 42.0649 136.211 41.9132C134.091 41.753 131.962 41.7778 129.846 41.9871C128.784 42.0929 127.728 42.2532 126.681 42.4674C126.142 42.5783 125.638 42.6891 125.099 42.8369C124.847 42.9109 124.559 42.9848 124.308 43.0587C124.171 43.0914 124.038 43.1411 123.912 43.2065L123.768 43.2434C123.085 42.1718 121.934 40.3613 120.64 38.5507C117.799 34.6709 115.605 32.6016 114.059 32.4169C113.793 32.3792 113.524 32.4027 113.268 32.4858C113.013 32.5689 112.78 32.7095 112.584 32.8972C111.11 34.3383 112.476 38.6985 113.915 43.2804C114.778 46.0517 115.677 48.9338 115.497 50.1532C115.461 50.4118 115.389 50.7444 115.317 51.1878C114.67 54.7351 113.123 63.0859 117.439 67.8156C119.453 69.9957 122.438 71.1042 126.358 71.1042C127.041 71.1042 127.796 71.0673 128.515 70.9934C129.077 71.5288 129.665 72.0346 130.277 72.5083C132.325 74.1282 134.575 75.4581 136.966 76.4621C139.333 77.4483 141.809 78.1311 144.339 78.4943C144.405 78.4995 144.47 78.4796 144.523 78.4389C144.576 78.3983 144.613 78.3391 144.626 78.2726C144.639 78.1991 144.624 78.1237 144.584 78.0616C144.544 77.9996 144.482 77.956 144.411 77.9401C141.978 77.425 139.612 76.6191 137.362 75.5383C135.767 74.7409 134.249 73.7879 132.831 72.6931L133.298 72.9517C133.514 73.0626 133.73 73.1734 133.91 73.2843C135.043 73.8581 136.208 74.364 137.398 74.7993C137.486 74.8403 137.57 74.8898 137.65 74.9471C138.698 75.5723 139.779 76.1395 140.886 76.6468C140.945 76.666 141.008 76.6653 141.066 76.6453C141.124 76.6257 141.174 76.5873 141.21 76.536C141.24 76.4717 141.245 76.3981 141.226 76.3298C141.205 76.2614 141.161 76.2034 141.102 76.1664C140.527 75.8339 139.915 75.5013 139.34 75.1688C139.352 75.1049 139.344 75.0391 139.318 74.9796C139.293 74.9201 139.25 74.8702 139.196 74.8362C138.872 74.7254 138.549 74.5776 138.225 74.4298C138.151 74.4021 138.088 74.3503 138.045 74.282C137.794 74.1342 137.578 73.9125 137.326 73.7647L136.966 73.506C136.862 73.3996 136.74 73.312 136.607 73.2473C136.391 73.0626 136.139 72.8778 135.924 72.6931L135.24 72.1019C134.881 71.7693 134.557 71.4737 134.233 71.1412C134.348 71.2232 134.468 71.2971 134.593 71.3629C134.845 71.5476 135.132 71.7324 135.42 71.9171C137.612 73.3419 139.909 74.5898 142.289 75.6491C142.347 75.668 142.41 75.6676 142.468 75.6477C142.526 75.6277 142.577 75.5896 142.613 75.5383C142.642 75.474 142.648 75.4005 142.628 75.3321C142.608 75.2637 142.564 75.2057 142.505 75.1688C140.222 73.9793 138.034 72.6077 135.96 71.0673C135.708 70.8825 135.456 70.6977 135.204 70.476C134.953 70.2913 134.701 70.1065 134.449 69.8848C133.946 69.4784 133.442 69.0719 132.975 68.6285C132.004 67.7786 131.069 66.8918 130.17 65.9681C129.81 65.5986 129.45 65.1921 129.127 64.8226C129.091 64.7487 129.019 64.6748 128.983 64.6009C129.738 65.3769 130.529 66.1159 131.32 66.8549C131.968 67.4461 132.615 68.0004 133.298 68.5546C133.982 69.1089 134.665 69.6262 135.384 70.1065C136.103 70.5869 136.823 71.0673 137.578 71.4737C138.332 71.9075 139.113 72.29 139.915 72.6192C139.974 72.6384 140.037 72.6377 140.095 72.6177C140.153 72.5981 140.203 72.5597 140.239 72.5083C140.269 72.444 140.274 72.3705 140.255 72.3021C140.234 72.2338 140.191 72.1758 140.131 72.1388C139.376 71.7324 138.693 71.289 138.009 70.8456C137.326 70.3652 136.643 69.8479 135.995 69.3306C135.924 69.2567 135.816 69.1828 135.744 69.1089L135.96 69.2567C136.211 69.4045 136.427 69.5523 136.679 69.7001L138.153 70.5499C138.621 70.8455 139.124 71.1042 139.628 71.3629L140.383 71.7693C140.627 71.9075 140.88 72.0309 141.138 72.1388L142.649 72.9148C142.756 72.9887 142.9 72.9148 143.008 72.8039C143.026 72.7725 143.037 72.7382 143.041 72.7019C143.046 72.6661 143.042 72.6299 143.032 72.5952C143.022 72.5604 143.005 72.5283 142.983 72.5006C142.96 72.4729 142.932 72.4503 142.9 72.4344L141.462 71.5476C141.21 71.3998 140.994 71.252 140.743 71.1042L140.059 70.6608C139.592 70.3652 139.124 70.0696 138.657 69.737L137.29 68.7763C137.074 68.6285 136.823 68.4438 136.607 68.296L135.924 67.8156C135.456 67.483 135.024 67.1505 134.557 66.8179L133.226 65.8203L131.896 64.7856C131.5 64.4531 131.105 64.1575 130.709 63.8249C130.637 63.751 130.565 63.6402 130.493 63.5663C130.529 63.6032 130.601 63.6402 130.637 63.6771C132.507 64.9334 134.341 66.1898 136.139 67.4461C137.973 68.7394 139.772 70.0326 141.498 71.4368C141.552 71.4759 141.618 71.4937 141.684 71.487C141.75 71.4804 141.812 71.4493 141.857 71.3998C141.883 71.3765 141.903 71.3481 141.917 71.3163C141.931 71.2845 141.938 71.2502 141.938 71.2151C141.938 71.18 141.931 71.1456 141.917 71.1138C141.903 71.082 141.883 71.0536 141.857 71.0303C141.21 70.4391 140.563 69.8479 139.879 69.2936C139.987 69.2936 140.059 69.2936 140.131 69.1828C140.155 69.1595 140.171 69.1296 140.178 69.0963C140.184 69.0631 140.18 69.0287 140.167 68.998C140.635 69.4414 141.102 69.8848 141.534 70.3282C143.36 72.1676 145.077 74.1172 146.676 76.1664C146.696 76.1949 146.722 76.2189 146.751 76.2367C146.781 76.2544 146.814 76.2651 146.848 76.2688C146.882 76.2721 146.917 76.2681 146.949 76.257C146.981 76.2455 147.011 76.2274 147.036 76.2034C147.09 76.1613 147.126 76.1003 147.139 76.0327C147.152 75.9647 147.141 75.8941 147.108 75.8339C145.62 73.6601 143.999 71.5868 142.253 69.6262C140.599 67.7786 138.908 66.042 137.11 64.3053C137.326 64.49 137.542 64.6378 137.722 64.8226C139.307 66.1391 140.82 67.5455 142.253 69.035C142.276 69.0612 142.303 69.0819 142.334 69.0963C142.365 69.1107 142.399 69.1181 142.433 69.1181C142.467 69.1181 142.5 69.1107 142.531 69.0963C142.562 69.0819 142.59 69.0612 142.613 69.035C142.661 68.988 142.691 68.9249 142.697 68.8572C142.704 68.7892 142.687 68.7213 142.649 68.6655C141.636 67.4091 140.556 66.2127 139.412 65.0812C140.311 65.8203 141.21 66.5593 142.109 67.3352C142.469 67.6678 142.792 67.9634 143.152 68.296C143.329 68.5664 143.485 68.8506 143.62 69.1458C144.226 70.292 144.731 71.4914 145.13 72.73C145.149 72.7988 145.194 72.8568 145.254 72.8911C145.315 72.9259 145.387 72.9344 145.454 72.9148C145.52 72.8952 145.577 72.849 145.61 72.7869C145.644 72.7245 145.652 72.651 145.633 72.5822C145.382 71.6426 145.082 70.7173 144.734 69.8109C144.899 69.9617 145.055 70.1221 145.202 70.2913C146.209 71.3259 147.18 72.3605 148.115 73.469C148.16 73.5186 148.222 73.5496 148.288 73.5563C148.354 73.5629 148.42 73.5452 148.474 73.506C148.502 73.4853 148.525 73.4591 148.542 73.4284C148.559 73.3981 148.569 73.3645 148.573 73.3294C148.576 73.2946 148.572 73.2595 148.561 73.2263C148.551 73.193 148.533 73.1624 148.51 73.1365C147.647 71.991 146.712 70.8455 145.741 69.774C145.058 68.998 144.339 68.259 143.62 67.483C143.188 66.744 142.756 66.005 142.253 65.303C141.461 64.2188 140.608 63.1824 139.7 62.1991C139.268 61.7557 138.872 61.3492 138.441 60.9428C139.7 61.7557 140.922 62.6795 142.145 63.6032L143.188 64.49C143.54 64.7783 143.876 65.0868 144.195 65.4138L144.698 65.8942L145.166 66.3745L146.137 67.3722C146.16 67.3984 146.187 67.4191 146.218 67.4335C146.249 67.4479 146.283 67.4553 146.317 67.4553C146.35 67.4553 146.384 67.4479 146.415 67.4335C146.446 67.4191 146.474 67.3984 146.496 67.3722C146.545 67.3253 146.575 67.2621 146.581 67.1945C146.588 67.1265 146.571 67.0585 146.532 67.0027L145.633 65.9311C145.488 65.7375 145.332 65.5524 145.166 65.3769L144.698 64.8595C144.375 64.527 144.051 64.1575 143.727 63.8249L142.72 62.8273C141.369 61.5299 139.939 60.3207 138.441 59.2061C137.578 58.5779 136.715 57.9498 135.852 57.3586C136.355 57.5803 136.859 57.8389 137.326 58.0976C138.549 58.7257 139.772 59.4278 140.958 60.1668C142.139 60.9032 143.279 61.7051 144.375 62.5686L145.202 63.2337L145.993 63.9358C146.245 64.1575 146.532 64.4161 146.784 64.6378L147.18 65.0073L147.36 65.1921L147.539 65.3769L148.295 66.1528C148.546 66.4115 148.762 66.6701 149.014 66.9288L149.373 67.3352C149.481 67.483 149.589 67.5939 149.697 67.7417L150.344 68.5546C150.39 68.6041 150.452 68.6352 150.517 68.6418C150.584 68.6485 150.65 68.6307 150.704 68.5916C150.732 68.5712 150.755 68.545 150.772 68.5143C150.79 68.484 150.8 68.45 150.804 68.4153C150.807 68.3802 150.803 68.3447 150.792 68.3115C150.781 68.2782 150.763 68.2479 150.74 68.2221L150.273 67.52L149.949 67.0766L149.625 66.6332C149.409 66.3745 149.194 66.0789 148.942 65.7833L148.223 64.9704L148.043 64.7487L147.863 64.5639L147.503 64.1944L146.748 63.4185L145.957 62.6795L145.166 61.9774C144.411 61.3123 143.655 60.6841 142.864 60.0929C143.188 60.3146 143.548 60.5363 143.871 60.795C145.276 61.7605 146.577 62.8753 147.755 64.1205C147.801 64.17 147.862 64.2011 147.928 64.2077C147.994 64.2144 148.06 64.1966 148.115 64.1575C148.142 64.1368 148.165 64.1106 148.182 64.0799C148.199 64.0496 148.21 64.016 148.213 63.9809C148.217 63.9461 148.213 63.911 148.202 63.8778C148.191 63.8445 148.174 63.8138 148.151 63.788C147.055 62.3846 145.812 61.1083 144.447 59.9821C144.051 59.6495 143.62 59.28 143.188 58.9474C144.015 59.4647 144.842 60.056 145.633 60.6472C145.688 60.6864 145.754 60.7042 145.82 60.6974C145.886 60.6906 145.947 60.6597 145.993 60.6102C146.019 60.5871 146.039 60.5586 146.053 60.5268C146.067 60.4949 146.074 60.4604 146.074 60.4255C146.074 60.3905 146.067 60.356 146.053 60.3242C146.039 60.2923 146.019 60.2639 145.993 60.2407C144.699 59.0206 143.303 57.9202 141.821 56.9521C140.334 55.9603 138.771 55.0952 137.146 54.3656C136.865 54.2267 136.577 54.1034 136.283 53.996C136.859 54.1439 137.434 54.3286 138.045 54.5134L139.088 54.8459L140.131 55.2154C140.383 55.3263 140.671 55.4371 140.922 55.548C141.138 55.7327 141.39 55.8805 141.606 56.0653C142.843 57.0347 144.009 58.0968 145.094 59.243C145.376 59.5207 145.64 59.8169 145.885 60.1299C146.156 60.4207 146.408 60.7293 146.64 61.0536C147.139 61.6692 147.607 62.3107 148.043 62.9751C148.059 63.0017 148.081 63.0249 148.106 63.0431C148.131 63.0612 148.16 63.0741 148.19 63.0811C148.22 63.0878 148.251 63.0885 148.281 63.083C148.312 63.0774 148.341 63.066 148.367 63.049C148.426 63.012 148.47 62.954 148.49 62.8856C148.51 62.8173 148.504 62.7437 148.474 62.6795C148.079 61.9774 147.683 61.2384 147.216 60.5733C147 60.2407 146.748 59.9082 146.532 59.5386C146.281 59.2061 146.065 58.8735 145.777 58.541C145.49 58.1715 145.202 57.8389 144.914 57.5064C144.95 57.5064 144.986 57.5433 145.022 57.5433L145.993 58.0976C146.425 58.3562 146.892 58.6518 147.324 58.9474C147.611 59.5386 147.863 60.1299 148.115 60.7211C148.142 60.7816 148.19 60.8301 148.25 60.857C148.309 60.8844 148.376 60.8885 148.438 60.8689C148.471 60.86 148.502 60.8437 148.528 60.8208C148.554 60.7983 148.574 60.77 148.588 60.7381C148.602 60.7061 148.609 60.6714 148.607 60.6365C148.606 60.6016 148.598 60.5674 148.582 60.5363C148.474 60.2407 148.367 59.9451 148.259 59.6125C149.92 60.8005 151.505 62.0964 153.006 63.4924C153.053 63.5415 153.118 63.5689 153.185 63.5689C153.253 63.5689 153.317 63.5415 153.365 63.4924C153.413 63.4432 153.44 63.3771 153.44 63.3076C153.44 63.2381 153.413 63.172 153.365 63.1229C151.6 61.2609 149.674 59.5665 147.611 58.0606C147.559 57.9338 147.499 57.8105 147.432 57.6911C147.207 57.22 146.955 56.7634 146.676 56.3239C146.612 56.2286 146.552 56.1299 146.496 56.0283C148.636 57.3585 150.658 58.8793 152.538 60.5733C152.588 60.618 152.652 60.6426 152.718 60.6426C152.784 60.6426 152.848 60.618 152.898 60.5733C152.923 60.5501 152.943 60.5217 152.957 60.4898C152.971 60.458 152.979 60.4234 152.979 60.3885C152.979 60.3536 152.971 60.319 152.957 60.2872C152.943 60.2554 152.923 60.2269 152.898 60.2038C150.893 58.2049 148.714 56.3991 146.389 54.809C146.253 54.6978 146.109 54.5989 145.957 54.5134L145.777 54.4025C146.046 54.4719 146.31 54.5583 146.568 54.6612C147.467 54.9937 148.367 55.3263 149.266 55.7327C149.324 55.7518 149.387 55.7514 149.445 55.7314C149.503 55.7115 149.554 55.6732 149.589 55.6219C149.619 55.5575 149.624 55.4841 149.605 55.4157C149.585 55.3474 149.541 55.2892 149.481 55.2524C148.619 54.7692 147.731 54.3374 146.82 53.9591C145.921 53.5896 145.022 53.1831 144.087 52.8875L143.763 52.7767C143.053 52.0894 142.283 51.4709 141.462 50.9291C141.03 50.6335 140.599 50.3379 140.131 50.0793C140.151 50.0768 140.17 50.0788 140.189 50.0852C140.208 50.0916 140.225 50.1022 140.239 50.1162C143.404 50.9912 146.381 52.4703 149.014 54.4764L149.985 55.2524L150.452 55.6588L150.704 55.8805L150.92 56.1022C151.531 56.6565 152.107 57.2477 152.682 57.8759C153.79 59.1313 154.812 60.4648 155.739 61.8665C155.779 61.9231 155.838 61.9622 155.905 61.9759C155.971 61.9896 156.041 61.977 156.098 61.9404C156.149 61.8961 156.187 61.8377 156.206 61.7719C156.225 61.7065 156.225 61.6367 156.206 61.5709C155.342 60.071 154.356 58.6494 153.257 57.3216C152.718 56.6565 152.143 56.0283 151.531 55.4002L151.315 55.1785L151.1 54.9568L150.632 54.5134C150.308 54.2178 149.985 53.9221 149.661 53.6635C147.59 51.9225 145.274 50.5147 142.792 49.4881C142.828 49.4881 142.828 49.4881 142.864 49.525C143.83 49.8146 144.778 50.16 145.705 50.5596C146.64 50.9661 147.539 51.4095 148.402 51.8899C149.273 52.4001 150.103 52.9809 150.884 53.6265C151.664 54.2739 152.385 54.9911 153.042 55.7697C153.087 55.8192 153.149 55.8501 153.215 55.8569C153.281 55.8636 153.347 55.8458 153.401 55.8066C153.429 55.7859 153.452 55.7596 153.468 55.7291C153.485 55.6987 153.496 55.665 153.499 55.6301C153.503 55.5953 153.499 55.5601 153.488 55.5268C153.477 55.4935 153.46 55.463 153.437 55.4371C152.8 54.5855 152.103 53.7828 151.351 53.0353C150.577 52.3189 149.76 51.6525 148.906 51.04C148.036 50.4492 147.135 49.9064 146.209 49.4142C145.633 49.1186 145.094 48.8599 144.519 48.6013C145.166 48.7121 145.813 48.8599 146.461 48.9708C146.784 49.0447 147.144 49.1186 147.467 49.1925H147.503C148.81 49.8486 150.06 50.6149 151.244 51.4834C151.423 51.5943 151.603 51.7421 151.783 51.8529C151.957 51.9793 152.126 52.115 152.286 52.2594C152.61 52.518 152.97 52.8136 153.293 53.1092C153.941 53.6635 154.552 54.2917 155.163 54.9198C156.362 56.2022 157.468 57.573 158.472 59.0213C158.513 59.0763 158.572 59.114 158.638 59.1276C158.704 59.1412 158.773 59.1297 158.832 59.0952C159.011 58.8735 159.047 58.7257 158.939 58.5779V58.5779ZM118.194 67.2613C114.202 62.8642 115.677 54.8459 116.324 51.4095C116.396 50.9661 116.468 50.5966 116.504 50.3379C116.72 48.9338 115.857 46.1995 114.85 43.0956C113.699 39.3266 112.224 34.6709 113.267 33.6362C113.369 33.5437 113.49 33.4758 113.62 33.4374C113.751 33.399 113.889 33.3912 114.023 33.4145C116.396 33.7471 120.891 40.2504 123.085 43.7607C122.908 43.9397 122.788 44.1706 122.743 44.4219C122.698 44.6732 122.73 44.9326 122.833 45.1648C122.725 45.2018 122.618 45.2018 122.51 45.2387C122.29 45.2831 122.073 45.3449 121.862 45.4235L121.539 45.5343C121.431 45.5713 121.323 45.6082 121.179 45.6452H121.143C120.994 45.7003 120.858 45.7858 120.743 45.8965C120.627 46.0073 120.535 46.141 120.471 46.2895C120.407 46.438 120.373 46.5983 120.371 46.7606C120.369 46.923 120.399 47.0841 120.46 47.2341C120.559 47.5248 120.766 47.7637 121.035 47.8992L120.747 47.9731C120.635 47.9932 120.526 48.0305 120.424 48.0839H120.388C120.09 48.1902 119.844 48.412 119.703 48.7019C119.562 48.9919 119.536 49.3271 119.633 49.6359C119.704 49.8584 119.837 50.0544 120.016 50.1991C120.195 50.3437 120.412 50.4306 120.64 50.4488H120.532C120.378 50.4752 120.231 50.5326 120.099 50.6175C119.967 50.7025 119.853 50.8133 119.763 50.9438C119.672 51.0742 119.608 51.2216 119.573 51.3777C119.539 51.5337 119.535 51.6952 119.561 51.8529C119.593 52.0576 119.676 52.2503 119.802 52.4122C119.928 52.5741 120.093 52.6997 120.28 52.7767C120.013 52.8974 119.8 53.1151 119.68 53.3881C119.561 53.661 119.544 53.9697 119.633 54.2547C119.423 54.3327 119.24 54.4699 119.103 54.6504C118.966 54.8309 118.881 55.0474 118.859 55.2751C118.836 55.5028 118.876 55.7324 118.975 55.9375C119.074 56.1427 119.227 56.315 119.417 56.4348L119.561 56.5456L119.812 56.6934C119.776 56.8639 119.776 57.0403 119.812 57.2108C119.659 57.3965 119.554 57.6203 119.51 57.8601C119.466 58.0998 119.483 58.3472 119.561 58.5779C119.658 58.8673 119.844 59.1169 120.09 59.2898C120.336 59.4628 120.629 59.55 120.927 59.5386C120.934 59.6768 120.958 59.8135 120.999 59.9451L121.035 60.0929L121.071 60.2038L121.179 60.4624C121.012 60.6478 120.897 60.8763 120.846 61.1235C120.796 61.371 120.811 61.6275 120.891 61.8665C120.957 62.1222 121.11 62.3454 121.323 62.4947C121.215 62.7925 121.215 63.1206 121.323 63.4185C121.425 63.7488 121.645 64.0274 121.938 64.1985C122.231 64.3699 122.577 64.4209 122.905 64.3422C122.833 64.633 122.833 64.9382 122.905 65.2291C123.012 65.5269 123.21 65.7815 123.47 65.9544C123.729 66.1273 124.035 66.2101 124.344 66.1898L124.883 66.9657C125.667 68.0218 126.52 69.0217 127.436 69.9587L127.688 70.2174C123.445 70.476 120.244 69.4784 118.194 67.2613V67.2613ZM121.251 50.3379H121.143C121.179 50.3379 121.215 50.301 121.251 50.301C121.215 50.301 121.251 50.301 121.251 50.3379ZM129.522 67.7786C130.699 69.1536 131.96 70.4498 133.298 71.6585L133.154 71.5476L132.903 71.3259L132.363 70.9195C131.68 70.3652 130.997 69.774 130.349 69.1458C129.715 68.5258 129.126 67.8588 128.587 67.1505C128.043 66.4499 127.55 65.709 127.113 64.9334C127.113 64.8965 127.077 64.8965 127.077 64.8595L127.868 65.6725C128.371 66.3745 128.947 67.0766 129.522 67.7786V67.7786ZM140.814 53.0353C141.354 53.257 141.857 53.4787 142.361 53.7004L142.828 53.9221C142.972 53.996 143.152 54.07 143.296 54.1439L144.195 54.5873C144.56 54.9257 144.908 55.2834 145.238 55.6588L145.49 55.9175L145.705 56.2131C145.849 56.3978 145.993 56.5826 146.137 56.8043C146.173 56.8413 146.173 56.8782 146.209 56.9152L145.633 56.5456C145.486 56.4339 145.33 56.335 145.166 56.25L144.698 55.9544L143.727 55.4002L142.72 54.8459C142.649 54.809 142.541 54.7351 142.469 54.6981C141.819 54.0675 141.134 53.4754 140.419 52.9245C140.527 52.9614 140.671 52.9984 140.814 53.0353V53.0353Z" fill="#1A1A1A"/>
<path d="M117.079 51.5202C116.079 50.8752 115.15 50.1194 114.31 49.2662L113.663 48.6011L113.088 47.899L112.944 47.7143L112.8 47.5295L112.512 47.16L112.225 46.7905L111.973 46.421L111.721 46.0515C111.625 45.9373 111.541 45.8136 111.469 45.682L110.966 44.8691C110.822 44.6104 110.642 44.3148 110.498 44.0562C110.355 43.7975 110.175 43.5019 110.031 43.2063C109.707 42.6521 109.455 42.0608 109.168 41.5066C108.916 40.9154 108.628 40.3242 108.413 39.733C107.444 37.3334 106.651 34.8632 106.039 32.3428C105.715 31.0865 105.428 29.7932 105.176 28.5C105.14 28.3891 105.14 28.2413 105.104 28.1304C105.486 27.2491 105.646 26.2837 105.572 25.3222C105.535 25.0278 105.407 24.7534 105.206 24.5402C105.005 24.327 104.742 24.1865 104.457 24.1398C104.192 24.1434 103.932 24.2084 103.695 24.33C103.459 24.4516 103.252 24.6266 103.09 24.8418C102.789 25.1364 102.566 25.5053 102.443 25.9134C102.361 26.2208 102.348 26.5431 102.404 26.8565C102.46 27.1699 102.584 27.4664 102.766 27.724C103.091 28.1333 103.531 28.43 104.025 28.5739V28.6847C104.169 30.0149 104.385 31.3452 104.601 32.6754C105.062 35.3281 105.699 37.9453 106.507 40.5089C106.722 41.174 106.938 41.8022 107.154 42.4304C107.406 43.0585 107.621 43.6867 107.909 44.3148C108.031 44.633 108.175 44.9417 108.341 45.2386C108.484 45.5342 108.628 45.8668 108.772 46.1624L109.24 47.0861C109.31 47.2417 109.394 47.3901 109.491 47.5295L109.743 47.9729L109.995 48.4164L110.283 48.8598L110.57 49.3032L110.714 49.5249L110.858 49.7466L111.469 50.5964L112.153 51.4094C113.069 52.5036 114.107 53.4834 115.245 54.3285C115.281 54.3654 115.317 54.3654 115.353 54.4024C115.534 54.5194 115.736 54.5979 115.947 54.6333C116.158 54.6688 116.374 54.6604 116.582 54.6088C116.79 54.5571 116.985 54.4632 117.157 54.3325C117.329 54.2019 117.474 54.0371 117.583 53.8481C117.701 53.6619 117.781 53.4535 117.82 53.235C117.858 53.0165 117.854 52.7923 117.807 52.5756C117.76 52.3588 117.671 52.1538 117.547 51.9726C117.422 51.7914 117.263 51.6376 117.079 51.5202V51.5202Z" fill="#1A1A1A"/>
<path d="M122.113 40.8415C122.149 41.248 122.149 41.6545 122.185 42.0609C122.292 42.102 122.381 42.1805 122.437 42.2826C123.192 43.465 124.199 44.4997 125.026 45.6451C124.99 44.9431 124.954 44.241 124.882 43.5389C124.775 42.5043 124.631 41.5067 124.451 40.509C124.271 39.5113 124.055 38.5137 123.804 37.516C123.339 35.5485 122.726 33.6212 121.97 31.7517C121.61 30.8279 121.214 29.9041 120.783 28.9804C120.603 28.5739 120.387 28.1675 120.207 27.761C120.559 26.8972 120.707 25.9603 120.639 25.0267C120.603 24.7322 120.474 24.4579 120.273 24.2447C120.072 24.0315 119.809 23.891 119.524 23.8442C119.26 23.8479 118.999 23.9129 118.763 24.0345C118.526 24.1561 118.319 24.331 118.158 24.5463C117.856 24.8408 117.633 25.2097 117.51 25.6179C117.429 25.9253 117.416 26.2476 117.472 26.561C117.528 26.8744 117.651 27.1708 117.834 27.4285C118.192 27.9122 118.722 28.2309 119.308 28.3153C119.452 28.6848 119.596 29.0543 119.74 29.4607C120.064 30.3845 120.351 31.3083 120.603 32.232C121.122 34.0994 121.519 36.0005 121.79 37.9224C121.934 38.9201 122.041 39.8808 122.113 40.8415V40.8415Z" fill="#1A1A1A"/>
<path fill-rule="evenodd" clip-rule="evenodd" d="M9.14618 0.0815751C0.630486 0.402903 -0.333594 0.852699 2.0765 3.23052C4.72759 5.86541 10.2709 6.50826 53.3313 7.60077C3.60294 8.3719 -0.976327 9.27161 1.03209 12.2921C3.60286 16.0838 20.0719 15.6982 100.248 15.8267C124.268 15.891 137.604 16.9835 144.433 16.7264C153.913 16.3408 151.583 13.3846 147.646 12.035L149.815 11.7137C155.519 10.8782 152.065 5.60854 144.754 4.06617C138.327 2.71659 101.372 1.30262 65.7835 1.04556C18.7062 0.788496 18.8669 -0.304018 9.14618 0.0815751Z" fill="#FECE2F"/>
</svg>
