<svg width="263" height="440" viewBox="0 0 263 440" fill="none" xmlns="http://www.w3.org/2000/svg">
<path d="M55.5777 13.8916C56.0623 13.3093 56.6641 12.8416 57.3416 12.5205C58.0186 12.1993 58.7556 12.0322 59.5016 12.0308C62.827 12.0308 64.5602 16.182 65.4362 20.1696C65.8144 12.5216 66.6508 7.32717 67.9253 4.75032C69.3389 1.99046 72.0077 0.1287 74.736 0.0058781C77.1655 -0.0960694 79.3166 1.1307 80.8101 3.48229C83.3791 7.55193 83.0207 14.8732 82.3636 19.9449C83.718 17.2457 85.4706 14.8936 87.6212 14.0348C89.3737 13.3396 91.1858 13.6872 93.0183 15.0776C102.259 22.0309 90.7282 51.6427 90.2701 52.7879C90.1703 53.0331 79.6948 58.3504 71.6493 57.594C59.7995 56.4692 52.152 48.9232 52.1322 48.596C50.5588 31.2945 51.953 18.002 55.5777 13.8916Z" fill="#1A1A1A"/>
<path d="M76.9663 38.8818C77.0977 38.8832 77.2254 38.8398 77.3304 38.7583C77.4348 38.6768 77.51 38.562 77.544 38.4318L81.9251 23.1567C81.9507 23.0793 81.9601 22.9975 81.9545 22.9161C81.9483 22.8347 81.9261 22.7554 81.8897 22.6829C81.8528 22.6104 81.8027 22.5463 81.7412 22.4942C81.6798 22.4422 81.6093 22.4033 81.5328 22.38C81.4566 22.3567 81.3767 22.3493 81.2978 22.3584C81.2188 22.3675 81.1422 22.3928 81.0732 22.4328C81.0037 22.4729 80.9432 22.5268 80.8945 22.5915C80.8458 22.6561 80.8108 22.7301 80.7905 22.8091L76.4094 38.0852C76.3848 38.1616 76.3758 38.2425 76.3825 38.3227C76.3895 38.403 76.4122 38.4809 76.4496 38.5518C76.4869 38.6226 76.5375 38.6849 76.5994 38.7348C76.6609 38.7847 76.7318 38.8212 76.8075 38.842C76.8552 38.8719 76.9105 38.8858 76.9663 38.8818Z" fill="white"/>
<path d="M64.36 37.389C64.5084 37.3884 64.6512 37.3317 64.7613 37.2298C64.8715 37.1279 64.9415 36.9879 64.9575 36.8366L66.1924 22.2761C66.1995 22.1967 66.191 22.1167 66.1678 22.0407C66.1442 21.9648 66.1064 21.8943 66.0567 21.8335C66.0066 21.7726 65.9451 21.7225 65.8761 21.6862C65.8071 21.6498 65.7319 21.6279 65.6544 21.6216C65.4988 21.6104 65.3457 21.6618 65.2265 21.765C65.1074 21.8682 65.0322 22.0149 65.0171 22.1741L63.7822 36.7346C63.7752 36.8139 63.7837 36.8939 63.8068 36.9699C63.8305 37.0459 63.8683 37.1163 63.9184 37.1772C63.968 37.2381 64.0295 37.2881 64.0985 37.3245C64.1675 37.3609 64.2427 37.3828 64.3202 37.389H64.36Z" fill="white"/>
<path d="M83.8725 143.625L107.05 439.945H133.158C128.78 434.75 113.998 424.797 113.998 424.797L91.7053 137.085C91.7053 137.085 88.6926 128.913 83.8725 143.625Z" fill="#FECE2F"/>
<path d="M92.1049 137.614L115.189 433.085C115.189 433.085 119.515 435.995 124.256 439.502L124.194 439.945L111.3 436.96L89.2559 135.371C89.7994 135.25 90.3508 135.395 90.8524 135.79C91.354 136.185 91.7865 136.814 92.1049 137.614Z" fill="white"/>
<path d="M84.3967 142.241C84.5227 142.204 84.6519 142.245 84.7642 142.356C84.8759 142.468 84.9645 142.644 85.0151 142.856L91.6775 137.276L91.6576 136.95C91.6363 136.662 91.6794 136.371 91.7765 136.139C91.8735 135.908 92.0175 135.757 92.1761 135.719C92.3352 135.68 92.4958 135.757 92.6232 135.935C92.7501 136.111 92.8334 136.372 92.8547 136.661L114.937 422.915C116.553 423.93 123.556 428.603 133.69 437.88C133.81 437.992 133.907 438.175 133.964 438.398C134.022 438.62 134.038 438.871 134.009 439.111C133.981 439.351 133.908 439.566 133.802 439.718C133.697 439.87 133.565 439.95 133.43 439.945H107.497C107.351 439.946 107.21 439.851 107.1 439.678C106.99 439.504 106.919 439.265 106.898 439.003L95.3882 291.109C95.3683 291.001 95.3479 290.929 95.3281 290.82V290.497L83.8782 143.476C83.8673 143.333 83.8725 143.188 83.8924 143.048C83.9127 142.908 83.9482 142.777 83.9961 142.663C84.0444 142.548 84.1045 142.451 84.1732 142.379C84.2418 142.307 84.3181 142.26 84.3967 142.241ZM85.4939 148.762L86.0522 156.008L92.9745 154.16L92.7349 151.08L85.4939 148.762ZM89.3031 197.6L96.2051 195.752L93.153 156.297L86.2307 158.145L89.3031 197.6ZM92.9333 244.155L99.7955 242.344L96.3647 197.89L89.4826 199.737L92.9333 244.155ZM96.4641 289.407L103.286 287.595L99.9579 244.484L93.0915 246.29L96.4641 289.407ZM99.7557 331.905L106.558 330.202L103.446 289.769L96.6237 291.581L99.7557 331.905ZM113.181 415.847L110.029 374.87L103.247 376.465L106.419 417.26L113.181 415.847ZM109.849 372.733L106.738 332.337L99.9352 334.039L103.067 374.326L109.849 372.733Z" fill="#1A1A1A"/>
<path d="M50.1504 143.625L26.9736 439.945H0.864677C5.24287 434.75 20.0247 424.797 20.0247 424.797L42.318 137.085C42.318 137.085 45.3302 128.913 50.1504 143.625Z" fill="#FECE2F"/>
<path d="M25.6322 430.714H22.2559L47.3016 136.355C48.4643 138.246 49.4593 140.401 50.2559 142.755L25.6322 430.714Z" fill="white"/>
<path d="M0.35125 437.88C6.43546 432.238 12.6943 427.241 19.0967 422.915L41.1713 136.662C41.1954 136.376 41.2797 136.118 41.4061 135.942C41.532 135.765 41.691 135.684 41.8491 135.715C42.0072 135.756 42.1507 135.907 42.2477 136.138C42.3448 136.368 42.3878 136.659 42.3675 136.947L42.3476 137.274L49.0079 142.853C49.0585 142.641 49.1471 142.464 49.2588 142.353C49.371 142.242 49.5002 142.2 49.6261 142.237C49.7833 142.282 49.9253 142.434 50.0223 142.664C50.1194 142.893 50.1639 143.182 50.1468 143.469L38.697 290.499C38.7069 290.607 38.7069 290.718 38.697 290.825C38.6984 290.932 38.6771 291.036 38.6373 291.115L32.0977 375.129C32.1413 375.312 32.155 375.513 32.1375 375.709C32.1238 375.914 32.0741 376.105 31.9955 376.253L27.1103 439.003C27.09 439.265 27.0185 439.505 26.9082 439.678C26.7984 439.851 26.6573 439.946 26.512 439.945H0.590302C0.456337 439.943 0.327103 439.861 0.222015 439.709C0.117401 439.558 0.0435562 439.348 0.0123138 439.112C-0.0151405 438.867 0.00377655 438.613 0.0648422 438.39C0.126381 438.167 0.227226 437.988 0.35125 437.88ZM48.5279 148.762L41.2896 151.044L41.0501 154.124L47.9693 155.972L48.5279 148.762ZM47.7899 158.146L40.8707 156.298L37.8198 195.752L44.7192 197.6L47.7899 158.146ZM44.5597 199.737L37.6802 197.89L34.2501 242.344L41.1102 244.155L44.5597 199.737ZM40.9303 246.293L34.0707 244.481L30.7406 287.595L37.5604 289.406L40.9303 246.293ZM37.3995 291.583L30.5796 289.772L27.4691 330.204L34.2691 331.907L37.3995 291.583ZM34.0892 334.044L27.2897 332.342L24.1787 372.738L30.9617 374.333L34.0892 334.044ZM24.0192 374.913L20.9485 414.801L27.7082 416.214L30.8007 376.505L24.0192 374.913Z" fill="#1A1A1A"/>
<path d="M213.365 132.85C210.976 129.681 206.097 120.989 210.179 108.617C214.261 96.2443 224.817 91.5411 228.601 90.9275L235.272 90.0483C235.272 90.0483 232.861 82.7474 235.233 80.6818C235.611 80.6614 238.658 82.461 239.952 83.729C239.952 83.729 238.718 75.9786 240.948 75.2218L245.091 77.8394C245.091 77.8394 244.394 68.9845 246.923 69.6186C250.763 73.0454 253.822 77.2971 255.885 82.0726C259.111 89.7823 265.444 105.018 260.864 122.932C256.284 140.847 240.749 144.302 240.749 144.302C240.749 144.302 228.999 146.552 220.535 140.008C212.071 133.464 213.365 132.85 213.365 132.85Z" fill="white"/>
<path d="M232.983 127.227C224.953 127.227 218.445 120.543 218.445 112.298C218.445 104.053 224.953 97.3696 232.983 97.3696C241.012 97.3696 247.521 104.053 247.521 112.298C247.521 120.543 241.012 127.227 232.983 127.227Z" fill="white"/>
<path d="M242.741 128.045C247.819 126.613 253.396 127.431 256.084 132.441C258.773 137.452 258.474 148.188 258.374 160.867C258.274 173.547 256.381 190.213 254.69 190.011C252.999 189.808 252.001 184.796 252.001 184.796C252.001 184.796 249.711 187.045 246.325 184.387C242.939 181.728 240.351 168.538 240.351 168.538L235.472 150.541C235.472 150.541 230.891 139.499 235.173 133.568C238.857 128.454 242.741 128.045 242.741 128.045Z" fill="#FECE2F"/>
<path d="M232.983 96.756C235.976 96.756 238.902 97.6677 241.391 99.3751C243.881 101.083 245.82 103.51 246.966 106.35C248.112 109.19 248.411 112.315 247.827 115.33C247.243 118.345 245.802 121.115 243.685 123.288C241.568 125.461 238.871 126.942 235.935 127.542C232.999 128.141 229.956 127.833 227.19 126.657C224.425 125.481 222.061 123.489 220.398 120.933C218.735 118.377 217.847 115.372 217.847 112.298C217.852 108.177 219.448 104.227 222.286 101.314C225.123 98.4003 228.97 96.7613 232.983 96.756ZM222.629 121.889C222.745 119.059 223.644 116.32 225.219 113.995C226.795 111.669 228.983 109.852 231.527 108.756C234.071 107.66 236.866 107.33 239.586 107.806C242.306 108.28 244.838 109.541 246.886 111.439C246.754 109.155 246.091 106.936 244.952 104.97C243.813 103.002 242.231 101.345 240.34 100.135C238.449 98.925 236.303 98.1978 234.082 98.0153C231.86 97.8323 229.629 98.1988 227.574 99.0838C225.519 99.9693 223.701 101.347 222.271 103.102C220.842 104.858 219.843 106.94 219.358 109.173C218.874 111.406 218.917 113.726 219.486 115.939C220.054 118.151 221.131 120.192 222.625 121.889H222.629Z" fill="#1A1A1A"/>
<path d="M238.598 165.039C236.746 158.291 234.894 150.642 233.839 145.223C226.836 144.843 220.247 141.699 215.45 136.448C210.651 131.197 208.016 124.245 208.093 117.044C208.17 109.845 210.954 102.953 215.863 97.8118C220.773 92.6702 227.427 89.6764 234.436 89.455C232.545 83.361 234.655 80.4366 234.755 80.3137C234.827 80.2205 234.923 80.1496 235.032 80.1098C235.141 80.07 235.259 80.0627 235.372 80.089C236.86 80.5356 238.211 81.3662 239.296 82.5022C238.398 76.3057 240.372 74.8537 240.611 74.6901C240.699 74.6319 240.801 74.5989 240.907 74.5955C241.012 74.5916 241.116 74.6173 241.208 74.6697C242.352 75.2921 243.445 76.0101 244.474 76.8169C244.255 74.4867 244.474 72.5449 245.112 71.0501C245.408 70.269 245.92 69.5942 246.585 69.1083C246.702 69.0383 246.837 69.0107 246.971 69.0291C247.104 69.0476 247.228 69.1112 247.322 69.2102C257.379 79.6797 260.943 92.2382 262.178 100.928C263.512 110.335 262.477 117.165 262.437 117.434C261.681 123.61 259.828 129.029 257.04 133.406C258.115 135.777 258.733 138.763 258.852 142.342C259.111 149.398 259.031 159.009 258.653 167.516C258.673 167.537 258.437 173.278 258.135 176.289C257.857 179.745 257.538 182.629 257.18 184.858C256.522 188.866 255.805 190.523 254.73 190.604H254.63C253.993 190.604 253.216 190.093 251.882 186.023C250.667 186.351 247.64 186.862 245.868 184.776C244.355 182.977 242.502 178.028 240.849 172.772L238.598 165.039ZM261.262 117.247C261.282 117.186 262.318 110.314 261.003 101.091C259.828 92.7066 256.403 80.6205 246.883 70.4773C246.266 71.1928 245.111 73.2381 245.827 77.9621C248.964 80.7647 251.321 84.3703 252.658 88.4122C252.68 88.4899 252.686 88.5715 252.677 88.6521C252.667 88.7322 252.642 88.8098 252.604 88.8802C252.565 88.9506 252.513 89.0123 252.45 89.0618C252.388 89.1113 252.317 89.1477 252.241 89.1686C252.189 89.1841 252.135 89.1909 252.081 89.189C251.951 89.1866 251.825 89.1419 251.721 89.0608C251.617 88.9802 251.541 88.8676 251.504 88.7394C249.629 83.3197 245.908 78.7797 241.028 75.9577C240.59 76.5917 239.654 78.6981 240.809 84.1994C241.796 85.463 242.644 86.835 243.338 88.2894C243.372 88.3617 243.392 88.4404 243.396 88.521C243.401 88.6016 243.39 88.6817 243.364 88.7579C243.312 88.9113 243.202 89.037 243.059 89.1074C242.917 89.1778 242.753 89.1875 242.603 89.1336C242.454 89.0798 242.331 88.9676 242.263 88.821C242.243 88.7598 239.395 82.7474 235.472 81.3774C235.213 81.9347 235.032 82.5265 234.934 83.1357C234.715 84.4649 234.695 86.6942 235.79 89.8026V89.8434C235.79 89.8638 235.81 89.8847 235.81 89.905V90.1502C235.81 90.1706 235.79 90.191 235.79 90.2119C235.79 90.2327 235.77 90.2526 235.77 90.273C235.768 90.2886 235.761 90.3026 235.751 90.3138C235.751 90.3342 235.731 90.3546 235.711 90.3755C235.691 90.3963 235.691 90.4162 235.671 90.4162L235.631 90.457L235.591 90.4978C235.571 90.5182 235.551 90.5182 235.551 90.5391C235.536 90.5415 235.522 90.5483 235.511 90.5595C235.503 90.5672 235.494 90.573 235.484 90.5764C235.473 90.5803 235.463 90.5813 235.452 90.5798H235.432C235.421 90.5784 235.41 90.5794 235.4 90.5832C235.39 90.5866 235.38 90.5925 235.372 90.6002C235.352 90.6002 235.352 90.6002 235.332 90.6206C235.292 90.6206 235.253 90.641 235.213 90.641C229.725 90.6386 224.378 92.4207 219.937 95.7316C215.497 99.0429 212.191 103.713 210.495 109.072C208.799 114.431 208.799 120.204 210.495 125.563C212.192 130.922 215.497 135.593 219.938 138.903C226.888 142.544 233.201 135.284 234.874 133.116C237.005 129.742 240.49 128.126 242.482 127.451C245.449 126.429 249.81 126.225 253.236 128.658C254.502 129.575 255.561 130.761 256.343 132.135C258.892 128.024 260.545 122.973 261.262 117.247ZM234.555 142.666C235.392 147.493 240.729 168.056 240.729 168.056C240.729 168.056 244.194 180.018 246.421 183.44C247.77 185.513 250.534 184.882 251.502 184.64C250.32 180.194 246.973 165.714 246.973 165.714C246.973 165.714 244.136 151.133 244.136 151.072C244.121 150.992 244.121 150.911 244.137 150.832C244.153 150.753 244.184 150.677 244.229 150.61C244.273 150.543 244.33 150.486 244.396 150.442C244.462 150.398 244.536 150.367 244.613 150.352C244.69 150.338 244.77 150.338 244.847 150.355C244.924 150.372 244.997 150.405 245.062 150.451C245.127 150.496 245.182 150.555 245.225 150.623C245.268 150.691 245.297 150.767 245.311 150.847C245.331 150.949 247.004 160.313 249.015 169.743C250.21 175.285 251.284 179.744 252.201 183.035C253.635 188.107 254.412 189.152 254.651 189.355C255.288 188.802 256.483 184.528 257.24 171.563C257.797 162.115 257.957 150.642 257.658 142.381C257.439 136.164 255.726 131.889 252.599 129.662C250.916 128.509 248.927 127.915 246.904 127.962C245.551 127.965 244.207 128.186 242.92 128.617C239.116 129.947 232.962 133.503 234.555 142.666Z" fill="#1A1A1A"/>
<path d="M67.3872 44.035C75.7883 44.0381 84.0442 46.2861 91.3427 50.5577C98.6412 54.8298 104.732 60.9782 109.015 68.3995C113.299 75.8208 115.628 84.2586 115.774 92.8839C115.919 101.509 113.877 110.025 109.847 117.594C111.44 117.74 113.113 117.819 114.885 117.86C125.54 118.085 151.529 109.046 151.529 109.046C151.529 109.046 169.951 103.116 187.175 100.253C204.4 97.3895 215.654 103.32 215.654 103.32C215.654 103.32 218.143 106.49 217.646 109.762C217.148 113.034 214.061 115.692 214.061 116.306C196.238 109.251 172.14 116.817 161.286 119.885C150.432 122.953 139.279 127.758 122.152 130.826C113.489 132.379 106.479 131.685 100.664 129.824C94.9248 135.4 87.943 139.448 80.3292 141.615C72.7153 143.782 64.701 144.001 56.985 142.255C49.2695 140.508 42.0877 136.848 36.067 131.594C30.0469 126.341 25.3703 119.653 22.4467 112.116C19.5231 104.578 18.441 96.4205 19.2952 88.355C20.1495 80.2895 22.9138 72.5614 27.3469 65.8459C31.78 59.13 37.7473 53.6312 44.7267 49.829C51.7066 46.0271 59.4864 44.0379 67.3872 44.035Z" fill="white"/>
<path d="M32.7548 58.146C41.0513 49.6446 52.0407 44.4793 63.7294 43.5866C75.4175 42.694 87.0301 46.1335 96.4603 53.2807C105.89 60.4282 112.513 70.8103 115.126 82.5425C117.739 94.2752 116.17 106.581 110.703 117.227C112.082 117.309 113.466 117.309 114.845 117.227C123.508 116.818 135.418 113.198 148.004 109.354C170.526 102.502 195.819 94.8112 213.167 101.623C213.127 101.664 213.087 101.725 213.047 101.768C212.765 102.171 212.512 102.595 212.29 103.036C210.139 106.206 209.024 111.726 208.666 113.753C208.565 113.926 208.51 114.123 208.506 114.325C208.51 114.469 208.503 114.612 208.487 114.755C208.467 114.816 208.467 114.856 208.447 114.918C208.447 114.959 208.427 114.979 208.427 115.02C191.937 111.073 169.512 117.904 149.339 124.039C136.274 128.027 123.946 131.769 114.885 132.035C114.367 132.055 113.85 132.055 113.352 132.055C109.13 132.082 104.925 131.532 100.845 130.419L100.785 130.481C100.606 130.644 100.447 130.808 100.265 130.971C100.214 131.015 100.167 131.063 100.126 131.117C90.6306 139.862 78.1879 144.459 65.4431 143.929C52.6988 143.399 40.658 137.785 31.8821 128.281C23.1061 118.776 18.2868 106.131 18.4494 93.0349C18.612 79.938 23.7439 67.4233 32.7529 58.1519L32.7548 58.146ZM33.5911 128.433C41.4068 136.457 51.688 141.453 62.686 142.571C73.6834 143.69 84.7192 140.862 93.9159 134.568C92.5813 131.644 90.1517 130.253 86.8244 128.331C84.6199 127.112 82.4915 125.752 80.4515 124.261C77.0859 121.725 75.0346 117.635 74.5368 112.462C74.3051 110.103 74.385 107.723 74.7732 105.386C74.7732 105.365 74.7731 105.365 74.793 105.345C74.793 105.324 74.793 105.324 74.8133 105.304C74.8133 105.284 74.8332 105.263 74.8332 105.243C74.8332 105.222 74.8332 105.222 74.853 105.202C74.8729 105.181 74.8928 105.14 74.9126 105.12C74.9126 105.1 74.9325 105.1 74.9325 105.079L74.9925 105.018L75.0322 104.977C75.0521 104.977 75.0521 104.956 75.0719 104.956C75.08 104.949 75.0894 104.943 75.0998 104.939C75.1102 104.936 75.1211 104.935 75.132 104.936C75.1518 104.936 75.1518 104.916 75.1717 104.916C75.1915 104.916 75.1916 104.895 75.2114 104.895H75.2511C75.3986 104.867 75.5504 104.895 75.679 104.974C75.8071 105.053 75.9031 105.178 75.9485 105.324C77.6197 110.192 80.2501 114.655 83.6753 118.432C87.0069 122.172 91.0547 125.166 95.5649 127.226C101.221 129.823 107.715 131.029 114.863 130.845C123.765 130.602 136.013 126.858 148.996 122.911C163.495 118.493 179.148 113.728 193.029 112.829C205.655 109.434 204.64 102.051 204.341 100.681C188.09 98.4725 167.239 104.812 148.339 110.559C135.673 114.404 123.724 118.044 114.901 118.472C114.205 118.513 113.507 118.513 112.83 118.513C100.762 118.513 93.8312 113.196 90.1073 108.574C87.5359 105.418 85.6907 101.706 84.7102 97.7152C84.6951 97.6356 84.6955 97.5541 84.7116 97.4749C84.7277 97.3958 84.7584 97.3205 84.8029 97.2535C84.8473 97.1866 84.904 97.1293 84.9702 97.0851C85.0359 97.0409 85.1097 97.0103 85.1872 96.9953C85.2647 96.9807 85.3442 96.9817 85.4212 96.9987C85.4983 97.0152 85.5716 97.0477 85.6363 97.0938C85.7011 97.1395 85.7564 97.1982 85.7994 97.2662C85.842 97.3341 85.8713 97.4104 85.885 97.49C86.823 101.278 88.5788 104.801 91.023 107.797C93.3939 110.74 96.3922 113.084 99.7857 114.648C102.834 116.025 106.085 116.868 109.405 117.143C113.539 109.304 115.519 100.459 115.133 91.5542C114.747 82.6493 112.01 74.0197 107.214 66.5897C104.247 70.4958 100.961 74.811 100.603 75.097C99.945 75.6494 93.7717 77.7146 93.7717 77.7146C93.7717 77.7146 92.3378 67.5305 96.1213 61.9273C97.7944 59.4325 99.0094 57.5305 96.7387 55.0153C87.542 47.676 76.0525 44.0374 64.4277 44.783C52.8033 45.5285 41.8437 50.6068 33.6077 59.0641C33.289 59.3913 32.9704 59.7389 32.6517 60.0869L43.3835 79.2894C43.3835 79.2894 38.4847 81.7231 33.2866 79.6982C28.2479 77.8578 25.1811 81.6823 24.6634 83.7276C24.2252 85.4267 22.6915 89.1876 19.7443 89.8628C19.6445 91.1508 19.585 92.4596 19.585 93.7684C19.5736 100.21 20.8052 106.59 23.2092 112.54C25.6132 118.49 29.1419 123.892 33.5911 128.433Z" fill="#1A1A1A"/>
<path d="M40.7005 118.29H40.7407C40.899 118.278 41.0465 118.203 41.151 118.081C41.2555 117.958 41.3085 117.798 41.2981 117.635C41.1742 116.71 41.2011 115.77 41.378 114.854C41.4574 114.463 41.6276 114.097 41.8734 113.787C42.1197 113.478 42.4346 113.233 42.792 113.075C42.9362 113.018 43.0539 112.907 43.1201 112.764C43.1863 112.62 43.1957 112.456 43.147 112.306C43.0984 112.155 42.9948 112.03 42.8582 111.956C42.7215 111.882 42.5622 111.866 42.4138 111.91C41.8654 112.131 41.3789 112.487 40.9969 112.947C40.6144 113.407 40.3487 113.957 40.223 114.548C40.0126 115.598 39.979 116.676 40.1237 117.738C40.1289 117.89 40.1927 118.033 40.301 118.137C40.4088 118.24 40.5525 118.295 40.7005 118.29Z" fill="#1A1A1A"/>
<path d="M38.3708 114.159C38.4607 114.158 38.5491 114.137 38.6299 114.098C38.7722 114.027 38.8819 113.901 38.9339 113.748C38.9864 113.594 38.9769 113.426 38.9084 113.28C38.7888 112.999 38.7287 112.695 38.732 112.388C38.7353 112.081 38.8025 111.779 38.9282 111.5C39.0407 111.214 39.2105 110.955 39.4265 110.74C39.6426 110.525 39.9002 110.359 40.1829 110.253C40.2581 110.228 40.3281 110.188 40.3886 110.135C40.4486 110.083 40.4983 110.018 40.5337 109.946C40.5697 109.873 40.5909 109.794 40.5971 109.713C40.6028 109.632 40.5928 109.551 40.5678 109.474C40.5427 109.396 40.503 109.326 40.451 109.264C40.399 109.203 40.3356 109.153 40.2647 109.117C40.1938 109.081 40.1167 109.06 40.0378 109.055C39.9588 109.05 39.8794 109.061 39.8047 109.088C39.3627 109.251 38.9585 109.506 38.6157 109.836C38.2734 110.166 38.0007 110.565 37.8139 111.007C37.6277 111.45 37.5312 111.927 37.5307 112.409C37.5307 112.892 37.6267 113.369 37.813 113.812C37.8688 113.914 37.9496 114 38.0475 114.061C38.1453 114.121 38.2564 114.155 38.3708 114.159Z" fill="#1A1A1A"/>
<path d="M36.2796 109.414C36.3605 109.411 36.4408 109.397 36.5183 109.374C36.5911 109.344 36.6569 109.299 36.7127 109.243C36.7684 109.186 36.8124 109.118 36.8422 109.044C36.8715 108.97 36.8866 108.89 36.8857 108.81C36.8847 108.729 36.8682 108.65 36.837 108.576C36.7084 108.18 36.7363 107.748 36.915 107.373C37.0942 106.998 37.409 106.71 37.7929 106.572C37.9428 106.525 38.0686 106.421 38.1442 106.28C38.2198 106.139 38.2387 105.974 38.1971 105.819C38.1555 105.664 38.0567 105.532 37.9215 105.451C37.7868 105.37 37.626 105.347 37.4743 105.386C37.1206 105.497 36.793 105.682 36.5122 105.929C36.2309 106.176 36.0021 106.479 35.8395 106.821C35.6773 107.162 35.5846 107.534 35.5676 107.913C35.5511 108.292 35.6102 108.672 35.7416 109.027C35.7794 109.142 35.8522 109.241 35.9487 109.311C36.0456 109.38 36.1614 109.417 36.2796 109.414Z" fill="#1A1A1A"/>
<path d="M43.8871 78.3506C46.277 76.4281 46.0382 71.1317 45.0426 67.4509C44.0469 63.7701 36.937 48.1663 36.937 48.1663C36.937 48.1663 29.6281 35.9574 28.5724 34.403C27.5167 32.8485 24.5894 28.8201 20.4673 31.2334C20.4673 31.2334 15.8867 24.9961 11.1066 26.8365C11.1066 26.8365 7.38217 23.0941 4.27564 25.8141C1.1691 28.5342 3.33954 34.8734 3.33954 34.8734C3.33954 34.8734 7.06352 41.8878 10.5686 46.5915C14.0935 51.2952 26.3017 66.6329 29.1298 69.6996C31.9579 72.7663 40.3225 81.2138 43.8871 78.3506Z" fill="white"/>
<path d="M2.88155 26.4093C3.33682 25.6473 3.98452 25.0263 4.75607 24.6121C5.52763 24.198 6.39372 24.0062 7.26313 24.0573C7.72077 24.0573 8.7169 24.098 10.8675 26.2045C11.6641 25.8161 13.8549 25.0593 16.7028 26.6953C17.6191 27.2065 18.8936 28.6177 20.3474 30.5198C21.0839 29.9061 23.1154 28.6997 26.1822 30.7241C30.1851 33.3621 40.6016 53.7511 43.449 60.9292C45.6195 66.43 48.6069 76.0621 44.2054 78.8637C43.554 79.2778 42.8004 79.4909 42.0345 79.4773C38.9275 79.4773 34.606 76.3704 28.7111 69.9681C21.8418 62.522 7.24282 43.9346 3.81764 37.307C1.68689 33.1966 1.30819 29.0041 2.88155 26.4093ZM4.87331 36.757C8.25878 43.301 22.7571 61.7268 29.5682 69.1297C36.359 76.4917 41.0592 79.4162 43.5483 77.8195C46.1774 76.1427 45.7192 70.0074 42.3139 61.3982C40.7604 57.4717 37.3972 50.5796 34.1285 44.6084C30.2253 37.4721 27.0786 32.7883 25.5242 31.7655C22.975 30.0887 21.4815 31.1111 21.0433 31.4795C26.5997 39.0042 34.2074 52.4409 34.6253 53.1972C34.7015 53.339 34.7213 53.5055 34.6807 53.6618C34.6395 53.8181 34.5417 53.9526 34.4065 54.0361C34.3162 54.0915 34.2126 54.1196 34.1077 54.1177C34.0027 54.1172 33.8997 54.089 33.8089 54.0351C33.7181 53.9813 33.6425 53.9041 33.59 53.8109C29.8655 47.226 19.4898 29.7003 16.0844 27.7575C14.0728 26.6123 12.5198 26.8574 11.7232 27.1234C14.0648 29.8071 16.2022 32.6718 18.1159 35.6919C21.8002 41.316 24.9266 46.9804 24.9668 47.042C25.0419 47.1828 25.0609 47.3484 25.0188 47.5031C24.9767 47.6579 24.8769 47.7895 24.7417 47.8698C24.6061 47.9501 24.4453 47.9727 24.2935 47.9326C24.1423 47.8926 24.0118 47.7931 23.9309 47.6557C19.191 39.046 10.4486 25.3442 7.20216 25.2627C6.54313 25.2092 5.88314 25.3454 5.29549 25.656C4.70785 25.9666 4.21664 26.4393 3.87625 27.021C2.58276 29.2498 2.96145 33.0534 4.87331 36.7551V36.757Z" fill="#1A1A1A"/>
<path d="M132.948 28.7589C136.971 28.5545 137.708 32.6033 137.648 34.8529C137.588 37.1026 135.915 42.215 130.14 50.048C124.365 57.8809 113.272 71.5205 113.272 71.5205C113.272 71.5205 103.374 82.5027 99.2714 82.8318C95.1688 83.161 94.4918 80.5205 94.4322 78.4758C94.3726 76.431 95.886 67.9849 98.7538 61.9112C101.602 55.8376 108.114 43.3626 108.114 43.3626C108.114 43.3626 113.551 34.2214 116.341 34.3646C119.13 34.5078 119.706 35.2869 119.706 35.2869C119.706 35.2869 123.152 28.9274 129.345 30.9717C129.344 30.9882 130.976 28.8613 132.948 28.7589Z" fill="white"/>
<path d="M106.063 58.2072C106.168 58.2067 106.271 58.1785 106.361 58.1247C106.452 58.0708 106.528 57.9936 106.58 57.9004C110.304 51.3136 120.681 33.7883 124.086 31.8465C126.974 30.1901 128.945 31.4372 129.025 31.4989C129.09 31.5426 129.163 31.5726 129.239 31.5871C129.316 31.6015 129.395 31.6001 129.471 31.583C129.547 31.5658 129.619 31.5333 129.682 31.4873C129.746 31.4413 129.8 31.3827 129.841 31.3149C129.926 31.1812 129.957 31.0189 129.927 30.8624C129.897 30.7058 129.809 30.5673 129.682 30.476C129.582 30.3945 127.073 28.7381 123.508 30.7828C119.127 33.2985 106.102 56.3046 105.565 57.2863C105.489 57.428 105.469 57.5945 105.51 57.7508C105.551 57.9072 105.649 58.0416 105.784 58.1251C105.866 58.1829 105.963 58.2115 106.063 58.2072Z" fill="#1A1A1A"/>
<path d="M98.156 83.5859C101.263 83.5859 105.565 80.4789 111.479 74.0766C118.35 66.633 132.948 48.0436 136.373 41.4175C138.524 37.2867 138.883 33.0942 137.329 30.4975C136.874 29.7355 136.226 29.1144 135.455 28.7003C134.684 28.2861 133.817 28.0944 132.948 28.1454C129.642 28.2071 123.946 36.9391 122.054 39.8019C118.37 45.426 115.244 51.0908 115.203 51.152C115.128 51.2928 115.109 51.4583 115.151 51.6132C115.194 51.7681 115.293 51.8996 115.428 51.9797C115.564 52.0598 115.725 52.0826 115.877 52.0424C116.028 52.0025 116.158 51.903 116.239 51.7656C120.981 43.1579 129.722 29.4542 132.968 29.3707C133.627 29.3172 134.287 29.4534 134.875 29.7641C135.462 30.0747 135.954 30.5474 136.294 31.1291C137.608 33.3175 137.23 37.1415 135.298 40.8432C131.912 47.3872 117.414 65.813 110.603 73.2159C103.812 80.5779 99.1119 83.5024 96.6228 81.9057C93.9938 80.2289 94.4519 74.0936 97.8572 65.4844C99.4107 61.5579 102.776 54.6658 106.043 48.6946C109.946 41.5583 113.093 36.8745 114.647 35.8516C117.654 33.868 119.186 35.6269 119.247 35.706C119.351 35.8264 119.498 35.9001 119.654 35.9115C119.811 35.9229 119.965 35.871 120.085 35.7668C120.204 35.6627 120.28 35.5146 120.294 35.3543C120.309 35.1939 120.262 35.0341 120.163 34.9089C120.143 34.888 117.913 32.2296 114.01 34.8268C110.007 37.4648 99.5904 57.8538 96.7429 65.0319C94.5725 70.5327 91.5851 80.1648 95.9865 82.9664C96.6389 83.3771 97.3906 83.5917 98.156 83.5859Z" fill="#1A1A1A"/>
</svg>