<svg width="145" height="12" viewBox="0 0 145 12" fill="none" xmlns="http://www.w3.org/2000/svg">
<path fill-rule="evenodd" clip-rule="evenodd" d="M8.09577 0.445828C-0.0273711 0.653659 -0.947009 0.944581 1.35199 2.48253C3.88086 4.18674 9.16863 4.60253 50.2441 5.30915C2.80806 5.8079 -1.56011 6.38983 0.355719 8.34343C2.80798 10.7958 18.5178 10.5464 94.9976 10.6296C117.911 10.6711 130.632 11.3778 137.146 11.2115C146.189 10.9621 143.966 9.05006 140.211 8.17717L142.28 7.96934C147.721 7.42898 144.426 4.0206 137.452 3.02301C131.322 2.15012 96.0705 1.23558 62.1222 1.06932C17.2151 0.903056 17.3684 0.196431 8.09577 0.445828Z" fill="#FECE2F"/>
</svg>
